<svg width="197" height="231" viewBox="0 0 197 231" fill="none" xmlns="http://www.w3.org/2000/svg">
<path d="M190.186 202.339L170.578 151.438L166.349 163.513L130.833 86.2498L112.533 48.1886L79.0833 33.5818L41.0499 47.0479C41.0499 47.0479 31.4442 72.7837 30.2895 78.9395C29.1349 85.0952 33.3639 105.468 33.3639 105.468L44.1243 131.204L50.9617 168.25C50.9617 168.25 48.3533 188.484 48.722 198.855C49.0906 209.225 53.9596 230.684 53.9596 230.684H196.334L190.186 202.339Z" fill="#FF725E"/>
<g opacity="0.5">
<path d="M143.353 216.752C143.562 196.469 139.229 181.347 133.553 166.226C133.205 165.402 132.674 164.669 132 164.081C131.326 163.493 130.528 163.066 129.665 162.832C126.458 161.941 123.662 164.974 121.485 167.478C119.308 169.982 115.58 172.403 112.957 170.365C110.043 168.097 112.178 163.485 114.453 160.571C118.849 154.951 123.273 149.205 125.867 142.556C128.461 135.906 131.098 128.123 127.801 121.793C120.769 131.003 110.634 139.022 93.5234 144.434C78.993 149.129 62.3621 147.953 50.002 144.434C59.0443 149.588 67.4328 157.197 75.0422 164.292C77.9914 167.074 81.0589 171.018 79.4869 174.726C78.3114 177.508 75.0005 178.711 71.9957 179.031C68.9908 179.351 65.833 179.143 63.0786 180.422C58.2444 182.62 56.3177 188.581 56.3524 193.895C56.415 206.137 60.6997 221.961 69.6794 230.76H142.867C143.736 226.225 143.298 219.596 143.353 216.752Z" fill="white"/>
</g>
<path d="M127.043 128.318C127.043 128.318 126.952 128.387 126.757 128.492L125.916 128.923C125.547 129.104 125.095 129.333 124.587 129.618C124.079 129.904 123.481 130.203 122.855 130.585C121.582 131.322 120.115 132.275 118.536 133.416C115.133 135.908 112.066 138.828 109.41 142.104C108.327 143.443 107.312 144.836 106.37 146.277C105.953 146.882 105.626 147.466 105.32 147.96C105.014 148.454 104.764 148.892 104.562 149.254L104.089 150.075C103.978 150.263 103.915 150.36 103.901 150.353C103.931 150.247 103.973 150.144 104.026 150.047L104.437 149.185C104.618 148.816 104.847 148.364 105.132 147.856C105.417 147.348 105.737 146.757 106.141 146.138C107.058 144.668 108.059 143.251 109.139 141.895C110.468 140.241 111.902 138.672 113.43 137.2C114.967 135.748 116.593 134.394 118.299 133.145C119.707 132.133 121.172 131.204 122.688 130.363C123.321 129.987 123.926 129.702 124.448 129.437C124.97 129.173 125.436 128.958 125.839 128.798L126.716 128.429C126.82 128.38 126.93 128.343 127.043 128.318Z" fill="#263238"/>
<path d="M140.05 77.2355C136.535 67.08 129.195 58.6973 119.593 53.8716C119.593 53.8716 117.02 49.9973 108.812 42.353C100.604 34.7088 85.5662 29.4225 74.5485 28.3653C74.1103 28.3235 73.6651 28.2957 73.206 28.2818C62.1535 27.9966 45.4531 36.0721 45.4531 36.0721C34.8318 39.0143 20.9762 59.0813 18.3261 66.9968C15.676 74.9124 17.3453 89.7348 17.3453 89.7348C17.3453 89.7348 11.5861 102.867 15.1961 115.672C21.5744 138.229 60.5259 156.321 98.6219 141.777C136.718 127.233 145.725 94.1308 140.05 77.2355Z" fill="#FF725E"/>
<g opacity="0.5">
<path d="M98.3297 142.876C113.201 137.311 128.475 124.45 134.937 112.591C137.233 103.903 139.806 94.1099 139.806 94.1099L129.06 60.4237C127.55 59.0296 125.941 57.7464 124.246 56.5842C120.532 57.1615 117.061 59.756 114.891 62.9486C112.018 67.1777 110.843 72.2831 109.361 77.1729C107.88 82.0627 105.884 87.0777 101.912 90.2982C97.655 93.776 90.5742 92.9552 85.107 92.4962C85.6357 97.4903 87.3815 104.077 87.8893 109.071L77.741 112.153C74.3443 107.531 71.7788 102.353 70.1594 96.8504C68.024 99.4031 65.8678 101.977 63.2037 103.938C60.5397 105.9 57.2149 107.207 53.911 106.873C49.2855 106.407 45.6199 102.937 41.5509 100.669C38.5758 99.0335 35.3049 98.0067 31.9289 97.6485C28.5529 97.2902 25.1393 97.6077 21.8873 98.5823C19.0121 99.4553 16.3153 100.833 13.9231 102.651C13.8074 107.027 14.2302 111.4 15.1821 115.672C17.693 127.879 30.9226 138.689 46.2737 143.356C60.4284 147.661 79.946 149.72 98.3297 142.876Z" fill="white"/>
</g>
<path d="M87.472 106.303C84.8461 106.335 82.2501 106.864 79.8208 107.861C77.3778 108.875 75.357 110.697 74.0963 113.022C73.467 114.144 73.2458 115.449 73.4703 116.716C74.0267 119.129 76.6003 120.402 78.8818 121.355C81.1632 122.308 83.8203 123.337 86.3104 122.711C88.1815 122.245 89.7117 120.917 91.0333 119.512C92.8139 117.62 94.4346 115.338 94.5528 112.751C94.6711 110.163 93.4608 106.254 87.472 106.303Z" fill="#263238"/>
<path d="M86.6372 120.903C86.8053 121.263 86.9449 121.635 87.0546 122.016C87.4142 123.044 87.6865 124.1 87.8684 125.174C88.168 126.787 88.0089 128.453 87.4093 129.98C87.0417 130.891 86.4422 131.689 85.6704 132.296C84.833 132.927 83.8622 133.358 82.8325 133.555C80.8698 133.923 78.851 133.864 76.9132 133.381C75.3359 132.995 73.8322 132.354 72.4616 131.483C71.536 130.893 70.6858 130.192 69.9298 129.396C69.7232 129.186 69.5282 128.966 69.3455 128.735C69.2731 128.661 69.2121 128.577 69.1647 128.485C70.2024 129.538 71.3549 130.471 72.6007 131.267C73.9612 132.089 75.4423 132.692 76.9898 133.055C78.8805 133.506 80.8448 133.555 82.756 133.201C83.7323 133.012 84.6543 132.608 85.4548 132.018C86.1806 131.447 86.7481 130.7 87.1032 129.848C87.6911 128.376 87.8667 126.772 87.611 125.209C87.4505 124.144 87.2181 123.091 86.9154 122.058C86.7927 121.681 86.6997 121.295 86.6372 120.903Z" fill="#263238"/>
<path d="M87.3468 123.567C87.3468 123.497 87.7433 123.72 88.3484 124.144C89.192 124.756 90.0673 125.322 90.9707 125.841C92.3174 126.583 93.8169 127.004 95.3527 127.073C97.2266 127.235 99.0972 126.727 100.632 125.64C102.118 124.485 103.248 122.935 103.894 121.167C104.428 119.72 104.769 118.21 104.91 116.674C105.049 115.359 105.091 114.288 105.132 113.551C105.134 113.164 105.164 112.778 105.223 112.396C105.273 112.779 105.289 113.165 105.271 113.551C105.271 114.295 105.271 115.373 105.167 116.702C105.057 118.269 104.735 119.813 104.207 121.293C103.555 123.129 102.389 124.74 100.848 125.932C99.2369 127.074 97.2697 127.6 95.304 127.413C93.7233 127.328 92.1855 126.868 90.8177 126.071C89.9152 125.528 89.0507 124.923 88.2302 124.263C87.953 124.009 87.6578 123.777 87.3468 123.567Z" fill="#263238"/>
<path d="M58.7661 88.7748C58.1968 88.0967 57.4902 87.5471 56.6929 87.1622C55.8955 86.7773 55.0256 86.5659 54.1406 86.542C53.0341 86.5368 51.968 86.9577 51.1636 87.7175C50.2561 88.2809 49.5183 89.0797 49.0284 90.0288C48.5385 90.978 48.3149 92.0421 48.3813 93.1081C48.5011 94.3319 48.9956 95.4889 49.7973 96.4213C50.599 97.3537 51.6688 98.016 52.8607 98.3179C54.0656 98.5717 55.3191 98.4527 56.4547 97.9768C57.5903 97.501 58.5542 96.6908 59.2182 95.6539C59.8398 94.5937 60.129 93.3713 60.0484 92.1449C59.9678 90.9186 59.5211 89.7446 58.7661 88.7748Z" fill="#263238"/>
<path d="M100.597 78.4735C100.053 77.8302 99.3706 77.3175 98.6013 76.9732C97.832 76.6288 96.9952 76.4617 96.1526 76.4842C95.0367 76.5138 93.9479 76.8351 92.9948 77.4162C92.0857 77.978 91.3466 78.7763 90.8565 79.7259C90.3664 80.6755 90.1438 81.7405 90.2125 82.8068C90.3317 84.03 90.8261 85.1865 91.628 86.1179C92.4299 87.0492 93.5 87.71 94.6919 88.0097C95.895 88.2635 97.1469 88.1453 98.2812 87.6707C99.4156 87.1961 100.379 86.3876 101.042 85.3526C101.665 84.293 101.955 83.0711 101.876 81.8447C101.797 80.6183 101.351 79.444 100.597 78.4735Z" fill="#263238"/>
<g opacity="0.5">
<path d="M53.9597 61.4114L52.5686 60.7159C47.8875 59.3874 43.0811 64.0268 40.2571 67.6715C39.3277 68.7205 38.7575 70.0389 38.6295 71.4345C38.6295 73.3125 40.0206 74.9123 41.6343 75.9C44.8757 77.7989 48.9864 77.5902 52.5547 76.4078C54.0362 75.9139 55.5526 75.1906 56.3803 73.862C56.9525 72.8159 57.2199 71.6303 57.1524 70.4399C57.1174 67.1599 55.9945 63.9843 53.9597 61.4114Z" fill="white"/>
</g>
<g opacity="0.5">
<path d="M85.7609 52.9882L87.1521 52.2926C91.8332 50.9641 96.6396 55.6035 99.4635 59.29C100.399 60.3322 100.971 61.6506 101.091 63.046C101.091 64.931 99.7 66.5656 98.0863 67.5115C94.852 69.4174 90.7342 69.2087 87.1729 68.0193C85.6844 67.5254 84.1681 66.802 83.3404 65.4805C82.7665 64.4327 82.5012 63.2437 82.5753 62.0513C82.5968 58.7596 83.7181 55.5694 85.7609 52.9882Z" fill="white"/>
</g>
<path d="M65.5897 120.18C65.3135 119.933 65.0619 119.661 64.8385 119.366C64.1772 118.603 63.5683 117.797 63.0161 116.952C62.1541 115.703 61.5815 114.277 61.3398 112.779C61.223 111.882 61.2725 110.972 61.4859 110.094C61.7222 109.168 62.0412 108.264 62.4388 107.395C63.8167 104.355 65.5067 101.467 67.4816 98.777L69.2205 96.3217C69.4268 96.008 69.6595 95.7125 69.9161 95.4384C69.7606 95.7748 69.5743 96.0961 69.3596 96.3982C68.984 97.0034 68.4137 97.8589 67.7111 98.9231C65.8299 101.64 64.2002 104.522 62.8422 107.534C62.4507 108.383 62.1364 109.265 61.9032 110.17C61.6942 111.007 61.6376 111.874 61.7363 112.73C61.9637 114.186 62.4971 115.578 63.3013 116.813C63.8299 117.664 64.401 118.488 65.0124 119.282C65.2276 119.566 65.4206 119.866 65.5897 120.18Z" fill="#263238"/>
<path d="M105.738 105.107C105.697 104.723 105.683 104.337 105.696 103.952C105.699 102.906 105.588 101.864 105.362 100.843C105.199 100.149 104.914 99.4893 104.52 98.8952C104.057 98.2266 103.439 97.68 102.719 97.3024C101.911 96.8777 101.06 96.5419 100.18 96.3008L97.3421 95.4174C93.4539 94.2071 89.9413 93.1012 87.4025 92.2804L84.3977 91.2857C84.0253 91.1791 83.6624 91.0418 83.3126 90.8754C83.6948 90.939 84.0715 91.032 84.4394 91.1536L87.479 92.03C90.0318 92.7882 93.5652 93.8663 97.4534 95.0696L100.291 95.953C101.19 96.2116 102.06 96.5636 102.886 97.0033C103.644 97.4142 104.291 98.0039 104.771 98.7213C105.174 99.3485 105.459 100.044 105.612 100.773C105.817 101.817 105.892 102.883 105.835 103.945C105.835 104.321 105.8 104.641 105.779 104.807C105.758 104.974 105.738 105.114 105.738 105.107Z" fill="#263238"/>
<path d="M15.0151 26.1116C10.6261 24.9709 5.27726 24.797 2.2446 28.1496C-0.788053 31.5023 -0.203779 36.5312 0.853477 40.8367C3.83134 52.7082 9.37259 63.7835 17.0879 73.2847L39.9094 38.91C32.1051 33.735 24.0992 28.4696 15.0151 26.1116Z" fill="#FF725E"/>
<g opacity="0.5">
<path d="M13.7145 31.3422C11.0505 30.3962 7.59352 30.0554 5.84766 32.2812C4.26873 34.2983 5.04775 37.2336 6.04937 39.5985C9.59674 47.9452 14.4587 57.1197 21.4144 62.9138C24.7878 55.9581 28.7178 49.6981 33.6285 44.6483C27.9527 39.5289 20.9205 33.8949 13.7145 31.3422Z" fill="white"/>
</g>
<path d="M26.1373 54.5044C25.8937 54.3114 25.6721 54.0922 25.4765 53.8506L23.7724 52.0074C22.2769 50.3937 20.2946 48.2792 18.1105 45.9351C15.9265 43.5911 13.9371 41.3931 12.546 39.7863C11.8505 38.9795 11.294 38.3256 10.9254 37.8596C10.7162 37.6318 10.532 37.3823 10.3759 37.1154C10.617 37.3062 10.8362 37.5232 11.0297 37.7622L12.7338 39.6124L18.3957 45.6847C20.6145 48.0566 22.5691 50.2267 23.9602 51.8335C24.6558 52.6334 25.2053 53.2942 25.5809 53.7602C25.7897 53.99 25.976 54.2392 26.1373 54.5044Z" fill="#263238"/>
<path d="M105.084 9.21633C103.261 5.16816 100.535 0.820881 96.1527 0.0974951C91.7707 -0.625891 87.6042 2.79628 84.8707 6.38539C79.2018 13.8627 76.1692 22.9537 73.2339 31.8639L110.405 44.4327C109.389 31.6135 110.085 20.3314 105.084 9.21633Z" fill="#FF725E"/>
<g opacity="0.5">
<path d="M89.1205 9.71019C90.6299 7.31746 93.1339 4.91081 95.8814 5.57855C98.3715 6.18369 99.5748 8.9729 100.25 11.4421C102.621 20.1784 104.472 30.0415 102.601 38.896C96.7091 35.4182 89.83 32.9281 82.4292 30.911C83.6812 23.378 85.0445 16.1789 89.1205 9.71019Z" fill="white"/>
</g>
<path d="M93.7738 34.6463C93.7298 34.3516 93.7182 34.0531 93.7391 33.7559C93.7391 33.1856 93.739 32.3648 93.8156 31.3423C93.906 29.3043 94.1077 26.4734 94.372 23.3851C94.6363 20.2968 94.8589 17.5563 95.0328 15.4487C95.1093 14.4888 95.1719 13.682 95.2206 13.0421C95.2295 12.7447 95.2667 12.4489 95.3319 12.1587C95.3643 12.4546 95.3643 12.7531 95.3319 13.049C95.3319 13.6194 95.3319 14.4401 95.2554 15.4626C95.165 17.5076 94.9632 20.3316 94.6989 23.4199C94.4346 26.5082 94.212 29.2487 94.0381 31.3562C93.9616 32.3161 93.899 33.123 93.8503 33.7629C93.8573 34.0593 93.8316 34.3555 93.7738 34.6463Z" fill="#263238"/>
<path d="M127.042 122.906C126.917 123.179 126.763 123.437 126.583 123.678C126.082 124.381 125.524 125.042 124.914 125.653C124.142 126.46 123.147 127.406 121.944 128.436C121.346 128.957 120.692 129.507 119.989 130.077L117.805 131.914C114.164 134.884 110.222 137.465 106.043 139.613C100.921 142.244 95.4977 144.241 89.8925 145.561C84.2857 146.867 78.5523 147.553 72.7955 147.605C68.0981 147.645 63.4061 147.275 58.773 146.5C55.6506 145.973 52.5687 145.229 49.5498 144.274C48.4925 143.919 47.6648 143.641 47.1223 143.418L46.4963 143.168L46.2876 143.077C46.3635 143.088 46.4381 143.107 46.5102 143.133L47.1431 143.349C47.6996 143.55 48.5343 143.808 49.5915 144.142C52.6177 145.035 55.6985 145.732 58.8147 146.228C63.435 146.967 68.1098 147.312 72.7886 147.258C78.5206 147.177 84.2272 146.477 89.809 145.171C95.3852 143.859 100.784 141.883 105.89 139.287C110.055 137.156 113.994 134.609 117.645 131.684L121.819 128.248C123.029 127.219 124.038 126.293 124.824 125.507C125.437 124.907 126.009 124.266 126.535 123.588C126.883 123.17 127.029 122.892 127.042 122.906Z" fill="#263238"/>
<g opacity="0.5">
<path d="M87.465 108.077C85.5613 107.99 83.6672 108.392 81.9627 109.245C80.2583 110.097 78.8002 111.371 77.7271 112.946C77.581 113.113 77.4771 113.312 77.4238 113.528C77.3706 113.743 77.3696 113.968 77.421 114.184C77.5138 114.366 77.6604 114.515 77.8408 114.611C78.0213 114.707 78.2268 114.745 78.4296 114.719C78.8341 114.667 79.223 114.53 79.5703 114.316L86.9016 110.497C87.3976 110.298 87.8202 109.951 88.1118 109.503C88.3553 109.03 88.1675 108.306 87.6458 108.209" fill="white"/>
</g>
<path d="M105.285 40.4681C104.953 40.334 104.634 40.1686 104.332 39.9743C103.741 39.6334 102.872 39.1466 101.787 38.5831C96.159 35.5313 90.198 33.139 84.0219 31.4536C82.8394 31.1267 81.8796 30.8763 81.2396 30.7094C80.8874 30.644 80.5426 30.5438 80.2102 30.4103C80.5664 30.435 80.92 30.4885 81.2675 30.5703C81.963 30.6955 82.9229 30.9041 84.1193 31.2032C90.3489 32.7758 96.3349 35.1908 101.912 38.3814C102.983 38.9935 103.832 39.5152 104.409 39.8978C104.717 40.0626 105.01 40.2534 105.285 40.4681Z" fill="#263238"/>
<path d="M96.4031 129.605C96.1039 129.968 95.7495 130.283 95.3528 130.537C94.4518 131.217 93.5008 131.828 92.508 132.366C91.5159 132.904 90.4861 133.369 89.4266 133.757C88.9947 133.945 88.5378 134.069 88.0703 134.126C88.0355 134.021 90.0387 133.305 92.3341 132.039C94.6294 130.773 96.3335 129.5 96.4031 129.605Z" fill="#263238"/>
<path d="M36.3482 42.4503C36.119 42.7598 35.8605 43.0463 35.5761 43.3059C35.0544 43.8414 34.3171 44.6205 33.4268 45.6082C28.7797 50.728 24.8764 56.4764 21.8318 62.6842C21.2475 63.8737 20.7884 64.8475 20.4824 65.5221C20.3428 65.8814 20.1729 66.2281 19.9746 66.5585C20.0719 66.1869 20.1999 65.824 20.3572 65.4735C20.6215 64.7779 21.0527 63.7832 21.6022 62.573C24.5353 56.272 28.4646 50.4849 33.239 45.4343C34.1571 44.4674 34.9223 43.7093 35.4718 43.2085C35.7447 42.9343 36.0376 42.6809 36.3482 42.4503Z" fill="#263238"/>
<path d="M181.296 216.522C181.296 216.522 181.157 216.522 180.893 216.432L179.725 216.119C178.709 215.833 177.22 215.423 175.349 214.727C170.157 212.942 165.137 210.689 160.353 207.994L160.534 207.751C164.27 211.414 167.569 215.499 170.362 219.923L170.696 220.466L170.133 220.174C166.672 218.417 163.408 216.297 160.395 213.851C157.53 211.526 154.902 208.923 152.549 206.082L152.848 205.894L158.273 218.769L158.489 219.283L158.037 218.963C153.107 215.461 148.875 211.069 145.558 206.012C144.288 204.109 143.192 202.095 142.282 199.995L142.345 200.093C142.387 200.176 142.435 200.274 142.505 200.399L143.117 201.574C143.673 202.604 144.508 204.099 145.711 205.908C149.052 210.914 153.284 215.264 158.197 218.741L157.96 218.929C156.298 215.013 154.483 210.686 152.507 206.068L152.034 204.955L152.806 205.887C157.619 211.7 163.57 216.467 170.293 219.895L170.063 220.146C167.29 215.74 164.023 211.666 160.325 208.001L159.504 207.194L160.506 207.765C165.267 210.467 170.252 212.754 175.405 214.602C177.269 215.263 178.744 215.729 179.752 216.049L180.9 216.404L181.296 216.522Z" fill="#263238"/>
<path d="M127.995 116.027C127.432 120.896 125.909 127.608 125.672 132.456L128.392 128.318C129.206 140.963 131.174 156.592 132.976 169.133" fill="#FF725E"/>
<path d="M133.003 169.147C132.98 169.097 132.966 169.043 132.962 168.987C132.962 168.862 132.906 168.709 132.878 168.521C132.802 168.083 132.704 167.478 132.586 166.72C132.343 165.155 132.009 162.887 131.619 160.077C130.847 154.464 129.846 146.694 129.025 138.083C128.705 134.682 128.441 131.399 128.246 128.345L128.566 128.429C127.606 129.869 126.695 131.253 125.832 132.561L125.505 133.047L125.54 132.463C125.689 130.203 125.961 127.953 126.354 125.723C126.702 123.741 127.008 122.002 127.258 120.555C127.508 119.108 127.703 117.995 127.821 117.223C127.877 116.862 127.926 116.57 127.961 116.34C127.973 116.239 127.994 116.139 128.023 116.041C128.04 116.142 128.04 116.246 128.023 116.347C128.023 116.549 127.981 116.848 127.933 117.237C127.849 118.016 127.689 119.15 127.46 120.59C127.23 122.03 126.952 123.776 126.632 125.765C126.261 127.987 126.007 130.228 125.874 132.477L125.582 132.38L128.288 128.241L128.573 127.81L128.607 128.325C128.809 131.371 129.08 134.647 129.4 138.062C130.221 146.667 131.181 154.436 131.891 160.056C132.245 162.838 132.53 165.113 132.739 166.713C132.83 167.478 132.906 168.104 132.962 168.528L133.01 169.001C133.013 169.05 133.011 169.099 133.003 169.147Z" fill="#263238"/>
<g opacity="0.3">
<path d="M142.602 200.385C140.613 195.3 139.82 190.452 137.817 185.361C138.478 195.064 142.894 204.071 147.492 212.641C148.915 215.528 150.668 218.24 152.716 220.723C154.844 223.13 157.585 225.098 160.77 225.71C161.338 225.877 161.948 225.82 162.474 225.55C163.483 224.889 163.08 223.331 162.474 222.281C161.869 221.231 160.763 216.89 160.763 216.89C165.911 220.494 173.284 224.799 179.509 225.453C177.853 222.805 176.203 220.153 174.556 217.496C176.371 218.444 178.362 219.006 180.405 219.145C182.448 219.284 184.497 218.997 186.423 218.302C178.528 215.249 169.138 211.764 161.25 208.711C164.681 212.112 167.687 215.916 170.202 220.041C164.165 217.259 156.597 212.175 152.66 205.984C154.976 211.159 157.432 216.758 157.926 218.873C150.713 213.308 145.475 208.085 142.275 199.578" fill="black"/>
</g>
<path d="M121.77 82.0001C121.772 85.9094 122.201 89.8069 123.05 93.6229C127.126 111.93 134.214 167.353 134.791 168.048C135.487 168.883 179.885 170.364 179.885 170.364L172.623 161.051L178.994 163.137C178.994 163.137 177.826 161.336 172.623 156.704C165.667 150.513 155.825 74.8636 155.825 74.8636C157.091 64.5345 158.357 54.1775 158.259 43.7789C158.162 33.3802 156.653 22.912 152.556 13.2645C151.33 10.1149 149.546 7.21208 147.29 4.69517C144.946 2.23983 142.095 2.34416 138.798 1.29386C132.885 -0.584161 129.108 2.11462 126.069 5.53679C123.982 7.86693 123.829 10.6005 122.591 13.4453C121.253 14.483 120.254 15.8943 119.718 17.5005C117.924 22.2651 116.505 27.2384 116.303 32.2951C116.101 37.3519 117.291 42.6173 120.476 46.6446L117.451 44.9752L122.967 51.0266L121.575 53.6767C120.725 55.2275 120.382 57.0056 120.595 58.7613L122.876 56.3407C121.485 59.2412 121.318 62.0235 120.852 66.4055C120.636 68.367 120.525 70.3424 120.497 72.3109L120.4 79.1761L121.728 78.0632L121.77 82.0001Z" fill="#FF725E"/>
<g opacity="0.5">
<path d="M138.916 87.9749C143.548 87.8706 148.514 89.9085 151.241 93.5394C152.73 95.5287 153.23 98.0327 153.696 100.453C155.922 112.111 158.15 123.766 160.381 135.419C162.607 147.077 164.832 158.748 166.307 170.517C167.044 176.381 167.531 182.599 164.916 187.948C163.921 189.993 162.335 191.955 160.096 192.588C157.612 193.283 154.886 192.149 153.084 190.348C151.283 188.546 150.226 186.175 149.252 183.858C144.432 172.093 140.48 159.99 137.427 147.647C132.44 128.109 132.83 118.03 130.875 97.9979C130.931 98.0049 130.666 88.1557 138.916 87.9749Z" fill="white"/>
</g>
<path d="M134.951 6.0098C133.636 4.81343 131.432 4.93168 129.957 5.94024C128.546 7.02689 127.577 8.58896 127.23 10.3362C126.854 11.699 126.83 13.135 127.161 14.5096C127.334 15.2061 127.651 15.8589 128.09 16.4265C128.53 16.9941 129.083 17.4641 129.714 17.8065C130.359 18.1464 131.086 18.2997 131.813 18.2493C132.54 18.1989 133.239 17.9468 133.831 17.5214C134.861 16.7006 135.285 15.3721 135.563 14.1062C136.106 11.63 136.871 7.64437 134.951 5.97502" fill="#263238"/>
<path d="M123.391 18.2865C123.168 18.2865 120.393 18.7733 119.391 22.3833C118.39 25.9933 117.959 30.5075 120.817 30.8553C123.676 31.2031 126.25 31.057 126.604 27.3149C126.959 23.5727 125.679 18.2099 123.391 18.2865Z" fill="#263238"/>
<path d="M143.764 7.31042C143.597 7.31042 140.933 6.77483 139.716 9.15366C138.499 11.5325 136.76 15.6641 138.109 18.2864C139.458 20.9087 142.623 23.9483 145.113 20.3035C147.604 16.6588 147.979 12.8402 147.478 10.9552C146.978 9.0702 143.764 7.31042 143.764 7.31042Z" fill="#263238"/>
<path d="M150.831 23.7744C150.469 23.8301 143.82 27.2523 142.644 30.5075C141.468 33.7627 142.324 34.3192 144.967 35.9885C146.195 36.7652 147.68 37.0255 149.098 36.7129C150.517 36.4003 151.754 35.5399 152.542 34.3192C154.329 31.8221 155.331 23.0093 150.831 23.7744Z" fill="#263238"/>
<g opacity="0.5">
<path d="M139.82 44.0431C139.326 43.1389 138.325 42.7703 137.406 42.4712L131.564 40.5653C130.395 40.1828 128.997 39.8698 128.086 40.7531L126.695 41.1357C126.77 43.3039 127.061 45.4593 127.564 47.5696C128.048 49.6335 129.176 51.4899 130.785 52.8698C131.55 53.5104 132.492 53.9033 133.486 53.9965C134.48 54.0897 135.478 53.8787 136.349 53.3915C138.151 52.2716 138.992 49.9137 139.702 47.7713C140.043 46.5611 140.425 45.1491 139.82 44.0431Z" fill="white"/>
</g>
<path d="M132.663 29.9301C131.522 31.356 129.63 31.9542 127.863 32.5385C126.097 33.1228 124.226 33.8531 123.266 35.4042C122.889 36.1073 122.669 36.8839 122.623 37.6801C122.576 38.4764 122.703 39.2734 122.994 40.0158C123.306 41.1262 124.01 42.0854 124.977 42.7146C126.82 43.7718 129.199 42.8954 131.299 43.3058C134.346 43.904 136.287 47.0827 139.319 47.7783C141.921 48.3765 144.703 46.8462 146.08 44.6135C146.462 44.0578 146.723 43.429 146.849 42.7669C146.975 42.1048 146.962 41.4238 146.811 40.767C146.317 39.1046 144.724 38.0404 143.152 37.1918C141.58 36.3432 139.924 35.4668 139.118 33.9296C138.754 33.0497 138.477 32.1365 138.29 31.203C138.189 30.7324 137.994 30.2873 137.715 29.895C137.436 29.5027 137.08 29.1714 136.669 28.9216C135.375 28.2886 133.797 29.0259 132.774 30.0205" fill="#263238"/>
<g opacity="0.3">
<path d="M141.169 78.8492C139.945 77.4163 138.672 76.0252 137.351 74.6758L131.272 78.0284C132.109 79.6661 133.328 81.0784 134.826 82.1461C135.589 82.677 136.458 83.0354 137.373 83.1964C138.289 83.3574 139.228 83.317 140.126 83.0782C141.183 82.7513 142.213 81.9027 142.178 80.8315C142.082 80.0739 141.725 79.3732 141.169 78.8492Z" fill="black"/>
</g>
<path d="M136.864 74.509C136.232 74.2527 135.549 74.1433 134.869 74.1891C134.188 74.2349 133.526 74.4346 132.934 74.7733C132.358 75.1141 131.897 75.6194 131.611 76.2244C131.324 76.8293 131.226 77.5061 131.327 78.1676C131.621 79.2663 132.329 80.2085 133.303 80.7968C134.201 81.3931 135.21 81.8042 136.269 82.0061C137.328 82.2079 138.417 82.1964 139.472 81.9724C140.571 81.7359 141.74 81.1099 141.928 80.0387C141.929 79.132 141.628 78.2507 141.072 77.5347C139.959 76.1746 138.508 75.1311 136.864 74.509Z" fill="#263238"/>
<path d="M140.3 69.32C140.3 69.32 140.21 69.2713 140.071 69.153C139.931 69.0348 139.709 68.8609 139.452 68.6175C138.708 67.9345 138.011 67.2025 137.365 66.4264C135.241 63.8581 133.643 60.8966 132.663 57.711L133.018 57.6623C133.018 58.6292 132.969 59.5751 132.941 60.4863C132.941 60.9454 132.941 61.3906 132.899 61.8288V62.4826C132.909 62.7202 132.869 62.9571 132.781 63.1781C132.731 63.3017 132.653 63.4115 132.552 63.4981C132.491 63.5424 132.422 63.5739 132.349 63.5906C132.276 63.6073 132.201 63.609 132.127 63.5955C132.01 63.5616 131.9 63.504 131.806 63.4262C131.711 63.3485 131.634 63.2522 131.578 63.1434C131.362 62.8025 131.153 62.4478 130.98 62.1348C130.652 61.5176 130.373 60.8758 130.145 60.215C129.819 59.2564 129.614 58.2611 129.533 57.2519C129.518 56.9786 129.518 56.7046 129.533 56.4312C129.516 56.3368 129.516 56.2404 129.533 56.146C129.656 57.5019 129.944 58.8378 130.388 60.1246C130.626 60.7689 130.912 61.3944 131.244 61.9957C131.425 62.3156 131.626 62.6356 131.842 62.9695C132.058 63.3034 132.343 63.4077 132.475 63.0529C132.566 62.654 132.601 62.2443 132.579 61.8357C132.579 61.3975 132.579 60.9454 132.579 60.4933C132.579 59.5751 132.621 58.6292 132.649 57.6623V56.5494L132.976 57.6136C133.945 60.7596 135.49 63.6983 137.532 66.2804C138.311 67.2681 139.006 68.0193 139.493 68.534C139.782 68.775 140.052 69.0377 140.3 69.32Z" fill="#263238"/>
<path d="M140.884 26.4525C140.572 26.1343 140.29 25.7873 140.043 25.4161L137.907 22.5295L138.164 22.453C138.164 23.4685 138.116 24.6023 138.088 25.8125V26.2368L137.803 25.9238C137.046 25.0868 136.477 24.0979 136.133 23.0233H136.467C136.245 23.5311 136.008 24.0597 135.772 24.6023L135.132 26.0282L135.014 26.2925L134.833 26.0699C134.442 25.5902 134.187 25.0151 134.093 24.4037C133.999 23.7924 134.069 23.167 134.297 22.5921L134.555 22.7868C133.402 23.686 132.157 24.4601 130.84 25.0961L130.52 25.2561L130.666 24.9361C131.069 24.0524 131.624 23.247 132.308 22.5573C132.489 22.369 132.685 22.1947 132.892 22.0356C133.031 21.9243 133.108 21.8757 133.122 21.8826C133.136 21.8896 132.85 22.1539 132.426 22.6547C131.798 23.3607 131.288 24.1641 130.917 25.0335L130.743 24.8735C132.02 24.2057 133.231 23.4185 134.36 22.5225L134.861 22.1261L134.624 22.7173C134.427 23.2333 134.368 23.7922 134.455 24.338C134.542 24.8837 134.77 25.397 135.118 25.8265L134.819 25.8682L135.452 24.4423L136.147 22.8634L136.342 22.4321L136.481 22.8773C136.81 23.9038 137.347 24.8511 138.06 25.6595L137.768 25.7639C137.817 24.5466 137.858 23.4198 137.9 22.4043V21.98L138.137 22.3208L140.175 25.2839C140.439 25.6561 140.676 26.0466 140.884 26.4525Z" fill="#263238"/>
<path d="M134.784 2.03121C134.577 1.87866 134.326 1.79639 134.068 1.79639C133.81 1.79639 133.559 1.87866 133.351 2.03121C133.15 2.14878 132.975 2.30733 132.838 2.49663C132.702 2.68593 132.606 2.90177 132.558 3.13021C132.528 3.2422 132.529 3.36024 132.561 3.47172C132.593 3.5832 132.655 3.68394 132.739 3.76317C132.862 3.86239 133.004 3.93573 133.155 3.97877C133.307 4.0218 133.466 4.03364 133.623 4.01357C133.866 4.00728 134.105 3.94653 134.321 3.83578C134.538 3.72504 134.727 3.56712 134.875 3.37365C135.023 3.17626 135.096 2.93206 135.079 2.68561C135.063 2.43917 134.958 2.20691 134.784 2.03121Z" fill="#E0E0E0"/>
<path d="M145.872 5.62034C145.655 5.07029 145.264 4.60623 144.759 4.29877C144.703 4.25601 144.639 4.2258 144.57 4.21019C144.502 4.19458 144.431 4.19395 144.362 4.20835C144.251 4.25008 144 4.33355 143.938 4.43093C143.843 4.57089 143.779 4.72983 143.752 4.89677C143.724 5.0637 143.733 5.23463 143.778 5.39776C143.911 5.72232 144.145 5.99518 144.446 6.17567C144.747 6.35616 145.098 6.43462 145.447 6.39938C145.613 6.38975 145.768 6.31469 145.878 6.1907C145.926 6.10276 145.95 6.00435 145.948 5.90463C145.947 5.80491 145.921 5.7071 145.872 5.62034Z" fill="#E0E0E0"/>
<g opacity="0.3">
<path d="M128.886 133.548C127.45 144.888 128.868 156.407 133.01 167.061C132.211 155.521 130.228 144.684 129.254 132.825" fill="black"/>
</g>
<g opacity="0.3">
<path d="M139.382 68.7218C136.657 65.5389 134.457 61.9417 132.864 58.0658C132.989 59.537 132.912 61.0184 132.635 62.4687C132.593 62.7678 132.635 63.3799 132.322 63.4355C132.009 63.4912 131.626 62.9695 131.494 62.7399C130.403 61.0886 129.714 59.2041 129.484 57.238L129.338 57.878C129.181 59.0494 129.28 60.2408 129.627 61.3706C129.974 62.5004 130.561 63.5417 131.348 64.4232C131.503 64.63 131.702 64.7998 131.93 64.9201C132.159 65.0404 132.412 65.1083 132.67 65.1188C132.917 65.0786 133.146 64.967 133.331 64.7976C133.515 64.6283 133.645 64.4086 133.706 64.1659C133.807 63.6818 133.807 63.1822 133.706 62.6982C134.138 64.0646 134.873 65.3159 135.855 66.3589C136.838 67.4018 138.044 68.2095 139.382 68.7218Z" fill="black"/>
</g>
<path d="M150.1 128.992C149.99 128.926 149.887 128.846 149.794 128.756C149.607 128.596 149.314 128.359 148.974 128.026C147.978 127.094 147.049 126.094 146.191 125.035C143.293 121.479 141.187 117.346 140.015 112.911L140.37 112.848C140.418 113.44 140.467 114.073 140.523 114.706C140.708 117.44 140.749 120.182 140.648 122.92V123.414L140.37 123.011C138.552 120.471 137.189 117.635 136.342 114.629C136.103 113.776 135.912 112.91 135.772 112.035C135.723 111.729 135.702 111.492 135.681 111.339C135.674 111.258 135.674 111.177 135.681 111.096C135.775 111.399 135.847 111.708 135.897 112.021C136.022 112.626 136.224 113.502 136.551 114.58C137.441 117.53 138.809 120.315 140.599 122.823L140.293 122.913C140.37 120.402 140.335 117.634 140.14 114.74C140.084 114.107 140.036 113.481 139.994 112.89L140.342 112.828C141.503 117.218 143.553 121.323 146.365 124.889C147.199 125.957 148.095 126.974 149.05 127.935C149.377 128.283 149.655 128.533 149.829 128.714C149.928 128.798 150.019 128.891 150.1 128.992Z" fill="#263238"/>
<path d="M179.398 184.86C179.48 185.155 179.531 185.458 179.551 185.764C179.627 186.356 179.69 187.204 179.738 188.254C179.966 193.768 179.166 199.275 177.38 204.496C177.04 205.491 176.727 206.29 176.49 206.826C176.387 207.116 176.252 207.394 176.087 207.654C176.149 207.354 176.24 207.06 176.358 206.777C176.553 206.221 176.824 205.386 177.137 204.412C177.952 201.805 178.561 199.137 178.959 196.434C179.345 193.728 179.522 190.995 179.488 188.261C179.488 187.218 179.439 186.363 179.404 185.778C179.374 185.473 179.371 185.166 179.398 184.86Z" fill="#263238"/>
</svg>
