<svg width="276" height="215" fill="none" xmlns="http://www.w3.org/2000/svg"><path d="M79.413 44.842a3.75 3.75 0 0 0-1.747-1.456 3.622 3.622 0 0 0-2.184-.28 2.965 2.965 0 0 0-1.852 1.351 2.912 2.912 0 0 0-.414 1.34 2.912 2.912 0 0 0-1.165-.495 2.952 2.952 0 0 0-2.254.53 3.646 3.646 0 0 0-1.234 1.828 3.752 3.752 0 0 0-.035 2.249 4.618 4.618 0 0 0 1.677 2.33c.87.55 1.858.883 2.883.972 1.683.198 3.873.408 3.873.408s.973-1.748 1.934-3.163a6.406 6.406 0 0 0 1.165-2.813 4.566 4.566 0 0 0-.647-2.801Z" fill="#FFA6A6"/><path d="M203.34 90.27a3.73 3.73 0 0 0-1.072-1.98 3.596 3.596 0 0 0-1.933-1.06 2.911 2.911 0 0 0-3.116 1.66 2.87 2.87 0 0 0-.909-.885 2.912 2.912 0 0 0-2.289-.326 3.585 3.585 0 0 0-1.817 1.246 3.735 3.735 0 0 0-.85 2.085 4.56 4.56 0 0 0 .71 2.772 6.515 6.515 0 0 0 2.33 1.963c1.491.798 3.46 1.788 3.46 1.788s1.549-1.287 2.953-2.236a6.471 6.471 0 0 0 2.114-2.196 4.57 4.57 0 0 0 .419-2.83Z" fill="#F58787"/><path d="M152.041 5.65a4.881 4.881 0 0 0-.839-2.772 4.662 4.662 0 0 0-2.149-1.817 3.735 3.735 0 0 0-4.351 1.293 3.725 3.725 0 0 0-.92-1.351 3.8 3.8 0 0 0-2.801-.996 4.62 4.62 0 0 0-2.604 1.112 4.826 4.826 0 0 0-1.607 2.406 5.876 5.876 0 0 0 .192 3.675 8.32 8.32 0 0 0 2.429 3.063 298.55 298.55 0 0 0 3.902 3.14s2.283-1.23 4.298-2.068a8.296 8.296 0 0 0 3.209-2.23 5.827 5.827 0 0 0 1.241-3.454Z" fill="#FFC2C2"/><path d="M259.777 81.15a5.352 5.352 0 0 0-.868-3.087A5.173 5.173 0 0 0 256.544 76a4.125 4.125 0 0 0-4.846 1.345 4.113 4.113 0 0 0-4.077-2.679 5.09 5.09 0 0 0-2.912 1.165 5.349 5.349 0 0 0-1.828 2.633 6.444 6.444 0 0 0 .134 4.077 9.167 9.167 0 0 0 2.626 3.448c1.835 1.572 4.264 3.558 4.264 3.558s2.551-1.316 4.799-2.201a9.243 9.243 0 0 0 3.611-2.4 6.467 6.467 0 0 0 1.462-3.797Z" fill="#F5F5F5"/><path d="M176.677 200.546s-.047.046-.157.128l-.472.343c-.414.303-1.048.723-1.881 1.241a44.1 44.1 0 0 1-7.461 3.605 60.022 60.022 0 0 1-11.899 3.064 99.672 99.672 0 0 1-15.015 1.095c-5.02.067-10.041-.147-15.038-.641a51.303 51.303 0 0 1-11.992-2.679 32.954 32.954 0 0 1-7.391-3.763 33.773 33.773 0 0 1-1.793-1.374l-.437-.39-.146-.134c.059.03.113.067.163.11l.46.367c.402.321 1.008.769 1.817 1.322a34.269 34.269 0 0 0 7.386 3.652 52.226 52.226 0 0 0 11.951 2.598c4.988.477 9.998.683 15.009.617 5.009.015 10.012-.341 14.968-1.066a60.854 60.854 0 0 0 11.87-2.993 45.564 45.564 0 0 0 7.472-3.495 74.674 74.674 0 0 0 1.91-1.165l.49-.32.186-.122Z" fill="#fff"/><path d="M275.595 148.78a4.652 4.652 0 0 0-2.036.71 4.648 4.648 0 0 0-1.499 1.55c3.914-6.098 4.909-14.351 2.603-21.474-.454-1.38-1.13-2.848-2.376-3.39a2.05 2.05 0 0 0-2.365.74c.332-2.081.344-4.2.035-6.284-.14-.932-.396-1.94-1.101-2.493-.972-.769-2.411-.262-3.156.74-.746 1.002-.985 2.329-1.165 3.622-3.862-9.901-12.813-17.228-22.511-18.474-1.927-.25-4.077-.215-5.55 1.107-1.474 1.322-1.777 4.327-.088 5.416-1.828-.67-3.744-1.281-5.643-1.031-1.899.251-3.786 1.584-4.217 3.623-.582 2.644 1.433 5.154 3.495 6.709 2.813 2.109 6.028 3.454 9.015 5.242 2.988 1.788 5.865 4.205 7.252 7.612 1.747 4.345.728 9.436-1.235 13.6-3.664 7.787-10.548 13.623-18.37 15.562l6.372 14.077c8.061 5.498 29.89 1.019 36.238-6.482 1.002-1.165 1.934-2.65 1.835-4.281-.099-1.631-1.747-3.192-3.064-2.475 4.339-2.93 9.418-11.928 7.531-13.926Z" fill="#FFCF47"/><path d="M226.514 113.124c-.582 2.645 1.433 5.155 3.495 6.71 2.813 2.108 6.028 3.454 9.016 5.242a24.059 24.059 0 0 1 3.553 2.574c1.217-1.066 1.677-3.064 1.386-4.817-.332-2.015-1.427-3.78-2.493-5.474a16.624 16.624 0 0 0 5.073 4.321c.716.39 1.543.728 2.289.431 1.205-.489 1.398-2.33.92-3.669-.478-1.34-1.398-2.452-1.747-3.821a15.784 15.784 0 0 0 3.494 2.674 4.793 4.793 0 0 0 4.112.279c1.491-.693 2.429-2.417 2.615-4.187.026-.264.038-.528.035-.793-4.415-4.659-10.175-7.816-16.226-8.59-1.928-.251-4.077-.216-5.551 1.106-1.473 1.322-1.776 4.328-.087 5.417-1.829-.67-3.745-1.281-5.644-1.031-1.898.25-3.826 1.59-4.24 3.628Z" fill="#fff" opacity=".6"/><path d="m224.185 142.356-17.263-9.319s-10.536-5.934-15.848-11.095c-9.429-9.161-11.648-17.117-11.648-17.117l-50.904 23.367-10.337 3.279c1.292 5.41 1.485 15.643 4.956 26.11.961 2.912 3.797 5.591 3.925 4.618.099-.809 0 .536 0 .536 1.8 4.752 3.879 10.92 10.047 15.213 4.619 6.989 14.491 10.984 18.527 13.29 5.97 3.408 28.626 10.094 28.626 10.094l17.618 1.345 44.159-35.044s-2.638-15.306-21.858-25.277Z" fill="#FFCF47"/><path d="M164.295 180.825c3.017 2.644 4.176 6.82 4.589 10.804.414 3.983.227 8.06 1.229 11.939-1.986-.582-4.188 1.014-4.624 3.041-.437 2.026.623 4.164 2.259 5.434a10.299 10.299 0 0 0 5.825 1.887c3.494.192 7.262-.781 9.662-3.361 2.201-2.365 2.97-5.679 3.844-8.795 1.491-5.334 3.494-10.518 5.032-15.841 1.538-5.324 2.568-10.892 2.033-16.407l1.502.524c1.858.542.082-5.684-1.776-8.486" fill="#FFCF47"/><path d="M193.858 161.564c.149.199.285.408.408.623.363.63.686 1.281.967 1.952a19.74 19.74 0 0 1 1.071 3.331c.08.349.136.703.169 1.06a3.03 3.03 0 0 1-.064 1.165.619.619 0 0 1-.454.466.994.994 0 0 1-.344 0l-.297-.105-1.211-.414.116-.099a35.217 35.217 0 0 1-.209 8.265 63.834 63.834 0 0 1-2.266 9.825c-1.043 3.495-2.33 7.112-3.564 10.967-.624 1.922-1.165 3.92-1.748 5.947a15.835 15.835 0 0 1-2.807 5.795 11.146 11.146 0 0 1-7.076 3.599 15.727 15.727 0 0 1-3.914.047 11.18 11.18 0 0 1-3.675-1.025 6.92 6.92 0 0 1-2.778-2.441 5.445 5.445 0 0 1-.903-3.442c.21-2.411 2.685-4.275 4.869-3.646l-.157.152c-.88-3.553-.839-6.908-1.037-9.82a27.834 27.834 0 0 0-1.264-7.42 13.394 13.394 0 0 0-2.26-4.257 10.202 10.202 0 0 0-.85-.95c-.204-.198-.309-.314-.309-.314.448.363.858.771 1.223 1.217a13.189 13.189 0 0 1 2.33 4.258 27.473 27.473 0 0 1 1.311 7.466c.215 2.912.198 6.267 1.077 9.767l.052.216-.209-.058c-1.998-.583-4.351 1.164-4.526 3.424a5.154 5.154 0 0 0 .868 3.268 6.582 6.582 0 0 0 2.673 2.329c1.126.535 2.336.87 3.576.99 1.277.148 2.566.132 3.839-.046a10.858 10.858 0 0 0 6.93-3.535 15.595 15.595 0 0 0 2.749-5.691c.583-2.009 1.113-4.024 1.748-5.946 1.223-3.862 2.539-7.496 3.593-10.955a63.64 63.64 0 0 0 2.289-9.785c.404-2.718.492-5.474.262-8.212v-.14l.134.047 1.212.425c.18.091.38.135.582.128a.474.474 0 0 0 .213-.132.474.474 0 0 0 .113-.223c.093-.358.116-.729.07-1.095a9.61 9.61 0 0 0-.157-1.043 20.295 20.295 0 0 0-1.025-3.32 19.414 19.414 0 0 0-.915-1.962c-.116-.21-.209-.367-.273-.49a.98.98 0 0 1-.152-.163Z" fill="#263238"/><path d="M172.472 205.508c0 .046-.431.239-1.066.687a7.145 7.145 0 0 0-3.04 5.015c-.105.768-.07 1.258-.117 1.264a3.098 3.098 0 0 1-.099-1.288 6.557 6.557 0 0 1 3.14-5.171 3.015 3.015 0 0 1 1.182-.507ZM176.822 205.787c.03.041-.419.326-1.013.915a7.651 7.651 0 0 0-1.788 2.679 7.841 7.841 0 0 0-.524 3.186c.041.833.169 1.345.122 1.357a3.51 3.51 0 0 1-.332-1.346 7.03 7.03 0 0 1 2.376-6.039 3.428 3.428 0 0 1 1.159-.752Z" fill="#263238"/><path d="M133.793 175.531c1.882 3.925 3.984 7.245 4.392 11.229.407 3.983.233 8.06 1.229 11.939-1.986-.582-4.182 1.02-4.619 3.041-.437 2.021.617 4.17 2.254 5.439a10.363 10.363 0 0 0 5.824 1.882c3.495.198 7.263-.781 9.663-3.361 2.201-2.365 4.001-10.553 4.659-13.722" fill="#FFCF47"/><path d="M157.207 191.978c.005.058.005.117 0 .175a27.31 27.31 0 0 0-.088.507c-.087.442-.215 1.1-.402 1.939a60.766 60.766 0 0 1-1.922 6.989c-.25.728-.582 1.474-.908 2.242a7.801 7.801 0 0 1-1.474 2.185 10.804 10.804 0 0 1-5.061 2.754 15.229 15.229 0 0 1-6.407.181 9.904 9.904 0 0 1-3.197-1.165 6.576 6.576 0 0 1-2.458-2.499 5.542 5.542 0 0 1-.71-2.486 4.154 4.154 0 0 1 .664-2.452 4.395 4.395 0 0 1 1.863-1.608 3.808 3.808 0 0 1 1.165-.32c.402-.031.805.007 1.194.11l-.18.175c-.857-3.43-.839-6.733-1.026-9.633a25.166 25.166 0 0 0-.465-4.077 19.777 19.777 0 0 0-1.09-3.331c-.838-1.969-1.642-3.495-2.143-4.532-.256-.53-.454-.932-.582-1.211a7.248 7.248 0 0 1-.14-.32c-.035-.088-.047-.105-.041-.111a.567.567 0 0 1 .064.105c.041.081.093.18.163.303.146.291.356.687.618 1.164.53 1.043 1.357 2.534 2.225 4.508a20.21 20.21 0 0 1 1.164 3.355c.276 1.343.442 2.707.495 4.077.21 2.912.21 6.197 1.06 9.581l.064.25-.244-.075c-1.421-.426-3.064.384-3.908 1.7a4.474 4.474 0 0 0 .064 4.63 6.321 6.321 0 0 0 2.33 2.388 9.525 9.525 0 0 0 3.098 1.13c2.073.386 4.205.33 6.255-.163 1.86-.422 3.57-1.34 4.951-2.656a7.565 7.565 0 0 0 1.438-2.114c.346-.721.654-1.459.921-2.213a67.835 67.835 0 0 0 2.015-6.989l.454-1.922c.047-.21.087-.373.117-.501a.603.603 0 0 1 .064-.07Z" fill="#263238"/><path d="M141.778 200.639c0 .046-.431.239-1.071.687a7.189 7.189 0 0 0-3.041 5.015c-.104.774-.064 1.263-.116 1.263a3.065 3.065 0 0 1-.099-1.281 6.615 6.615 0 0 1 3.139-5.178 3.157 3.157 0 0 1 1.188-.506ZM146.141 200.942c0 .04-.414.32-1.014.908a7.914 7.914 0 0 0-1.788 2.685 7.813 7.813 0 0 0-.518 3.18c.035.839.169 1.346.116 1.357a3.436 3.436 0 0 1-.332-1.339 7.037 7.037 0 0 1 2.371-6.023c.33-.335.727-.597 1.165-.768ZM161.522 193.557a3.087 3.087 0 0 1-.501-.117c-.32-.087-.803-.204-1.409-.396a37.686 37.686 0 0 1-5.02-1.986 39.855 39.855 0 0 1-6.809-4.205 38.96 38.96 0 0 1-6.942-6.919c-.501-.618-.926-1.276-1.387-1.899l.251-.175c.228.28.387.609.466.961a.473.473 0 0 1-.111.344.501.501 0 0 1-.297.151 1.492 1.492 0 0 1-.541-.029 4.837 4.837 0 0 1-1.8-.786 19.794 19.794 0 0 1-5.434-5.242 31.581 31.581 0 0 1-3.017-5.195c-.705-1.538-1.165-2.796-1.491-3.669-.157-.431-.256-.775-.332-1.008a3.016 3.016 0 0 1-.099-.349c.062.104.11.216.146.332.099.25.221.582.384.99.326.862.833 2.108 1.567 3.623a32.004 32.004 0 0 0 3.046 5.131 19.902 19.902 0 0 0 5.387 5.154 4.738 4.738 0 0 0 1.672.722c.297.058.646.053.582-.151a2.058 2.058 0 0 0-.408-.804l.245-.175c.454.618.879 1.27 1.38 1.882a39.384 39.384 0 0 0 6.867 6.884 40.243 40.243 0 0 0 11.73 6.348c.582.21 1.077.344 1.392.449.165.03.326.075.483.134Z" fill="#263238"/><path d="m241.151 160.487-16.483 12.685c-4.846.693-8.154 4.007-11.456 7.606-4.351 4.718-3.366 9.441-4.659 14.159a17.668 17.668 0 0 1-1.258 2.696c-.985 2.115-3.571 1.486-4.922 1.893-1.613.484-2.329 1.253-3.087 2.767a4.409 4.409 0 0 0 .67 4.776c.984 1.036 2.639 1.234 4.036 1.543 3.897.85 7.921 1.712 11.835.944 3.914-.769 7.705-3.611 8.288-7.572 2.779.705 5.717.402 8.294-.856a19.882 19.882 0 0 0 6.598-5.312c4.077-4.828 7.042-10.978 7.426-17.286.385-6.307-1.811-12.761-5.282-18.043Z" fill="#FFCF47"/><path d="M228.262 173.172a.376.376 0 0 1-.134-.047l-.379-.163a11.16 11.16 0 0 0-1.497-.536 12.82 12.82 0 0 0-5.754-.279c-1.319.23-2.598.65-3.797 1.246a15.017 15.017 0 0 0-3.734 2.662 19.046 19.046 0 0 0-5.09 9.051 28.434 28.434 0 0 0-.472 10.512 4.569 4.569 0 0 1-.151 2.423 2.067 2.067 0 0 1-.798.903 3.03 3.03 0 0 1-1.077.384c-.734.128-1.445.117-2.103.193a4.661 4.661 0 0 0-1.8.553 4.66 4.66 0 0 0-2.417 4.822 5.5 5.5 0 0 0 .717 1.992 2.3 2.3 0 0 1-.309-.46 4.605 4.605 0 0 1-.524-1.514 4.825 4.825 0 0 1 .239-2.516 4.943 4.943 0 0 1 4.077-3.11c.681-.082 1.386-.076 2.085-.204a2.127 2.127 0 0 0 1.683-1.165 4.34 4.34 0 0 0 .11-2.283 28.354 28.354 0 0 1 .461-10.612 19.128 19.128 0 0 1 5.201-9.208 15.242 15.242 0 0 1 3.814-2.685 13.995 13.995 0 0 1 3.873-1.229 12.639 12.639 0 0 1 5.825.373c.684.218 1.34.519 1.951.897ZM203.346 208.193a2.508 2.508 0 0 1-.629-1.124 4.475 4.475 0 0 1 2.161-5.405c.37-.234.797-.363 1.234-.373 0 .047-.471.157-1.124.582a4.572 4.572 0 0 0-2.067 5.161c.198.722.471 1.13.425 1.159ZM209.624 209.387a.948.948 0 0 1-.355-.187 3.493 3.493 0 0 1-.786-.739 4.201 4.201 0 0 1 1.124-6.296c.309-.191.644-.335.996-.425a.889.889 0 0 1 .396-.047c-.44.186-.867.404-1.276.652a4.167 4.167 0 0 0-1.071 5.988c.3.373.625.725.972 1.054ZM246.433 178.518c-.058 0 .122-1.03.204-2.702a27.73 27.73 0 0 0 0-2.912 31.443 31.443 0 0 0-.448-3.553 32.751 32.751 0 0 0-1.876-6.232 32.365 32.365 0 0 0-.786-1.817 3.618 3.618 0 0 1-.274-.681c.146.197.273.407.379.629.233.407.536 1.013.879 1.782a28.88 28.88 0 0 1 1.975 6.261 27.38 27.38 0 0 1 .431 3.599c.045.985.029 1.971-.047 2.953a16.673 16.673 0 0 1-.256 1.98c-.039.236-.1.468-.181.693ZM210.824 157.19a1.528 1.528 0 0 1-.303-.215c-.192-.152-.46-.39-.786-.705a14.253 14.253 0 0 1-2.283-2.953l.239-.11c.489 1.412.664 2.915.512 4.403-.05.483-.136.962-.256 1.432l-.087.344-.187-.303a344.324 344.324 0 0 1-3.017-4.933l-.856-1.473a2.96 2.96 0 0 1-.285-.554c.144.149.269.316.373.495l.949 1.427a300.704 300.704 0 0 1 3.104 4.881l-.274.041c.114-.456.196-.919.245-1.386a10.431 10.431 0 0 0-.46-4.287l.245-.111a15.744 15.744 0 0 0 2.166 2.976c.594.659.984 1.002.961 1.031Z" fill="#263238"/><path d="M210.731 177.936a22.445 22.445 0 0 0-6.599 11.124 10.935 10.935 0 0 1-1.13 3.367c-1.357 2.102-4.228 2.632-6.727 2.393l-6.762-.623-2.382 7.35c4.363.583 11.998.915 11.998.915 1.031-2.12 2.557-3.116 4.811-3.18a9.265 9.265 0 0 0 1.875-.268 2.199 2.199 0 0 0 1.433-1.876 7.828 7.828 0 0 0-.227-2.486 22.543 22.543 0 0 1 3.71-16.716ZM149.286 187.033l19.482 6.692.448 2.848s-18.416-5.445-19.93-9.54Z" fill="#000" opacity=".3"/><path d="m170.084 108.325-50.572 26.407c3.262 17.473 9.22 28.195 22.814 39.651 1.438 1.212 7.676 5.469 9.4 6.226a7.304 7.304 0 0 0 5.486.356c2.214-.851 3.629-3.011 4.602-5.172 2.702-5.976 3.104-12.691 3.465-19.22a9.586 9.586 0 0 1 1.916 4.339c3.914-5.242-3.052-23.215-2.714-29.744.588-11.363 7.694-11.66 5.603-22.843Z" fill="#fff" opacity=".6"/><path d="M119.565 134.872s-10.484-24.695-10.629-35.464c-.146-10.769 8.963-18.753 8.963-18.753a120.572 120.572 0 0 1 5.999-20.012c3.995-9.686 16.063-24.59 19.435-23.518 3.373 1.071 4.922 2.912 4.939 11.648.018 8.736 1.107 13.78 1.107 13.78s7.938 1.747 10.483 4.601c0 0 1.8-.163 4.031-2.108 2.23-1.946 18.055-15.772 22.592-12.487 4.537 3.285 2.993 18.998-.536 25.708-3.529 6.71-9.319 15.352-9.511 16.15-.192.798 2.167 10.81.868 15.964-1.299 5.155-5.032 11.649-11.311 16.512-6.278 4.863-25.044 16.424-33.99 14.246-8.946-2.178-12.44-6.267-12.44-6.267Z" fill="#FFCF47"/><path opacity=".6" d="M119.565 134.872s-10.484-24.695-10.629-35.464c-.146-10.769 8.963-18.753 8.963-18.753a120.572 120.572 0 0 1 5.999-20.012c3.995-9.686 16.063-24.59 19.435-23.518 3.373 1.071 4.922 2.912 4.939 11.648.018 8.736 1.107 13.78 1.107 13.78s7.938 1.747 10.483 4.601c0 0 1.8-.163 4.031-2.108 2.23-1.946 18.055-15.772 22.592-12.487 4.537 3.285 2.993 18.998-.536 25.708-3.529 6.71-9.319 15.352-9.511 16.15-.192.798 2.167 10.81.868 15.964-1.299 5.155-5.032 11.649-11.311 16.512-6.278 4.863-25.044 16.424-33.99 14.246-8.946-2.178-12.44-6.267-12.44-6.267Z" fill="#fff"/><path d="M185.937 78.284c3.53-6.71 5.05-22.423.536-25.708-4.514-3.285-20.355 10.519-22.592 12.487-2.236 1.969-4.03 2.109-4.03 2.109a5.955 5.955 0 0 0-.909-.816 36.135 36.135 0 0 0-7.146 6.99 23.986 23.986 0 0 0-4.875 11.81c-.198 1.928-.093 3.973.88 5.656 1.211 2.09 3.547 3.261 5.859 3.955 8.02 2.41 23.25-3.495 19.051 15.061 0 0-3.285 8.497-6.343 13.763-.786 1.357-1.293 4.333-1.747 5.824.524-.379 3.209.402 3.628.075 6.285-4.851 15.248-10.879 13.553-15.917-2.708-8.049-5.603-18.358-5.387-19.15.215-.792 5.993-9.435 9.522-16.139Z" fill="#FFCF47"/><path d="M185.419 55.628c-1.077-.728-2.528-.344-3.716.18a38.286 38.286 0 0 0-15.935 13.501 31.969 31.969 0 0 0 5.329 17.339c.53.792 1.293 1.654 2.237 1.526a2.663 2.663 0 0 0 1.607-1.264c5.929-8.032 10.455-17.327 11.567-27.252.163-1.456.122-3.209-1.089-4.03Z" fill="#FDACAC" opacity=".6"/><path d="M138.983 81.505c2.638-3.53 5.043-7.24 7.932-10.565a30.008 30.008 0 0 1 7.927-6.68 42.852 42.852 0 0 0-5.463-1.666s-1.089-5.009-1.107-13.78c-.017-8.772-1.572-10.6-4.939-11.649-3.366-1.048-15.44 13.833-19.435 23.518a117.588 117.588 0 0 0-5.382 17.21l.111.053c2.481 1.748 4.444 4.124 6.867 5.941 2.423 1.817 5.609 3.075 8.468 2.073 2.132-.792 3.664-2.644 5.021-4.455Z" fill="#FFCF47"/><path d="M139.431 92.798a14.445 14.445 0 0 0-4.548-2.254c-1.002-.332-2.225-.547-3.012.157-.293.309-.49.697-.566 1.116-.075.42-.026.851.141 1.243.349.78.871 1.469 1.526 2.015a5.53 5.53 0 0 0 2.248 1.462c1.445.396 2.167.128 3.495-.547a7.444 7.444 0 0 0 1.689-1.165c.367-.355.419-1.299-.973-2.027Z" fill="#263238"/><path d="M145.634 100.072c-2.371 1.835-3.005 4.444-3.745 7.351-.74 2.906-1.258 5.946-2.866 8.474-1.607 2.527-4.7 4.432-7.571 3.576a6.213 6.213 0 0 1-3.594-3.134 10.945 10.945 0 0 1-1.1-4.729 17.407 17.407 0 0 1 5.579-13.448 8.513 8.513 0 0 1 2.365.722c.664.443 4.403 2.668 7.123 2.004 2.72-.664 3.809-.816 3.809-.816Z" fill="#FF4747"/><path d="M133.287 109.647a4.7 4.7 0 0 1 0-1.543c.135-1.244.465-2.458.978-3.599a12.124 12.124 0 0 1 2.015-3.145 4.73 4.73 0 0 1 1.165-1.025c.035.04-.402.436-.996 1.164a14.208 14.208 0 0 0-1.898 3.128 13.766 13.766 0 0 0-1.043 3.494c-.181.938-.181 1.526-.221 1.526Z" fill="#263238"/><path d="M149.88 97.388a1.327 1.327 0 0 1-.175.29 4.284 4.284 0 0 1-.635.723 8.244 8.244 0 0 1-3.116 1.689c-.779.246-1.57.452-2.37.617-.913.238-1.852.361-2.796.367a10.398 10.398 0 0 1-6.074-2.003 4.198 4.198 0 0 0-1.456-.7c-.513-.104-1.066 0-1.625-.11a3.683 3.683 0 0 1-2.54-1.8 5.09 5.09 0 0 1-.774-2.725 5.99 5.99 0 0 1 .535-2.412 6.468 6.468 0 0 1 2.272-2.708c.272-.177.558-.331.856-.46.101-.047.206-.084.315-.11 0 0-.426.192-1.101.67a6.539 6.539 0 0 0-2.144 2.69 6 6 0 0 0-.483 2.33c.009.913.271 1.806.757 2.58a3.438 3.438 0 0 0 2.33 1.654c.501.087 1.054 0 1.636.105a4.521 4.521 0 0 1 1.567.745 10.25 10.25 0 0 0 5.906 1.975c.924 0 1.845-.111 2.743-.332.856-.181 1.654-.361 2.359-.583a8.433 8.433 0 0 0 3.098-1.566c.322-.292.627-.601.915-.926Z" fill="#263238"/><path d="M122.733 75.156a102.257 102.257 0 0 1 18.113-11.531 7.943 7.943 0 0 0 2.534-1.69c.839-.96 1.13-2.26 1.392-3.494.973-4.595 1.945-9.406.687-13.931-.442-1.59-1.45-3.332-3.098-3.454-1.043-.082-1.998.524-2.831 1.165-5.935 4.554-9.423 11.52-12.72 18.241-2.219 4.531-4.485 9.226-4.729 14.27" fill="#FEBA83" opacity=".6"/><path d="M133.945 98.477a2.27 2.27 0 0 1-.554-1.567 2.332 2.332 0 0 1 .426-1.613c.093.035-.158.728-.123 1.595.035.868.338 1.544.251 1.585Z" fill="#263238"/><path d="M156.729 77.69a8.073 8.073 0 0 0-4.077.186 1.75 1.75 0 0 0-1.165.88c-.274.728.396 1.462 1.049 1.887a9.076 9.076 0 0 0 4.146 1.41 3.912 3.912 0 0 0 1.561-.123 1.888 1.888 0 0 0 1.165-.984 2.016 2.016 0 0 0-.582-2.167 5.961 5.961 0 0 0-2.074-1.165M137.107 71.476a8.043 8.043 0 0 0-4.077.186 1.754 1.754 0 0 0-1.194.88c-.279.727.391 1.461 1.043 1.886a9.102 9.102 0 0 0 4.147 1.41 3.916 3.916 0 0 0 1.561-.122 1.903 1.903 0 0 0 1.164-.985 2.028 2.028 0 0 0-.582-2.167 5.907 5.907 0 0 0-2.073-1.164" fill="#fff" opacity=".6"/><path d="M138.29 50.363c.04.04-.688.786-1.631 2.167a20.133 20.133 0 0 0-3.477 12.312c.087 1.666.314 2.685.256 2.697a3.364 3.364 0 0 1-.192-.711 8.326 8.326 0 0 1-.152-.845c-.04-.332-.11-.71-.128-1.13a18.113 18.113 0 0 1 0-2.964 18.93 18.93 0 0 1 1.975-6.948c.444-.884.96-1.73 1.543-2.528.239-.35.489-.64.699-.897.182-.224.377-.438.582-.64.156-.19.332-.362.525-.513ZM155.343 87.754a2.63 2.63 0 0 1-1.675 2.4 2.63 2.63 0 0 1-3.549-1.994 2.627 2.627 0 0 1 1.177-2.679 2.633 2.633 0 0 1 4.047 2.273ZM135.302 80.76a2.63 2.63 0 0 1-1.675 2.399 2.632 2.632 0 1 1 1.675-2.4ZM184.883 60.054a2.424 2.424 0 0 1-.244.257l-.728.699c-.635.582-1.544 1.49-2.621 2.632a61.763 61.763 0 0 0-7.502 9.732l-.169.274-.105-.303c-.046-.145-.104-.303-.157-.46-.507-1.444-.99-2.848-1.45-4.164h.274a24.757 24.757 0 0 0-2.237 9.284c-.039.935-.028 1.872.035 2.807.037.336.055.675.052 1.013a.897.897 0 0 1-.052-.256c0-.169-.07-.42-.105-.746a22.582 22.582 0 0 1-.116-2.824 23.965 23.965 0 0 1 2.155-9.4l.151-.333.122.344 1.456 4.164.158.46-.268-.029a57.221 57.221 0 0 1 7.606-9.72 53.212 53.212 0 0 1 2.691-2.574c.326-.292.582-.507.769-.659a1.36 1.36 0 0 1 .285-.198ZM143.38 143.34c.046.16.071.324.076.49.035.32.07.797.099 1.397a31.831 31.831 0 0 1-.216 5.015l-.029.227-.18-.145a20.903 20.903 0 0 1-4.869-5.376c-.14-.221-.268-.443-.397-.658l.28-.111 1.52 6.29.111.454-.326-.332a14.73 14.73 0 0 1-2.866-4.123 13.195 13.195 0 0 1-.524-1.31 2.187 2.187 0 0 1-.128-.484c.083.144.151.297.204.454.128.297.314.734.582 1.27a15.517 15.517 0 0 0 2.912 4.007l-.215.122c-.46-1.846-.996-3.983-1.567-6.278l-.245-.99.525.879a21.481 21.481 0 0 0 5.16 5.982l-.21.087c.222-1.648.331-3.31.326-4.974v-1.398a2.641 2.641 0 0 1-.023-.495Z" fill="#263238"/><path d="M55.126 192.176c-2.702 1.905-5.51 3.78-8.695 4.659-3.186.88-6.867.583-9.43-1.49-3.285-2.68-3.879-7.473-3.494-11.701.74-8.608 4.38-17.141 2.72-25.627a21.307 21.307 0 0 0-10.81-14.508 21.287 21.287 0 0 0-18.055-.687c-3.57 1.543-6.914 4.502-7.339 8.363 1.165 3.588 6.506 6.553 10.053 7.811 3.547 1.258 7.49 2.632 9.26 5.952 1.538 2.883.956 6.372.583 9.622a57.279 57.279 0 0 0 .629 16.54c.757 4.077 2.027 8.218 4.77 11.34 4.286 4.881 11.41 6.343 17.868 5.649 6.46-.693 12.557-3.191 18.778-5.049l-6.838-10.874Z" fill="#DCDCDC"/><path d="M35.708 161.122c.267-.711.485-1.439.652-2.179a27.744 27.744 0 0 0-.157-.926 21.305 21.305 0 0 0-10.81-14.508 21.287 21.287 0 0 0-18.055-.687c-3.57 1.543-6.913 4.502-7.338 8.363 1.165 3.588 6.506 6.553 10.053 7.811 3.546 1.258 7.49 2.632 9.26 5.952 1.037 1.945 1.107 4.164.938 6.407.646.087 1.3.11 1.95.07 5.953-.367 11.387-4.701 13.507-10.303Z" fill="#A89393" opacity=".5"/><path d="M99.407 200.691c1.748-1.112 5.696-1.404 7.746-1.636 2.051-.233 4.281.349 5.644 1.898 1.363 1.549 1.596 4.13.204 5.65-1.59 1.747-5.195 1.712-7.571 1.712-6.407 0-10.152-.122-16.023 0" fill="#DCDCDC"/><path d="M89.425 208.315c.148-.027.298-.041.448-.041l1.293-.052c1.118-.029 2.737-.064 4.741-.07h11.188a13.262 13.262 0 0 0 4.333-.687 3.905 3.905 0 0 0 1.719-1.287 3.76 3.76 0 0 0 .64-1.987 4.546 4.546 0 0 0-1.531-3.581 6.17 6.17 0 0 0-3.332-1.422 14.38 14.38 0 0 0-3.238.129 29.166 29.166 0 0 0-4.66.757 8.754 8.754 0 0 0-1.205.425 3.062 3.062 0 0 1-.408.192s.03-.029.093-.07c.064-.041.158-.105.286-.174a7.208 7.208 0 0 1 1.2-.49 26.597 26.597 0 0 1 4.659-.85 14.225 14.225 0 0 1 3.291-.169 6.41 6.41 0 0 1 3.494 1.462 4.82 4.82 0 0 1 1.642 3.803 4.007 4.007 0 0 1-.693 2.149 4.156 4.156 0 0 1-1.852 1.392 13.327 13.327 0 0 1-4.432.705h-4.164l-7.036-.082H89.867a2.992 2.992 0 0 1-.442-.052Z" fill="#263238"/><path d="M74.98 115.582c0 .781-4.659 12.103-16.202 21.276-11.544 9.173-21.09 19.913-20.892 34.165.198 14.251 8.981 29.872 8.981 29.872l9.08 7.146 33.478.274s15.422-3.71 17.373-16.401c1.951-12.691-1.951-18.742-1.951-18.742l.582-12.691s9.174-16.983 9.762-22.447c.588-5.463-4.491-25.381-4.491-25.381l-35.72 2.929Z" fill="#DCDCDC"/><path d="M93.723 152.426a11.136 11.136 0 0 0-.192 3.774 13.23 13.23 0 0 0 1.211 3.92 21.497 21.497 0 0 0 2.72 4.246c1.136 1.397 2.33 2.655 3.349 3.82 1.019 1.165 1.963 2.248 2.662 3.209a19.41 19.41 0 0 1 1.52 2.365c.163.291.262.53.337.687.076.158.105.245.094.251a7.737 7.737 0 0 1-.536-.88 23.547 23.547 0 0 0-1.584-2.294c-.717-.938-1.643-1.992-2.697-3.146-1.054-1.153-2.236-2.411-3.384-3.82a21.43 21.43 0 0 1-2.737-4.322 13.046 13.046 0 0 1-1.165-4.007 8.799 8.799 0 0 1 .117-2.813c.046-.251.113-.498.197-.74.019-.086.048-.171.088-.25ZM106.262 178.315c.061.111.109.228.146.349.082.233.221.582.349 1.031.383 1.275.653 2.58.81 3.902a24.71 24.71 0 0 1 0 5.917 21.821 21.821 0 0 1-.681 3.443 19.253 19.253 0 0 1-1.334 3.494 19.806 19.806 0 0 1-1.992 3.198 21.737 21.737 0 0 1-2.376 2.58 23.11 23.11 0 0 1-4.852 3.395 23.597 23.597 0 0 1-3.67 1.561c-.442.157-.797.245-1.036.315a1.644 1.644 0 0 1-.367.081c.112-.058.229-.104.35-.14.233-.093.582-.192 1.019-.367a27.245 27.245 0 0 0 3.605-1.642 23.558 23.558 0 0 0 4.764-3.407 22.573 22.573 0 0 0 2.33-2.557 19.802 19.802 0 0 0 1.951-3.151c.552-1.109.995-2.27 1.322-3.465.319-1.104.551-2.232.693-3.372.251-1.946.271-3.915.059-5.865a24.438 24.438 0 0 0-.711-3.897c-.105-.454-.227-.798-.291-1.037a2.533 2.533 0 0 1-.088-.366ZM56.53 208.018a5.637 5.637 0 0 1-.845-.361c-.329-.148-.65-.313-.96-.495-.368-.21-.799-.431-1.236-.734-.436-.303-.937-.582-1.432-.984-.495-.402-1.014-.804-1.555-1.253a25.352 25.352 0 0 1-5.644-7.14c-.315-.629-.623-1.223-.856-1.806-.233-.582-.455-1.118-.63-1.619-.174-.501-.302-.966-.424-1.368a10.815 10.815 0 0 1-.257-1.054 5.551 5.551 0 0 1-.157-.903c.118.284.21.578.274.879.07.286.169.635.303 1.031.134.396.262.856.466 1.345.203.49.39 1.031.658 1.59.268.56.582 1.165.867 1.748a29.3 29.3 0 0 0 2.493 3.78 28.828 28.828 0 0 0 3.093 3.296c.53.454 1.02.897 1.52 1.258s.961.717 1.398 1.014c.437.297.844.535 1.2.763.355.227.67.396.931.535.279.135.544.295.793.478ZM72.092 167.808a3.676 3.676 0 0 1-.583-.39 23.951 23.951 0 0 1-1.473-1.229 27.644 27.644 0 0 1-4.34-5.003l.263-.123 1.118 3.594.845 2.691.134.442-.367-.279a13.874 13.874 0 0 1-4.38-5.772 12.859 12.859 0 0 1-.63-2.044c-.052-.245-.075-.437-.098-.583-.023-.145 0-.198 0-.204.084.243.155.49.21.74.189.682.426 1.35.71 1.998a14.091 14.091 0 0 0 4.38 5.608l-.233.164-.833-2.685c-.39-1.258-.763-2.476-1.112-3.594l-.291-.961.553.833a29.874 29.874 0 0 0 4.216 5.032c.583.582 1.078.996 1.416 1.287.178.145.344.304.495.478Z" fill="#263238"/><path d="M93.438 153.142c.081-.582 1.013-.582 1.333-.075.24.524.308 1.112.192 1.677-.197 3.355 1.893 6.407 4.077 8.952s4.602 5.16 5.3 8.445c-1.747-2.009-3.797-3.704-5.713-5.539-1.916-1.834-3.722-3.867-4.764-6.307-1.043-2.441-1.24-5.359 0-7.694M93.14 206.981c2.68.099 5.446-.169 7.828-1.403 2.382-1.235 4.31-3.571 4.485-6.244l-2.009.087a21.981 21.981 0 0 1-10.053 7.333" fill="#000" opacity=".3"/><path d="M97.503 70.002s-14.56 2.26-17.67 3.495c-3.11 1.234-15.854 7.827-17.858 14.106 0 0-.996 7.076 2.132 15.783 1.136 3.175 10.379 13.914 12.574 15.143 2.196 1.229 34.363-4.484 34.363-4.484 1.934-2.621 7.496-11.73 7.449-18.556-.058-8.568-3.127-18.2-3.127-18.2l-17.863-7.287Z" fill="#DCDCDC"/><path d="M108.714 55.209c-.314-.053-4.181 0-7.123 6.657a95.723 95.723 0 0 1-6.237 11.765l20.093 4.659s-1.124-10.856-2.236-14.648c-1.113-3.792-2.249-8.066-4.497-8.433Z" fill="#DCDCDC"/><path d="M102.506 96.525c-6.494-2.545-13.978-1.415-20.31 1.462-3.534 1.602-6.988 3.92-8.584 7.467-2.58 5.824.926 12.714 5.824 16.744 4.898 4.031 11.066 6.215 16.378 9.721 5.311 3.506 10.012 9.208 9.319 15.527l.314 12.988c.524-.972 9.167-17.1 9.738-22.4.495-4.659-3.122-19.831-4.193-24.193.466-.583 1.199-1.8 2.073-2.953.099-6.296-4.607-12.021-10.559-14.363Z" fill="#fff" opacity=".6"/><path d="M95.785 94.033a1.043 1.043 0 0 0-.891-1.317 9.488 9.488 0 0 0-4.858.67 1.252 1.252 0 0 0-.792.676 1.13 1.13 0 0 0 .326 1.013 3.652 3.652 0 0 0 6.11-.774c.04-.087.076-.177.105-.268ZM96.297 101.278a2.678 2.678 0 0 1-1.747 1.083 2.635 2.635 0 0 1-2.05-.18 9.512 9.512 0 0 0 1.98-.111 9.637 9.637 0 0 0 1.817-.792Z" fill="#263238"/><path d="M62.342 88.93s-6.855-23.756-3.931-25.76c2.923-2.003 5.614.367 5.614.367l15.137 11.485-16.82 13.909Z" fill="#DCDCDC"/><path d="M64.235 84.132a26.93 26.93 0 0 1 9.989-8.422l-10.397-8.154a2.09 2.09 0 0 0-1.625-.64 1.62 1.62 0 0 0-1.06 1.246c-.384 1.438 0 3.774.303 5.241.839 3.839 1.748 7.52 2.79 10.752" fill="#FEBA83" opacity=".6"/><path d="M112.005 75.186a26.046 26.046 0 0 0-12.108-3.43 8176.29 8176.29 0 0 0 5.882-11.288c.268-.519.612-1.09 1.165-1.206a1.554 1.554 0 0 1 1.421.67c.914 1.112 1.508 3.308 1.811 4.718.787 3.698 1.462 7.28 1.817 10.536" fill="#FEC36B" opacity=".6"/><path d="M113.974 109.065a2.36 2.36 0 0 1-.14.355c-.117.256-.268.583-.46.996a18.63 18.63 0 0 1-2.167 3.401 15.788 15.788 0 0 1-4.619 3.792c-.5.256-1.03.501-1.578.722-.57.228-1.154.423-1.747.583-.605.157-1.217.283-1.835.378-.641.085-1.287.138-1.933.157a16.115 16.115 0 0 1-3.425-.262l.087-.285a12.924 12.924 0 0 1 4.246 2.941l.216.227h-.315c-2.48.013-4.945-.38-7.297-1.164a20.2 20.2 0 0 1-1.946-.758c-.221-.099-.39-.186-.5-.238a.785.785 0 0 1-.164-.099c.236.073.468.16.693.262.449.174 1.113.419 1.963.681a23.528 23.528 0 0 0 7.251 1.031l-.099.227a12.612 12.612 0 0 0-4.164-2.848l-1.299-.547 1.386.262c1.108.202 2.235.286 3.36.25.641 0 1.276-.087 1.894-.151.608-.09 1.211-.214 1.805-.373a15.535 15.535 0 0 0 1.701-.536c.536-.215 1.06-.454 1.555-.705a15.95 15.95 0 0 0 4.584-3.68 20.567 20.567 0 0 0 2.224-3.314c.21-.396.379-.717.507-.967.061-.119.133-.233.216-.338ZM105.202 145.682c.054.221.085.447.094.675.04.437.081 1.072.128 1.852.087 1.567.163 3.728.198 6.116.035 2.388 0 4.548 0 6.115 0 .781-.047 1.415-.076 1.852.002.23-.023.458-.076.682a3 3 0 0 1-.046-.682v-1.852c0-1.636-.041-3.762-.064-6.115-.024-2.353-.082-4.473-.111-6.104 0-.734 0-1.351-.035-1.858a2.984 2.984 0 0 1-.012-.681ZM83.018 92.664a2.633 2.633 0 1 1-5.266 0 2.633 2.633 0 0 1 5.266 0ZM105.272 88.64a2.63 2.63 0 0 1-3.142 2.588 2.636 2.636 0 0 1-2.072-2.067 2.635 2.635 0 0 1 2.582-3.148 2.63 2.63 0 0 1 2.632 2.626ZM100.916 94.703c.028.302.008.606-.059.902a6.583 6.583 0 0 1-.821 2.33c-.139.246-.313.47-.518.664-.23.2-.487.366-.763.495a2.697 2.697 0 0 1-1.986.116 3.363 3.363 0 0 1-.979-.465 8.64 8.64 0 0 1-.902-.653 10.139 10.139 0 0 1-1.625-1.683l.268-.053-.047.158a5.65 5.65 0 0 1-2.743 3.57 3.494 3.494 0 0 1-1.986.367 3.966 3.966 0 0 1-1.643-.582 5.165 5.165 0 0 1-1.962-2.47c-.053-.145-.076-.227-.064-.227.011 0 .145.291.448.786.418.709 1 1.308 1.695 1.748.47.296 1.002.481 1.555.541a3.286 3.286 0 0 0 1.829-.361 5.451 5.451 0 0 0 2.58-3.407l.04-.152.088-.29.18.238c.464.599.992 1.146 1.573 1.63.276.232.566.446.868.641.274.197.58.347.903.443a2.575 2.575 0 0 0 3.01-1.118 7.152 7.152 0 0 0 .886-2.23c.128-.618.151-.939.175-.939Z" fill="#263238"/><path d="m89.355 71.377-3.693.699c.26 1.538.803 3.016 1.602 4.356.28.472.705.984 1.252.944a1.037 1.037 0 0 0 .775-.519c.16-.282.266-.592.308-.914a10.18 10.18 0 0 0-.244-4.566ZM42.385 154.356l-.71 4.34c4.072 3.343 8.178 6.335 12.11 8.822 1.383.877 2.967 1.739 3.232 1.24.057-.165.015-.41-.122-.716-.138-.307-.368-.666-.67-1.048a25.036 25.036 0 0 0-2.11-2.33 117.09 117.09 0 0 0-11.73-10.308ZM50.365 144.095l-1.54 3.587c2.243 1.684 4.593 3.083 6.932 4.126.823.368 1.797.678 2.11.223a.837.837 0 0 0 .077-.537 1.895 1.895 0 0 0-.253-.669 7.342 7.342 0 0 0-1.022-1.344 33.146 33.146 0 0 0-6.304-5.386Z" fill="#866262" opacity=".6"/><path d="M123.385 98.622a3.375 3.375 0 0 1-.739-.151l-1.986-.495a84.268 84.268 0 0 0-6.611-1.34 79.701 79.701 0 0 0-6.698-.774l-2.038-.146a4.219 4.219 0 0 1-.751-.082c.248-.041.5-.055.751-.04.483 0 1.165 0 2.05.052 4.514.215 8.991.926 13.349 2.12.839.233 1.509.431 1.969.582.244.067.48.159.704.274ZM125.401 93.858a3.787 3.787 0 0 1-.787.03h-2.131c-1.806 0-4.293 0-7.042.051-2.749.053-5.242.216-7.035.327l-2.126.134a4.466 4.466 0 0 1-.786 0c.252-.075.512-.12.774-.134a72.429 72.429 0 0 1 2.126-.233 109.94 109.94 0 0 1 14.095-.373c.896.035 1.63.076 2.131.116.262.002.524.03.781.082ZM125.174 105.419a4.947 4.947 0 0 1-.752-.396c-.472-.28-1.165-.67-2.015-1.165a70.916 70.916 0 0 0-6.861-3.32 72.843 72.843 0 0 0-7.193-2.498c-.932-.274-1.695-.484-2.225-.63a4.684 4.684 0 0 1-.809-.25c.283.018.564.065.839.14.535.105 1.31.285 2.253.536a56.93 56.93 0 0 1 14.095 5.877c.845.495 1.52.92 1.969 1.223.247.139.481.301.699.483ZM79.238 102.047a3.569 3.569 0 0 1-.64.425l-1.765 1.089a134.144 134.144 0 0 0-5.824 3.722 133.25 133.25 0 0 0-5.615 4.03l-1.7 1.287a3.657 3.657 0 0 1-.636.437 3.81 3.81 0 0 1 .583-.53 64.12 64.12 0 0 1 1.613-1.345 86.281 86.281 0 0 1 5.58-4.112 85.784 85.784 0 0 1 5.882-3.658c.775-.437 1.404-.78 1.847-1.002.214-.135.44-.25.675-.343ZM78.825 99.99a1.04 1.04 0 0 1-.245.141l-.728.343-2.685 1.218a378.179 378.179 0 0 0-8.806 4.135 412.854 412.854 0 0 0-8.696 4.368l-2.62 1.357-.717.361a.992.992 0 0 1-.262.105c.07-.063.149-.116.233-.157l.687-.414a81.917 81.917 0 0 1 2.58-1.439 215.676 215.676 0 0 1 8.66-4.455 240.272 240.272 0 0 1 8.854-4.077c1.164-.495 2.079-.879 2.725-1.136l.746-.291a.871.871 0 0 1 .274-.058ZM75.592 99.123c-.302.118-.614.21-.932.274-.582.151-1.473.378-2.545.67a97.192 97.192 0 0 0-8.264 2.655 97.678 97.678 0 0 0-7.991 3.408 150.79 150.79 0 0 0-2.365 1.164 6.046 6.046 0 0 1-.88.402 5.94 5.94 0 0 1 .828-.506c.536-.315 1.328-.74 2.33-1.253a77.803 77.803 0 0 1 16.307-6.074 52.24 52.24 0 0 1 2.575-.583c.308-.073.621-.126.937-.157ZM106.839 64.201c.064.189.105.384.122.583.053.401.111.978.146 1.7a24.291 24.291 0 0 1-.408 5.69l-.076.402-.203-.36c-.129-.222-.262-.467-.402-.706l-2.08-3.698.245-.035a16.385 16.385 0 0 0-.448 3.262c-.029.798 0 1.258-.041 1.264a1.136 1.136 0 0 1-.058-.332 8.065 8.065 0 0 1-.059-.932 13.99 13.99 0 0 1 .35-3.32l.076-.332.168.297 2.109 3.675.402.71-.28.047c.355-1.854.522-3.739.501-5.626-.017-1.41-.111-2.283-.064-2.289ZM68.679 77.195a19.75 19.75 0 0 0-2.516-3.064l.227-.081c-.105.99-.227 2.097-.355 3.279 0 .157-.035.314-.053.46l-.058.547-.227-.5a289.76 289.76 0 0 1-1.963-4.427 13.943 13.943 0 0 1-.728-1.846c.352.557.66 1.141.92 1.747.53 1.107 1.252 2.656 2.045 4.392l-.286.046.053-.466c.134-1.164.268-2.289.384-3.273v-.274l.198.193c.697.678 1.31 1.439 1.823 2.265.228.305.408.643.536 1.002Z" fill="#263238"/></svg>