<svg width="186" height="235" fill="none" xmlns="http://www.w3.org/2000/svg"><path d="M115.897 23.672V15H69.074v8.672a10.863 10.863 0 0 0-6.5 3.664A10.743 10.743 0 0 0 60 34.309v63.88a10.722 10.722 0 0 0 .818 4.135 10.77 10.77 0 0 0 2.349 3.508 10.9 10.9 0 0 0 7.68 3.168h43.276c1.43.004 2.846-.273 4.167-.815a10.856 10.856 0 0 0 3.533-2.343 10.776 10.776 0 0 0 2.357-3.511c.545-1.313.824-2.72.82-4.142V34.31a10.77 10.77 0 0 0-2.592-6.976 10.89 10.89 0 0 0-6.511-3.661Z" fill="#FFC100"/><path d="M116 23.5c-15.65.667-31.35.667-47 0 15.65-.667 31.35-.667 47 0ZM116 21a276.632 276.632 0 0 1-47 0 276.632 276.632 0 0 1 47 0ZM116 18.5c-15.65.667-31.35.667-47 0 15.65-.667 31.35-.667 47 0ZM121.35 0h-58.7C61.186 0 60 1.242 60 2.773v10.454C60 14.758 61.186 16 62.65 16h58.7c1.464 0 2.65-1.242 2.65-2.773V2.773C124 1.242 122.814 0 121.35 0Z" fill="#263238"/><path d="M63.5 15a49.248 49.248 0 0 1 0-14 49.248 49.248 0 0 1 0 14ZM67.5 15a49.248 49.248 0 0 1 0-14 49.248 49.248 0 0 1 0 14ZM71.5 15a49.248 49.248 0 0 1 0-14 49.248 49.248 0 0 1 0 14ZM75.5 15a49.248 49.248 0 0 1 0-14 49.248 49.248 0 0 1 0 14ZM79.5 15a49.248 49.248 0 0 1 0-14 49.248 49.248 0 0 1 0 14ZM83.5 15a49.248 49.248 0 0 1 0-14 49.248 49.248 0 0 1 0 14ZM87.5 15a49.248 49.248 0 0 1 0-14 49.248 49.248 0 0 1 0 14ZM91.51 15c-.68-4.61-.68-9.39 0-14a50.171 50.171 0 0 1 0 14ZM95.5 15a49.248 49.248 0 0 1 0-14 49.248 49.248 0 0 1 0 14ZM99.5 15a49.248 49.248 0 0 1 0-14 49.226 49.226 0 0 1 0 14ZM103.5 15a49.226 49.226 0 0 1 0-14 49.226 49.226 0 0 1 0 14ZM107.5 15a49.226 49.226 0 0 1 0-14 49.226 49.226 0 0 1 0 14ZM111.5 15a49.226 49.226 0 0 1 0-14 49.226 49.226 0 0 1 0 14ZM115.5 15a49.226 49.226 0 0 1 0-14 49.226 49.226 0 0 1 0 14ZM119.5 15a49.226 49.226 0 0 1 0-14 49.226 49.226 0 0 1 0 14Z" fill="#455A64"/><path d="M120 45H66v36h54V45Z" fill="#FAFAFA"/><path d="m139.773 8.51 38.102 9.718L147.119 138.8a12.943 12.943 0 0 1-5.93 7.925 12.936 12.936 0 0 1-9.798 1.41l-13.039-3.326a12.933 12.933 0 0 1-9.335-15.728L139.773 8.51Z" fill="#455A64"/><path d="m153.682 48.63-22.635-5.773-19.654 77.05 22.635 5.774 19.654-77.05Z" fill="#FAFAFA"/><path d="m141.689 4.223 36.691 9.36a7.865 7.865 0 0 1 5.676 9.563l-1.699 6.661-51.931-13.247 1.699-6.66a7.868 7.868 0 0 1 9.564-5.677Z" fill="#263238"/><path d="M17.678 147.616c1.142-2.249 40.8-70.38 40.8-70.38l3.366 12.33s90.936-38.653 97.668-37.543c6.731 1.11 11.707 6.72 6.175 12.884-5.531 6.165-62.312 36.432-62.312 36.432s55.61-20.159 61.171-16.536c5.561 3.623 4.829 7.567 3.541 13.731-1.288 6.165-55.17 32.488-55.17 32.488s44.341-17.938 47.707-14.608c3.366 3.331 3.922 5.055 1.697 12.329-2.224 7.275-5.063 20.743-11.707 26.908-6.644 6.164-14.634 11.949-14.634 11.949L38.693 235 0 152.057l17.678-4.441Z" fill="#FFBE9D"/></svg>