<svg width="169" height="104" fill="none" xmlns="http://www.w3.org/2000/svg"><path d="M125.829 50.671s8.513-9.511 16.978-7.765c8.464 1.746 9.944 3.219 9.944 3.219s12.984-3.002 13.129-1.344c.146 1.657-4.042 10.075-4.042 10.075a15.739 15.739 0 0 1 .428 14.484s10.074 9.343 5.579 11.724c-4.495 2.382-14.092-.74-14.092-.74s-19.799 19.04-37.189 22.636c-17.39 3.597-38.524-5.448-45.792-12.802-7.697-7.782-14.189-28.752-12.669-29.822 2.215-1.545-1.56-12.94 12.936-23.337 14.496-10.396 13.218-16.407 13.218-16.407l5.66-1.907S84.103 36.62 92.52 48.128c8.416 11.507 23.348 17.044 33.309 2.543Z" fill="#FF725E"/><path d="M142.685 42.713a8.492 8.492 0 0 0-4.042 3.114 5.614 5.614 0 0 0-.695 4.909c.291.81.823 1.513 1.524 2.016.702.503 1.54.782 2.405.8 2.037-.056 4.042-1.754 5.918-.885 1.14.54 1.665 1.859 2.627 2.672a3.682 3.682 0 0 0 5.36-.974 4.425 4.425 0 0 0 0-3.887 9.13 9.13 0 0 0-2.522-3.114 18.845 18.845 0 0 0-10.947-4.418" fill="#fff" opacity=".2"/><path d="M60.876 58.163c-1.358-2.149-7.276-.805-9.402.563-2.127 1.368-3.501 3.645-4.851 5.786-1.989 3.098-4.301 6.1-7.406 8.103-3.104 2.004-7.114 2.897-10.566 1.61-3.453-1.288-5.821-4.684-7.996-7.766-2.175-3.082-4.722-6.3-8.384-7.242-5.02-1.304-10.413 2.64-11.723 7.637-1.31 4.997.809 10.42 4.35 14.194 5.829 6.22 15.272 8.45 23.59 6.438 8.32-2.012 15.418-7.773 19.954-14.984 1.714-2.727 3.137-5.713 5.481-7.926 2.345-2.213 5.991-3.508 8.893-2.027" fill="#FF725E"/><path d="M135.619 52.506a4.81 4.81 0 0 1-1.156 3.37c.307-.498-.194-1.093-.647-1.463-.452-.37-.962-.942-.679-1.448.437-.805 1.892 0 2.515-.652" fill="#263238"/><path d="M133.8 48.217c0 .064-.339.29-.913.668a3.642 3.642 0 0 0-1.617 1.923 1.917 1.917 0 0 0 .849 2.116c.566.338 1.018.306 1.018.386 0 .081-.461.21-1.172-.096a2.104 2.104 0 0 1-.962-.91 2.193 2.193 0 0 1-.186-1.609 3.544 3.544 0 0 1 1.892-2.084 2.622 2.622 0 0 1 1.091-.394ZM140.001 60.15a.943.943 0 0 1 .866 1.378.947.947 0 0 1-1.777-.548.937.937 0 0 1 .289-.572M140.834 47.59a.948.948 0 0 1 .953.742.944.944 0 0 1-1.205 1.097.944.944 0 0 1-.659-1.01.941.941 0 0 1 .288-.572" fill="#263238"/><path d="M110.403 58.871c16.333 0 29.574-13.178 29.574-29.435C139.977 13.179 126.736 0 110.403 0 94.07 0 80.829 13.179 80.829 29.436c0 16.257 13.24 29.435 29.574 29.435Z" fill="#00ADFF"/><path d="M128.626 60.625a29.168 29.168 0 0 0-7.106-18.508c-1.456-1.665-3.234-3.218-5.377-3.71-2.142-.49-4.778.467-5.522 2.552-.687 1.955.405 4.023 1.286 5.914a32.73 32.73 0 0 1 2.328 20.866" fill="#FF725E"/><path d="M128.125 60.368a3.117 3.117 0 0 1 0-.596c0-.386 0-.95-.049-1.681a28.916 28.916 0 0 0-1.035-6.076 27.201 27.201 0 0 0-3.913-8.224 13.999 13.999 0 0 0-3.694-3.838 6.918 6.918 0 0 0-2.571-1.046 5.686 5.686 0 0 0-2.814.241 4.21 4.21 0 0 0-2.183 1.69c-.45.8-.642 1.719-.549 2.631a26.554 26.554 0 0 0 1.374 5.199 52.58 52.58 0 0 1 2.264 8.94 20.786 20.786 0 0 1 0 6.22c-.088.56-.21 1.113-.364 1.658-.05.19-.118.376-.202.555-.049 0 .21-.805.388-2.237a21.839 21.839 0 0 0-.162-6.148 54.653 54.653 0 0 0-2.377-8.852l-.808-2.534c-.3-.896-.498-1.821-.59-2.76a4.807 4.807 0 0 1 .606-2.905 4.66 4.66 0 0 1 2.425-1.883 6.067 6.067 0 0 1 3.048-.266c.981.186 1.914.57 2.741 1.127a14.52 14.52 0 0 1 3.8 3.967 26.956 26.956 0 0 1 4.77 14.54v1.698c-.013.197-.048.391-.105.58Z" fill="#263238"/><path d="M114.34 45.191a13.868 13.868 0 0 1-1.479-2.068 14.189 14.189 0 0 1-1.472-2.1 7.385 7.385 0 0 1 2.951 4.2v-.032ZM116.305 43.236a10.176 10.176 0 0 1-1.617-1.94 9.997 9.997 0 0 1-1.48-2.043c.089-.089.979.644 1.844 1.762a5.515 5.515 0 0 1 1.253 2.221ZM118.649 42.608c-.137 0-.355-.99-.929-2.1-.574-1.11-1.253-1.9-1.156-1.996a3.59 3.59 0 0 1 1.568 1.787 3.48 3.48 0 0 1 .517 2.31Z" fill="#263238"/><path d="M66.35 56.803a12.827 12.827 0 0 0 4.504-5.77 12.763 12.763 0 0 0 .605-7.282 2.997 2.997 0 0 1 0-2.293c.663-1.038 2.183-.507 3.396-.33 6.766.965 19.112.386 19.112.386 4.155-.386 10.623-1.062 10.623-1.062-3.112 5.19-10.51 9.093-16.129 9.004a28.852 28.852 0 0 1 5.748 6.695 22.504 22.504 0 0 1 3.428 14.332 17.174 17.174 0 0 1-2.389 7.04 17.263 17.263 0 0 1-5.146 5.384c-4.228 2.688-9.96 3.074-14.302.564" fill="#FF725E"/><path d="M81.508 85.209a19.895 19.895 0 0 0 3.55-.483 15.91 15.91 0 0 0 8.133-5.287 16.784 16.784 0 0 0 3.994-9.737 20.56 20.56 0 0 0-.17-4.047 23.024 23.024 0 0 0-.962-4.225 25.022 25.022 0 0 0-1.755-4.2 24.522 24.522 0 0 0-5.974-7.524l-.437-.37h.574a21.788 21.788 0 0 0 10.761-3.292 15.36 15.36 0 0 0 5.166-5.633l.235.33a175.779 175.779 0 0 1-33.665.427l.17-.218c.754 2.318.964 4.776.614 7.186a16.367 16.367 0 0 1-1.617 5.207 15.958 15.958 0 0 1-1.9 2.88c-.258.298-.469.516-.606.66l-.227.218a2 2 0 0 1 .187-.25c.129-.153.33-.378.574-.684a17.627 17.627 0 0 0 1.81-2.905 16.422 16.422 0 0 0 1.529-5.158c.313-2.37.084-4.78-.672-7.049l-.08-.233h.25c11.188.85 22.43.668 33.584-.547l.445-.057-.211.386a15.822 15.822 0 0 1-5.32 5.77 22.138 22.138 0 0 1-10.994 3.364l.129-.403a26.094 26.094 0 0 1 7.834 11.942 23.09 23.09 0 0 1 .962 4.297c.186 1.382.232 2.778.138 4.168a16.829 16.829 0 0 1-.736 3.847 17.458 17.458 0 0 1-3.404 6.06 15.799 15.799 0 0 1-8.327 5.246c-.283.064-.55.137-.809.185l-.727.08-.615.08h-1.204l-.227-.031Z" fill="#263238"/><path d="M96.675 44.925a10.684 10.684 0 0 0 2.83-1.472c1.366-1.135 1.795-2.583 1.932-2.535.138.048 0 .395-.202.966a5.165 5.165 0 0 1-1.43 1.923 5.126 5.126 0 0 1-2.135 1.078c-.607.137-.995.097-.995.04ZM131.464 58.163c0 .056-.502 0-1.003-.515a2.205 2.205 0 0 1-.525-1.159 2.693 2.693 0 0 1 .266-1.52 3.227 3.227 0 0 1 2.127-1.698c.695-.153 1.132 0 1.124 0-.009 0-.421.072-1.027.297a3.229 3.229 0 0 0-1.803 1.61 2.218 2.218 0 0 0 .097 2.269c.356.515.768.652.744.716Z" fill="#263238"/><path d="M163.52 44.233c.937.04-2.159 3.179-3.461 4.595a2.967 2.967 0 0 1-1.843 1.159 2.81 2.81 0 0 1-1.657-.62 14.317 14.317 0 0 1-3.291-3.066l-.21-.249s8.505-1.907 10.462-1.819ZM159.421 72.004a12.99 12.99 0 0 0-4.851 6.687 15.763 15.763 0 0 0 9.192 1.448 2.287 2.287 0 0 0 1.674-.804c.469-.709.08-1.666-.397-2.366-1.422-2.084-3.541-3.565-5.618-4.997" fill="#000" opacity=".3"/><path d="M129.556 78.996c-.073 0 .42-1.23 1.059-3.218a45.899 45.899 0 0 0 2.142-16.094c-.089-2.084-.25-3.372-.178-3.388.109.287.18.588.211.893.105.58.21 1.424.299 2.47a39.04 39.04 0 0 1-2.167 16.199 24.37 24.37 0 0 1-.938 2.31 3.325 3.325 0 0 1-.428.828ZM135.207 76.317c-.073 0 .129-1.095.331-2.857a40.51 40.51 0 0 0-.808-13.72c-.396-1.73-.728-2.784-.655-2.808.143.218.252.457.323.708.186.466.413 1.158.655 2.02a33.175 33.175 0 0 1 .809 13.848c-.138.877-.283 1.61-.413 2.068-.038.259-.12.51-.242.74ZM132.87 46.342c.363.782.524 1.642.469 2.502a5.255 5.255 0 0 1-.331 2.52 11.038 11.038 0 0 1-.129-2.503 10.717 10.717 0 0 1-.009-2.52Z" fill="#263238"/><path d="M140.988 90.833c-.364-2.188-3.598-5.842-5.83-5.777-2.231.064-4.276 1.142-6.281 2.116-2.005.974-4.196 1.875-6.403 1.561-2.838-.41-5.045-2.728-7.818-3.46a8.935 8.935 0 0 0-6.977 1.303 14.721 14.721 0 0 0-4.77 5.424c-1.189 2.165-2.022 4.539-3.55 6.478s-4.042 3.766-6.467 3.13c0 0 15.522 5.021 28.037.451 9.233-3.348 20.059-11.226 20.059-11.226ZM126.516 50.832a5.764 5.764 0 0 0-5.256 2.035 5.699 5.699 0 0 0-.969 5.53c.32.672.57 1.376.743 2.1.194 1.4-.671 2.712-.865 4.104a4.017 4.017 0 0 0 1.165 3.444 3.303 3.303 0 0 0 3.516.627c1.415-.635 2.102-2.237 2.499-3.725a22.21 22.21 0 0 0-.938-14.066M66.293 85.16a20.11 20.11 0 0 0 8.853-.239 20.052 20.052 0 0 0 7.882-4.018c2.361-1.995 4.293-4.69 4.665-7.757.372-3.066-1.148-6.437-4.042-7.636-3.84-1.61-8.335 1.102-12.337 0a14.739 14.739 0 0 1-4.504-2.616 10.529 10.529 0 0 0-4.656-2.26c-1.73-.218-3.72.579-4.293 2.228v1.4c1.762 5.746 4.923 13.117 8.432 20.898ZM17.785 87.735a6.692 6.692 0 0 0 5.67-1.58 6.63 6.63 0 0 0 1.734-2.463c.38-.943.54-1.96.462-2.973a5.022 5.022 0 0 0-.259-1.175c-1.042-2.825-3.54-5.223-6.54-5.569-1.779-.21-3.678.29-5.336-.386-1.657-.676-2.757-2.543-3.371-4.321-.615-1.779-1.01-3.686-2.118-5.215-1.108-1.529-3.234-2.534-4.916-1.61 0 0-5.449 4.829-1.924 12.836 2.854 6.413 8.295 11.048 16.598 12.456Z" fill="#fff" opacity=".2"/><path d="M128.683 8.425c-.066.18-.155.35-.267.507l-.857 1.4a24.858 24.858 0 0 1-1.439 2.156c-.599.805-1.237 1.787-2.062 2.76l-1.261 1.554c-.437.539-.946 1.062-1.447 1.61-.978 1.134-2.143 2.236-3.347 3.419a70.397 70.397 0 0 1-8.602 6.84 69.756 69.756 0 0 1-9.645 5.279c-1.56.651-3.032 1.303-4.463 1.77-.712.241-1.39.507-2.062.708l-1.924.563c-1.22.387-2.36.596-3.347.805a25.49 25.49 0 0 1-2.555.499l-1.617.25a2.986 2.986 0 0 1-.566.056c.18-.07.367-.122.558-.153l1.617-.33a30.69 30.69 0 0 0 2.539-.571c.978-.266 2.102-.491 3.314-.894l1.908-.587c.663-.21 1.334-.483 2.038-.732 1.415-.483 2.87-1.135 4.422-1.795a66.775 66.775 0 0 0 18.118-12.07c1.205-1.175 2.377-2.261 3.363-3.38.501-.547 1.011-1.062 1.463-1.61l1.27-1.528c.808-.958 1.495-1.9 2.11-2.704a35.42 35.42 0 0 0 1.496-2.108l.929-1.344c.097-.13.203-.254.316-.37Z" fill="#263238"/><path d="M106.716 30.65a7.03 7.03 0 0 1-.711-.99c-.218-.33-.477-.74-.744-1.23-.267-.491-.598-1.039-.881-1.682a31.82 31.82 0 0 1-1.811-4.611 36.332 36.332 0 0 1-1.229-5.947 35.858 35.858 0 0 1-.129-6.06c.12-1.649.366-3.287.736-4.9.137-.692.339-1.295.493-1.835.125-.464.276-.92.452-1.368.12-.39.277-.766.469-1.126.089 0-.533 1.658-1.091 4.402a34.42 34.42 0 0 0-.631 4.828 35.014 35.014 0 0 0 3.04 16.456c1.108 2.567 2.078 4.015 2.037 4.063ZM114.607 23.746a3.998 3.998 0 0 1-.614-.74 19.33 19.33 0 0 1-1.464-2.205 24.458 24.458 0 0 1-1.697-3.549 28.039 28.039 0 0 1-1.302-4.635 28.524 28.524 0 0 1-.429-4.828c.006-1.313.117-2.623.332-3.919.136-.873.334-1.736.59-2.583.072-.315.183-.62.332-.91.08 0-.308 1.345-.599 3.542a29.862 29.862 0 0 0-.226 3.862c.019 1.596.159 3.189.42 4.764a30.748 30.748 0 0 0 1.253 4.579 27.278 27.278 0 0 0 1.617 3.532c1.019 1.94 1.86 3.034 1.787 3.09ZM121.964 17.01a8.517 8.517 0 0 1-1.463-1.97 19.548 19.548 0 0 1-2.207-5.497 19.265 19.265 0 0 1-.445-5.906 8.246 8.246 0 0 1 .445-2.414c.081 0-.065.933-.113 2.414a22.226 22.226 0 0 0 2.611 11.225c.703 1.336 1.237 2.1 1.172 2.149ZM136.428 14.613c-.068.19-.157.37-.267.539l-.857 1.529c-.364.66-.809 1.464-1.439 2.358-.631.893-1.237 1.947-2.062 3.025l-1.261 1.746c-.437.596-.946 1.183-1.447 1.803-.986 1.263-2.151 2.51-3.363 3.838a80.217 80.217 0 0 1-8.659 7.846 81.1 81.1 0 0 1-9.791 6.438c-1.617.804-3.104 1.65-4.576 2.285-.727.322-1.422.668-2.11.95l-1.989.804c-1.253.523-2.425.877-3.452 1.231a35.413 35.413 0 0 1-2.66.805l-1.69.443a2.799 2.799 0 0 1-.598.12c.185-.086.377-.156.575-.209l1.665-.531c.728-.217 1.617-.49 2.62-.877 1.002-.386 2.182-.74 3.42-1.288l1.964-.804c.687-.29 1.374-.636 2.094-.974 1.455-.644 2.943-1.472 4.527-2.31a84.747 84.747 0 0 0 9.702-6.389 85.465 85.465 0 0 0 8.634-7.781c1.205-1.312 2.377-2.543 3.372-3.782.501-.62 1.018-1.191 1.463-1.779l1.277-1.69c.809-1.061 1.496-2.1 2.11-2.977a39.957 39.957 0 0 0 1.504-2.31c.388-.643.687-1.094.93-1.472a3.6 3.6 0 0 1 .364-.587ZM140.462 18.604a2.6 2.6 0 0 1-.186.563c-.162.41-.38.934-.639 1.61l-.469 1.15c-.185.41-.412.845-.638 1.32-.477.942-.97 2.044-1.666 3.219l-1.043 1.746c-.363.628-.808 1.247-1.228 1.9-.809 1.327-1.868 2.647-2.927 4.023a62.277 62.277 0 0 1-17.18 15.015c-1.544.861-2.991 1.714-4.422 2.366-.704.33-1.375.684-2.046.966l-1.94.804c-1.221.54-2.385.877-3.388 1.231-.501.161-.962.33-1.398.46l-1.205.313-1.657.427c-.193.056-.39.094-.59.112.18-.088.37-.158.565-.21l1.617-.498 1.189-.354c.428-.145.881-.322 1.382-.499.987-.37 2.135-.732 3.339-1.288l1.916-.804c.663-.29 1.326-.652 2.03-.99 1.414-.66 2.845-1.52 4.365-2.414a63.643 63.643 0 0 0 17.067-14.911c1.067-1.392 2.102-2.688 2.943-4.023.428-.652.873-1.256 1.245-1.875l1.067-1.787c.712-1.118 1.213-2.205 1.714-3.13.235-.467.477-.901.671-1.304.194-.402.348-.804.509-1.126.292-.636.526-1.151.712-1.545a3.92 3.92 0 0 1 .291-.467Z" fill="#263238"/><path d="M103.159 23.81a28.08 28.08 0 0 1-2.741-1.045 56.796 56.796 0 0 0-13.663-3.493 27.444 27.444 0 0 1-2.91-.394c.265-.058.538-.075.808-.048.51 0 1.245.04 2.15.112a44.392 44.392 0 0 1 13.745 3.517c.808.37 1.495.692 1.948.933.24.107.464.248.663.419ZM102.31 13.808c-.064.129-2.7-1.247-6.184-2.301-3.485-1.054-6.468-1.4-6.468-1.545a6.984 6.984 0 0 1 1.956.104 28.744 28.744 0 0 1 8.982 2.736 6.627 6.627 0 0 1 1.714 1.006ZM99.659 32.799c-.854-.248-1.69-.55-2.507-.901a54.474 54.474 0 0 0-6.128-1.843 53.364 53.364 0 0 0-6.314-1.078 21.81 21.81 0 0 1-2.644-.322c.89-.1 1.787-.1 2.676 0a39.137 39.137 0 0 1 12.531 2.953c.84.3 1.642.7 2.386 1.191Z" fill="#263238"/><path d="M66.827 29.548c0-.048.646 0 1.754-.33a10.384 10.384 0 0 0 4.172-2.414 19.636 19.636 0 0 0 4.18-5.818c1.269-2.414 2.425-5.223 4.317-7.798a27.98 27.98 0 0 1 6.33-6.316 28.566 28.566 0 0 1 6.468-3.469 27.085 27.085 0 0 1 4.745-1.327c.575-.105 1.027-.145 1.334-.185.153-.022.308-.022.461 0-.576.164-1.162.293-1.754.386-1.592.36-3.152.846-4.665 1.456a29.595 29.595 0 0 0-6.306 3.509 28.325 28.325 0 0 0-6.201 6.244c-1.86 2.519-3.016 5.311-4.317 7.725a19.319 19.319 0 0 1-4.342 5.858 10.089 10.089 0 0 1-4.341 2.326 6.988 6.988 0 0 1-1.334.177 1.76 1.76 0 0 1-.501-.024ZM125.133 24.535c-.064-.073 1.431-1.079 3.356-3.22a24.116 24.116 0 0 0 5.287-9.656 10.29 10.29 0 0 0 .428-3.138 4.71 4.71 0 0 0-.848-2.68 3.779 3.779 0 0 0-2.102-1.384 5.753 5.753 0 0 0-2.264-.112c-1.11.202-2.185.56-3.194 1.062-.369.2-.756.367-1.156.499a6.72 6.72 0 0 1 1.076-.66 10.976 10.976 0 0 1 3.233-1.223 6.03 6.03 0 0 1 2.426.064c.935.212 1.767.741 2.352 1.497.604.855.939 1.869.963 2.913a10.64 10.64 0 0 1-.397 3.219 23.118 23.118 0 0 1-5.497 9.785 20.015 20.015 0 0 1-2.555 2.293c-.337.291-.709.54-1.108.74Z" fill="#455A64"/></svg>