<svg width="103" height="171" viewBox="0 0 103 171" fill="none" xmlns="http://www.w3.org/2000/svg">
<path d="M99.79 43.3201H10.7V165.51H99.79V43.3201Z" fill="#263238"/>
<path opacity="0.8" d="M99.79 43.3201H10.7V165.51H99.79V43.3201Z" fill="white"/>
<path d="M101.88 39.5701H8.89001V44.8001H101.88V39.5701Z" fill="#263238"/>
<path opacity="0.8" d="M101.88 39.5701H8.89001V44.8001H101.88V39.5701Z" fill="white"/>
<path opacity="0.3" d="M99.79 44.8H10.7V48.04H99.79V44.8Z" fill="black"/>
<path d="M8.60999 170.62H101.6V165.39H8.60999V170.62Z" fill="#263238"/>
<path opacity="0.8" d="M8.60999 170.62H101.6V165.39H8.60999V170.62Z" fill="white"/>
<path opacity="0.3" d="M10.7 165.39H99.79V162.15H10.7V165.39Z" fill="black"/>
<path d="M99.79 49.8H10.7V158.82H99.79V49.8Z" fill="#FFC100"/>
<path d="M55.11 122.15C68.8785 122.15 80.04 110.854 80.04 96.92C80.04 82.9858 68.8785 71.6899 55.11 71.6899C41.3416 71.6899 30.1801 82.9858 30.1801 96.92C30.1801 110.854 41.3416 122.15 55.11 122.15Z" fill="white"/>
<path d="M42.92 86.4699L49 83.55C49 83.55 40.25 78.38 39.64 79.42C39.03 80.46 42.92 86.4699 42.92 86.4699Z" fill="#FFC100"/>
<path d="M52.33 84.0999C52.33 84.0999 40.12 88.23 40.24 92.3C40.36 96.37 40.91 100.75 40.24 101.72C39.57 102.69 37.08 103.54 37.87 105.31C38.66 107.08 41.79 110.31 45.02 111.81C46.0791 111.747 47.141 111.747 48.2 111.81C49.2 111.93 54.1 111.45 54.1 111.45L61.22 117.45C61.22 117.45 70.09 112.32 72.22 105.45C73.89 100.01 73.37 95.66 69.36 90.56C65.35 85.46 52.71 76.64 51.67 77.62C50.63 78.6 52.33 84.0999 52.33 84.0999Z" fill="#FFC100"/>
<path d="M44.79 99.17C44.79 99.17 44.79 96.83 45.67 96.65C46.5178 96.5623 47.3723 96.5623 48.22 96.65C48.22 96.65 48.38 99.8 46.54 99.88C44.42 99.93 44.79 99.17 44.79 99.17Z" fill="white"/>
<path d="M28.4045 135.124C27.6644 135.124 27.0277 134.967 26.4946 134.654C25.9646 134.337 25.5569 133.898 25.2715 133.336C24.9892 132.775 24.8481 132.129 24.8481 131.398C24.8481 130.658 24.9908 130.009 25.2762 129.451C25.5647 128.889 25.974 128.452 26.504 128.138C27.034 127.821 27.6644 127.663 28.3951 127.663C29.0255 127.663 29.5774 127.778 30.051 128.007C30.5246 128.235 30.8993 128.557 31.1753 128.971C31.4513 129.385 31.6034 129.871 31.6316 130.429H29.7405C29.6872 130.069 29.5461 129.778 29.3171 129.559C29.0913 129.336 28.795 129.225 28.428 129.225C28.1175 129.225 27.8463 129.31 27.6142 129.479C27.3852 129.645 27.2065 129.888 27.0779 130.208C26.9493 130.528 26.885 130.915 26.885 131.37C26.885 131.831 26.9478 132.223 27.0732 132.546C27.2018 132.869 27.3821 133.115 27.6142 133.285C27.8463 133.454 28.1175 133.539 28.428 133.539C28.657 133.539 28.8624 133.492 29.0443 133.398C29.2293 133.303 29.3814 133.167 29.5006 132.988C29.6229 132.806 29.7029 132.588 29.7405 132.334H31.6316C31.6003 132.886 31.4497 133.372 31.18 133.793C30.9134 134.21 30.5449 134.536 30.0745 134.771C29.6041 135.006 29.0474 135.124 28.4045 135.124ZM34.9752 135.119C34.5142 135.119 34.1033 135.039 33.7427 134.879C33.382 134.716 33.0966 134.476 32.8865 134.16C32.6795 133.84 32.576 133.441 32.576 132.965C32.576 132.563 32.6497 132.226 32.7971 131.953C32.9445 131.681 33.1452 131.461 33.3992 131.295C33.6533 131.129 33.9418 131.003 34.2648 130.918C34.591 130.834 34.9328 130.774 35.2904 130.74C35.7106 130.696 36.0493 130.655 36.3065 130.617C36.5636 130.577 36.7502 130.517 36.8663 130.439C36.9823 130.36 37.0403 130.244 37.0403 130.09V130.062C37.0403 129.764 36.9463 129.534 36.7581 129.371C36.573 129.208 36.3096 129.126 35.9678 129.126C35.6071 129.126 35.3201 129.206 35.1069 129.366C34.8936 129.523 34.7525 129.72 34.6835 129.959L32.83 129.808C32.9241 129.369 33.1091 128.99 33.3851 128.67C33.6611 128.347 34.0171 128.099 34.453 127.927C34.8921 127.751 35.4001 127.663 35.9772 127.663C36.3786 127.663 36.7628 127.71 37.1297 127.804C37.4998 127.898 37.8275 128.044 38.1129 128.242C38.4014 128.439 38.6288 128.693 38.795 129.004C38.9612 129.311 39.0443 129.68 39.0443 130.109V134.983H37.1438V133.981H37.0874C36.9713 134.207 36.8161 134.406 36.6217 134.578C36.4272 134.748 36.1936 134.881 35.9207 134.978C35.6479 135.072 35.3327 135.119 34.9752 135.119ZM35.5491 133.736C35.8439 133.736 36.1042 133.678 36.33 133.562C36.5558 133.443 36.733 133.283 36.8616 133.082C36.9902 132.882 37.0545 132.654 37.0545 132.4V131.633C36.9917 131.674 36.9055 131.712 36.7957 131.746C36.6891 131.778 36.5683 131.808 36.4335 131.836C36.2986 131.861 36.1638 131.884 36.0289 131.906C35.8941 131.925 35.7718 131.942 35.662 131.958C35.4268 131.993 35.2214 132.047 35.0457 132.123C34.8701 132.198 34.7337 132.3 34.6365 132.429C34.5392 132.554 34.4906 132.711 34.4906 132.899C34.4906 133.172 34.5894 133.38 34.787 133.525C34.9877 133.666 35.2417 133.736 35.5491 133.736ZM44.4425 127.757V129.263H40.091V127.757H44.4425ZM41.0789 126.026H43.083V132.763C43.083 132.948 43.1112 133.092 43.1676 133.195C43.2241 133.296 43.3025 133.366 43.4028 133.407C43.5063 133.448 43.6255 133.468 43.7604 133.468C43.8544 133.468 43.9485 133.46 44.0426 133.445C44.1367 133.426 44.2088 133.412 44.259 133.402L44.5742 134.894C44.4738 134.925 44.3327 134.961 44.1508 135.002C43.9689 135.046 43.7478 135.072 43.4875 135.082C43.0045 135.101 42.5812 135.036 42.2174 134.889C41.8567 134.741 41.576 134.512 41.3753 134.202C41.1746 133.892 41.0758 133.5 41.0789 133.026V126.026ZM52.6996 127.757V129.263H48.24V127.757H52.6996ZM49.2608 134.983V127.235C49.2608 126.711 49.3627 126.277 49.5666 125.932C49.7736 125.587 50.0558 125.328 50.4134 125.156C50.7709 124.983 51.177 124.897 51.6318 124.897C51.9391 124.897 52.2198 124.921 52.4738 124.968C52.731 125.015 52.9223 125.057 53.0477 125.095L52.6902 126.6C52.6118 126.575 52.5146 126.551 52.3986 126.529C52.2856 126.507 52.1696 126.496 52.0504 126.496C51.7556 126.496 51.5502 126.565 51.4342 126.703C51.3181 126.838 51.2601 127.028 51.2601 127.273V134.983H49.2608ZM56.9299 135.124C56.1992 135.124 55.5673 134.969 55.0341 134.658C54.5041 134.345 54.0948 133.909 53.8063 133.351C53.5178 132.789 53.3735 132.138 53.3735 131.398C53.3735 130.652 53.5178 130 53.8063 129.441C54.0948 128.88 54.5041 128.444 55.0341 128.134C55.5673 127.82 56.1992 127.663 56.9299 127.663C57.6607 127.663 58.291 127.82 58.821 128.134C59.3542 128.444 59.765 128.88 60.0535 129.441C60.3421 130 60.4863 130.652 60.4863 131.398C60.4863 132.138 60.3421 132.789 60.0535 133.351C59.765 133.909 59.3542 134.345 58.821 134.658C58.291 134.969 57.6607 135.124 56.9299 135.124ZM56.9393 133.572C57.2718 133.572 57.5493 133.478 57.772 133.289C57.9947 133.098 58.1624 132.838 58.2753 132.508C58.3914 132.179 58.4494 131.804 58.4494 131.384C58.4494 130.964 58.3914 130.589 58.2753 130.26C58.1624 129.931 57.9947 129.67 57.772 129.479C57.5493 129.288 57.2718 129.192 56.9393 129.192C56.6038 129.192 56.3215 129.288 56.0926 129.479C55.8668 129.67 55.6958 129.931 55.5798 130.26C55.4669 130.589 55.4104 130.964 55.4104 131.384C55.4104 131.804 55.4669 132.179 55.5798 132.508C55.6958 132.838 55.8668 133.098 56.0926 133.289C56.3215 133.478 56.6038 133.572 56.9393 133.572ZM65.0542 135.124C64.3234 135.124 63.6915 134.969 63.1584 134.658C62.6283 134.345 62.2191 133.909 61.9305 133.351C61.642 132.789 61.4978 132.138 61.4978 131.398C61.4978 130.652 61.642 130 61.9305 129.441C62.2191 128.88 62.6283 128.444 63.1584 128.134C63.6915 127.82 64.3234 127.663 65.0542 127.663C65.7849 127.663 66.4153 127.82 66.9453 128.134C67.4784 128.444 67.8893 128.88 68.1778 129.441C68.4663 130 68.6106 130.652 68.6106 131.398C68.6106 132.138 68.4663 132.789 68.1778 133.351C67.8893 133.909 67.4784 134.345 66.9453 134.658C66.4153 134.969 65.7849 135.124 65.0542 135.124ZM65.0636 133.572C65.396 133.572 65.6736 133.478 65.8962 133.289C66.1189 133.098 66.2867 132.838 66.3996 132.508C66.5156 132.179 66.5736 131.804 66.5736 131.384C66.5736 130.964 66.5156 130.589 66.3996 130.26C66.2867 129.931 66.1189 129.67 65.8962 129.479C65.6736 129.288 65.396 129.192 65.0636 129.192C64.728 129.192 64.4458 129.288 64.2168 129.479C63.991 129.67 63.8201 129.931 63.7041 130.26C63.5911 130.589 63.5347 130.964 63.5347 131.384C63.5347 131.804 63.5911 132.179 63.7041 132.508C63.8201 132.838 63.991 133.098 64.2168 133.289C64.4458 133.478 64.728 133.572 65.0636 133.572ZM72.5763 135.101C72.0274 135.101 71.5304 134.959 71.085 134.677C70.6428 134.392 70.2916 133.973 70.0313 133.421C69.7741 132.866 69.6455 132.185 69.6455 131.379C69.6455 130.552 69.7788 129.863 70.0454 129.314C70.312 128.762 70.6663 128.35 71.1085 128.077C71.5539 127.801 72.0416 127.663 72.5716 127.663C72.9761 127.663 73.3133 127.732 73.583 127.87C73.8558 128.005 74.0754 128.174 74.2416 128.378C74.4109 128.579 74.5395 128.776 74.6273 128.971H74.6885V125.349H76.6878V134.983H74.712V133.826H74.6273C74.5332 134.026 74.4 134.226 74.2275 134.423C74.0581 134.618 73.837 134.779 73.5642 134.908C73.2945 135.036 72.9652 135.101 72.5763 135.101ZM73.2114 133.506C73.5344 133.506 73.8072 133.418 74.0299 133.242C74.2557 133.064 74.4282 132.814 74.5474 132.494C74.6697 132.174 74.7308 131.8 74.7308 131.37C74.7308 130.94 74.6712 130.567 74.5521 130.25C74.4329 129.934 74.2604 129.689 74.0346 129.517C73.8088 129.344 73.5344 129.258 73.2114 129.258C72.8821 129.258 72.6045 129.347 72.3787 129.526C72.1529 129.705 71.982 129.952 71.8659 130.269C71.7499 130.586 71.6919 130.953 71.6919 131.37C71.6919 131.79 71.7499 132.162 71.8659 132.485C71.9851 132.805 72.156 133.056 72.3787 133.238C72.6045 133.416 72.8821 133.506 73.2114 133.506Z" fill="white"/>
<path d="M24.71 139.46H53.16C53.5578 139.46 53.9394 139.302 54.2207 139.021C54.502 138.739 54.66 138.358 54.66 137.96C54.66 137.562 54.502 137.181 54.2207 136.899C53.9394 136.618 53.5578 136.46 53.16 136.46H24.71C24.3122 136.46 23.9307 136.618 23.6494 136.899C23.368 137.181 23.21 137.562 23.21 137.96C23.21 138.358 23.368 138.739 23.6494 139.021C23.9307 139.302 24.3122 139.46 24.71 139.46Z" fill="white"/>
<path d="M52.57 139.46H83.43C83.8278 139.46 84.2094 139.302 84.4907 139.021C84.772 138.739 84.93 138.358 84.93 137.96C84.93 137.562 84.772 137.181 84.4907 136.899C84.2094 136.618 83.8278 136.46 83.43 136.46H52.57C52.1722 136.46 51.7906 136.618 51.5093 136.899C51.228 137.181 51.07 137.562 51.07 137.96C51.07 138.358 51.228 138.739 51.5093 139.021C51.7906 139.302 52.1722 139.46 52.57 139.46Z" fill="white"/>
<path d="M73.28 142.34H36.9301C35.958 142.34 35.17 143.128 35.17 144.1V144.34C35.17 145.312 35.958 146.1 36.9301 146.1H73.28C74.2521 146.1 75.04 145.312 75.04 144.34V144.1C75.04 143.128 74.2521 142.34 73.28 142.34Z" fill="white"/>
<g opacity="0.3">
<path d="M10.37 89.8501C20.37 94.4001 31.49 91.3801 41.52 86.8501C51.55 82.3201 60.42 75.5401 70.25 70.5701C80.08 65.6001 89.25 61.8301 99.79 65.1401V49.8401H10.7L10.37 89.8501Z" fill="white"/>
</g>
<g opacity="0.3">
<path d="M99.79 120.64C89.79 116.09 78.67 119.11 68.65 123.64C58.63 128.17 49.74 134.99 39.92 139.96C30.1 144.93 20.92 148.7 10.38 145.39V160.69H99.48L99.79 120.64Z" fill="white"/>
</g>
<path d="M33.82 56.02H10.37V64.42H33.82V56.02Z" fill="white"/>
<path d="M100.2 2.8999H2.46002V39.4699H100.2V2.8999Z" fill="#263238"/>
<path opacity="0.8" d="M100.2 2.8999H2.46002V39.4699H100.2V2.8999Z" fill="white"/>
<path d="M102.66 35.01H0V39.58H102.66V35.01Z" fill="#263238"/>
<path opacity="0.7" d="M102.66 35.01H0V39.58H102.66V35.01Z" fill="white"/>
<path d="M102.66 0H0V4.95H102.66V0Z" fill="#263238"/>
<path opacity="0.7" d="M102.66 0H0V4.95H102.66V0Z" fill="white"/>
<path d="M100.2 5.87988H2.46002V33.6699H100.2V5.87988Z" fill="#FFC100"/>
<path opacity="0.3" d="M100.2 10.7H2.46002V27.9799H100.2V10.7Z" fill="white"/>
<path opacity="0.3" d="M100.2 4.94995H2.46002V7.71996H100.2V4.94995Z" fill="black"/>
<path opacity="0.3" d="M100.2 32.6399H2.46002V35.1999H100.2V32.6399Z" fill="black"/>
<path d="M50.2 29.67C63.2395 29.67 73.81 25.4256 73.81 20.19C73.81 14.9543 63.2395 10.71 50.2 10.71C37.1606 10.71 26.59 14.9543 26.59 20.19C26.59 25.4256 37.1606 29.67 50.2 29.67Z" fill="white"/>
<path d="M46.36 18.53C46.36 18.53 42.18 13.24 35.97 14.75C35.97 14.75 35.84 16.05 38.06 18.93C40.28 21.81 40.41 22.19 40.35 23.43C40.29 24.67 39.63 26.89 40.48 27.29C41.33 27.69 45.18 25.98 46.75 23.63L50.27 25.33C50.27 25.33 48.27 27.09 48.84 27.74C49.41 28.39 53.84 27.61 55.56 26.74C57.5177 26.8232 59.4609 26.3702 61.18 25.43C64.05 23.86 66.08 21.84 65.82 20.43C65.56 19.02 62.29 16.25 58.9 15.86C57.8789 14.7122 56.5769 13.8497 55.1217 13.3571C53.6666 12.8644 52.1084 12.7586 50.6 13.05C45.44 14.05 47.47 14.94 47.79 15.2C48.11 15.46 49.56 16.44 49.56 16.44C49.56 16.44 46.92 18.01 46.36 18.53Z" fill="#FFC100"/>
<path d="M63.28 20.17C63.28 20.4587 63.1944 20.741 63.0339 20.9811C62.8735 21.2212 62.6455 21.4083 62.3787 21.5188C62.1119 21.6293 61.8184 21.6582 61.5352 21.6019C61.2519 21.5456 60.9918 21.4065 60.7876 21.2023C60.5834 20.9982 60.4444 20.738 60.388 20.4548C60.3317 20.1716 60.3606 19.878 60.4711 19.6113C60.5816 19.3445 60.7688 19.1165 61.0089 18.956C61.249 18.7956 61.5312 18.71 61.82 18.71C62.2072 18.71 62.5786 18.8638 62.8524 19.1376C63.1262 19.4114 63.28 19.7828 63.28 20.17Z" fill="white"/>
<path d="M65.98 17.58C66.4881 17.58 66.9001 17.1681 66.9001 16.66C66.9001 16.1519 66.4881 15.74 65.98 15.74C65.4719 15.74 65.0601 16.1519 65.0601 16.66C65.0601 17.1681 65.4719 17.58 65.98 17.58Z" fill="#FFC100"/>
<path d="M100.2 15.9299H86.25V17.9499H100.2V15.9299Z" fill="white"/>
<path d="M100.2 20.73H86.25V22.75H100.2V20.73Z" fill="white"/>
<path d="M16.6 15.9299H2.65002V17.9499H16.6V15.9299Z" fill="white"/>
<path d="M16.6 20.73H2.65002V22.75H16.6V20.73Z" fill="white"/>
</svg>
