<svg width="20" height="20" viewBox="0 0 20 20" fill="none" xmlns="http://www.w3.org/2000/svg">
<path d="M18.125 0H1.875C0.839844 0 0 0.959821 0 2.14286V17.8571C0 19.0402 0.839844 20 1.875 20H18.125C19.1602 20 20 19.0402 20 17.8571V2.14286C20 0.959821 19.1602 0 18.125 0ZM14.8594 12.9688C15.0469 13.183 15.0469 13.5312 14.8594 13.7455L13.2773 15.5536C13.0898 15.7679 12.7852 15.7679 12.5977 15.5536L10 12.558L7.40234 15.5536C7.21484 15.7679 6.91016 15.7679 6.72266 15.5536L5.14062 13.7455C4.95312 13.5312 4.95312 13.183 5.14062 12.9688L7.76172 10L5.14062 7.03125C4.95312 6.81696 4.95312 6.46875 5.14062 6.25446L6.72266 4.44643C6.91016 4.23214 7.21484 4.23214 7.40234 4.44643L10 7.44196L12.5977 4.44643C12.7852 4.23214 13.0898 4.23214 13.2773 4.44643L14.8594 6.25446C15.0469 6.46875 15.0469 6.81696 14.8594 7.03125L12.2383 10L14.8594 12.9688Z" fill="black"/>
</svg>
