<svg width="427" height="171" viewBox="0 0 427 171" fill="none" xmlns="http://www.w3.org/2000/svg">
<path fill-rule="evenodd" clip-rule="evenodd" d="M18.1507 94.1649C16.8632 91.2627 16.1508 88.0686 16.1508 84.7146C16.1508 71.3912 27.3934 60.5905 41.2619 60.5905C45.3306 60.5905 49.1732 61.5201 52.5723 63.1703C52.4439 61.8556 52.3787 60.5291 52.3787 59.1923C52.3787 26.5013 91.3783 0 139.487 0C168.595 0 194.369 9.70223 210.187 24.6073C217.577 22.2245 225.842 20.8913 234.565 20.8913C259.633 20.8913 280.916 31.9 288.517 47.1908C298.342 43.2847 310.133 41.0091 322.812 41.0091C353.252 41.0091 378.574 54.1262 383.857 71.4313C385.534 71.0919 387.274 70.9134 389.057 70.9134C402.925 70.9134 414.168 81.7141 414.168 95.0374C414.168 96.1499 414.09 97.2448 413.938 98.3173C421.986 105.997 427 116.828 427 128.83C427 152.12 408.12 171 384.83 171H42.1697C18.88 171 0 152.12 0 128.83C0 114.466 7.18189 101.779 18.1507 94.1649Z" fill="white"/>
</svg>
