<svg width="149" height="267" viewBox="0 0 149 267" fill="none" xmlns="http://www.w3.org/2000/svg">
<path d="M101.528 248.536C110.8 228.519 93.7637 203.555 87.5718 194.939L92.4532 173.054L113.584 82.7964C122.889 77.6201 148.901 62.2551 148.999 40.2067C149.098 18.1583 137.959 13.9975 128.72 11.4749C119.481 8.95226 101.594 13.4079 101.594 13.4079C101.594 13.4079 87.1459 2.43275 77.7106 0.827446C68.2753 -0.77786 56.5796 -2.15384 47.1443 18.2237C37.709 38.6013 54.9087 63.2379 61.1006 71.8542L45.5717 138.425L35.383 182.489C26.1115 187.666 0.0989299 203.031 0.000645823 225.079C-0.0976383 247.127 11.0412 251.288 20.2799 253.778C29.5186 256.268 47.2426 252.533 47.2426 252.533C47.2426 252.533 61.5265 264.163 70.9946 265.801C80.4626 267.439 92.1583 268.947 101.528 248.536Z" fill="white"/>
<path d="M56.6778 13.5063C57.607 11.6727 59.024 10.1309 60.773 9.05072C62.5597 7.74813 64.538 6.73135 66.6372 6.03673C69.2302 5.19311 71.9371 4.7511 74.6638 4.7262C77.3781 4.77012 80.0713 5.21171 82.6576 6.03673C84.7531 6.75469 86.7297 7.7816 88.5219 9.08351C90.2677 10.1576 91.6756 11.7017 92.5843 13.539C92.3549 13.7356 90.8807 11.9665 87.8666 10.0991C86.0841 9.00601 84.1682 8.14715 82.1662 7.54373C79.7265 6.83833 77.2031 6.4637 74.6638 6.42985C72.1162 6.46712 69.5839 6.83041 67.1286 7.51093C65.1266 8.11435 63.2107 8.97321 61.4282 10.0663C58.4141 11.9337 56.9399 13.7029 56.6778 13.5063Z" fill="#263238"/>
<path d="M137.435 21.3688C135.464 20.7884 133.546 20.0432 131.701 19.1411C127.209 17.3268 122.425 16.339 117.581 16.2253C112.747 16.1818 107.992 17.4498 103.821 19.8945C100.545 21.8274 99.1365 23.6621 98.9399 23.4655C98.7433 23.2689 99.9882 21.205 103.166 18.8789C107.41 15.9812 112.443 14.46 117.581 14.5217C122.648 14.6161 127.634 15.8122 132.193 18.0271C134.149 18.7722 135.933 19.9094 137.435 21.3688Z" fill="#263238"/>
</svg>
