<svg width="85" height="150" fill="none" xmlns="http://www.w3.org/2000/svg"><path d="M84.72 124.6h.07V24.48H.01V124.6h.06c-.36 6.52 3.73 13.1 12.35 18.08 16.56 9.56 43.4 9.56 59.95 0 8.62-4.98 12.71-11.56 12.35-18.08Z" fill="#EBEBEB"/><path d="M12.42 41.78c16.56 9.56 43.4 9.56 59.95 0 16.55-9.56 16.56-25.05 0-34.61-16.56-9.56-43.39-9.56-59.95 0-16.56 9.56-16.55 25.06 0 34.61Z" fill="#FAFAFA"/><path d="M42.36.46c11.24 0 21.8 2.53 29.74 7.11 7.94 4.58 12.26 10.5 12.26 16.91s-4.33 12.37-12.19 16.91c-7.86 4.54-18.5 7.1-29.74 7.1-11.24 0-21.81-2.52-29.75-7.1C4.74 36.81.5 30.84.5 24.48c0-6.36 4.32-12.37 12.18-16.91C20.54 3.03 31.18.46 42.43.46m0-.46c-10.85 0-21.7 2.39-30 7.17-16.55 9.56-16.55 25.06 0 34.61 8.28 4.78 19.13 7.17 30 7.17 10.87 0 21.7-2.39 30-7.17 16.56-9.55 16.56-25.05 0-34.61C64.15 2.39 53.31 0 42.43 0Z" fill="#E0E0E0"/><path d="M14.25 40.37c15.55 8.78 40.75 8.78 56.29 0s15.55-23 0-31.78C54.99-.19 29.8-.19 14.25 8.59c-15.55 8.78-15.54 23 0 31.78Z" fill="#E0E0E0"/><path d="M70.54 12.7C55 3.92 29.8 3.92 14.25 12.7 7.41 16.56 3.59 21.49 2.77 26.53c.82 5 4.64 10 11.48 13.84 15.55 8.78 40.75 8.78 56.29 0 6.85-3.86 10.67-8.79 11.49-13.84-.82-5.04-4.67-9.97-11.49-13.83Z" fill="#F5F5F5"/><path d="m30.79 25.07-5.83-3.36c-4.74-2.73-6-6.44-2.83-8.27 3.17-1.83 9.58-1.1 14.32 1.64l5.83 3.36c4.73 2.74 6 6.44 2.82 8.27-3.18 1.83-9.58 1.08-14.31-1.64Z" fill="#E0E0E0"/><path d="M24.69 18.52a6.909 6.909 0 0 0 6.26 0c1.73-1 1.73-2.62 0-3.62a6.91 6.91 0 0 0-6.26 0c-1.73 1-1.73 2.62 0 3.62ZM36.25 24.76a6.91 6.91 0 0 0 6.26 0c1.73-1 1.73-2.61 0-3.61a6.91 6.91 0 0 0-6.26 0c-1.73 1-1.73 2.62 0 3.61Z" fill="#F5F5F5"/><path d="M.01 117.45c-.06 6.31 4.08 12.62 12.41 17.43 16.56 9.56 43.4 9.56 59.95 0 8.28-4.78 12.42-11 12.42-17.3V31.07c0 6.27-4.14 12.53-12.42 17.31-16.55 9.56-43.39 9.56-59.95 0C4.09 43.57-.05 37.25.01 30.95v86.5Z" fill="#FFC100"/><path d="M.01 102.55c-.06 6.31 4.08 12.62 12.41 17.44 16.56 9.55 43.4 9.55 59.95 0 8.28-4.78 12.42-11 12.42-17.31V46.01c0 6.26-4.14 12.53-12.42 17.31-16.55 9.56-43.39 9.56-59.95 0C4.09 58.51-.05 52.19.01 45.88v56.67Z" fill="#455A64"/><path d="M20.04 99.32V72.07c-5.93-1.22-9.2-2.87-15.14-7.6v27.25c5.94 4.73 9.21 6.35 15.14 7.6Z" fill="#fff"/><path d="M6.8 78.26v.63a33.083 33.083 0 0 0 8.4 4.69v-.63a33.08 33.08 0 0 1-8.4-4.69ZM18.19 95.9v-.31c-4.51-1.28-6.89-2.47-11.39-5.72v.32c4.5 3.25 6.88 4.44 11.39 5.71ZM6.8 88.59v.64a33.08 33.08 0 0 0 8.4 4.69v-.64a33.08 33.08 0 0 1-8.4-4.69Zm10 1.73a.71.71 0 0 0-.15.26c-.033.12-.05.245-.05.37a1.352 1.352 0 0 0 .12.57l-.79-.37v-1.18a.12.12 0 0 0-.08-.12h-.06s-.07 0-.07.06v1.34a.11.11 0 0 0 .08.12c.46.23.69.33 1.14.53H17a.138.138 0 0 0 0-.06v-.08a.27.27 0 0 0 0-.12 1.076 1.076 0 0 1-.07-.15 1.204 1.204 0 0 1-.08-.19.993.993 0 0 1 0-.26.765.765 0 0 1 0-.27.548.548 0 0 1 .11-.2.31.31 0 0 1 .18-.09.411.411 0 0 1 .24 0c.095.025.183.07.26.13a.996.996 0 0 1 .19.22c.05.082.09.169.12.26.015.1.015.2 0 .3.005.073.005.147 0 .22a.708.708 0 0 1-.08.18.299.299 0 0 1-.13.12.38.38 0 0 1-.19 0 .1.1 0 0 0-.07 0 .111.111 0 0 0 0 .06v.1a.08.08 0 0 0 0 .07.49.49 0 0 0 .24 0 .39.39 0 0 0 .21-.13.55.55 0 0 0 .14-.25c.044-.122.065-.25.06-.38a1.751 1.751 0 0 0-.05-.4 1.94 1.94 0 0 0-.15-.36 1.421 1.421 0 0 0-.26-.29 1 1 0 0 0-.36-.18.65.65 0 0 0-.33 0 .47.47 0 0 0-.19.17h.01Zm-.86 2a.782.782 0 0 0-.19.24 1.1 1.1 0 0 0-.07.4c.001.156.025.31.07.46.05.13.113.254.19.37.074.105.161.199.26.28.087.07.185.123.29.16a.6.6 0 0 0 .29 0 .48.48 0 0 0 .26-.09.619.619 0 0 0 .19-.25c.048-.128.072-.264.07-.4a1.26 1.26 0 0 0 0-.28l.77.89h.05v-.03a.198.198 0 0 0 0-.09l-.05-.06-1-1.16-.1-.11-.13-.12-.16-.12a.721.721 0 0 0-.2-.09.74.74 0 0 0-.29-.05.62.62 0 0 0-.26.06l.01-.01Zm.8.36a1.001 1.001 0 0 1 .31.49c.01.096.01.194 0 .29a.993.993 0 0 1 0 .26.52.52 0 0 1-.12.19.34.34 0 0 1-.19.09.57.57 0 0 1-.25 0 .892.892 0 0 1-.25-.14 1.45 1.45 0 0 1-.19-.23.813.813 0 0 1-.11-.27 1.006 1.006 0 0 1 0-.29.752.752 0 0 1 0-.26.4.4 0 0 1 .11-.19.46.46 0 0 1 .19-.08.55.55 0 0 1 .25 0 .77.77 0 0 1 .24.15l.01-.01Zm-1.49-3v-.32a33.002 33.002 0 0 1-8.4-4.67v.38a33 33 0 0 0 8.39 4.64l.01-.03Zm3 6.91v-.31c-4.51-1.28-6.89-2.47-11.39-5.72v.32c4.44 3.27 6.82 4.47 11.33 5.74l.06-.03ZM6.86 83.4v.67a33.083 33.083 0 0 0 8.4 4.69v-.63a33.712 33.712 0 0 1-8.46-4.7l.06-.03Zm0-.78v.32a33.34 33.34 0 0 0 8.4 4.68v-.32a32.999 32.999 0 0 1-8.45-4.65l.05-.03Zm0 4.81v.32a33.083 33.083 0 0 0 8.4 4.69v-.32a32.863 32.863 0 0 1-8.46-4.66l.06-.03Zm0-1.9v1.09a33.34 33.34 0 0 0 8.4 4.68v-1.09a33.17 33.17 0 0 1-8.45-4.65l.05-.03Zm0-14.41v.32a33.083 33.083 0 0 0 8.4 4.69v-.32a33.08 33.08 0 0 1-8.47-4.66l.07-.03Zm8.92 5.77v1.59a.11.11 0 0 0 .08.12c.05 0 .08 0 .08-.06v-1.41c.85.74 1.28 1.1 2.13 1.76h.05v-.09a.09.09 0 0 0 0-.07v-.06c-.84-.65-1.26-1-2.1-1.73h-.13c-.16-.1-.18-.08-.18-.02l.07-.03Zm2.44 3.68v-.31c-4.47-1.28-6.84-2.46-11.32-5.68v.32c4.46 3.25 6.77 4.43 11.25 5.7l.07-.03Zm-3-3.66v-.32a33.08 33.08 0 0 1-8.4-4.69v.32a33.083 33.083 0 0 0 8.37 4.72l.03-.03ZM6.8 73.07v.64a33.71 33.71 0 0 0 8.4 4.69v-.64a33.083 33.083 0 0 1-8.4-4.69Zm11.14 2.39v1.37l-.82-1.21a3.217 3.217 0 0 0-.35-.46 1 1 0 0 0-.65-.29.37.37 0 0 0-.23.07.39.39 0 0 0-.16.21c-.044.122-.065.25-.06.38a1.16 1.16 0 0 0 .07.42c.046.123.106.241.18.35.066.092.143.176.23.25.078.056.162.103.25.14.05 0 .07 0 .07-.06v-.08a.138.138 0 0 0 0-.06.089.089 0 0 0-.06-.06 1 1 0 0 1-.37-.33.911.911 0 0 1-.14-.49.5.5 0 0 1 .14-.41.35.35 0 0 1 .36 0 .519.519 0 0 1 .15.07c.051.026.098.06.14.1.051.052.098.11.14.17l.17.24c.36.55.54.82.9 1.35.022.037.05.07.08.1a.13.13 0 0 0 .06.05h.06c.05 0 .07 0 .07-.07v-1.68c0-.07 0-.1-.07-.12h-.06s-.1 0-.1.07v-.02Zm-2 12a.45.45 0 0 0-.21.22 1 1 0 0 0-.08.44c0 .17.027.339.08.5.048.138.119.266.21.38.089.106.193.197.31.27.116.077.24.14.37.19l.59.19c.116.038.238.059.36.06a.62.62 0 0 0 .31-.07.5.5 0 0 0 .21-.24c.058-.143.085-.296.08-.45a1.419 1.419 0 0 0-.08-.48 1.121 1.121 0 0 0-.21-.37c-.09-.1-.194-.184-.31-.25a1.69 1.69 0 0 0-.36-.17l-.59-.2a1.718 1.718 0 0 0-.37-.07.629.629 0 0 0-.29.08l-.02-.03Zm1.25.47c.217.064.411.19.56.36a.88.88 0 0 1 .21.6.51.51 0 0 1-.21.49.75.75 0 0 1-.56 0l-.28-.09-.27-.1a1.22 1.22 0 0 1-.57-.38 1 1 0 0 1-.21-.62c0-.24.07-.4.21-.47a.81.81 0 0 1 .57 0l.27.09.28.12Zm-2-13v-.63a33.083 33.083 0 0 1-8.4-4.69v.63a33.082 33.082 0 0 0 8.41 4.72l-.01-.03Zm-8.4-6.18c4.49 3.24 6.86 4.43 11.35 5.7v-.63c-4.49-1.28-6.86-2.47-11.35-5.7v.63Zm8.92 16.32v1.59a.12.12 0 0 0 .08.12c.05 0 .08 0 .08-.07v-1.4c.85.74 1.28 1.09 2.13 1.76h.05v-.14a.09.09 0 0 0 0-.07v-.06c-.84-.66-1.26-1-2.1-1.73h-.13c-.09-.06-.11 0-.11 0Zm-.51-.3v-.32a33.291 33.291 0 0 1-8.39-4.68v.3a33.002 33.002 0 0 0 8.39 4.73v-.03Zm0-3.08v-1.36a33.34 33.34 0 0 1-8.4-4.68v1.34a33.391 33.391 0 0 0 8.38 4.73l.02-.03Zm-8.38-.88v1.26a33.44 33.44 0 0 0 8.4 4.7V85.5a33.08 33.08 0 0 1-8.42-4.66l.02-.03Zm8.91.54v.13a.141.141 0 0 0 0 .06l.58 1.09a.12.12 0 0 0 .05 0 .06.06 0 0 0 .06 0s.05-.06 0-.12l-.48-.91c.83.31 1.25.45 2.08.69.05 0 .07 0 .07-.07v-.08c0-.06 0-.1-.07-.11-.91-.27-1.37-.42-2.29-.77 0 .04-.02.06-.02.12l.02-.03Zm2.24 2.27V85c-.33-.48-.49-.72-.82-1.22a2.605 2.605 0 0 0-.35-.45 1 1 0 0 0-.39-.24.63.63 0 0 0-.26-.05.37.37 0 0 0-.23.07.45.45 0 0 0-.16.21 1 1 0 0 0-.06.37c.001.146.025.291.07.43.044.121.104.236.18.34a1.123 1.123 0 0 0 .48.4c.05 0 .07 0 .07-.06v-.08a.249.249 0 0 0 0-.07.17.17 0 0 0-.06-.06.88.88 0 0 1-.37-.32.919.919 0 0 1-.14-.5.479.479 0 0 1 .14-.4.35.35 0 0 1 .36 0l.15.06.14.11c.054.05.1.107.14.17a1.9 1.9 0 0 1 .17.24c.36.55.54.82.9 1.35a.29.29 0 0 0 .08.1h.12c.05 0 .07 0 .07-.07v-1.69c0-.06 0-.1-.07-.11h-.06s-.12.06-.12.12l.02-.03Z" fill="#455A64"/><path d="M20.05 106.5a.81.81 0 0 1-.26 0c-6.33-1.82-9.74-4-15.46-8.58a.919.919 0 1 1 1.15-1.43c6.14 4.9 9.32 6.67 14.82 8.25a.92.92 0 0 1-.25 1.8v-.04Z" fill="#FFC100"/><path d="M20.05 106.5a.81.81 0 0 1-.26 0c-6.33-1.82-9.74-4-15.46-8.58a.919.919 0 1 1 1.15-1.43c6.14 4.9 9.32 6.67 14.82 8.25a.92.92 0 0 1-.25 1.8v-.04Z" fill="#fff" opacity=".5"/><path d="M20.05 112.64h-.19a29.25 29.25 0 0 1-15.66-9.36.92.92 0 0 1 1.41-1.17 27.285 27.285 0 0 0 14.62 8.73.92.92 0 0 1-.18 1.82v-.02Z" fill="#FFC100"/><path d="M20.05 112.64h-.19a29.25 29.25 0 0 1-15.66-9.36.92.92 0 0 1 1.41-1.17 27.285 27.285 0 0 0 14.62 8.73.92.92 0 0 1-.18 1.82v-.02Z" fill="#fff" opacity=".5"/><path d="M49.18 103.25c-1.4-3.34-5.58-8-8.15-8-2.57 0-6.76 4.7-8.15 8-1.39 3.3-1 7.24 2.25 7.74s4.18-2.65 5.9-2.65c1.72 0 2.62 3.14 5.89 2.65 3.27-.49 3.65-4.4 2.26-7.74ZM39.67 87.16c.25 2.48-.87 4.67-2.51 4.9-1.64.23-3.18-1.61-3.43-4.09-.25-2.48.87-4.67 2.51-4.9 1.64-.23 3.18 1.61 3.43 4.09ZM32.63 94.58c.35 2.24-.56 4.32-2 4.63-1.44.31-3-1.24-3.33-3.49-.33-2.25.55-4.31 2-4.63 1.45-.32 2.97 1.25 3.33 3.49ZM42.36 87.16c-.25 2.48.88 4.67 2.52 4.9 1.64.23 3.17-1.61 3.43-4.09.26-2.48-.87-4.67-2.51-4.9-1.64-.23-3.16 1.61-3.44 4.09ZM49.43 94.58c-.36 2.24.55 4.32 2 4.63 1.45.31 3-1.24 3.33-3.49.33-2.25-.56-4.31-2-4.63-1.44-.32-2.98 1.25-3.33 3.49Z" fill="#FAFAFA"/><path d="M63.45 81.95c-.29 1.4-.43 2.09-.71 3.49-.027.1-.064.197-.11.29a.28.28 0 0 1-.18.16l-.67.16a.17.17 0 0 1-.19-.06.52.52 0 0 1-.1-.25c-.42-2.68-.62-4-1-6.73a.338.338 0 0 1 0-.09.36.36 0 0 1 .07-.22.25.25 0 0 1 .15-.12l.61-.12a.21.21 0 0 1 .15 0 .35.35 0 0 1 .1.21c.27 1.81.41 2.71.69 4.51.24-1.24.36-1.86.61-3.1a.752.752 0 0 1 .08-.22.32.32 0 0 1 .21-.18l.67-.2a.18.18 0 0 1 .22.06.47.47 0 0 1 .07.17l.62 2.74.7-4.92a.551.551 0 0 1 .1-.27.36.36 0 0 1 .16-.12l.61-.24a.15.15 0 0 1 .16 0 .21.21 0 0 1 .07.18.34.34 0 0 1 0 .09c-.43 3-.64 4.42-1.07 7.36a1 1 0 0 1-.09.3.35.35 0 0 1-.2.18l-.67.23a.16.16 0 0 1-.19 0 .71.71 0 0 1-.1-.23c-.35-1.22-.49-1.83-.77-3.06ZM71.36 80.81a.14.14 0 0 1 .16 0 .19.19 0 0 1 .07.17v.79a.44.44 0 0 1-.07.24.36.36 0 0 1-.16.18 33.579 33.579 0 0 1-3.7 1.88.13.13 0 0 1-.16 0 .25.25 0 0 1-.07-.18v-7.11a.55.55 0 0 1 .07-.24.33.33 0 0 1 .16-.15 34.011 34.011 0 0 0 3.61-1.83h.16a.19.19 0 0 1 .07.17v.79a.44.44 0 0 1-.07.24.32.32 0 0 1-.16.18c-1.08.62-1.62.9-2.71 1.42v1.71c1-.48 1.52-.75 2.53-1.31a.14.14 0 0 1 .16 0 .23.23 0 0 1 .07.18v.78a.55.55 0 0 1-.07.24.41.41 0 0 1-.16.18c-1 .57-1.52.83-2.53 1.31v1.83c1.11-.55 1.67-.84 2.8-1.47ZM76.51 71.07c.06-.05.11-.06.16 0s.06.08.06.16v.78a.651.651 0 0 1-.06.26.72.72 0 0 1-.16.21c-.6.45-.9.66-1.5 1.08v6a.631.631 0 0 1-.07.26.47.47 0 0 1-.16.2l-.68.46a.14.14 0 0 1-.16 0s-.06-.08-.06-.16v-6c-.61.4-.91.59-1.51 1h-.16a.18.18 0 0 1-.07-.17v-.78a.5.5 0 0 1 .07-.25.32.32 0 0 1 .16-.18 42.62 42.62 0 0 0 4.14-2.87ZM63.04 91.23a2.551 2.551 0 0 1 1.06-.1c.287.03.555.157.76.36.22.22.382.491.47.79.112.384.176.78.19 1.18v1.63c-.02.448-.084.894-.19 1.33-.103.394-.261.77-.47 1.12a3.22 3.22 0 0 1-.74.86 2.91 2.91 0 0 1-1 .52c-.83.24-1.24.34-2.07.51a.15.15 0 0 1-.15-.06.26.26 0 0 1-.07-.2v-7.1a.36.36 0 0 1 .07-.22.22.22 0 0 1 .15-.12c.77-.17 1.17-.27 1.99-.5Zm1.36 2.62a2.36 2.36 0 0 0-.11-.62 1 1 0 0 0-.25-.44.78.78 0 0 0-.43-.22 1.21 1.21 0 0 0-.61.05c-.44.12-.66.18-1.1.28v5l1.14-.3a1.5 1.5 0 0 0 .59-.3c.162-.132.3-.291.41-.47.115-.189.2-.395.25-.61.062-.229.099-.463.11-.7.02-.58.02-1.13-.04-1.67h.04ZM66.41 92.95c.02-.415.08-.827.18-1.23.106-.397.26-.78.46-1.14.2-.368.453-.705.75-1a3.92 3.92 0 0 1 1.07-.74 2.72 2.72 0 0 1 1.07-.31 1.21 1.21 0 0 1 .76.24c.214.183.373.422.46.69.108.344.168.7.18 1.06v1.97a6.079 6.079 0 0 1-.18 1.26c-.096.42-.251.824-.46 1.2a4.27 4.27 0 0 1-.76 1 3.44 3.44 0 0 1-1.07.77 2.08 2.08 0 0 1-1.07.27 1.15 1.15 0 0 1-.75-.3 1.781 1.781 0 0 1-.46-.76 4.357 4.357 0 0 1-.18-1.09v-1.5c-.05-.09 0-.27 0-.39Zm3.8-1.71a1.22 1.22 0 0 0-.39-1 .88.88 0 0 0-.95 0 2.25 2.25 0 0 0-.94.87 2.9 2.9 0 0 0-.39 1.4V94.37a1.32 1.32 0 0 0 .39 1.05.86.86 0 0 0 .94 0 2.19 2.19 0 0 0 .95-.91 2.94 2.94 0 0 0 .39-1.42v-.94c0-.34.01-.64 0-.91ZM72.24 90.01a5.8 5.8 0 0 1 .67-2.55c.217-.4.483-.773.79-1.11a6.627 6.627 0 0 1 1.08-.94 3.67 3.67 0 0 1 1.2-.6 1.15 1.15 0 0 1 .75 0 .73.73 0 0 1 .39.42c.073.165.117.34.13.52a.46.46 0 0 1-.06.27.56.56 0 0 1-.16.2l-.68.51a.16.16 0 0 1-.14.05.109.109 0 0 1-.08-.07l-.09-.13a.43.43 0 0 0-.23-.14.891.891 0 0 0-.4 0 1.862 1.862 0 0 0-.63.32 3.18 3.18 0 0 0-1 1.12 3.14 3.14 0 0 0-.41 1.45v1.8c0 .59.15.95.41 1.06.26.11.58 0 1-.26a3 3 0 0 0 .57-.49c.172-.183.323-.384.45-.6.127-.234.224-.483.29-.74.07-.285.104-.577.1-.87v-.09c-.4.3-.61.45-1 .73a.13.13 0 0 1-.15 0 .18.18 0 0 1-.07-.17v-.78a.5.5 0 0 1 .07-.25.46.46 0 0 1 .15-.2c.77-.54 1.16-.83 1.92-1.41a.15.15 0 0 1 .16 0 .17.17 0 0 1 .07.16v1.21c0 .451-.053.901-.16 1.34a6.5 6.5 0 0 1-.47 1.32 6.34 6.34 0 0 1-.8 1.21c-.322.383-.696.72-1.11 1a3.049 3.049 0 0 1-1.1.52 1.12 1.12 0 0 1-.79-.12 1.34 1.34 0 0 1-.47-.66 3.578 3.578 0 0 1-.18-1.11v-1.49c0-.17-.02-.29-.02-.43ZM64.53 103.98a.161.161 0 0 1 .08-.022.16.16 0 0 1 .08.022.29.29 0 0 1 .07.19v.78a.482.482 0 0 1-.07.23.323.323 0 0 1-.16.15c-1.06.35-1.59.5-2.63.75v2.14c1-.24 1.47-.38 2.47-.7a.143.143 0 0 1 .075-.022c.027 0 .053.008.075.022a.248.248 0 0 1 .07.19v.78a.389.389 0 0 1-.07.23.248.248 0 0 1-.064.089.25.25 0 0 1-.096.051c-.807.278-1.628.512-2.46.7v2.52a.482.482 0 0 1-.131.307.213.213 0 0 1-.089.043l-.67.15a.16.16 0 0 1-.084-.008.155.155 0 0 1-.066-.052.275.275 0 0 1-.07-.2v-7.05a.361.361 0 0 1 .07-.22.213.213 0 0 1 .061-.077.213.213 0 0 1 .089-.043 24.902 24.902 0 0 0 3.52-.95ZM65.46 106.53c.011-.415.068-.828.17-1.23a4.8 4.8 0 0 1 .46-1.12c.203-.348.456-.664.75-.94a3.993 3.993 0 0 1 1.07-.7 2.54 2.54 0 0 1 1.06-.27c.276-.005.545.087.76.26.215.186.375.428.46.7.115.345.18.706.19 1.07v1.93c-.02.425-.08.846-.18 1.26a5.536 5.536 0 0 1-.46 1.19c-.204.368-.46.705-.76 1-.31.305-.672.553-1.07.73-.33.172-.698.255-1.07.24a1.233 1.233 0 0 1-.75-.33 1.86 1.86 0 0 1-.46-.78 4.008 4.008 0 0 1-.17-1.09v-1.46c-.02-.16-.01-.32 0-.46Zm3.78-1.59a1.268 1.268 0 0 0-.39-1 .879.879 0 0 0-.94 0 2.063 2.063 0 0 0-.94.84c-.25.421-.384.901-.39 1.39V108.03a1.36 1.36 0 0 0 .39 1.06.854.854 0 0 0 .94 0c.397-.183.727-.488.94-.87a2.94 2.94 0 0 0 .39-1.42v-.94c0-.35.01-.64 0-.92ZM71.28 103.8c.02-.425.08-.847.18-1.26a5.78 5.78 0 0 1 .46-1.22c.206-.394.461-.761.76-1.09a5 5 0 0 1 1.07-.92c.317-.23.678-.393 1.06-.48a1.002 1.002 0 0 1 .76.11c.217.147.379.361.46.61.106.323.167.66.18 1v1.97a7.276 7.276 0 0 1-.18 1.29 5.89 5.89 0 0 1-.45 1.28 6.68 6.68 0 0 1-.76 1.17c-.31.365-.67.685-1.07.95a2.637 2.637 0 0 1-1.07.45.99.99 0 0 1-.76-.18 1.438 1.438 0 0 1-.46-.68 4.11 4.11 0 0 1-.18-1.06v-1.46c-.01-.21 0-.34 0-.48Zm3.8-2.35c0-.507-.13-.84-.39-1-.23-.13-.55-.06-.94.2a2.68 2.68 0 0 0-.94 1 3.281 3.281 0 0 0-.39 1.47V104.98c0 .51.15.84.39 1 .24.16.55.08.94-.17.4-.266.724-.631.94-1.06.242-.46.376-.97.39-1.49v-.94c0-.34.01-.6 0-.87ZM79.58 95.07c.314-.29.672-.53 1.06-.71a1 1 0 0 1 .74-.07.85.85 0 0 1 .46.53c.122.344.186.705.19 1.07v1.63a7.69 7.69 0 0 1-.19 1.43c-.11.476-.26.94-.45 1.39a7.19 7.19 0 0 1-.74 1.28 6.404 6.404 0 0 1-1 1.12c-.83.71-1.25 1.06-2.09 1.72-.06 0-.11.06-.15 0-.04-.06-.07-.08-.07-.16v-7.13a.74.74 0 0 1 .22-.47c.8-.63 1.2-.98 2.02-1.63Zm1.35 1.84a2.084 2.084 0 0 0-.1-.56.462.462 0 0 0-.68-.27c-.224.099-.43.234-.61.4-.44.38-.67.57-1.11.93v5l1.15-1a3.44 3.44 0 0 0 .58-.64c.166-.22.307-.458.42-.71.107-.241.19-.493.25-.75.052-.25.086-.505.1-.76.02-.62.02-1.17 0-1.69v.05Z" fill="#fff"/><path opacity=".1" d="M59.76 147.69c-15.59 4-34.54 2.39-47.32-5-8.63-5-12.72-11.54-12.37-18.09H0V24.47c0 6.27 4.16 12.55 12.44 17.33a34.502 34.502 0 0 0 4.08 2v91.07c0 7.1 23.63 15.52 43.24 12.82Z" fill="#000"/></svg>