<svg width="20" height="20" viewBox="0 0 20 20" fill="none" xmlns="http://www.w3.org/2000/svg">
<path d="M12.1473 7.6875V10.8616C12.1473 10.942 12.0848 11.0045 12.0045 11.0045H11.4955C11.4464 11.0045 11.4018 10.9777 11.3795 10.9464L9.92411 8.98214V10.8661C9.92411 10.9464 9.86161 11.0089 9.78125 11.0089H9.27232C9.19196 11.0089 9.12947 10.9464 9.12947 10.8661V7.69197C9.12947 7.61161 9.19196 7.54911 9.27232 7.54911H9.77679C9.82143 7.54911 9.87054 7.57143 9.89286 7.61161L11.3482 9.57589V7.69197C11.3482 7.61161 11.4107 7.54911 11.4911 7.54911H12C12.0804 7.54465 12.1473 7.61161 12.1473 7.6875ZM8.48661 7.54465H7.97768C7.89732 7.54465 7.83482 7.60715 7.83482 7.6875V10.8616C7.83482 10.942 7.89732 11.0045 7.97768 11.0045H8.48661C8.56697 11.0045 8.62947 10.942 8.62947 10.8616V7.6875C8.62947 7.61161 8.56697 7.54465 8.48661 7.54465ZM7.25893 10.2054H5.87054V7.6875C5.87054 7.60715 5.80804 7.54465 5.72768 7.54465H5.21875C5.1384 7.54465 5.0759 7.60715 5.0759 7.6875V10.8616C5.0759 10.9018 5.08929 10.933 5.11608 10.9598C5.14286 10.9821 5.17411 11 5.21429 11H7.25447C7.33482 11 7.39732 10.9375 7.39732 10.8571V10.3482C7.39732 10.2723 7.33482 10.2054 7.25893 10.2054ZM14.8259 7.54465H12.7857C12.7098 7.54465 12.6429 7.60715 12.6429 7.6875V10.8616C12.6429 10.9375 12.7054 11.0045 12.7857 11.0045H14.8259C14.9062 11.0045 14.9687 10.942 14.9687 10.8616V10.3527C14.9687 10.2723 14.9062 10.2098 14.8259 10.2098H13.4375V9.67411H14.8259C14.9062 9.67411 14.9687 9.61161 14.9687 9.53125V9.01786C14.9687 8.9375 14.9062 8.875 14.8259 8.875H13.4375V8.33929H14.8259C14.9062 8.33929 14.9687 8.27679 14.9687 8.19643V7.6875C14.9643 7.61161 14.9018 7.54465 14.8259 7.54465ZM20 3.64733V16.3839C19.9955 18.3839 18.3571 20.0045 16.3527 20H3.61608C1.61608 19.9955 -0.00445508 18.3527 9.20161e-06 16.3527V3.61608C0.00447348 1.61608 1.64733 -0.00445508 3.64733 9.20161e-06H16.3839C18.3839 0.00447348 20.0045 1.64286 20 3.64733ZM17.25 9.12054C17.25 5.86161 13.9821 3.20983 9.96875 3.20983C5.95536 3.20983 2.68751 5.86161 2.68751 9.12054C2.68751 12.0402 5.27679 14.4866 8.77679 14.9509C9.62946 15.1339 9.53125 15.4464 9.33929 16.5937C9.30804 16.7768 9.19196 17.3125 9.96875 16.9866C10.7455 16.6607 14.1607 14.5179 15.692 12.7589C16.7455 11.5982 17.25 10.4241 17.25 9.12054Z" fill="black"/>
</svg>
