<svg width="368" height="93" viewBox="0 0 368 93" fill="none" xmlns="http://www.w3.org/2000/svg">
<path d="M111.879 46.4062L111.801 42.2852L134.359 41.7969L134.281 45.5273L125.16 45.8789L125.434 70.5273L121.117 70.6055V46.0352L111.879 46.4062ZM162.484 70.4492L157.875 71.1133C157.107 68.457 156.293 65.8203 155.434 63.2031L139.711 63.8867C138.773 66.3477 137.882 68.8411 137.035 71.3672L132.602 70.7617C134.438 65.8398 136.469 60.9961 138.695 56.2305C140.935 51.4648 143.318 46.7448 145.844 42.0703L151.312 42.168C153.552 46.6862 155.596 51.2956 157.445 55.9961C159.294 60.6836 160.974 65.5013 162.484 70.4492ZM148.168 45.3125C146.853 47.8125 145.609 50.3255 144.438 52.8516C143.266 55.3646 142.146 57.9102 141.078 60.4883L154.281 59.9219C153.396 57.4219 152.445 54.9674 151.43 52.5586C150.414 50.1497 149.327 47.7344 148.168 45.3125ZM187.816 65.3906C187.686 66.3021 187.432 67.1094 187.055 67.8125C186.664 68.5286 186.182 69.1471 185.609 69.668C185.036 70.1888 184.398 70.6315 183.695 70.9961C182.94 71.3607 182.198 71.6471 181.469 71.8555C180.688 72.0768 179.9 72.2331 179.105 72.3242C178.311 72.4284 177.549 72.4805 176.82 72.4805C175.818 72.4805 174.828 72.3698 173.852 72.1484C172.875 71.9401 171.918 71.6471 170.98 71.2695C170.03 70.8789 169.092 70.4167 168.168 69.8828C167.257 69.349 166.352 68.763 165.453 68.125L168.305 64.7656C169.32 65.6641 170.323 66.3737 171.312 66.8945C172.315 67.4023 173.214 67.7865 174.008 68.0469C174.945 68.3724 175.831 68.5807 176.664 68.6719C177.602 68.724 178.474 68.6523 179.281 68.457C180.102 68.2487 180.811 67.9622 181.41 67.5977C182.66 66.8294 183.357 65.8464 183.5 64.6484C183.539 64.1667 183.454 63.724 183.246 63.3203C182.842 62.5391 182.061 61.8815 180.902 61.3477C180.629 61.2174 180.342 61.1003 180.043 60.9961C179.757 60.8789 179.464 60.7682 179.164 60.6641C178.539 60.4688 177.895 60.2995 177.23 60.1562C176.579 60 175.948 59.8698 175.336 59.7656C174.594 59.6224 173.812 59.4466 172.992 59.2383C172.172 59.0169 171.365 58.737 170.57 58.3984C169.776 58.0469 169.027 57.6107 168.324 57.0898C167.608 56.556 167.003 55.9245 166.508 55.1953C165.987 54.4661 165.59 53.6133 165.316 52.6367C165.056 51.6602 164.971 50.5404 165.062 49.2773C165.141 48.2096 165.362 47.2656 165.727 46.4453C166.417 44.7917 167.53 43.4701 169.066 42.4805C169.796 42.0117 170.577 41.6211 171.41 41.3086C172.243 40.9961 173.103 40.7747 173.988 40.6445C174.887 40.5013 175.779 40.4362 176.664 40.4492C177.862 40.5013 179.092 40.6901 180.355 41.0156C181.475 41.3021 182.634 41.7253 183.832 42.2852C185.043 42.8451 186.143 43.6003 187.133 44.5508L184.945 48.0078C184.177 47.1354 183.292 46.4388 182.289 45.918C181.286 45.3841 180.342 44.9935 179.457 44.7461C178.467 44.4727 177.484 44.3164 176.508 44.2773C175.323 44.2773 174.268 44.4531 173.344 44.8047C172.419 45.1562 171.645 45.6185 171.02 46.1914C170.382 46.7513 169.893 47.3828 169.555 48.0859C169.229 48.7891 169.066 49.4792 169.066 50.1562C169.066 50.8203 169.262 51.4648 169.652 52.0898C170.056 52.7148 170.609 53.2812 171.312 53.7891C172.797 54.8568 174.646 55.5404 176.859 55.8398C177.341 55.8919 177.816 55.9635 178.285 56.0547C178.754 56.1328 179.229 56.2305 179.711 56.3477C180.648 56.582 181.547 56.8815 182.406 57.2461C183.279 57.6107 184.073 58.0469 184.789 58.5547C185.518 59.0885 186.124 59.681 186.605 60.332C187.1 61.0091 187.458 61.7708 187.68 62.6172C187.914 63.4505 187.96 64.375 187.816 65.3906ZM189.34 46.4062L189.262 42.2852L211.82 41.7969L211.742 45.5273L202.621 45.8789L202.895 70.5273L198.578 70.6055V46.0352L189.34 46.4062ZM225.57 57.0703L232.641 42.0703L237.074 42.207L227.328 61.2891V70.6445L223.285 70.8789L223.598 61.1914L212.68 42.5977L217.289 42.0703L225.57 57.0703ZM252.465 46.4062L252.387 42.2852L274.945 41.7969L274.867 45.5273L265.746 45.8789L266.02 70.5273L261.703 70.6055V46.0352L252.465 46.4062ZM303.07 70.4492L298.461 71.1133C297.693 68.457 296.879 65.8203 296.02 63.2031L280.297 63.8867C279.359 66.3477 278.467 68.8411 277.621 71.3672L273.188 70.7617C275.023 65.8398 277.055 60.9961 279.281 56.2305C281.521 51.4648 283.904 46.7448 286.43 42.0703L291.898 42.168C294.138 46.6862 296.182 51.2956 298.031 55.9961C299.88 60.6836 301.56 65.5013 303.07 70.4492ZM288.754 45.3125C287.439 47.8125 286.195 50.3255 285.023 52.8516C283.852 55.3646 282.732 57.9102 281.664 60.4883L294.867 59.9219C293.982 57.4219 293.031 54.9674 292.016 52.5586C291 50.1497 289.913 47.7344 288.754 45.3125ZM307.406 42.168L311.762 42.3242L312.016 69.3164H308.09L307.406 42.168ZM323.09 67.6367L340.375 66.2891L340.57 70.4492L319.281 71.9141L319.164 42.207L323.207 41.9922L323.09 67.6367ZM365.785 65.3906C365.655 66.3021 365.401 67.1094 365.023 67.8125C364.633 68.5286 364.151 69.1471 363.578 69.668C363.005 70.1888 362.367 70.6315 361.664 70.9961C360.909 71.3607 360.167 71.6471 359.438 71.8555C358.656 72.0768 357.868 72.2331 357.074 72.3242C356.28 72.4284 355.518 72.4805 354.789 72.4805C353.786 72.4805 352.797 72.3698 351.82 72.1484C350.844 71.9401 349.887 71.6471 348.949 71.2695C347.999 70.8789 347.061 70.4167 346.137 69.8828C345.225 69.349 344.32 68.763 343.422 68.125L346.273 64.7656C347.289 65.6641 348.292 66.3737 349.281 66.8945C350.284 67.4023 351.182 67.7865 351.977 68.0469C352.914 68.3724 353.799 68.5807 354.633 68.6719C355.57 68.724 356.443 68.6523 357.25 68.457C358.07 68.2487 358.78 67.9622 359.379 67.5977C360.629 66.8294 361.326 65.8464 361.469 64.6484C361.508 64.1667 361.423 63.724 361.215 63.3203C360.811 62.5391 360.03 61.8815 358.871 61.3477C358.598 61.2174 358.311 61.1003 358.012 60.9961C357.725 60.8789 357.432 60.7682 357.133 60.6641C356.508 60.4688 355.863 60.2995 355.199 60.1562C354.548 60 353.917 59.8698 353.305 59.7656C352.562 59.6224 351.781 59.4466 350.961 59.2383C350.141 59.0169 349.333 58.737 348.539 58.3984C347.745 58.0469 346.996 57.6107 346.293 57.0898C345.577 56.556 344.971 55.9245 344.477 55.1953C343.956 54.4661 343.559 53.6133 343.285 52.6367C343.025 51.6602 342.94 50.5404 343.031 49.2773C343.109 48.2096 343.331 47.2656 343.695 46.4453C344.385 44.7917 345.499 43.4701 347.035 42.4805C347.764 42.0117 348.546 41.6211 349.379 41.3086C350.212 40.9961 351.072 40.7747 351.957 40.6445C352.855 40.5013 353.747 40.4362 354.633 40.4492C355.831 40.5013 357.061 40.6901 358.324 41.0156C359.444 41.3021 360.603 41.7253 361.801 42.2852C363.012 42.8451 364.112 43.6003 365.102 44.5508L362.914 48.0078C362.146 47.1354 361.26 46.4388 360.258 45.918C359.255 45.3841 358.311 44.9935 357.426 44.7461C356.436 44.4727 355.453 44.3164 354.477 44.2773C353.292 44.2773 352.237 44.4531 351.312 44.8047C350.388 45.1562 349.613 45.6185 348.988 46.1914C348.35 46.7513 347.862 47.3828 347.523 48.0859C347.198 48.7891 347.035 49.4792 347.035 50.1562C347.035 50.8203 347.23 51.4648 347.621 52.0898C348.025 52.7148 348.578 53.2812 349.281 53.7891C350.766 54.8568 352.615 55.5404 354.828 55.8398C355.31 55.8919 355.785 55.9635 356.254 56.0547C356.723 56.1328 357.198 56.2305 357.68 56.3477C358.617 56.582 359.516 56.8815 360.375 57.2461C361.247 57.6107 362.042 58.0469 362.758 58.5547C363.487 59.0885 364.092 59.681 364.574 60.332C365.069 61.0091 365.427 61.7708 365.648 62.6172C365.883 63.4505 365.928 64.375 365.785 65.3906Z" fill="black"/>
<mask id="path-2-outside-1_412_34" maskUnits="userSpaceOnUse" x="21.1545" y="56.1785" width="77" height="20" fill="black">
<rect fill="white" x="21.1545" y="56.1785" width="77" height="20"/>
<path d="M96.5876 65.7383C96.5876 70.4657 79.9252 74.2981 59.3711 74.2981C38.8169 74.2981 22.1545 70.4657 22.1545 65.7383C22.1545 61.0108 38.8169 57.1785 59.3711 57.1785C79.9252 57.1785 96.5876 61.0108 96.5876 65.7383Z"/>
</mask>
<path d="M96.5876 65.7383C96.5876 70.4657 79.9252 74.2981 59.3711 74.2981C38.8169 74.2981 22.1545 70.4657 22.1545 65.7383C22.1545 61.0108 38.8169 57.1785 59.3711 57.1785C79.9252 57.1785 96.5876 61.0108 96.5876 65.7383Z" fill="white"/>
<path d="M95.5876 65.7383C95.5876 66.0147 95.4702 66.365 95.0844 66.7987C94.6931 67.2384 94.07 67.7105 93.1852 68.1916C91.4169 69.1532 88.7919 70.0508 85.463 70.8164C78.8212 72.344 69.5958 73.2981 59.3711 73.2981V75.2981C69.7005 75.2981 79.0834 74.3359 85.9113 72.7655C89.3172 71.9822 92.1425 71.0352 94.1407 69.9486C95.1392 69.4057 95.9784 68.8027 96.5786 68.1281C97.1843 67.4472 97.5876 66.6437 97.5876 65.7383H95.5876ZM59.3711 73.2981C49.1464 73.2981 39.921 72.344 33.2792 70.8164C29.9502 70.0508 27.3253 69.1532 25.5569 68.1916C24.6722 67.7105 24.049 67.2384 23.6578 66.7987C23.272 66.365 23.1545 66.0147 23.1545 65.7383H21.1545C21.1545 66.6437 21.5578 67.4472 22.1635 68.1281C22.7638 68.8027 23.603 69.4057 24.6015 69.9486C26.5996 71.0352 29.4249 71.9822 32.8309 72.7655C39.6588 74.3359 49.0416 75.2981 59.3711 75.2981V73.2981ZM23.1545 65.7383C23.1545 65.4618 23.272 65.1115 23.6578 64.6779C24.049 64.2381 24.6722 63.766 25.5569 63.2849C27.3253 62.3233 29.9502 61.4258 33.2792 60.6601C39.921 59.1325 49.1464 58.1785 59.3711 58.1785V56.1785C49.0416 56.1785 39.6588 57.1406 32.8309 58.711C29.4249 59.4944 26.5996 60.4413 24.6015 61.5279C23.603 62.0709 22.7638 62.6738 22.1635 63.3485C21.5578 64.0293 21.1545 64.8329 21.1545 65.7383H23.1545ZM59.3711 58.1785C69.5958 58.1785 78.8212 59.1325 85.463 60.6601C88.7919 61.4258 91.4169 62.3233 93.1852 63.2849C94.07 63.766 94.6931 64.2381 95.0844 64.6779C95.4702 65.1115 95.5876 65.4618 95.5876 65.7383H97.5876C97.5876 64.8329 97.1843 64.0293 96.5786 63.3485C95.9784 62.6738 95.1392 62.0709 94.1407 61.5279C92.1425 60.4413 89.3172 59.4944 85.9113 58.711C79.0834 57.1406 69.7005 56.1785 59.3711 56.1785V58.1785Z" fill="black" mask="url(#path-2-outside-1_412_34)"/>
<path d="M58.9744 70.8806H58.9911L59.0077 70.8795C59.5205 70.8452 60.0302 70.8113 60.5365 70.7776C68.4453 70.2512 75.5292 69.7797 80.7282 69.0149C83.49 68.6087 85.7594 68.1146 87.3492 67.4689C88.1435 67.1462 88.8021 66.7725 89.2688 66.3259C89.7443 65.8708 90.0363 65.3223 90.0363 64.6824C90.0363 64.0484 89.7469 63.4727 89.2843 62.9668C88.8242 62.4638 88.1695 62.0026 87.3683 61.5788C85.7651 60.7307 83.478 59.9822 80.6941 59.3593C75.1181 58.1117 67.4393 57.3445 58.9744 57.3445C50.5263 57.3445 43.0534 57.7211 37.6822 58.5759C35.0015 59.0026 32.8101 59.5534 31.2763 60.2538C29.7846 60.935 28.7063 61.8586 28.7063 63.1273C28.7063 64.3651 29.7436 65.4192 31.2324 66.2859C32.7621 67.1765 34.9516 67.979 37.6388 68.655C43.0207 70.0088 50.5054 70.8806 58.9744 70.8806Z" fill="white" stroke="black"/>
<path d="M90.3815 62.5064C90.3815 65.7409 76.8885 67.0115 57.8797 67.0115C38.871 67.0115 25 65.7409 25 62.5064C25 59.2718 38.871 55.2981 57.8797 55.2981C76.8885 55.2981 90.3815 59.2718 90.3815 62.5064Z" fill="white"/>
<path d="M5.80109 1.39466C5.5944 1.61848 5.33638 1.96545 5.05552 2.39108C4.6877 2.9485 4.25244 3.68478 3.79951 4.56408C2.89399 6.32203 1.91005 8.66686 1.25451 11.3161C-0.0550292 16.6084 -0.0685353 23.1935 4.58592 28.692C8.24689 33.0169 11.8089 36.8576 14.8445 39.8216C17.8206 42.7277 20.3312 44.8317 21.9437 45.6981C22.4412 46.2019 22.9262 46.6846 23.3968 47.1446C22.7871 50.0163 22.6761 53.0472 23.1461 56.1216C23.6625 59.4993 24.8378 62.0463 26.5497 63.9182C28.2612 65.7897 30.4764 66.9509 33.0128 67.6128C38.058 68.9293 44.4617 68.2895 50.9652 67.2665C57.461 66.2448 63.0592 64.9996 66.7698 62.2894C68.6421 60.9219 70.0393 59.179 70.83 56.913C71.6181 54.6545 71.7917 51.9109 71.2787 48.5552C69.219 35.083 56.7778 25.8435 43.4794 27.9352C36.5745 29.0212 30.8011 32.9494 27.1362 38.3592C25.2624 35.0417 22.8849 31.481 20.0217 28.0889C18.4363 24.5311 17.931 21.7203 17.6514 20.165L17.6435 20.1208C17.5607 19.6598 17.49 19.2663 17.4092 19.0143C17.387 18.945 17.3595 18.8711 17.3237 18.8015C17.2905 18.7368 17.2339 18.643 17.1393 18.5648C17.031 18.4752 16.875 18.4099 16.6927 18.4329C16.5325 18.4531 16.4178 18.5341 16.3523 18.5911C16.21 18.715 16.0985 18.9109 16.0132 19.0845C15.9174 19.2797 15.8171 19.5279 15.7174 19.8203C15.6391 20.0501 15.5598 20.3113 15.4825 20.6013C13.5626 15.7352 13.6487 11.5141 13.6937 9.3469L13.6948 9.28998C13.7061 8.751 13.7158 8.28694 13.6751 7.99583C13.6639 7.91551 13.6459 7.82332 13.6124 7.73481C13.5819 7.65397 13.5161 7.51561 13.3716 7.41668C13.1992 7.29872 13.0075 7.29724 12.8593 7.34387C12.733 7.38364 12.6361 7.45708 12.5734 7.51174C12.4549 7.61495 12.3328 7.76705 12.2153 7.93287C12.0923 8.10643 11.9548 8.32335 11.8075 8.57745C11.5124 9.08616 11.1687 9.75986 10.813 10.5664C10.232 11.8834 9.61382 13.5662 9.12195 15.4798C6.34551 9.75027 6.60971 4.45772 6.77401 1.81253C6.86501 1.67681 6.91231 1.5324 6.93625 1.41659C6.96997 1.25344 6.9755 1.05834 6.92551 0.896497C6.91256 0.854563 6.88527 0.779103 6.82703 0.704182C6.76994 0.630747 6.62175 0.48644 6.38266 0.500949C6.16458 0.514183 6.03969 0.652533 5.99726 0.70674C5.94674 0.771284 5.91771 0.836954 5.90126 0.879536C5.85307 1.00425 5.8217 1.17805 5.80109 1.39466ZM13.2364 8.26077C13.2364 8.26084 13.2353 8.26177 13.233 8.26336C13.2353 8.2615 13.2364 8.26071 13.2364 8.26077Z" fill="#FFBD00" fill-opacity="0.72" stroke="black"/>
<path d="M95.8623 63.3783C98.4673 57.6348 97.5949 51.1706 94.1346 46.4222C98.5491 42.9393 103.169 38.9493 106.538 35.4141C108.27 33.5976 109.689 31.8823 110.578 30.4048C111.023 29.6665 111.348 28.9661 111.506 28.3265C111.664 27.6878 111.666 27.0625 111.397 26.5218C110.709 25.1355 109.448 24.2768 107.992 23.7989C106.539 23.322 104.856 23.21 103.238 23.3364C101.618 23.463 100.032 23.8311 98.7617 24.3407C98.1268 24.5955 97.559 24.8903 97.1022 25.2168C96.6515 25.5389 96.2743 25.9162 96.0709 26.3485C95.8408 26.8374 95.7047 27.3328 95.8594 27.7608C96.0354 28.2479 96.4901 28.4244 96.8822 28.4832C97.2804 28.5429 97.7711 28.5104 98.2884 28.4445C98.8113 28.3779 99.4092 28.2702 100.037 28.1572L100.046 28.1555C101.127 27.9609 102.315 27.7476 103.489 27.6639C104.665 27.58 105.789 27.6299 106.746 27.9381C106.917 27.9932 106.944 28.0522 106.949 28.0637C106.96 28.0894 106.983 28.1739 106.926 28.3676C106.809 28.7681 106.441 29.3451 105.848 30.0611C104.68 31.4701 102.841 33.1833 101.189 34.7214L101.158 34.7509C99.9097 35.9132 98.7554 36.988 98.1462 37.7129C97.1813 38.8609 94.6255 41.1616 91.6863 43.7376C90.5326 42.7234 89.22 41.8558 87.764 41.1764C79.4741 37.3081 69.6678 40.9917 65.8589 49.3898C64.9027 51.498 64.6219 53.3976 64.9017 55.1255C65.1814 56.8523 66.0136 58.3614 67.206 59.7022C69.5726 62.3631 73.4188 64.4245 77.4309 66.2966C81.4348 68.1649 85.0577 69.5922 88.1711 69.4688C89.7494 69.4062 91.2034 68.9462 92.5053 67.9514C93.8007 66.9617 94.9156 65.4657 95.8623 63.3783Z" fill="#D9D9D9" stroke="black"/>
<path d="M97.2945 43.4293C96.5168 44.2413 96.7907 42.9329 96.1693 42.3206C95.5479 41.7082 94.2665 42.0238 95.0442 41.2118C95.8219 40.3998 96.6731 40.5995 97.2945 41.2118C97.9159 41.8242 98.0722 42.6174 97.2945 43.4293Z" fill="#866262"/>
<path d="M101.938 39.0732C101.16 39.8852 101.434 38.5768 100.812 37.9644C100.191 37.3521 98.9095 37.6677 99.6872 36.8557C100.465 36.0437 101.316 36.2433 101.938 36.8557C102.559 37.468 102.715 38.2612 101.938 39.0732Z" fill="#866262"/>
<path d="M107.045 34.0104C106.267 34.8224 106.541 33.514 105.92 32.9017C105.299 32.2893 104.017 32.6049 104.795 31.7929C105.573 30.981 106.424 31.1806 107.045 31.7929C107.667 32.4053 107.823 33.1985 107.045 34.0104Z" fill="#866262"/>
<path d="M110.021 26.7129C111.181 26.4961 111.278 27.5653 110.934 28.3716C110.589 29.1779 109.963 29.3218 108.686 29.1452C108.512 29.1452 107.18 29.1779 107.525 28.3716C107.869 27.5653 108.337 26.9082 110.021 26.7129Z" fill="#866262"/>
<path d="M98.656 24.8565C100.329 24.175 98.9178 25.5176 99.2408 26.333C99.5637 27.1485 101.498 27.1279 99.8255 27.8095C98.1528 28.4911 96.5349 28.3826 96.212 27.5672C95.889 26.7517 96.9833 25.5381 98.656 24.8565Z" fill="#866262"/>
<path d="M104.401 23.7913C105.529 23.6519 104.867 24.5643 104.971 25.4366C105.076 26.3089 105.908 26.8109 104.781 26.9503C103.653 27.0897 103.277 26.5444 103.172 25.6721C103.067 24.7997 103.274 23.9307 104.401 23.7913Z" fill="#866262"/>
<path d="M87.2871 62.574C86.5479 63.9426 83.6409 60.5478 79.1431 58.0483C74.6453 55.5489 70.2599 54.8914 70.9991 53.5227C71.7384 52.1541 75.9838 53.0707 80.4816 55.5702C84.9794 58.0696 88.0264 61.2053 87.2871 62.574Z" fill="#866262"/>
<path d="M46.9767 30.386C47.6895 31.6855 41.6849 31.0641 38.1524 33.0577C34.6198 35.0514 31.171 38.951 30.4582 37.6515C29.7453 36.352 34.6547 32.4259 36.3532 31.7038C41.1802 29.0475 46.2638 29.0865 46.9767 30.386Z" fill="#FFECB6"/>
<path d="M35.8125 63.3312C36.9864 62.4404 32.3375 61.9871 30.7998 59.9022C29.2621 57.8173 28.7522 54.2766 27.5782 55.1674C26.4043 56.0582 27.9549 59.8461 28.8141 60.6663C30.9498 63.4629 34.6385 64.222 35.8125 63.3312Z" fill="#FFECB6"/>
<path d="M80.3822 42.5292C80.8246 43.3356 76.9762 43.019 74.6842 44.3125C72.3923 45.6061 70.1315 48.094 69.6892 47.2876C69.2468 46.4812 72.4458 43.9589 73.545 43.4852C76.676 41.7603 79.9399 41.7229 80.3822 42.5292Z" fill="#F2F2F2"/>
<path d="M88.9409 55.976C88.2016 57.3447 86.1978 54.4517 82.8139 52.5713C79.4301 50.6909 75.9477 50.5352 76.687 49.1665C77.4262 47.7979 80.7686 48.2127 84.1525 50.0931C87.5363 51.9735 89.6801 54.6074 88.9409 55.976Z" fill="#866262"/>
<ellipse cx="49.1967" cy="30.676" rx="0.812536" ry="0.824164" fill="#FFECB6"/>
<ellipse cx="81.4643" cy="42.769" rx="0.464306" ry="0.470951" fill="#F2F2F2"/>
</svg>
