<svg width="192" height="107" viewBox="0 0 192 107" fill="none" xmlns="http://www.w3.org/2000/svg">
<path d="M110.222 44.1323C109.05 43.5091 108.113 42.5224 107.55 41.3205C106.988 40.1187 106.83 38.7666 107.102 37.4677C107.865 34.0011 110.083 31.5224 113.368 32.3977L118.915 17.0405C116.003 15.6711 115.864 12.6638 117.181 9.59585C117.645 8.457 118.444 7.48599 119.472 6.81154C120.501 6.13709 121.71 5.79103 122.939 5.81922C124.168 5.84742 125.36 6.24855 126.356 6.96944C127.353 7.69032 128.106 8.69692 128.517 9.85584C129.534 9.26214 130.702 8.97723 131.878 9.03585C133.054 9.09448 134.188 9.4941 135.141 10.186C136.093 10.8779 136.824 11.8321 137.244 12.9323C137.664 14.0325 137.754 15.2311 137.505 16.3818C136.768 19.8485 134.567 22.3531 131.291 21.5125L125.753 36.861C128.803 38.3084 128.916 41.6017 127.261 44.7563C126.719 45.8064 125.882 46.6753 124.853 47.2563C123.824 47.8373 122.647 48.1051 121.468 48.0269C120.289 47.9487 119.159 47.5278 118.215 46.8159C117.272 46.104 116.557 45.1322 116.159 44.0197C115.262 44.5456 114.245 44.8322 113.205 44.8519C112.166 44.8717 111.138 44.6239 110.222 44.1323Z" fill="#FFC100"/>
<g opacity="0.5">
<path d="M110.222 44.1323C109.05 43.5091 108.113 42.5224 107.55 41.3205C106.988 40.1187 106.83 38.7666 107.102 37.4677C107.865 34.0011 110.083 31.5224 113.368 32.3977L118.915 17.0405C116.003 15.6711 115.864 12.6638 117.181 9.59585C117.645 8.457 118.444 7.48599 119.472 6.81154C120.501 6.13709 121.71 5.79103 122.939 5.81922C124.168 5.84742 125.36 6.24855 126.356 6.96944C127.353 7.69032 128.106 8.69692 128.517 9.85584C129.534 9.26214 130.702 8.97723 131.878 9.03585C133.054 9.09448 134.188 9.4941 135.141 10.186C136.093 10.8779 136.824 11.8321 137.244 12.9323C137.664 14.0325 137.754 15.2311 137.505 16.3818C136.768 19.8485 134.567 22.3531 131.291 21.5125L125.753 36.861C128.803 38.3084 128.916 41.6017 127.261 44.7563C126.719 45.8064 125.882 46.6753 124.853 47.2563C123.824 47.8373 122.647 48.1051 121.468 48.0269C120.289 47.9487 119.159 47.5278 118.215 46.8159C117.272 46.104 116.557 45.1322 116.159 44.0197C115.262 44.5456 114.245 44.8322 113.205 44.8519C112.166 44.8717 111.138 44.6239 110.222 44.1323Z" fill="black"/>
</g>
<g opacity="0.2">
<path d="M117.537 16.113C116.003 14.5444 116.107 12.1004 117.147 9.62173C117.611 8.48288 118.41 7.51187 119.438 6.83742C120.466 6.16297 121.675 5.81691 122.904 5.8451C124.134 5.8733 125.325 6.27443 126.322 6.99532C127.318 7.7162 128.071 8.7228 128.483 9.88171C129.49 9.29654 130.644 9.0136 131.807 9.06668C132.971 9.11976 134.094 9.50664 135.044 10.1811C135.993 10.8555 136.729 11.789 137.162 12.8701C137.595 13.9512 137.708 15.1342 137.487 16.2777C137.348 15.35 136.985 14.4702 136.429 13.7148C135.872 12.9594 135.14 12.3512 134.296 11.9429C133.451 11.5347 132.519 11.3388 131.582 11.3723C130.644 11.4058 129.729 11.6676 128.916 12.135C128.517 11.0472 127.799 10.1048 126.857 9.43032C125.915 8.75588 124.791 8.38069 123.633 8.35358C122.474 8.32646 121.334 8.64868 120.361 9.27829C119.389 9.9079 118.628 10.8157 118.178 11.8837C117.548 13.1981 117.324 14.6708 117.537 16.113Z" fill="black"/>
<path d="M111.773 44.7129C111.232 44.5992 110.71 44.4095 110.222 44.1496C109.05 43.5264 108.113 42.5397 107.55 41.3378C106.988 40.136 106.83 38.7839 107.102 37.485C107.865 34.0183 110.092 31.5397 113.368 32.415L118.906 17.0837C119.281 17.4481 119.718 17.7418 120.197 17.9504L114.59 33.4463C111.479 32.5797 109.39 34.9456 108.653 38.2563C108.392 39.4887 108.539 40.7729 109.072 41.9144C109.605 43.0559 110.496 43.9927 111.609 44.5829L111.773 44.7129Z" fill="black"/>
<path d="M118.464 32.1291C119.001 29.8931 119.66 27.7091 120.397 25.5511C121.133 23.3931 121.939 21.2178 122.806 19.1292L122.936 18.8171L123.222 18.9385C124.516 19.47 125.787 20.0478 127.035 20.6718C125.672 20.3425 124.328 19.9698 123.005 19.5538L123.421 19.3631C122.745 21.5471 121.983 23.6965 121.177 25.8371C120.371 27.9778 119.478 30.0664 118.464 32.1291Z" fill="black"/>
</g>
<g opacity="0.5">
<path d="M136.378 17.5605C136.308 18.1926 136.123 18.8066 135.832 19.3719C135.543 19.9634 135.104 20.4685 134.558 20.8365C133.99 21.2045 133.328 21.4029 132.651 21.4085C132.318 21.4162 131.984 21.393 131.655 21.3392C131.325 21.2698 131.013 21.1745 130.701 21.0965L131.187 20.8625C130.372 23.3152 129.453 25.7418 128.587 28.1512C128.127 29.3645 127.625 30.5518 127.139 31.7478C126.654 32.9438 126.125 34.1311 125.579 35.3098C125.917 34.0531 126.264 32.8051 126.654 31.5745C127.044 30.3438 127.425 29.1045 127.841 27.8911C128.708 25.4385 129.575 23.0118 130.485 20.6025L130.615 20.2645L130.979 20.3685C131.256 20.4552 131.533 20.5505 131.845 20.6285C132.13 20.6945 132.42 20.738 132.712 20.7585C133.283 20.807 133.856 20.6864 134.359 20.4118C135.369 19.7519 136.091 18.7327 136.378 17.5605Z" fill="#FFC100"/>
<path d="M127.295 43.7163C127.026 44.6303 126.514 45.4541 125.813 46.0996C125.111 46.7832 124.25 47.2832 123.309 47.5556C122.355 47.812 121.349 47.7939 120.405 47.5036C119.499 47.2227 118.67 46.7329 117.987 46.0736C118.823 46.4271 119.695 46.6858 120.587 46.8449C121.427 46.9818 122.287 46.9405 123.109 46.7236C123.925 46.4782 124.69 46.0909 125.371 45.5796C126.101 45.0563 126.749 44.4285 127.295 43.7163Z" fill="#FFC100"/>
<path d="M115.968 43.6123C115.777 43.9109 115.507 44.1508 115.188 44.3056C114.886 44.4626 114.562 44.5708 114.226 44.6263C113.547 44.7631 112.842 44.6393 112.25 44.2796C112.838 44.0408 113.452 43.8721 114.079 43.777C114.703 43.6703 115.335 43.6152 115.968 43.6123Z" fill="#FFC100"/>
<path d="M126.585 21.9111C126.056 24.1471 125.389 26.3311 124.652 28.4978C123.915 30.6644 123.109 32.8311 122.243 34.9111L122.113 35.2231L121.827 35.1017C120.533 34.5702 119.261 33.9924 118.013 33.3684C119.374 33.6891 120.717 34.0617 122.043 34.4777L121.627 34.6684C122.303 32.4844 123.066 30.3351 123.872 28.1944C124.678 26.0538 125.571 23.9738 126.585 21.9111Z" fill="#FFC100"/>
</g>
<path d="M85.7823 22.6479C85.8557 23.9744 85.4965 25.2889 84.7589 26.3938C84.0212 27.4987 82.9449 28.3344 81.6916 28.7752C78.3116 29.9279 75.0617 29.3039 74.1083 26.0452L58.1011 29.2605C58.4391 32.4585 55.9431 34.1312 52.6498 34.6252C51.4328 34.8217 50.1848 34.6429 49.072 34.1125C47.9593 33.582 47.0345 32.7252 46.4208 31.656C45.8072 30.5869 45.5338 29.3561 45.6371 28.1277C45.7405 26.8993 46.2155 25.7315 46.9991 24.7799C45.9648 24.2174 45.1164 23.3662 44.5575 22.3298C43.9987 21.2935 43.7534 20.117 43.8518 18.9437C43.9501 17.7704 44.3877 16.6511 45.1112 15.7222C45.8347 14.7933 46.8129 14.0951 47.9265 13.7126C51.2978 12.534 54.5564 13.132 55.5358 16.3646L71.5257 13.1579C71.1877 9.79529 73.9437 7.95797 77.497 7.7673C78.6772 7.68455 79.8558 7.94868 80.8878 8.52717C81.9197 9.10566 82.7601 9.97327 83.3053 11.0232C83.8505 12.0732 84.0769 13.2596 83.9565 14.4365C83.8361 15.6134 83.3742 16.7295 82.6276 17.6472C83.5331 18.1463 84.2974 18.8668 84.8491 19.7413C85.4007 20.6157 85.7218 21.6157 85.7823 22.6479Z" fill="#FFC100"/>
<g opacity="0.5">
<path d="M85.7823 22.6479C85.8557 23.9744 85.4965 25.2889 84.7589 26.3938C84.0212 27.4987 82.9449 28.3344 81.6916 28.7752C78.3116 29.9279 75.0617 29.3039 74.1083 26.0452L58.1011 29.2605C58.4391 32.4585 55.9431 34.1312 52.6498 34.6252C51.4328 34.8217 50.1848 34.6429 49.072 34.1125C47.9593 33.582 47.0345 32.7252 46.4208 31.656C45.8072 30.5869 45.5338 29.3561 45.6371 28.1277C45.7405 26.8993 46.2155 25.7315 46.9991 24.7799C45.9648 24.2174 45.1164 23.3662 44.5575 22.3298C43.9987 21.2935 43.7534 20.117 43.8518 18.9437C43.9501 17.7704 44.3877 16.6511 45.1112 15.7222C45.8347 14.7933 46.8129 14.0951 47.9265 13.7126C51.2978 12.534 54.5564 13.132 55.5358 16.3646L71.5257 13.1579C71.1877 9.79529 73.9437 7.95797 77.497 7.7673C78.6772 7.68455 79.8558 7.94868 80.8878 8.52717C81.9197 9.10566 82.7601 9.97327 83.3053 11.0232C83.8505 12.0732 84.0769 13.2596 83.9565 14.4365C83.8361 15.6134 83.3742 16.7295 82.6276 17.6472C83.5331 18.1463 84.2974 18.8668 84.8491 19.7413C85.4007 20.6157 85.7218 21.6157 85.7823 22.6479Z" fill="black"/>
</g>
<g opacity="0.2">
<path d="M57.9971 30.933C57.4511 33.0563 55.3105 34.235 52.6498 34.625C51.2542 34.8193 49.8342 34.5274 48.6285 33.7982C47.4227 33.0691 46.5047 31.9472 46.0285 30.621C45.6809 29.6479 45.5877 28.6022 45.7575 27.583C45.9274 26.5637 46.3548 25.6048 46.9992 24.797C45.9771 24.2388 45.1372 23.3982 44.5799 22.3755C44.0227 21.3529 43.7715 20.1914 43.8565 19.0299C43.9415 17.8684 44.359 16.7559 45.0592 15.8253C45.7594 14.8946 46.7127 14.1852 47.8052 13.7817C47.0815 14.378 46.5146 15.1421 46.1536 16.0075C45.7926 16.8729 45.6486 17.8134 45.734 18.7472C45.8194 19.681 46.1317 20.5797 46.6438 21.3652C47.1558 22.1508 47.852 22.7993 48.6718 23.2544C47.9456 24.1626 47.5102 25.2687 47.4225 26.4282C47.3347 27.5878 47.5987 28.7468 48.18 29.7539C48.7612 30.7611 49.6327 31.5695 50.6806 32.0736C51.7285 32.5777 52.9041 32.7541 54.0538 32.5796C55.5027 32.435 56.8756 31.8617 57.9971 30.933Z" fill="black"/>
<path d="M85.4616 21.0356C85.977 22.5622 85.8703 24.2304 85.1647 25.6789C84.4591 27.1274 83.2114 28.2397 81.6916 28.7749C78.3116 29.9276 75.0617 29.3036 74.1083 26.045L58.1271 29.2516C58.2531 28.7417 58.2854 28.2131 58.2224 27.6916L74.403 24.433C75.313 27.527 78.3983 28.125 81.5963 27.033C82.7851 26.6162 83.8064 25.8247 84.5066 24.7775C85.2068 23.7303 85.548 22.4841 85.4789 21.2263L85.4616 21.0356Z" fill="black"/>
<path d="M71.2483 21.8243C69.0556 22.5263 66.837 23.0896 64.6097 23.5576C62.3823 24.0256 60.129 24.4763 57.8757 24.8229L57.5377 24.8749L57.4944 24.5716C57.2777 23.1936 57.1044 21.8069 56.9917 20.4116C57.4164 21.7463 57.7977 23.0896 58.127 24.4416L57.7457 24.1903C59.9644 23.6356 62.2003 23.1676 64.445 22.7516C66.6897 22.3356 68.9516 22.0236 71.2483 21.8243Z" fill="black"/>
</g>
<g opacity="0.5">
<path d="M49.5038 14.0505C50.0785 13.7808 50.6989 13.622 51.3324 13.5825C51.986 13.5191 52.6446 13.6329 53.2391 13.9118C53.8532 14.202 54.3685 14.6661 54.7211 15.2465C54.8988 15.5217 55.0525 15.8116 55.1804 16.1132C55.2931 16.4252 55.3711 16.7458 55.4664 17.0578L55.0071 16.7632C57.5262 16.1854 60.0597 15.6741 62.6077 15.2292C63.873 14.9865 65.1557 14.8045 66.4297 14.5965C67.7037 14.3885 69.0297 14.2325 70.2777 14.0852C69.0384 14.4492 67.7904 14.7958 66.5337 15.0992C65.277 15.4025 64.0204 15.7232 62.7637 15.9658C60.2417 16.5292 57.7024 17.0405 55.1631 17.4912L54.7991 17.5518L54.7124 17.1878C54.6344 16.9018 54.5738 16.6158 54.4958 16.3212C54.41 16.0448 54.2968 15.7777 54.1578 15.5238C53.9087 15.008 53.5101 14.5792 53.0138 14.2932C51.9185 13.7642 50.6615 13.6773 49.5038 14.0505Z" fill="#FFC100"/>
<path d="M76.5782 8.31324C77.4965 8.05574 78.4679 8.05574 79.3862 8.31324C80.3332 8.55646 81.2055 9.0298 81.9256 9.69123C82.6375 10.3755 83.1421 11.2466 83.3815 12.2045C83.6068 13.127 83.6068 14.0901 83.3815 15.0126C83.2536 14.1235 83.0268 13.2514 82.7055 12.4126C82.3907 11.6201 81.9089 10.9048 81.2929 10.3152C80.6635 9.72827 79.9322 9.26127 79.1349 8.93724C78.317 8.60773 77.456 8.39758 76.5782 8.31324Z" fill="#FFC100"/>
<path d="M82.3589 18.0112C82.7139 18.0191 83.0594 18.1272 83.3555 18.3232C83.6447 18.4986 83.905 18.7179 84.1269 18.9732C84.5935 19.4852 84.853 20.1525 84.8549 20.8452C84.3427 20.4652 83.8772 20.0259 83.4682 19.5366C83.0603 19.057 82.6894 18.5471 82.3589 18.0112Z" fill="#FFC100"/>
<path d="M58.2917 20.169C60.4757 19.4671 62.6944 18.9037 64.9304 18.4357C67.1664 17.9677 69.4024 17.5171 71.6644 17.1704L71.9937 17.1184L72.0457 17.4217C72.2624 18.7997 72.427 20.1864 72.5483 21.5817C72.115 20.2471 71.7424 18.9037 71.4044 17.5517L71.7857 17.8117C69.567 18.3577 67.3397 18.8344 65.0864 19.2417C62.8331 19.649 60.5797 19.9697 58.2917 20.169Z" fill="#FFC100"/>
</g>
<path d="M102.821 26.6257C102.671 27.9438 102.098 29.1778 101.186 30.142C100.275 31.1063 99.0758 31.7488 97.7682 31.973C94.2409 32.5536 91.1469 31.3837 90.7483 28.0124L74.429 28.4977C74.2297 31.713 71.4824 32.9437 68.1631 32.831C66.9343 32.8175 65.7385 32.4312 64.7341 31.7231C63.7298 31.015 62.9641 30.0187 62.5385 28.8658C62.1129 27.713 62.0474 26.4582 62.3507 25.2673C62.654 24.0764 63.3118 23.0058 64.2371 22.197C63.3117 21.4695 62.618 20.4884 62.2405 19.3734C61.863 18.2584 61.818 17.0577 62.1111 15.9176C62.4041 14.7775 63.0225 13.7473 63.8909 12.9525C64.7593 12.1578 65.8402 11.6329 67.0017 11.4417C70.5204 10.8438 73.6317 11.9791 74.0564 15.3331L90.3583 14.8478C90.5836 11.4764 93.6083 10.1678 97.1529 10.5144C98.3297 10.6316 99.4465 11.0902 100.366 11.8337C101.286 12.5773 101.968 13.5734 102.329 14.6995C102.69 15.8257 102.714 17.0327 102.398 18.1723C102.082 19.3119 101.44 20.3343 100.55 21.1137C101.371 21.7593 102.011 22.6059 102.409 23.5716C102.807 24.5372 102.949 25.5892 102.821 26.6257Z" fill="#FFC100"/>
<g opacity="0.5">
<path d="M102.821 26.6257C102.671 27.9438 102.098 29.1778 101.186 30.142C100.275 31.1063 99.0758 31.7488 97.7682 31.973C94.2409 32.5536 91.1469 31.3837 90.7483 28.0124L74.429 28.4977C74.2297 31.713 71.4824 32.9437 68.1631 32.831C66.9343 32.8175 65.7385 32.4312 64.7341 31.7231C63.7298 31.015 62.9641 30.0187 62.5385 28.8658C62.1129 27.713 62.0474 26.4582 62.3507 25.2673C62.654 24.0764 63.3118 23.0058 64.2371 22.197C63.3117 21.4695 62.618 20.4884 62.2405 19.3734C61.863 18.2584 61.818 17.0577 62.1111 15.9176C62.4041 14.7775 63.0225 13.7473 63.8909 12.9525C64.7593 12.1578 65.8402 11.6329 67.0017 11.4417C70.5204 10.8438 73.6317 11.9791 74.0564 15.3331L90.3583 14.8478C90.5836 11.4764 93.6083 10.1678 97.1529 10.5144C98.3297 10.6316 99.4465 11.0902 100.366 11.8337C101.286 12.5773 101.968 13.5734 102.329 14.6995C102.69 15.8257 102.714 17.0327 102.398 18.1723C102.082 19.3119 101.44 20.3343 100.55 21.1137C101.371 21.7593 102.011 22.6059 102.409 23.5716C102.807 24.5372 102.949 25.5892 102.821 26.6257Z" fill="black"/>
</g>
<g opacity="0.2">
<path d="M74.0476 30.1357C73.181 32.1377 70.8496 32.935 68.163 32.8743C66.9342 32.8608 65.7384 32.4745 64.734 31.7664C63.7297 31.0584 62.964 30.062 62.5384 28.9092C62.1128 27.7564 62.0473 26.5015 62.3506 25.3106C62.6539 24.1198 63.3117 23.0491 64.237 22.2404C63.3244 21.5212 62.6375 20.5551 62.258 19.457C61.8785 18.3588 61.8224 17.1748 62.0962 16.0456C62.37 14.9164 62.9624 13.8897 63.8028 13.0874C64.6432 12.2851 65.6963 11.741 66.837 11.5198C66.0244 11.9889 65.3389 12.6495 64.8401 13.4441C64.3413 14.2388 64.0444 15.1433 63.9752 16.079C63.9059 17.0147 64.0666 17.9531 64.443 18.8125C64.8194 19.6719 65.4003 20.4262 66.135 21.0097C65.2696 21.7811 64.6565 22.7953 64.3757 23.9201C64.0948 25.0449 64.1592 26.2282 64.5605 27.3159C64.9617 28.4036 65.6811 29.3452 66.6251 30.0182C67.5691 30.6912 68.6939 31.0643 69.853 31.089C71.3149 31.1962 72.7756 30.8642 74.0476 30.1357Z" fill="black"/>
<path d="M102.751 24.9792C102.884 25.7676 102.859 26.5744 102.679 27.3533C102.499 28.1322 102.166 28.8677 101.701 29.5177C101.235 30.1676 100.646 30.7192 99.9666 31.1406C99.2872 31.562 98.5313 31.8449 97.7422 31.9732C94.2149 32.5452 91.1209 31.3839 90.7222 28.0126L74.429 28.4979C74.6391 28.0153 74.7595 27.4984 74.7843 26.9726L91.2509 26.4786C91.6409 29.6765 94.5788 30.8119 97.9155 30.2312C99.1564 30.0208 100.295 29.4124 101.16 28.4977C102.024 27.5831 102.568 26.412 102.708 25.1612L102.751 24.9792Z" fill="black"/>
<path d="M88.6336 23.3757C86.3542 23.6964 84.0749 23.8784 81.7956 23.991C79.5163 24.1037 77.2283 24.147 74.949 24.1124H74.611V23.8004C74.611 22.4137 74.6976 21.0184 74.8103 19.623C75.0096 21.0097 75.157 22.3964 75.261 23.783L74.923 23.471C77.2023 23.2977 79.4903 23.2024 81.7696 23.1764C84.0489 23.1504 86.3456 23.185 88.6336 23.3757Z" fill="black"/>
</g>
<g opacity="0.5">
<path d="M68.501 12.0658C69.1125 11.8964 69.7505 11.8435 70.3816 11.9098C71.0384 11.9587 71.67 12.1832 72.2103 12.5598C72.7639 12.9486 73.1917 13.4909 73.4409 14.1198C73.5747 14.4271 73.6791 14.7463 73.7529 15.0731C73.8049 15.3938 73.831 15.7231 73.8656 16.0525L73.4756 15.6798C76.0756 15.5412 78.6323 15.4632 81.2236 15.4372C82.5149 15.4372 83.8236 15.4372 85.0976 15.4372C86.3716 15.4372 87.6976 15.4978 88.9802 15.5758C87.6889 15.7232 86.3802 15.8618 85.1149 15.9485C83.8496 16.0351 82.5149 16.1392 81.2409 16.1998C78.6698 16.3269 76.0872 16.402 73.493 16.4251H73.129V16.0525C73.129 15.7578 73.129 15.4631 73.0596 15.1858C73.0205 14.8913 72.9537 14.6012 72.8603 14.3192C72.6965 13.7699 72.3739 13.2814 71.933 12.9152C70.9409 12.2009 69.7116 11.8967 68.501 12.0658Z" fill="#FFC100"/>
<path d="M96.1649 10.9133C97.1123 10.8255 98.0655 10.9994 98.9209 11.4159C99.8151 11.8159 100.598 12.4289 101.2 13.2013C101.783 13.9972 102.134 14.9392 102.214 15.9226C102.286 16.8709 102.138 17.8231 101.781 18.7046C101.802 17.806 101.723 16.9079 101.547 16.0266C101.365 15.1941 101.01 14.4089 100.507 13.7212C99.9808 13.0366 99.3384 12.4499 98.6089 11.9879C97.852 11.5106 97.0283 11.1484 96.1649 10.9133Z" fill="#FFC100"/>
<path d="M100.229 21.4778C100.577 21.5423 100.899 21.7046 101.157 21.9458C101.413 22.167 101.632 22.4273 101.807 22.7171C102.184 23.2989 102.329 24.0008 102.214 24.6844C101.773 24.2267 101.389 23.7174 101.07 23.1678C100.749 22.6259 100.468 22.061 100.229 21.4778Z" fill="#FFC100"/>
<path d="M76.1364 19.5797C78.4157 19.2591 80.695 19.0771 82.9743 18.9644C85.2536 18.8517 87.5416 18.8084 89.8296 18.8517H90.1676V19.1637C90.1676 20.5504 90.0896 21.9457 89.9683 23.341C89.769 21.9544 89.6216 20.5677 89.5176 19.1811L89.8556 19.4931C87.5734 19.6664 85.2912 19.7646 83.009 19.7877C80.7123 19.8051 78.433 19.7617 76.1364 19.5797Z" fill="#FFC100"/>
</g>
<path d="M75.7636 40.8217C75.3566 42.0856 74.5501 43.1832 73.4653 43.9491C72.3805 44.715 71.0763 45.1078 69.749 45.0683C66.1783 44.9296 63.3704 43.179 63.6824 39.7903L47.5971 37.0343C46.7304 40.1457 43.8271 40.813 40.5858 40.085C39.3832 39.8282 38.2869 39.2121 37.4424 38.3181C36.5979 37.4242 36.0451 36.2947 35.8571 35.0794C35.6691 33.8641 35.8549 32.6204 36.3898 31.513C36.9248 30.4057 37.7836 29.4872 38.8525 28.879C38.0899 27.9823 37.6046 26.883 37.456 25.7152C37.3073 24.5474 37.5015 23.3616 38.0151 22.3024C38.5287 21.2431 39.3393 20.3561 40.3482 19.7496C41.3571 19.143 42.5207 18.8431 43.6971 18.8864C47.2678 18.9991 50.0844 20.7238 49.8418 24.0864L65.9183 26.8337C66.785 23.5837 70.0263 22.8904 73.4236 23.9564C74.5553 24.3035 75.5606 24.9741 76.3158 25.8855C77.0711 26.797 77.5432 27.9094 77.674 29.0858C77.8048 30.2622 77.5886 31.4512 77.0521 32.5063C76.5155 33.5614 75.682 34.4364 74.6543 35.0237C75.3176 35.8157 75.7676 36.764 75.9617 37.7786C76.1559 38.7933 76.0877 39.8407 75.7636 40.8217Z" fill="#FFC100"/>
<g opacity="0.5">
<path d="M75.7636 40.8217C75.3566 42.0856 74.5501 43.1832 73.4653 43.9491C72.3805 44.715 71.0763 45.1078 69.749 45.0683C66.1783 44.9296 63.3704 43.179 63.6824 39.7903L47.5971 37.0343C46.7304 40.1457 43.8271 40.813 40.5858 40.085C39.3832 39.8282 38.2869 39.2121 37.4424 38.3181C36.5979 37.4242 36.0451 36.2947 35.8571 35.0794C35.6691 33.8641 35.8549 32.6204 36.3898 31.513C36.9248 30.4057 37.7836 29.4872 38.8525 28.879C38.0899 27.9823 37.6046 26.883 37.456 25.7152C37.3073 24.5474 37.5015 23.3616 38.0151 22.3024C38.5287 21.2431 39.3393 20.3561 40.3482 19.7496C41.3571 19.143 42.5207 18.8431 43.6971 18.8864C47.2678 18.9991 50.0844 20.7238 49.8418 24.0864L65.9183 26.8337C66.785 23.5837 70.0263 22.8904 73.4236 23.9564C74.5553 24.3035 75.5606 24.9741 76.3158 25.8855C77.0711 26.797 77.5432 27.9094 77.674 29.0858C77.8048 30.2622 77.5886 31.4512 77.0521 32.5063C76.5155 33.5614 75.682 34.4364 74.6543 35.0237C75.3176 35.8157 75.7676 36.764 75.9617 37.7786C76.1559 38.7933 76.0877 39.8407 75.7636 40.8217Z" fill="black"/>
</g>
<g opacity="0.2">
<path d="M46.8604 38.5597C45.5951 40.345 43.1685 40.6743 40.5425 40.085C39.3398 39.8283 38.2436 39.2121 37.3991 38.3181C36.5546 37.4242 36.0017 36.2947 35.8137 35.0794C35.6258 33.8641 35.8116 32.6204 36.3465 31.5131C36.8814 30.4058 37.7403 29.4872 38.8092 28.8791C38.0575 27.9904 37.5773 26.9043 37.4259 25.7503C37.2745 24.5963 37.4583 23.4231 37.9553 22.3707C38.4523 21.3182 39.2415 20.431 40.2289 19.8147C41.2162 19.1985 42.36 18.8792 43.5238 18.8951C42.6322 19.1904 41.8264 19.6994 41.1769 20.3778C40.5273 21.0561 40.0536 21.8831 39.7971 22.7867C39.5407 23.6902 39.5093 24.6428 39.7057 25.5612C39.9021 26.4797 40.3203 27.3361 40.9238 28.0557C40.0766 28.5493 39.3692 29.2509 38.8688 30.0941C38.3683 30.9373 38.0913 31.8942 38.0638 32.8744C38.0352 34.2113 38.4675 35.5174 39.2882 36.5732C40.1088 37.629 41.2678 38.3702 42.5705 38.6723C43.9797 39.0635 45.4737 39.0242 46.8604 38.5597Z" fill="black"/>
<path d="M76.0496 39.201C76.0261 39.7515 75.9299 40.2964 75.7636 40.8217C75.3554 42.0849 74.5485 43.1817 73.464 43.9474C72.3795 44.7131 71.0759 45.1064 69.7489 45.0683C66.1783 44.9297 63.379 43.179 63.6823 39.7904L47.623 37.043C47.925 36.6099 48.1453 36.1253 48.273 35.613L64.5403 38.395C64.2803 41.6103 66.941 43.2743 70.3209 43.4043C71.5808 43.4411 72.8186 43.0681 73.8484 42.3414C74.8782 41.6148 75.6445 40.5736 76.0322 39.3743L76.0496 39.201Z" fill="black"/>
<path d="M62.495 34.8243C60.207 34.6943 57.9364 34.4257 55.6744 34.079C53.4124 33.7323 51.1677 33.325 48.9404 32.831L48.6024 32.7617L48.6718 32.4583C48.9664 31.0977 49.3044 29.7457 49.6944 28.4023C49.6164 29.7977 49.4864 31.1843 49.3131 32.571L49.0444 32.1897C51.3151 32.4757 53.5684 32.8397 55.813 33.2643C58.0577 33.689 60.285 34.1917 62.495 34.8243Z" fill="black"/>
</g>
<g opacity="0.5">
<path d="M45.0057 19.753C45.6378 19.7087 46.2725 19.7821 46.8777 19.9697C47.5127 20.1445 48.088 20.4891 48.5417 20.9664C48.9984 21.4643 49.2997 22.0848 49.4084 22.7517C49.4763 23.0768 49.514 23.4076 49.5211 23.7397C49.5211 24.069 49.4691 24.3983 49.4431 24.719L49.1311 24.277C51.6906 24.6583 54.2357 25.0917 56.7664 25.577C58.0403 25.811 59.3057 26.097 60.5623 26.3657C61.819 26.6343 63.0843 26.9463 64.341 27.2757C63.0496 27.163 61.741 27.0417 60.4757 26.8683C59.2103 26.695 57.8757 26.5563 56.6363 26.3483C54.0768 25.967 51.5317 25.5308 49.0011 25.0397L48.6457 24.9703V24.589C48.6457 24.303 48.7237 24.0083 48.7497 23.7223C48.7758 23.434 48.7758 23.144 48.7497 22.8557C48.7013 22.295 48.4939 21.7598 48.1517 21.313C47.3377 20.4144 46.2138 19.8571 45.0057 19.753Z" fill="#FFC100"/>
<path d="M72.349 24.095C73.2945 24.1974 74.1937 24.5571 74.949 25.135C75.7433 25.7049 76.386 26.4607 76.821 27.3363C77.2372 28.2314 77.3962 29.2246 77.2803 30.205C77.1632 31.1366 76.8276 32.0275 76.301 32.8049C76.4978 31.9287 76.5995 31.0337 76.6043 30.1356C76.5939 29.2844 76.4018 28.4453 76.041 27.6743C75.6606 26.9032 75.1439 26.2073 74.5157 25.6203C73.8746 25.0054 73.1441 24.4911 72.349 24.095Z" fill="#FFC100"/>
<path d="M74.2382 35.2664C74.583 35.3919 74.884 35.6146 75.1048 35.9077C75.3074 36.1718 75.4708 36.4637 75.5902 36.7743C75.8419 37.4179 75.8419 38.1328 75.5902 38.7763C75.2455 38.2358 74.9717 37.6533 74.7755 37.043C74.547 36.4669 74.3672 35.8726 74.2382 35.2664Z" fill="#FFC100"/>
<path d="M51.0031 28.6277C53.2997 28.7577 55.5704 29.0263 57.8324 29.373C60.0943 29.7197 62.3303 30.127 64.5663 30.621L64.8957 30.6903L64.835 30.9937C64.5403 32.3543 64.2023 33.7063 63.8123 35.0497C63.8903 33.6543 64.0203 32.2677 64.1937 30.881L64.4537 31.2623C62.1917 30.9763 59.9383 30.6123 57.6937 30.1877C55.449 29.763 53.213 29.2603 51.0031 28.6277Z" fill="#FFC100"/>
</g>
<path d="M155.358 30.8463C155.378 32.1743 154.967 33.473 154.185 34.5469C153.404 35.6207 152.295 36.4115 151.025 36.8002C147.601 37.8229 144.377 37.0602 143.554 33.7669L127.434 36.3669C127.651 39.5822 125.085 41.1596 121.775 41.5149C120.554 41.6583 119.319 41.4277 118.233 40.8538C117.147 40.2798 116.26 39.3895 115.691 38.3007C115.121 37.2118 114.896 35.9758 115.045 34.7561C115.193 33.5364 115.709 32.3906 116.523 31.4703C115.511 30.8672 114.696 29.9826 114.179 28.9244C113.661 27.8662 113.463 26.6802 113.608 25.5113C113.754 24.3423 114.236 23.2409 114.997 22.3415C115.757 21.4421 116.763 20.7835 117.892 20.4463C121.307 19.3977 124.539 20.1257 125.389 23.393L141.5 20.793C141.292 17.4303 144.1 15.7317 147.679 15.6537C148.861 15.6193 150.026 15.9307 151.033 16.5497C152.04 17.1686 152.844 18.0682 153.347 19.1378C153.849 20.2074 154.028 21.4006 153.862 22.5707C153.696 23.7408 153.192 24.8369 152.411 25.7243C153.295 26.2592 154.03 27.0096 154.545 27.9054C155.06 28.8011 155.34 29.813 155.358 30.8463Z" fill="#FFC100"/>
<g opacity="0.5">
<path d="M155.358 30.8463C155.378 32.1743 154.967 33.473 154.185 34.5469C153.404 35.6207 152.295 36.4115 151.025 36.8002C147.601 37.8229 144.377 37.0602 143.554 33.7669L127.434 36.3669C127.651 39.5822 125.085 41.1596 121.775 41.5149C120.554 41.6583 119.319 41.4277 118.233 40.8538C117.147 40.2798 116.26 39.3895 115.691 38.3007C115.121 37.2118 114.896 35.9758 115.045 34.7561C115.193 33.5364 115.709 32.3906 116.523 31.4703C115.511 30.8672 114.696 29.9826 114.179 28.9244C113.661 27.8662 113.463 26.6802 113.608 25.5113C113.754 24.3423 114.236 23.2409 114.997 22.3415C115.757 21.4421 116.763 20.7835 117.892 20.4463C121.307 19.3977 124.539 20.1257 125.389 23.393L141.5 20.793C141.292 17.4303 144.1 15.7317 147.679 15.6537C148.861 15.6193 150.026 15.9307 151.033 16.5497C152.04 17.1686 152.844 18.0682 153.347 19.1378C153.849 20.2074 154.028 21.4006 153.862 22.5707C153.696 23.7408 153.192 24.8369 152.411 25.7243C153.295 26.2592 154.03 27.0096 154.545 27.9054C155.06 28.8011 155.34 29.813 155.358 30.8463Z" fill="black"/>
</g>
<g opacity="0.2">
<path d="M127.269 38.0482C126.645 40.1455 124.461 41.2375 121.783 41.5149C120.563 41.6582 119.328 41.4277 118.242 40.8537C117.155 40.2798 116.269 39.3895 115.699 38.3006C115.13 37.2118 114.905 35.9757 115.053 34.7561C115.202 33.5364 115.717 32.3906 116.531 31.4702C115.533 30.8719 114.728 29.9989 114.212 28.9555C113.696 27.9121 113.491 26.7422 113.622 25.5856C113.752 24.4289 114.213 23.3343 114.949 22.4323C115.684 21.5302 116.664 20.8589 117.771 20.4983C117.02 21.0679 116.421 21.8129 116.025 22.668C115.629 23.5231 115.449 24.4621 115.5 25.403C115.552 26.3438 115.833 27.2577 116.319 28.0646C116.806 28.8716 117.483 29.5469 118.291 30.0316C117.527 30.9068 117.045 31.9921 116.908 33.1457C116.771 34.2992 116.985 35.4673 117.522 36.4972C118.06 37.527 118.895 38.3708 119.92 38.9181C120.945 39.4654 122.111 39.6908 123.265 39.5649C124.721 39.4674 126.115 38.9395 127.269 38.0482Z" fill="black"/>
<path d="M155.107 29.2517C155.262 29.7812 155.347 30.3292 155.358 30.881C155.38 32.2094 154.969 33.5088 154.187 34.5829C153.405 35.657 152.295 36.4475 151.025 36.835C147.601 37.8577 144.386 37.095 143.554 33.8017L127.46 36.4017C127.603 35.8948 127.656 35.3668 127.616 34.8417L143.909 32.2417C144.698 35.3703 147.757 36.0897 150.999 35.119C152.203 34.7493 153.255 33.9984 153.996 32.9793C154.737 31.9602 155.126 30.7281 155.107 29.4684V29.2517Z" fill="black"/>
<path d="M140.885 29.4772C138.675 30.0839 136.439 30.5605 134.185 30.9679C131.932 31.3752 129.679 31.6959 127.408 31.9559L127.07 31.9992V31.6872C126.914 30.3092 126.793 28.9139 126.732 27.5186C127.105 28.8619 127.434 30.2225 127.711 31.5832L127.339 31.3145C129.575 30.8552 131.828 30.4479 134.09 30.1445C136.352 29.8412 138.579 29.5812 140.885 29.4772Z" fill="black"/>
</g>
<g opacity="0.5">
<path d="M119.452 20.8453C120.038 20.5997 120.663 20.4646 121.298 20.4467C121.956 20.409 122.612 20.5497 123.196 20.854C123.799 21.1687 124.297 21.6539 124.626 22.2493C124.792 22.5257 124.934 22.8156 125.051 23.116C125.146 23.428 125.207 23.7486 125.293 24.0693L124.851 23.7486C127.388 23.2806 129.939 22.8704 132.504 22.518C133.778 22.336 135.104 22.1973 136.352 22.0413C137.6 21.8853 138.952 21.7813 140.217 21.686C138.961 21.998 137.695 22.3013 136.43 22.5526C135.165 22.804 133.899 23.0727 132.625 23.298C130.086 23.7573 127.529 24.1646 124.973 24.5113L124.609 24.5633L124.531 24.1906C124.47 23.9046 124.418 23.6186 124.349 23.324C124.276 23.0454 124.175 22.7752 124.045 22.518C123.803 22.0181 123.421 21.5995 122.945 21.3133C121.884 20.7126 120.633 20.5449 119.452 20.8453Z" fill="#FFC100"/>
<path d="M146.743 16.1131C147.672 15.9019 148.641 15.9529 149.542 16.2604C150.481 16.5426 151.335 17.0516 152.03 17.7424C152.716 18.4649 153.184 19.366 153.382 20.3424C153.577 21.2744 153.55 22.2393 153.304 23.1591C153.211 22.2737 153.019 21.4015 152.732 20.5591C152.448 19.7563 151.996 19.0234 151.406 18.4097C150.797 17.7999 150.084 17.3038 149.3 16.9451C148.492 16.5455 147.631 16.2652 146.743 16.1131Z" fill="#FFC100"/>
<path d="M152.151 26.106C152.506 26.1284 152.848 26.2484 153.139 26.4526C153.421 26.6411 153.673 26.872 153.884 27.1373C154.33 27.6671 154.561 28.3438 154.534 29.0353C154.038 28.6352 153.59 28.1786 153.2 27.6746C152.81 27.18 152.459 26.6555 152.151 26.106Z" fill="#FFC100"/>
<path d="M127.997 27.3106C130.207 26.6953 132.443 26.2186 134.697 25.8199C136.95 25.4213 139.203 25.0832 141.474 24.8232H141.812V25.1266C141.968 26.5132 142.089 27.8999 142.15 29.2952C141.777 27.9519 141.448 26.5912 141.171 25.2306L141.543 25.4992C139.299 25.9672 137.054 26.3659 134.792 26.6692C132.53 26.9726 130.285 27.1979 127.997 27.3106Z" fill="#FFC100"/>
</g>
<path d="M119.877 25.8284C120.212 27.1133 120.123 28.4722 119.621 29.7018C119.12 30.9314 118.233 31.9654 117.095 32.649C114.009 34.4517 110.699 34.4864 109.113 31.4877L94.0849 37.8317C95.0556 40.8997 92.9409 43.0317 89.8123 44.1757C88.6624 44.6044 87.4095 44.6743 86.2191 44.3762C85.0286 44.0781 83.9566 43.4259 83.1445 42.5059C82.3324 41.5858 81.8184 40.4411 81.6704 39.2229C81.5225 38.0046 81.7474 36.7701 82.3156 35.6824C81.1908 35.3378 80.1904 34.6737 79.4363 33.7708C78.6822 32.8678 78.2069 31.7651 78.0682 30.5969C77.9295 29.4287 78.1335 28.2454 78.6552 27.191C79.177 26.1367 79.9941 25.2567 81.007 24.6584C84.075 22.8211 87.3856 22.7604 88.9976 25.7331L104.026 19.3891C103.02 16.1651 105.36 13.8512 108.801 12.9238C109.942 12.6071 111.15 12.631 112.277 12.9927C113.405 13.3544 114.402 14.038 115.145 14.9594C115.889 15.8807 116.346 16.9994 116.462 18.1777C116.577 19.356 116.345 20.5423 115.795 21.5905C116.775 21.899 117.663 22.4486 118.376 23.189C119.089 23.9295 119.605 24.8369 119.877 25.8284Z" fill="#FFC100"/>
<g opacity="0.5">
<path d="M119.877 25.8284C120.212 27.1133 120.123 28.4722 119.621 29.7018C119.12 30.9314 118.233 31.9654 117.095 32.649C114.009 34.4517 110.699 34.4864 109.113 31.4877L94.0849 37.8317C95.0556 40.8997 92.9409 43.0317 89.8123 44.1757C88.6624 44.6044 87.4095 44.6743 86.2191 44.3762C85.0286 44.0781 83.9566 43.4259 83.1445 42.5059C82.3324 41.5858 81.8184 40.4411 81.6704 39.2229C81.5225 38.0046 81.7474 36.7701 82.3156 35.6824C81.1908 35.3378 80.1904 34.6737 79.4363 33.7708C78.6822 32.8678 78.2069 31.7651 78.0682 30.5969C77.9295 29.4287 78.1335 28.2454 78.6552 27.191C79.177 26.1367 79.9941 25.2567 81.007 24.6584C84.075 22.8211 87.3856 22.7604 88.9976 25.7331L104.026 19.3891C103.02 16.1651 105.36 13.8512 108.801 12.9238C109.942 12.6071 111.15 12.631 112.277 12.9927C113.405 13.3544 114.402 14.038 115.145 14.9594C115.889 15.8807 116.346 16.9994 116.462 18.1777C116.577 19.356 116.345 20.5423 115.795 21.5905C116.775 21.899 117.663 22.4486 118.376 23.189C119.089 23.9295 119.605 24.8369 119.877 25.8284Z" fill="black"/>
</g>
<g opacity="0.2">
<path d="M94.3102 39.5131C94.1975 41.7057 92.3342 43.283 89.8035 44.2017C88.6526 44.6321 87.3982 44.7029 86.2062 44.4047C85.0141 44.1065 83.9408 43.4534 83.1281 42.5317C82.3154 41.6101 81.8018 40.4634 81.6552 39.2434C81.5085 38.0234 81.7358 36.7877 82.3069 35.6997C81.1937 35.3573 80.2025 34.7015 79.4519 33.8109C78.7013 32.9203 78.223 31.8324 78.074 30.6772C77.925 29.522 78.1117 28.3484 78.6119 27.2965C79.112 26.2446 79.9043 25.3588 80.8943 24.7451C80.3108 25.4778 79.9148 26.3417 79.7404 27.2619C79.566 28.1821 79.6185 29.131 79.8933 30.0263C80.1681 30.9217 80.6571 31.7366 81.3177 32.4005C81.9784 33.0644 82.7909 33.5572 83.6849 33.8364C83.1617 34.8691 82.9606 36.0352 83.1077 37.1835C83.2548 38.3318 83.7433 39.4095 84.5099 40.277C85.2766 41.1445 86.286 41.7618 87.4075 42.049C88.5291 42.3362 89.711 42.28 90.8002 41.8877C92.1784 41.4589 93.3994 40.6328 94.3102 39.5131Z" fill="black"/>
<path d="M119.218 24.3118C119.499 24.7884 119.712 25.3017 119.851 25.8371C120.189 27.1197 120.102 28.4777 119.602 29.7063C119.102 30.9349 118.216 31.9677 117.077 32.6491C113.992 34.4517 110.69 34.4864 109.096 31.4877L94.0849 37.823C94.0996 37.2968 94.0234 36.772 93.8596 36.2717L109.061 29.8584C110.578 32.7011 113.715 32.6664 116.635 30.9504C117.71 30.2991 118.544 29.3169 119.013 28.1511C119.482 26.9854 119.56 25.699 119.235 24.4851L119.218 24.3118Z" fill="black"/>
<path d="M105.464 27.9258C103.462 29.0524 101.399 30.0404 99.3195 30.9678C97.2395 31.8951 95.1162 32.7618 92.9668 33.5678L92.6548 33.6891L92.5422 33.3944C92.0568 32.0944 91.6149 30.7713 91.2162 29.4251C91.9095 30.6471 92.5422 31.8864 93.1402 33.1431L92.7155 32.9698C94.7782 31.9904 96.8755 31.0804 98.9901 30.2224C101.105 29.3644 103.263 28.5758 105.464 27.9258Z" fill="black"/>
</g>
<g opacity="0.5">
<path d="M82.6102 24.65C83.1313 24.2594 83.7184 23.9658 84.3436 23.7833C84.9744 23.5926 85.6448 23.5747 86.2849 23.7313C86.95 23.8909 87.5531 24.2437 88.0182 24.7453C88.252 24.9804 88.4611 25.2389 88.6422 25.5166C88.8155 25.8026 88.9542 26.0973 89.1102 26.3833L88.6075 26.184C90.9562 25.118 93.3395 24.1213 95.7402 23.1593C96.9362 22.674 98.1495 22.232 99.3628 21.7813C100.576 21.3307 101.798 20.9147 103.029 20.5073C101.885 21.114 100.732 21.7033 99.5622 22.2406C98.3922 22.778 97.2308 23.3586 96.0435 23.8786C93.6862 24.9302 91.3057 25.9326 88.9022 26.8859L88.5642 27.0159L88.3995 26.678C88.2695 26.418 88.1569 26.1406 88.0182 25.8806C87.8776 25.63 87.7152 25.3922 87.5329 25.17C87.1798 24.7209 86.7042 24.3837 86.1636 24.1993C84.9656 23.8809 83.6908 24.0426 82.6102 24.65Z" fill="#FFC100"/>
<path d="M107.951 13.5739C108.805 13.1505 109.758 12.9677 110.707 13.0452C111.685 13.1065 112.634 13.4039 113.472 13.9118C114.304 14.442 114.973 15.1919 115.405 16.0785C115.814 16.9358 116.018 17.8762 116.003 18.8258C115.693 17.9831 115.295 17.1755 114.815 16.4165C114.341 15.7198 113.727 15.1295 113.013 14.6832C112.276 14.2376 111.466 13.9266 110.621 13.7645C109.745 13.5745 108.846 13.5103 107.951 13.5739Z" fill="#FFC100"/>
<path d="M115.595 21.9718C115.945 21.9051 116.306 21.9412 116.635 22.0758C116.948 22.1876 117.24 22.3485 117.502 22.5525C118.062 22.9608 118.448 23.5636 118.585 24.2425C118.008 23.9758 117.467 23.6381 116.973 23.2372C116.482 22.8513 116.022 22.4283 115.595 21.9718Z" fill="#FFC100"/>
<path d="M92.4468 28.8966C94.4488 27.7699 96.5114 26.7733 98.6001 25.846C100.689 24.9186 102.795 24.0606 104.944 23.246L105.256 23.1333L105.369 23.4193C105.854 24.7279 106.296 26.0193 106.695 27.3886C106.001 26.1753 105.369 24.9273 104.771 23.6706L105.195 23.844C103.133 24.832 101.035 25.7419 98.9207 26.5913C96.8061 27.4406 94.6481 28.2466 92.4468 28.8966Z" fill="#FFC100"/>
</g>
<path d="M125.926 16.0091C125.791 17.3298 125.23 18.5707 124.328 19.5446C123.426 20.5186 122.232 21.1727 120.925 21.4084C117.407 22.0238 114.295 20.8884 113.871 17.5171L97.5515 18.1671C97.3868 21.3824 94.6568 22.6478 91.3289 22.6044C90.101 22.602 88.9027 22.227 87.8924 21.5291C86.8822 20.8311 86.1075 19.843 85.6708 18.6954C85.2341 17.5477 85.156 16.2946 85.4467 15.1016C85.7373 13.9086 86.3832 12.8319 87.2989 12.0138C86.3667 11.2958 85.6634 10.3222 85.2747 9.21152C84.886 8.10088 84.8287 6.90117 85.1098 5.75854C85.3909 4.61592 85.9982 3.57969 86.8577 2.77609C87.7172 1.97248 88.7919 1.43618 89.9509 1.23253C93.4695 0.591198 96.5895 1.70055 97.0488 5.04586L113.351 4.39587C113.541 1.03322 116.549 -0.318776 120.093 0.0625554C121.272 0.166821 122.394 0.613346 123.322 1.34718C124.25 2.08102 124.943 3.07012 125.316 4.1928C125.689 5.31547 125.725 6.52271 125.421 7.66593C125.117 8.80914 124.485 9.83845 123.603 10.6272C124.414 11.255 125.052 12.0779 125.458 13.019C125.864 13.9602 126.025 14.9889 125.926 16.0091Z" fill="#FFC100"/>
<g opacity="0.5">
<path d="M125.926 16.0091C125.791 17.3298 125.23 18.5707 124.328 19.5446C123.426 20.5186 122.232 21.1727 120.925 21.4084C117.407 22.0238 114.295 20.8884 113.871 17.5171L97.5515 18.1671C97.3868 21.3824 94.6568 22.6478 91.3289 22.6044C90.101 22.602 88.9027 22.227 87.8924 21.5291C86.8822 20.8311 86.1075 19.843 85.6708 18.6954C85.2341 17.5477 85.156 16.2946 85.4467 15.1016C85.7373 13.9086 86.3832 12.8319 87.2989 12.0138C86.3667 11.2958 85.6634 10.3222 85.2747 9.21152C84.886 8.10088 84.8287 6.90117 85.1098 5.75854C85.3909 4.61592 85.9982 3.57969 86.8577 2.77609C87.7172 1.97248 88.7919 1.43618 89.9509 1.23253C93.4695 0.591198 96.5895 1.70055 97.0488 5.04586L113.351 4.39587C113.541 1.03322 116.549 -0.318776 120.093 0.0625554C121.272 0.166821 122.394 0.613346 123.322 1.34718C124.25 2.08102 124.943 3.07012 125.316 4.1928C125.689 5.31547 125.725 6.52271 125.421 7.66593C125.117 8.80914 124.485 9.83845 123.603 10.6272C124.414 11.255 125.052 12.0779 125.458 13.019C125.864 13.9602 126.025 14.9889 125.926 16.0091Z" fill="black"/>
</g>
<g opacity="0.2">
<path d="M97.1875 19.8051C96.3209 21.8158 94.0155 22.6391 91.3289 22.6044C89.9203 22.5774 88.564 22.0664 87.4877 21.1574C86.4114 20.2483 85.6806 18.9967 85.4182 17.6125C85.2288 16.5964 85.3021 15.5487 85.6313 14.5689C85.9604 13.589 86.5344 12.7095 87.2989 12.0138C86.3761 11.3019 85.6778 10.3393 85.2877 9.24105C84.8976 8.14279 84.8321 6.95537 85.099 5.82085C85.366 4.68633 85.9541 3.65273 86.793 2.84365C87.6319 2.03457 88.6861 1.48425 89.8296 1.25854C89.0156 1.73482 88.3309 2.40359 87.8356 3.20615C87.3403 4.00872 87.0495 4.92058 86.9888 5.86171C86.928 6.80284 87.0992 7.74449 87.4872 8.60407C87.8752 9.46365 88.4682 10.2149 89.2142 10.7918C88.3597 11.5738 87.7599 12.5944 87.4924 13.7213C87.2249 14.8483 87.3021 16.0296 87.714 17.1121C88.1259 18.1947 88.8535 19.1285 89.8025 19.7926C90.7515 20.4566 91.8781 20.8203 93.0362 20.8365C94.4918 20.914 95.9374 20.5549 97.1875 19.8051Z" fill="black"/>
<path d="M125.866 14.3799C126.006 15.1671 125.99 15.9745 125.818 16.7554C125.645 17.5363 125.32 18.2755 124.861 18.9303C124.402 19.5851 123.818 20.1427 123.142 20.571C122.467 20.9993 121.714 21.2898 120.926 21.4259C117.407 22.0325 114.304 20.8972 113.871 17.5345L97.5776 18.1845C97.7849 17.6987 97.8995 17.1785 97.9156 16.6505L114.382 15.9919C114.798 19.1898 117.745 20.2645 121.082 19.6839C122.322 19.461 123.456 18.8408 124.312 17.9169C125.169 16.9929 125.702 15.8153 125.831 14.5619L125.866 14.3799Z" fill="black"/>
<path d="M111.704 12.8979C109.434 13.2446 107.154 13.4526 104.875 13.5826C102.596 13.7126 100.316 13.7819 98.0283 13.7732H97.6903V13.4699C97.6903 12.0717 97.7423 10.6764 97.8463 9.28394C98.063 10.6706 98.219 12.0573 98.3403 13.4439L98.0023 13.1319C100.282 12.9326 102.561 12.8199 104.84 12.7679C107.12 12.7159 109.416 12.7333 111.704 12.8979Z" fill="black"/>
</g>
<g opacity="0.5">
<path d="M91.485 1.79591C92.0955 1.62105 92.7334 1.56225 93.3656 1.62257C94.0229 1.66219 94.6575 1.8777 95.203 2.24656C95.7617 2.63052 96.1956 3.16988 96.451 3.7979C96.5847 4.10516 96.6892 4.42435 96.763 4.75123C96.8236 5.0719 96.8496 5.40122 96.893 5.72189L96.4943 5.35788C99.0769 5.19032 101.66 5.08344 104.242 5.03722C105.534 5.03722 106.842 5.03722 108.116 5.03722C109.39 5.03722 110.716 5.08055 111.999 5.14121C110.716 5.30588 109.399 5.45321 108.134 5.54855C106.868 5.64388 105.534 5.77387 104.268 5.84321C101.691 5.99921 99.1116 6.10032 96.529 6.14654H96.165V5.77389C96.165 5.47922 96.1216 5.18456 96.087 4.90722C96.0416 4.61311 95.972 4.32324 95.879 4.04056C95.7113 3.49337 95.3857 3.00791 94.943 2.64522C93.9418 1.92936 92.7039 1.62534 91.485 1.79591Z" fill="#FFC100"/>
<path d="M119.114 0.348608C120.062 0.259873 121.016 0.424358 121.879 0.825261C122.771 1.20871 123.556 1.80362 124.167 2.55859C124.764 3.34563 125.125 4.28658 125.207 5.27124C125.293 6.21699 125.157 7.16991 124.808 8.05325C124.813 7.15361 124.723 6.25593 124.539 5.37524C124.355 4.54577 123.994 3.76559 123.482 3.08726C122.953 2.39904 122.304 1.81186 121.567 1.35394C120.8 0.905327 119.975 0.56689 119.114 0.348608Z" fill="#FFC100"/>
<path d="M123.283 10.9133C123.631 10.9782 123.954 11.1371 124.219 11.3727C124.477 11.5943 124.699 11.8545 124.877 12.144C125.257 12.7213 125.406 13.4207 125.293 14.1026C124.851 13.6473 124.464 13.1411 124.141 12.5947C123.808 12.0592 123.521 11.4968 123.283 10.9133Z" fill="#FFC100"/>
<path d="M99.1722 9.22329C101.443 8.87663 103.722 8.66865 106.002 8.53865C108.281 8.40865 110.569 8.3393 112.857 8.35663H113.195V8.66864C113.195 10.0553 113.134 11.4506 113.03 12.846C112.822 11.4593 112.658 10.0813 112.545 8.69464L112.883 9.00663C110.604 9.19729 108.324 9.30996 106.036 9.36196C103.748 9.41396 101.469 9.38796 99.1722 9.22329Z" fill="#FFC100"/>
</g>
<path d="M191.004 96.4094H0V107H191.004V96.4094Z" fill="#FFC100"/>
<path d="M157.698 29.4944H33.2972L8.9873 96.4094H182.008L157.698 29.4944Z" fill="#FFC100"/>
<path opacity="0.1" d="M182.008 96.4094L180.89 93.3154L31.2865 82.7508L40.1871 29.4944H33.2972L8.9873 96.4094H182.008Z" fill="black"/>
<g opacity="0.3">
<path d="M142.185 29.4944L166.494 96.4094H157.022L132.747 29.4944H142.185Z" fill="white"/>
<path d="M149.985 29.4944L174.294 96.4094H170.715L146.431 29.4944H149.985Z" fill="white"/>
</g>
<path d="M84.5516 55.6155C84.5516 57.0677 84.1209 58.4873 83.3139 59.6947C82.5069 60.902 81.36 61.8429 80.0181 62.3982C78.6763 62.9536 77.1999 63.0984 75.7757 62.8145C74.3515 62.5305 73.0436 61.8306 72.0173 60.8031C70.9911 59.7756 70.2926 58.4668 70.0104 57.0423C69.7281 55.6178 69.8747 54.1416 70.4316 52.8004C70.9886 51.4592 71.9308 50.3134 73.1391 49.5078C74.3474 48.7023 75.7675 48.2732 77.2197 48.2749C78.1832 48.2749 79.1374 48.4649 80.0275 48.8339C80.9176 49.2029 81.7263 49.7437 82.4072 50.4255C83.0882 51.1072 83.628 51.9165 83.996 52.8071C84.364 53.6976 84.5528 54.652 84.5516 55.6155Z" fill="white"/>
<path d="M84.471 67.6413C84.9357 63.6187 82.0515 59.9811 78.0289 59.5163C74.0063 59.0516 70.3687 61.9358 69.9039 65.9584C69.4392 69.981 72.3234 73.6187 76.346 74.0834C80.3686 74.5481 84.0063 71.6639 84.471 67.6413Z" fill="white"/>
<path d="M121.785 54.5611C122.109 50.5118 119.089 46.9665 115.039 46.6426C110.99 46.3186 107.445 49.3387 107.121 53.388C106.797 57.4373 109.817 60.9826 113.866 61.3065C117.916 61.6305 121.461 58.6105 121.785 54.5611Z" fill="white"/>
<path d="M121.151 66.8215C121.151 68.2716 120.721 69.6892 119.915 70.8949C119.109 72.1006 117.964 73.0404 116.625 73.5953C115.285 74.1503 113.811 74.2955 112.388 74.0125C110.966 73.7296 109.66 73.0314 108.634 72.006C107.609 70.9806 106.911 69.6741 106.628 68.2519C106.345 66.8296 106.49 65.3554 107.045 64.0156C107.6 62.6759 108.54 61.5308 109.745 60.7252C110.951 59.9195 112.369 59.4895 113.819 59.4895C115.763 59.4895 117.628 60.262 119.003 61.637C120.378 63.012 121.151 64.8769 121.151 66.8215Z" fill="white"/>
<path d="M112.935 54.8875H78.0602V67.4801H112.935V54.8875Z" fill="white"/>
</svg>
