<svg width="192" height="107" fill="none" xmlns="http://www.w3.org/2000/svg"><path d="M110.222 44.132a6.127 6.127 0 0 1-3.12-6.664c.763-3.467 2.981-5.946 6.266-5.07l5.547-15.358c-2.912-1.369-3.051-4.376-1.734-7.444a6.069 6.069 0 0 1 9.175-2.627 6.06 6.06 0 0 1 2.161 2.887 6.068 6.068 0 0 1 8.988 6.526c-.737 3.466-2.938 5.971-6.214 5.13l-5.538 15.349c3.05 1.447 3.163 4.74 1.508 7.895a6.066 6.066 0 0 1-11.102-.736 6.067 6.067 0 0 1-5.937.112Z" fill="#FFC100"/><path d="M110.222 44.132a6.127 6.127 0 0 1-3.12-6.664c.763-3.467 2.981-5.946 6.266-5.07l5.547-15.358c-2.912-1.369-3.051-4.376-1.734-7.444a6.069 6.069 0 0 1 9.175-2.627 6.06 6.06 0 0 1 2.161 2.887 6.068 6.068 0 0 1 8.988 6.526c-.737 3.466-2.938 5.971-6.214 5.13l-5.538 15.349c3.05 1.447 3.163 4.74 1.508 7.895a6.066 6.066 0 0 1-11.102-.736 6.067 6.067 0 0 1-5.937.112Z" fill="#000" opacity=".5"/><g opacity=".2" fill="#000"><path d="M117.537 16.113c-1.534-1.569-1.43-4.013-.39-6.491a6.069 6.069 0 0 1 9.175-2.627 6.073 6.073 0 0 1 2.161 2.887 6.066 6.066 0 0 1 9.004 6.396 5.764 5.764 0 0 0-8.571-4.143 5.772 5.772 0 0 0-10.738-.251 7.313 7.313 0 0 0-.641 4.229ZM111.773 44.713a5.866 5.866 0 0 1-1.551-.563 6.127 6.127 0 0 1-3.12-6.665c.763-3.467 2.99-5.945 6.266-5.07l5.538-15.331c.375.364.812.658 1.291.866l-5.607 15.496c-3.111-.866-5.2 1.5-5.937 4.81a5.804 5.804 0 0 0 2.956 6.327l.164.13ZM118.464 32.13a73.3 73.3 0 0 1 1.933-6.579 106.682 106.682 0 0 1 2.409-6.422l.13-.312.286.122a56.66 56.66 0 0 1 3.813 1.733 61.885 61.885 0 0 1-4.03-1.118l.416-.19a114.218 114.218 0 0 1-2.244 6.473 70.573 70.573 0 0 1-2.713 6.292Z"/></g><g opacity=".5" fill="#FFC100"><path d="M136.378 17.56a5.211 5.211 0 0 1-.546 1.812 3.752 3.752 0 0 1-1.274 1.465 3.562 3.562 0 0 1-1.907.572 5.403 5.403 0 0 1-.996-.07c-.33-.07-.642-.165-.954-.242l.486-.235c-.815 2.453-1.734 4.88-2.6 7.29-.46 1.212-.962 2.4-1.448 3.596a80.253 80.253 0 0 1-1.56 3.562 88.068 88.068 0 0 1 1.075-3.736c.39-1.23.771-2.47 1.187-3.683.867-2.452 1.734-4.88 2.644-7.288l.13-.338.364.104c.277.086.554.181.866.26.285.066.575.109.867.13a2.922 2.922 0 0 0 1.647-.347 4.758 4.758 0 0 0 2.019-2.851ZM127.295 43.716a5.257 5.257 0 0 1-1.482 2.384 5.97 5.97 0 0 1-2.504 1.456 5.245 5.245 0 0 1-2.904-.052 6.071 6.071 0 0 1-2.418-1.43c.836.353 1.708.612 2.6.77.84.138 1.7.096 2.522-.12a7.238 7.238 0 0 0 2.262-1.144 9.117 9.117 0 0 0 1.924-1.864ZM115.968 43.612a1.922 1.922 0 0 1-.78.694 3.222 3.222 0 0 1-.962.32 2.756 2.756 0 0 1-1.976-.346 8.082 8.082 0 0 1 1.829-.503 11.522 11.522 0 0 1 1.889-.165ZM126.585 21.911c-.529 2.236-1.196 4.42-1.933 6.587a103.487 103.487 0 0 1-2.409 6.413l-.13.312-.286-.121a56.684 56.684 0 0 1-3.814-1.734c1.361.321 2.704.694 4.03 1.11l-.416.19a114.257 114.257 0 0 1 2.245-6.474 70.423 70.423 0 0 1 2.713-6.283Z"/></g><path d="M85.782 22.648a6.136 6.136 0 0 1-4.09 6.127c-3.38 1.153-6.63.529-7.584-2.73L58.101 29.26c.338 3.198-2.158 4.871-5.451 5.365A6.068 6.068 0 0 1 47 24.78a6.067 6.067 0 0 1 .926-11.067c3.372-1.179 6.63-.581 7.61 2.652l15.99-3.207c-.338-3.363 2.418-5.2 5.971-5.39a6.067 6.067 0 0 1 5.13 9.88 6.12 6.12 0 0 1 3.155 5Z" fill="#FFC100"/><path d="M85.782 22.648a6.136 6.136 0 0 1-4.09 6.127c-3.38 1.153-6.63.529-7.584-2.73L58.101 29.26c.338 3.198-2.158 4.871-5.451 5.365A6.068 6.068 0 0 1 47 24.78a6.067 6.067 0 0 1 .926-11.067c3.372-1.179 6.63-.581 7.61 2.652l15.99-3.207c-.338-3.363 2.418-5.2 5.971-5.39a6.067 6.067 0 0 1 5.13 9.88 6.12 6.12 0 0 1 3.155 5Z" fill="#000" opacity=".5"/><g opacity=".2" fill="#000"><path d="M57.997 30.933c-.546 2.123-2.687 3.302-5.347 3.692a6.136 6.136 0 0 1-6.621-4.004 6.067 6.067 0 0 1 .97-5.824 6.067 6.067 0 0 1 .806-11.015 5.755 5.755 0 0 0 .867 9.472 5.78 5.78 0 0 0 5.382 9.326 7.323 7.323 0 0 0 3.943-1.647ZM85.462 21.036a6.127 6.127 0 0 1-3.77 7.739c-3.38 1.153-6.63.529-7.584-2.73l-15.98 3.207c.125-.51.157-1.039.094-1.56l16.181-3.259c.91 3.094 3.995 3.692 7.193 2.6a5.815 5.815 0 0 0 3.883-5.807l-.017-.19ZM71.248 21.824a66.774 66.774 0 0 1-6.638 1.734c-2.228.468-4.481.918-6.734 1.265l-.338.052-.044-.303a55.589 55.589 0 0 1-.502-4.16 60.56 60.56 0 0 1 1.135 4.03l-.381-.252a110.968 110.968 0 0 1 6.699-1.438 70.913 70.913 0 0 1 6.803-.928Z"/></g><g opacity=".5" fill="#FFC100"><path d="M49.504 14.05a5.043 5.043 0 0 1 1.828-.468 3.658 3.658 0 0 1 1.907.33c.614.29 1.13.754 1.482 1.334a5.7 5.7 0 0 1 .46.867c.112.312.19.633.285.945l-.459-.295c2.52-.578 5.053-1.089 7.6-1.534 1.266-.242 2.549-.424 3.823-.632 1.274-.208 2.6-.364 3.848-.512-1.24.364-2.488.71-3.744 1.014-1.257.303-2.514.624-3.77.867a175.894 175.894 0 0 1-7.6 1.525l-.365.06-.087-.363c-.078-.286-.138-.572-.216-.867a4.34 4.34 0 0 0-.338-.797 2.851 2.851 0 0 0-1.144-1.23 4.732 4.732 0 0 0-3.51-.244ZM76.578 8.313a5.2 5.2 0 0 1 2.808 0c.947.243 1.82.717 2.54 1.378a5.253 5.253 0 0 1 1.456 2.513 5.918 5.918 0 0 1 0 2.809 12.076 12.076 0 0 0-.677-2.6 5.937 5.937 0 0 0-1.412-2.098 7.064 7.064 0 0 0-2.158-1.378 9.195 9.195 0 0 0-2.557-.624ZM82.359 18.011c.355.008.7.116.997.312.289.176.549.395.77.65a2.79 2.79 0 0 1 .729 1.872 8.09 8.09 0 0 1-1.387-1.308c-.408-.48-.779-.99-1.11-1.526ZM58.292 20.169a65.58 65.58 0 0 1 6.638-1.733c2.236-.468 4.472-.919 6.734-1.266l.33-.052.052.304c.216 1.378.381 2.764.502 4.16a60.682 60.682 0 0 1-1.144-4.03l.382.26a109.512 109.512 0 0 1-6.7 1.43 74.41 74.41 0 0 1-6.794.927Z"/></g><path d="M102.821 26.626a6.124 6.124 0 0 1-5.053 5.347c-3.527.58-6.621-.59-7.02-3.96l-16.319.485c-.2 3.215-2.947 4.446-6.266 4.333a6.067 6.067 0 0 1-3.926-10.634 6.066 6.066 0 0 1 2.765-10.755c3.518-.598 6.63.537 7.054 3.891l16.302-.485c.226-3.372 3.25-4.68 6.795-4.334a6.066 6.066 0 0 1 3.397 10.6 6.067 6.067 0 0 1 2.271 5.512Z" fill="#FFC100"/><path d="M102.821 26.626a6.124 6.124 0 0 1-5.053 5.347c-3.527.58-6.621-.59-7.02-3.96l-16.319.485c-.2 3.215-2.947 4.446-6.266 4.333a6.067 6.067 0 0 1-3.926-10.634 6.066 6.066 0 0 1 2.765-10.755c3.518-.598 6.63.537 7.054 3.891l16.302-.485c.226-3.372 3.25-4.68 6.795-4.334a6.066 6.066 0 0 1 3.397 10.6 6.067 6.067 0 0 1 2.271 5.512Z" fill="#000" opacity=".5"/><g opacity=".2" fill="#000"><path d="M74.048 30.136c-.867 2.002-3.198 2.799-5.885 2.738a6.067 6.067 0 0 1-3.926-10.634 6.067 6.067 0 0 1 2.6-10.72 5.755 5.755 0 0 0-.702 9.49 5.772 5.772 0 0 0 3.718 10.079 7.358 7.358 0 0 0 4.195-.953ZM102.751 24.98a6.064 6.064 0 0 1-5.009 6.993c-3.527.572-6.621-.59-7.02-3.96l-16.293.485c.21-.483.33-1 .355-1.525l16.467-.494c.39 3.198 3.328 4.333 6.664 3.752a5.8 5.8 0 0 0 4.793-5.07l.043-.182ZM88.634 23.376c-2.28.32-4.56.502-6.838.615-2.28.113-4.568.156-6.847.121h-.338V23.8c0-1.386.087-2.782.2-4.177.199 1.387.346 2.773.45 4.16l-.338-.312a106.4 106.4 0 0 1 6.847-.295c2.279-.026 4.576.009 6.864.2Z"/></g><g opacity=".5" fill="#FFC100"><path d="M68.501 12.066a5.063 5.063 0 0 1 1.88-.156 3.675 3.675 0 0 1 1.83.65c.553.389.98.93 1.23 1.56.134.307.238.626.312.953.052.32.078.65.113.98l-.39-.373c2.6-.139 5.156-.217 7.748-.243h3.874c1.274 0 2.6.06 3.882.139-1.291.147-2.6.286-3.865.372-1.265.087-2.6.191-3.874.252a191.43 191.43 0 0 1-7.748.225h-.364v-.373c0-.294 0-.589-.07-.866a4.74 4.74 0 0 0-.199-.867 2.904 2.904 0 0 0-.927-1.404 4.75 4.75 0 0 0-3.432-.85ZM96.165 10.913a5.2 5.2 0 0 1 2.756.503A5.991 5.991 0 0 1 101.2 13.2a5.338 5.338 0 0 1 1.014 2.722c.072.948-.076 1.9-.433 2.782a12.218 12.218 0 0 0-.234-2.678 6.12 6.12 0 0 0-1.04-2.306 7.362 7.362 0 0 0-1.898-1.733 9.03 9.03 0 0 0-2.444-1.075ZM100.229 21.478c.348.064.67.227.928.468.256.221.475.481.65.771.377.582.522 1.284.407 1.967a7.904 7.904 0 0 1-1.144-1.516 12.954 12.954 0 0 1-.841-1.69ZM76.136 19.58c2.28-.32 4.559-.503 6.838-.616 2.28-.112 4.568-.156 6.856-.112h.338v.312c0 1.386-.078 2.782-.2 4.177a61.614 61.614 0 0 1-.45-4.16l.338.312c-2.283.173-4.565.272-6.847.295-2.297.017-4.576-.026-6.873-.208Z"/></g><path d="M75.764 40.822a6.127 6.127 0 0 1-6.015 4.246c-3.57-.138-6.379-1.889-6.067-5.278l-16.085-2.756c-.867 3.112-3.77 3.779-7.011 3.051a6.067 6.067 0 0 1-1.733-11.206 6.066 6.066 0 0 1 4.844-9.993c3.57.113 6.387 1.838 6.145 5.2l16.076 2.748c.867-3.25 4.108-3.944 7.506-2.878a6.066 6.066 0 0 1 1.23 11.068 6.066 6.066 0 0 1 1.11 5.798Z" fill="#FFC100"/><path d="M75.764 40.822a6.127 6.127 0 0 1-6.015 4.246c-3.57-.138-6.379-1.889-6.067-5.278l-16.085-2.756c-.867 3.112-3.77 3.779-7.011 3.051a6.067 6.067 0 0 1-1.733-11.206 6.066 6.066 0 0 1 4.844-9.993c3.57.113 6.387 1.838 6.145 5.2l16.076 2.748c.867-3.25 4.108-3.944 7.506-2.878a6.066 6.066 0 0 1 1.23 11.068 6.066 6.066 0 0 1 1.11 5.798Z" fill="#000" opacity=".5"/><g opacity=".2" fill="#000"><path d="M46.86 38.56c-1.265 1.785-3.691 2.114-6.318 1.525a6.066 6.066 0 0 1-1.733-11.206 6.067 6.067 0 0 1 4.715-9.984 5.753 5.753 0 0 0-2.6 9.16 5.764 5.764 0 0 0-2.86 4.82 5.824 5.824 0 0 0 4.507 5.797 7.332 7.332 0 0 0 4.29-.112ZM76.05 39.201a6.253 6.253 0 0 1-.286 1.62 6.136 6.136 0 0 1-6.015 4.247c-3.57-.138-6.37-1.889-6.067-5.278l-16.059-2.747c.302-.433.522-.918.65-1.43l16.267 2.782c-.26 3.215 2.401 4.88 5.78 5.01a5.823 5.823 0 0 0 5.712-4.03l.018-.174ZM62.495 34.824c-2.288-.13-4.559-.398-6.82-.745a103.462 103.462 0 0 1-6.735-1.248l-.338-.07.07-.303c.294-1.36.632-2.712 1.022-4.056a61.056 61.056 0 0 1-.38 4.169l-.27-.381c2.271.286 4.524.65 6.769 1.074 2.245.425 4.472.928 6.682 1.56Z"/></g><g opacity=".5" fill="#FFC100"><path d="M45.006 19.753a5.114 5.114 0 0 1 1.872.217c.635.175 1.21.52 1.664.996.456.498.758 1.119.866 1.786.068.325.106.656.113.988 0 .329-.052.658-.078.979l-.312-.442c2.56.381 5.105.815 7.635 1.3 1.274.234 2.54.52 3.796.789a85.2 85.2 0 0 1 3.779.91 79.81 79.81 0 0 1-3.865-.408c-1.266-.173-2.6-.312-3.84-.52-2.56-.381-5.104-.817-7.635-1.308l-.355-.07v-.381c0-.286.078-.58.104-.867a4.805 4.805 0 0 0 0-.866 2.955 2.955 0 0 0-.598-1.543 4.8 4.8 0 0 0-3.146-1.56ZM72.349 24.095a5.2 5.2 0 0 1 2.6 1.04 5.989 5.989 0 0 1 1.872 2.201c.416.895.575 1.889.46 2.869a5.962 5.962 0 0 1-.98 2.6c.197-.876.299-1.771.303-2.67a5.98 5.98 0 0 0-.563-2.46 7.126 7.126 0 0 0-1.525-2.055 8.797 8.797 0 0 0-2.167-1.525ZM74.238 35.266c.345.126.646.349.867.642.202.264.366.556.485.866a2.748 2.748 0 0 1 0 2.002 7.482 7.482 0 0 1-.815-1.733 11.066 11.066 0 0 1-.537-1.777ZM51.003 28.628c2.297.13 4.567.398 6.83.745 2.261.347 4.497.754 6.733 1.248l.33.07-.061.303a60.386 60.386 0 0 1-1.023 4.056c.078-1.396.208-2.782.382-4.169l.26.381c-2.262-.286-4.516-.65-6.76-1.074a74.824 74.824 0 0 1-6.69-1.56Z"/></g><path d="M155.358 30.846a6.129 6.129 0 0 1-4.333 5.954c-3.424 1.023-6.648.26-7.471-3.033l-16.12 2.6c.217 3.215-2.349 4.793-5.659 5.148a6.066 6.066 0 0 1-5.252-10.045 6.063 6.063 0 0 1-2.915-5.959 6.071 6.071 0 0 1 4.284-5.065c3.415-1.048 6.647-.32 7.497 2.947l16.111-2.6c-.208-3.363 2.6-5.061 6.179-5.14a6.066 6.066 0 0 1 4.732 10.071 6.11 6.11 0 0 1 2.947 5.122Z" fill="#FFC100"/><path d="M155.358 30.846a6.129 6.129 0 0 1-4.333 5.954c-3.424 1.023-6.648.26-7.471-3.033l-16.12 2.6c.217 3.215-2.349 4.793-5.659 5.148a6.066 6.066 0 0 1-5.252-10.045 6.063 6.063 0 0 1-2.915-5.959 6.071 6.071 0 0 1 4.284-5.065c3.415-1.048 6.647-.32 7.497 2.947l16.111-2.6c-.208-3.363 2.6-5.061 6.179-5.14a6.066 6.066 0 0 1 4.732 10.071 6.11 6.11 0 0 1 2.947 5.122Z" fill="#000" opacity=".5"/><g opacity=".2" fill="#000"><path d="M127.269 38.048c-.624 2.097-2.808 3.19-5.486 3.467a6.064 6.064 0 0 1-6.084-3.214 6.073 6.073 0 0 1 .832-6.83 6.068 6.068 0 0 1 1.24-10.973 5.76 5.76 0 0 0-1.452 7.567 5.77 5.77 0 0 0 1.972 1.967 5.77 5.77 0 0 0 1.629 8.886 5.773 5.773 0 0 0 3.345.647 7.354 7.354 0 0 0 4.004-1.517ZM155.107 29.252a6.117 6.117 0 0 1-4.082 7.583c-3.424 1.023-6.639.26-7.471-3.033l-16.094 2.6a4.49 4.49 0 0 0 .156-1.56l16.293-2.6c.789 3.128 3.848 3.848 7.09 2.877a5.817 5.817 0 0 0 4.108-5.65v-.217ZM140.885 29.477c-2.21.607-4.446 1.084-6.7 1.49-2.253.408-4.506.729-6.777.989l-.338.043v-.312a60.697 60.697 0 0 1-.338-4.168c.373 1.343.702 2.704.979 4.064l-.372-.268a99.038 99.038 0 0 1 6.751-1.17c2.262-.304 4.489-.564 6.795-.668Z"/></g><g opacity=".5" fill="#FFC100"><path d="M119.452 20.845a5.148 5.148 0 0 1 1.846-.398 3.655 3.655 0 0 1 1.898.407c.603.315 1.101.8 1.43 1.395.166.277.308.567.425.867.095.312.156.633.242.953l-.442-.32c2.537-.468 5.088-.879 7.653-1.231 1.274-.182 2.6-.32 3.848-.477 1.248-.156 2.6-.26 3.865-.355a82.243 82.243 0 0 1-3.787.867c-1.265.251-2.531.52-3.805.745-2.539.46-5.096.867-7.652 1.213l-.364.052-.078-.372c-.061-.286-.113-.572-.182-.867a4.074 4.074 0 0 0-.304-.806 2.859 2.859 0 0 0-1.1-1.205 4.725 4.725 0 0 0-3.493-.468ZM146.743 16.113a5.139 5.139 0 0 1 2.799.147 5.963 5.963 0 0 1 2.488 1.482 5.307 5.307 0 0 1 1.352 2.6 6.082 6.082 0 0 1-.078 2.817 11.926 11.926 0 0 0-.572-2.6 5.978 5.978 0 0 0-1.326-2.15 7.224 7.224 0 0 0-2.106-1.464 9.315 9.315 0 0 0-2.557-.832ZM152.151 26.106c.355.022.697.142.988.347.282.188.534.419.745.684.446.53.677 1.207.65 1.898a8.182 8.182 0 0 1-1.334-1.36c-.39-.495-.741-1.02-1.049-1.569ZM127.997 27.31c2.21-.615 4.446-1.091 6.7-1.49 2.253-.399 4.506-.737 6.777-.997h.338v.304c.156 1.386.277 2.773.338 4.168a59.85 59.85 0 0 1-.979-4.064l.372.268a94.666 94.666 0 0 1-6.751 1.17 80.784 80.784 0 0 1-6.795.642Z"/></g><path d="M119.877 25.828a6.145 6.145 0 0 1-2.782 6.821c-3.086 1.803-6.396 1.837-7.982-1.161l-15.028 6.344c.97 3.068-1.144 5.2-4.273 6.344a6.067 6.067 0 0 1-7.496-8.494 6.067 6.067 0 0 1-1.309-11.024c3.068-1.837 6.379-1.898 7.99 1.075l15.029-6.344c-1.006-3.224 1.334-5.538 4.775-6.465a6.065 6.065 0 0 1 7.661 5.254 6.075 6.075 0 0 1-.667 3.412 6.146 6.146 0 0 1 4.082 4.238Z" fill="#FFC100"/><path d="M119.877 25.828a6.145 6.145 0 0 1-2.782 6.821c-3.086 1.803-6.396 1.837-7.982-1.161l-15.028 6.344c.97 3.068-1.144 5.2-4.273 6.344a6.067 6.067 0 0 1-7.496-8.494 6.067 6.067 0 0 1-1.309-11.024c3.068-1.837 6.379-1.898 7.99 1.075l15.029-6.344c-1.006-3.224 1.334-5.538 4.775-6.465a6.065 6.065 0 0 1 7.661 5.254 6.075 6.075 0 0 1-.667 3.412 6.146 6.146 0 0 1 4.082 4.238Z" fill="#000" opacity=".5"/><g opacity=".2" fill="#000"><path d="M94.31 39.513c-.112 2.193-1.976 3.77-4.507 4.689a6.067 6.067 0 0 1-7.496-8.502 6.066 6.066 0 0 1-1.413-10.955 5.762 5.762 0 0 0 2.79 9.091 5.78 5.78 0 0 0 7.116 8.052 7.333 7.333 0 0 0 3.51-2.375ZM119.218 24.312a6.125 6.125 0 0 1 .384 5.394 6.115 6.115 0 0 1-2.525 2.943c-3.085 1.803-6.387 1.837-7.981-1.161l-15.011 6.335a4.575 4.575 0 0 0-.225-1.551l15.201-6.414c1.517 2.843 4.654 2.808 7.574 1.092a5.806 5.806 0 0 0 2.6-6.465l-.017-.173ZM105.464 27.926c-2.002 1.126-4.065 2.114-6.144 3.042-2.08.927-4.204 1.794-6.353 2.6l-.312.121-.113-.295a60.282 60.282 0 0 1-1.326-3.969 58.096 58.096 0 0 1 1.924 3.718l-.424-.173c2.062-.98 4.16-1.89 6.274-2.748 2.115-.858 4.273-1.646 6.474-2.296Z"/></g><g opacity=".5" fill="#FFC100"><path d="M82.61 24.65a5.424 5.424 0 0 1 1.734-.867 3.684 3.684 0 0 1 1.94-.052c.666.16 1.27.513 1.734 1.014.234.235.443.494.624.772.174.286.312.58.468.866l-.502-.199a172.434 172.434 0 0 1 7.132-3.025c1.196-.485 2.41-.927 3.623-1.378a107.65 107.65 0 0 1 3.666-1.274 68.042 68.042 0 0 1-3.467 1.734c-1.17.537-2.331 1.118-3.519 1.638a184.438 184.438 0 0 1-7.14 3.007l-.339.13-.164-.338c-.13-.26-.243-.537-.382-.797a4.902 4.902 0 0 0-.485-.711 2.956 2.956 0 0 0-1.37-.97 4.758 4.758 0 0 0-3.553.45ZM107.951 13.574a5.244 5.244 0 0 1 2.756-.529 6.068 6.068 0 0 1 2.765.867 5.346 5.346 0 0 1 1.933 2.166c.409.858.613 1.798.598 2.748a12.73 12.73 0 0 0-1.188-2.41 6.073 6.073 0 0 0-1.802-1.733 7.27 7.27 0 0 0-2.392-.918 9.44 9.44 0 0 0-2.67-.191ZM115.595 21.972c.35-.067.711-.03 1.04.104.313.112.605.273.867.476.56.409.946 1.012 1.083 1.69a7.654 7.654 0 0 1-1.612-1.005 12.262 12.262 0 0 1-1.378-1.265ZM92.447 28.897c2.002-1.127 4.064-2.124 6.153-3.051a123.236 123.236 0 0 1 6.344-2.6l.312-.113.113.286c.485 1.309.927 2.6 1.326 3.97a55.546 55.546 0 0 1-1.924-3.718l.424.173c-2.062.988-4.16 1.898-6.274 2.747-2.115.85-4.273 1.656-6.474 2.306Z"/></g><path d="M125.926 16.01a6.119 6.119 0 0 1-5.001 5.398c-3.518.616-6.63-.52-7.054-3.89l-16.32.65c-.164 3.214-2.894 4.48-6.222 4.436a6.067 6.067 0 0 1-4.03-10.59A6.067 6.067 0 0 1 89.95 1.233C93.47.59 96.59 1.7 97.049 5.046l16.302-.65c.19-3.363 3.198-4.715 6.742-4.333a6.067 6.067 0 0 1 3.51 10.564 6.06 6.06 0 0 1 2.323 5.382Z" fill="#FFC100"/><path d="M125.926 16.01a6.119 6.119 0 0 1-5.001 5.398c-3.518.616-6.63-.52-7.054-3.89l-16.32.65c-.164 3.214-2.894 4.48-6.222 4.436a6.067 6.067 0 0 1-4.03-10.59A6.067 6.067 0 0 1 89.95 1.233C93.47.59 96.59 1.7 97.049 5.046l16.302-.65c.19-3.363 3.198-4.715 6.742-4.333a6.067 6.067 0 0 1 3.51 10.564 6.06 6.06 0 0 1 2.323 5.382Z" fill="#000" opacity=".5"/><g opacity=".2" fill="#000"><path d="M97.188 19.805c-.867 2.01-3.172 2.834-5.86 2.8a6.135 6.135 0 0 1-5.91-4.992 6.066 6.066 0 0 1 1.88-5.6A6.067 6.067 0 0 1 89.83 1.26a5.764 5.764 0 0 0-.616 9.533 5.78 5.78 0 0 0 3.822 10.045 7.315 7.315 0 0 0 4.151-1.032ZM125.866 14.38a6.08 6.08 0 0 1-2.724 6.191 6.061 6.061 0 0 1-2.216.855c-3.519.607-6.622-.529-7.055-3.891l-16.293.65a4.237 4.237 0 0 0 .338-1.534l16.466-.66c.416 3.199 3.363 4.274 6.7 3.693a5.803 5.803 0 0 0 4.749-5.122l.035-.182ZM111.704 12.898c-2.27.347-4.55.555-6.829.685s-4.559.199-6.847.19h-.338v-.303c0-1.398.052-2.794.156-4.186.217 1.387.373 2.773.494 4.16l-.338-.312c2.28-.2 4.559-.312 6.838-.364 2.28-.052 4.576-.035 6.864.13Z"/></g><g opacity=".5" fill="#FFC100"><path d="M91.485 1.796a5.078 5.078 0 0 1 1.88-.173c.658.04 1.293.255 1.838.624.559.384.993.923 1.248 1.55.134.308.238.627.312.954.06.32.087.65.13.97l-.399-.363a165.38 165.38 0 0 1 7.748-.32h3.874c1.274 0 2.6.043 3.883.103-1.283.165-2.6.312-3.865.408-1.266.095-2.6.225-3.866.294-2.577.156-5.156.257-7.739.304h-.364v-.373c0-.295-.043-.59-.078-.867a5.418 5.418 0 0 0-.208-.866 2.904 2.904 0 0 0-.936-1.396 4.801 4.801 0 0 0-3.458-.85ZM119.114.349a5.374 5.374 0 0 1 2.765.476 5.983 5.983 0 0 1 2.288 1.734 5.204 5.204 0 0 1 1.04 2.712 6.074 6.074 0 0 1-.399 2.782c.005-.9-.085-1.797-.269-2.678a5.93 5.93 0 0 0-1.057-2.288 7.224 7.224 0 0 0-1.915-1.733 9.463 9.463 0 0 0-2.453-1.005ZM123.283 10.913c.348.065.671.224.936.46.258.221.48.482.658.771.38.577.529 1.277.416 1.959a8.037 8.037 0 0 1-1.152-1.508 11.18 11.18 0 0 1-.858-1.682ZM99.172 9.223c2.271-.346 4.55-.554 6.83-.684 2.279-.13 4.567-.2 6.855-.182h.338v.312c0 1.386-.061 2.782-.165 4.177a61.732 61.732 0 0 1-.485-4.151l.338.312c-2.279.19-4.559.303-6.847.355-2.288.052-4.567.026-6.864-.139Z"/></g><path d="M191.004 96.41H0V107h191.004V96.41ZM157.698 29.494h-124.4L8.987 96.41h173.02l-24.31-66.915Z" fill="#FFC100"/><path opacity=".1" d="m182.008 96.41-1.118-3.095L31.287 82.751l8.9-53.257h-6.89L8.987 96.41h173.021Z" fill="#000"/><g opacity=".3" fill="#fff"><path d="m142.185 29.494 24.309 66.915h-9.472l-24.275-66.915h9.438ZM149.985 29.494l24.309 66.915h-3.579l-24.284-66.915h3.554Z"/></g><path d="M84.552 55.615a7.34 7.34 0 1 1-7.332-7.34 7.332 7.332 0 0 1 7.332 7.34Z" fill="#fff"/><path d="M84.471 67.641a7.332 7.332 0 1 0-14.567-1.683 7.332 7.332 0 0 0 14.567 1.683ZM121.785 54.561a7.355 7.355 0 1 0-14.664-1.173 7.355 7.355 0 0 0 14.664 1.173Z" fill="#fff"/><path d="M121.151 66.822a7.33 7.33 0 0 1-4.526 6.773 7.333 7.333 0 1 1 4.526-6.773Z" fill="#fff"/><path d="M112.935 54.888H78.06V67.48h34.875V54.887Z" fill="#fff"/></svg>