<svg width="191" height="93" fill="none" xmlns="http://www.w3.org/2000/svg"><path d="M179.253 11.793H9.793v75.399h169.46V11.793Z" fill="#E0E0E0"/><path d="M184.654 11.811H5.914A5.897 5.897 0 0 1 0 5.914 5.897 5.897 0 0 1 5.914 0h178.74a5.895 5.895 0 0 1 5.914 5.914 5.904 5.904 0 0 1-1.733 4.176 5.888 5.888 0 0 1-4.181 1.721ZM184.654 93H5.914A5.915 5.915 0 0 1 0 87.086a5.897 5.897 0 0 1 5.914-5.915h178.74a5.896 5.896 0 0 1 5.914 5.915A5.915 5.915 0 0 1 184.654 93Z" fill="#E0E0E0"/><path d="M179.253 17.92H9.793v55.62h169.46V17.92Z" fill="#FFC100"/><path d="M181.201 81.171c0 .248-39.187.46-87.51.46-48.324 0-87.511-.212-87.511-.46 0-.248 39.169-.46 87.51-.46 48.342 0 87.511.16 87.511.46ZM184.813 11.81c0 .266-39.186.479-87.51.479-48.324 0-87.582-.23-87.582-.478 0-.248 39.17-.46 87.511-.46 48.342 0 87.581.194 87.581.46Z" fill="#263238"/><path d="M96.311 66.19c32.948 0 59.657-8.823 59.657-19.708 0-10.884-26.709-19.708-59.657-19.708-32.947 0-59.657 8.824-59.657 19.708 0 10.885 26.71 19.709 59.657 19.709Z" fill="#fff" opacity=".3"/><path d="M63.375 48.997c5.082 4.675 23.71 12.731 54.168-1.382a1.508 1.508 0 0 0 .632-2.171 1.508 1.508 0 0 0-.632-.556c-9.191-5.701-38.196-14.165-54.097-.62a3.152 3.152 0 0 0-.07 4.729Z" fill="#fff"/><path d="m114.957 45.243 12.396-5.897a1.257 1.257 0 0 1 1.77 1.116l.177 11.616a1.246 1.246 0 0 1-1.156 1.268 1.237 1.237 0 0 1-.614-.117l-12.52-5.72a1.237 1.237 0 0 1-.764-1.116 1.238 1.238 0 0 1 .711-1.15Z" fill="#fff"/></svg>