<svg width="52" height="45" fill="none" xmlns="http://www.w3.org/2000/svg"><path d="M27.896 7.559c1.029-.698 1.715-1.963 1.715-3.387C29.611 1.97 27.995.188 26 .188s-3.611 1.783-3.611 3.984c0 1.434.686 2.69 1.715 3.387l-5.173 11.415c-.821 1.813-2.952 2.33-4.387 1.066L6.5 12.938a4.262 4.262 0 0 0 .722-2.391c0-2.201-1.616-3.985-3.61-3.985C1.615 6.563 0 8.347 0 10.547c0 2.201 1.616 3.984 3.611 3.984h.063L7.8 39.573c.497 3.028 2.889 5.24 5.688 5.24h25.025c2.79 0 5.181-2.202 5.687-5.24l4.126-25.042h.063c1.995 0 3.611-1.783 3.611-3.984s-1.616-3.985-3.611-3.985-3.611 1.784-3.611 3.985c0 .896.27 1.723.722 2.39l-8.044 7.103c-1.435 1.265-3.566.747-4.387-1.066L27.896 7.559Z" fill="#000"/></svg>