<svg width="292" height="145" fill="none" xmlns="http://www.w3.org/2000/svg"><path d="M280.006 129.954c.69.321 1.426.534 2.181.63a2.527 2.527 0 0 0 2.08-.718c.297-.327.468-.761.771-1.088a2.567 2.567 0 0 1 2.649-.447 4.19 4.19 0 0 1 1.68 1.049 4.165 4.165 0 0 1 1.007 1.701 3.808 3.808 0 0 1-.961 3.687 3.552 3.552 0 0 1-3.717.749s4.426 1.599 3.212 4.839c-1.214 3.241-5.374 3.65-6.847.875 0 0-.633-2.032-1.265-2.272-.632-.239-2.813-1.183-2.813-1.183l-3.756-1.516a7.57 7.57 0 0 0-2.181-.629 2.53 2.53 0 0 0-2.08.717c-.297.333-.468.761-.771 1.089a2.539 2.539 0 0 1-2.649.453 4.168 4.168 0 0 1-2.687-2.757 3.796 3.796 0 0 1 .961-3.681 3.533 3.533 0 0 1 3.711-.749s-4.426-1.604-3.212-4.845c1.214-3.241 5.381-3.644 6.854-.875 0 0 .632 2.039 1.264 2.278.632.239 2.807 1.183 2.807 1.183l3.762 1.51Z" fill="#263238"/><path d="M279.089 129.048c.693.32 1.431.532 2.188.63a2.545 2.545 0 0 0 2.08-.718c.297-.333.468-.761.771-1.088a2.571 2.571 0 0 1 2.649-.447 4.151 4.151 0 0 1 2.681 2.75 3.77 3.77 0 0 1-.955 3.687 3.559 3.559 0 0 1-3.717.749s4.425 1.598 3.211 4.839c-1.214 3.241-5.374 3.644-6.847.875 0 0-.632-2.033-1.264-2.272-.632-.239-2.814-1.189-2.814-1.189l-3.755-1.51a7.479 7.479 0 0 0-2.181-.63 2.545 2.545 0 0 0-2.087.718c-.29.333-.461.761-.765 1.088a2.532 2.532 0 0 1-2.655.447 4.17 4.17 0 0 1-1.678-1.048 4.136 4.136 0 0 1-1.002-1.702 3.752 3.752 0 0 1 .96-3.681 3.545 3.545 0 0 1 3.712-.755s-4.426-1.599-3.212-4.839c1.214-3.241 5.374-3.644 6.847-.875 0 0 .632 2.033 1.264 2.272.633.239 2.807 1.189 2.807 1.189l3.762 1.51Z" fill="#455A64"/><path d="M282.465 109.276a5.271 5.271 0 0 0 1.568-.346 1.777 1.777 0 0 0 1.062-1.139c.07-.308.032-.629.114-.937a1.795 1.795 0 0 1 1.499-1.164 2.965 2.965 0 0 1 2.604.824 2.69 2.69 0 0 1 .633 2.618 2.483 2.483 0 0 1-2.062 1.705s3.307-.478 3.636 1.951c.329 2.429-2.131 4.071-3.983 2.832 0 0-1.062-1.07-1.537-1.007-.474.063-2.149.201-2.149.201l-2.858.308a5.301 5.301 0 0 0-1.568.34 1.814 1.814 0 0 0-1.062 1.139c-.069.309 0 .629-.114.938a1.813 1.813 0 0 1-1.498 1.17 2.978 2.978 0 0 1-2.605-.824 2.711 2.711 0 0 1-.632-2.618 2.523 2.523 0 0 1 2.067-1.712s-3.306.485-3.635-1.95c-.329-2.436 2.124-4.065 3.977-2.832 0 0 1.068 1.07 1.536 1.007.468-.063 2.156-.195 2.156-.195l2.851-.309Z" fill="#263238"/><path d="M281.587 109.012a5.518 5.518 0 0 0 1.574-.34 1.776 1.776 0 0 0 1.056-1.145c.075-.302.038-.629.113-.931a1.823 1.823 0 0 1 1.518-1.139c.469-.082.95-.049 1.404.095.453.143.865.393 1.201.729a2.687 2.687 0 0 1 .632 2.618 2.523 2.523 0 0 1-2.068 1.711s3.313-.484 3.642 1.951c.329 2.435-2.131 4.065-3.983 2.832 0 0-1.062-1.07-1.536-1.007-.475.063-2.156.195-2.156.195l-2.852.308a5.552 5.552 0 0 0-1.574.34 1.81 1.81 0 0 0-1.056 1.146c-.069.308 0 .629-.113.937a1.811 1.811 0 0 1-1.505 1.164 2.969 2.969 0 0 1-2.599-.824 2.687 2.687 0 0 1-.632-2.618 2.525 2.525 0 0 1 2.068-1.705s-3.307.478-3.636-1.951c-.328-2.429 2.125-4.071 3.977-2.832 0 0 1.062 1.064 1.536 1.007.474-.056 2.156-.201 2.156-.201l2.833-.34Z" fill="#455A64"/><path d="m71.17 120.465-9.826-31.64s30.72-12.44 30.347-11.912c-.373.529-.714 11.56-8.219 19.734-7.504 8.174-7.144 15.285-3.932 17.242 0 0 4.678-1.661 7.72-.598 3.04 1.064 9.255 7.174 9.255 7.174H71.17Z" fill="#FF725E"/><path opacity=".3" d="m71.17 120.465-9.826-31.64s30.72-12.44 30.347-11.912c-.373.529-.714 11.56-8.219 19.734-7.504 8.174-7.144 15.285-3.932 17.242 0 0 4.678-1.661 7.72-.598 3.04 1.064 9.255 7.174 9.255 7.174H71.17Z" fill="#000"/><path d="m223.618 101.442-1.537-14.31-4.988-4.971-24.726-6.815a5.31 5.31 0 0 0-3.25.132l-10.514 3.845-5.165-.881s-6.158-1.567-9.148-3.24a14.297 14.297 0 0 0-3.718-1.41c-27.565-6.57-47.923-23.057-47.923-23.057-2.813-2.8-12.486-18.368-17.91-20.621-5.425-2.253-16.881-1.259-16.881-1.259l-2.472.793 1.138-.541a22.532 22.532 0 0 0-8.836-9.856 22.684 22.684 0 0 0-25.339 1.304 22.5 22.5 0 0 0-7.767 10.71c-1.384 4.066-1.587 8.452-2.39 12.668a14.084 14.084 0 0 1-6.872 7.91c-3.996 2.095-8.73 2.466-13.2 1.85a15.664 15.664 0 0 0 5.002 3.596c1.891.856 3.934 1.33 6.01 1.394-4.166 3.203-9.293 5.45-14.364 6.966a17.265 17.265 0 0 0 9.462 2.983c3.38.048 6.699-.895 9.543-2.713l-5.127 4.45c5.336.811 10.482-2.883 13.276-7.476 2.795-4.594 3.844-9.987 5.35-15.14 1.504-5.154 3.723-10.44 8.06-13.624 3.73-2.738 9.389-3.21 12.954-.573-3.584.85-10.962 3.474-13.852 11.088-2.099 5.556-.765 10.024-5.57 26.008-3.28 10.924-20.831 18.928-20.831 18.928s4.76 3.442 7.238 10.603c3.794 10.981 6.203 27.651 8.675 30.268 0 0 21.18 3.216 25.017 1.177 0 0-9.136-8.627-16.628-8.627l-2.49-7.168c-.298-2.227-2.182-14.574-.33-14.844.734-.107 5.69.1 9.446-.806 6.164-1.472 19.093-10.295 20.522-12.031 0 0 13.523 1.302 20.73 15.889 4.666 9.439 25.663 24.428 42.486 23.321l1.897-.133a1.827 1.827 0 0 1 1.836 1.191c.089.245.125.506.105.766l-.373 4.827c9.559-.541 15.173 7.841 15.173 7.841 20.13.572 29.336 2.164 49.466 2.737 0 0 0-2.366-3.199-5.097-5.438-4.65-19.745-4.292-19.745-4.292-2.364-.176-4.862-.402-6.777-1.787-2.346-1.693-4.293-4.858-5.222-7.633l46.468.208.127.264 17.164-.887c9.029-5.846 9.484-19.275 9.484-19.275l-19.485-4.65Z" fill="#FF725E"/><path d="M178.603 79.323c-4.425 6.651-7.549 15.266-7.353 23.226.196 7.961 1.897 15.449 3.573 23.239h-3.162c-2.136-8.048-4.33-15.952-4.324-23.333a43.519 43.519 0 0 1 7.239-23.818" fill="#000" opacity=".3"/><path d="M56.88 133.195c-.05.038-.511-.566-1.415-1.378a13.183 13.183 0 0 0-8.65-3.342c-1.213 0-1.965.133-1.978.07.163-.078.338-.127.518-.145a8.06 8.06 0 0 1 1.46-.17c.728-.033 1.456.005 2.176.113.882.144 1.748.373 2.585.686.832.339 1.626.76 2.371 1.259.608.4 1.173.859 1.688 1.372.353.337.675.706.961 1.101.203.258.304.421.285.434ZM20.629 88.944c0-.12 2.58.434 5.76.17a37.236 37.236 0 0 0 5.658-1.088 6.344 6.344 0 0 1-1.58.629 18.714 18.714 0 0 1-8.175.63 6.248 6.248 0 0 1-1.663-.34ZM20.66 90.392c1.908.489 3.867.746 5.836.767 3.281-.044 5.779-1.1 5.81-.981-.504.3-1.05.526-1.618.673a15.41 15.41 0 0 1-8.39.157 5.807 5.807 0 0 1-1.637-.616ZM22.595 91.695c0-.101 1.935.396 4.318.811 2.384.415 4.337.598 4.331.698a16.738 16.738 0 0 1-4.394-.352 16.7 16.7 0 0 1-4.255-1.157ZM81.146 67.883c.068.34.104.685.107 1.032.032.406.042.813.032 1.22 0 .473 0 1.02-.07 1.611-.04.652-.116 1.301-.227 1.945-.089.698-.272 1.435-.45 2.202a27.508 27.508 0 0 1-1.75 4.846 28.45 28.45 0 0 1-2.681 4.405c-.493.629-.948 1.22-1.442 1.73-.431.492-.89.96-1.372 1.404-.387.375-.794.73-1.22 1.063a9.89 9.89 0 0 1-.967.743 5.918 5.918 0 0 1-.872.572c-.045-.063 1.188-.893 2.882-2.555.424-.421.885-.88 1.328-1.415.443-.535.923-1.114 1.404-1.737a30.006 30.006 0 0 0 2.623-4.361 29.254 29.254 0 0 0 1.752-4.776c.183-.762.373-1.48.474-2.171.1-.693.208-1.328.272-1.888.234-2.385.1-3.864.177-3.87Z" fill="#263238"/><path d="M104.399 40.642c-4.35 4.121-6.62 11.238-5.368 17.09a17.88 17.88 0 0 0 4.036 7.9 17.997 17.997 0 0 0 7.344 5.007c4.331 1.535 9.484 1.491 12.841 4.581 1.947 1.781 2.971 4.323 4.489 6.475a17.125 17.125 0 0 0 7.983 5.995 17.21 17.21 0 0 0 9.985.537c6.562-1.737 11.715-8.35 12.334-15.102a106.149 106.149 0 0 1-11.361-3.537 150.498 150.498 0 0 1-14.25-6.431c-3.345-1.78-15.294-9.093-17.336-10.584-3.11-2.272-10.697-11.931-10.697-11.931Z" fill="#000" opacity=".3"/><path d="M51.716 51.49a5.503 5.503 0 0 1 .379-1.479 18.575 18.575 0 0 1 1.555-3.329 18.293 18.293 0 0 1 2.2-2.957c.32-.4.7-.747 1.126-1.032a49.06 49.06 0 0 0-3.016 4.172c-1.467 2.429-2.137 4.663-2.244 4.625ZM54.036 53.126a5.06 5.06 0 0 1 .31-1.497 15.798 15.798 0 0 1 3.73-6.33c.334-.391.726-.729 1.163-1.001.082.081-1.656 1.66-3.098 4.121-1.441 2.46-1.991 4.739-2.105 4.707ZM139.924 135.032c-.064 0 .227-.899.366-2.372a13.418 13.418 0 0 0-.658-5.665 13.462 13.462 0 0 0-2.952-4.888c-1.018-1.076-1.783-1.605-1.745-1.655.202.085.392.198.563.334.484.346.938.731 1.359 1.151a12.654 12.654 0 0 1 3.118 4.941 12.61 12.61 0 0 1 .562 5.807c-.075.589-.2 1.17-.373 1.737a2.26 2.26 0 0 1-.24.61ZM141.909 132.654c.07-.846.19-1.686.36-2.517.053-.844.15-1.684.291-2.517a8.54 8.54 0 0 1-.632 5.034h-.019ZM143.23 132.415c-.088-.063.544-.925.879-2.159.335-1.233.266-2.29.373-2.303a3.626 3.626 0 0 1 0 2.398 3.673 3.673 0 0 1-1.252 2.064ZM195.167 144.289c-.056 0-.183-.497-.632-1.183a6.323 6.323 0 0 0-2.415-2.077 12.117 12.117 0 0 0-3.104-.981 7.045 7.045 0 0 1-1.34-.302 4.434 4.434 0 0 1 1.384.05c1.116.118 2.204.422 3.218.9a5.845 5.845 0 0 1 2.472 2.259c.265.396.41.859.417 1.334ZM204.038 144.597c-.057.038-.474-.736-1.372-1.812a14.007 14.007 0 0 0-1.733-1.737 14.381 14.381 0 0 0-5.266-2.831 14.133 14.133 0 0 0-2.409-.497c-1.397-.158-2.276-.082-2.276-.152.205-.064.418-.096.632-.094.241-.031.485-.042.728-.031.32-.011.641 0 .96.031.839.058 1.67.201 2.479.428.99.282 1.947.666 2.857 1.145a15.065 15.065 0 0 1 2.529 1.756 12.983 12.983 0 0 1 1.714 1.825c.199.252.385.514.556.786.136.202.258.412.367.63.105.172.184.358.234.553ZM162.564 102.21c.118.437.213.88.284 1.327.171.856.436 2.09.816 3.606a85.125 85.125 0 0 0 3.825 11.566c.91 2.209 1.637 4.367 2.402 6.293a31.436 31.436 0 0 0 2.365 4.921 13.658 13.658 0 0 0 2.282 2.876c.632.597 1.037.874 1.012.906a1.745 1.745 0 0 1-.298-.189 6.218 6.218 0 0 1-.809-.629 12.92 12.92 0 0 1-2.402-2.838 29.82 29.82 0 0 1-2.453-4.94c-.784-1.919-1.518-4.071-2.428-6.293a75.855 75.855 0 0 1-3.743-11.641 48.235 48.235 0 0 1-.702-3.638c-.075-.434-.107-.774-.132-1a1.238 1.238 0 0 1-.019-.327Z" fill="#263238"/><path d="M77.403 32.914c-.05-.214 1.163-.761 3.281-1.088a20.045 20.045 0 0 1 3.743-.202c1.538.064 3.067.275 4.565.63a24.73 24.73 0 0 1 4.337 1.547 19.651 19.651 0 0 1 3.224 1.888c1.72 1.259 2.529 2.316 2.39 2.486-.14.17-1.265-.491-3.054-1.429a35.461 35.461 0 0 0-3.218-1.485 36.123 36.123 0 0 0-4.103-1.321 35.315 35.315 0 0 0-4.255-.73 35.772 35.772 0 0 0-3.54-.176c-2.023.056-3.313.138-3.37-.12ZM35.056 40.34c-.113 0-.29-.542-.404-1.567a15.988 15.988 0 0 1 .221-4.405 19.344 19.344 0 0 1 2.263-6.148 19.002 19.002 0 0 1 5.355-6.041 19.105 19.105 0 0 1 7.391-3.285 19.537 19.537 0 0 1 6.569-.308c1.465.164 2.9.532 4.261 1.095.955.415 1.429.748 1.385.85-.102.282-2.22-.567-5.747-.706-2.05-.084-4.1.128-6.089.63a19.006 19.006 0 0 0-6.719 3.122 18.911 18.911 0 0 0-5.002 5.448 20.787 20.787 0 0 0-2.44 5.595c-.924 3.442-.747 5.707-1.044 5.72Z" fill="#fff" opacity=".4"/><path d="M199.163 98.484a.898.898 0 0 1-.069.202c-.057.144-.133.333-.234.572l-.936 2.184c-.841 1.888-2.048 4.619-3.869 7.841a36.02 36.02 0 0 1-8.099 10.099 9.846 9.846 0 0 1-3.237 1.976 4.586 4.586 0 0 1-1.985.246 3 3 0 0 1-1.834-.938 4.226 4.226 0 0 1-.91-1.888 13.116 13.116 0 0 1-.253-1.994 644.178 644.178 0 0 0-.297-4.154c-.398-5.613-.778-10.955-1.119-15.82-.164-2.422-.158-4.832.689-6.922a11.078 11.078 0 0 1 3.793-4.694 17.076 17.076 0 0 1 4.426-2.29 31.413 31.413 0 0 1 3.642-1.02 51.553 51.553 0 0 1 2.339-.472l.632-.107h.209a1.25 1.25 0 0 1-.203.063l-.632.139-2.32.534a33.148 33.148 0 0 0-3.604 1.07 17.16 17.16 0 0 0-4.369 2.31 10.797 10.797 0 0 0-3.673 4.6c-.815 1.994-.815 4.348-.632 6.764.354 4.865.74 10.207 1.151 15.814.101 1.403.196 2.788.297 4.153.101 1.366.234 2.75 1.087 3.7.423.458.993.754 1.612.837a4.358 4.358 0 0 0 1.84-.233 9.475 9.475 0 0 0 3.161-1.887 36.262 36.262 0 0 0 8.093-9.974c1.846-3.191 3.085-5.909 3.964-7.772l.999-2.158c.107-.227.196-.416.265-.554a1.29 1.29 0 0 1 .076-.227ZM217.453 105.966c-.48-.088-.663-1.258-.404-2.624.259-1.365.847-2.391 1.328-2.303.48.088.67 1.259.41 2.624-.259 1.366-.847 2.423-1.334 2.303ZM219.704 93.236c-.221.132-.632-.145-1.214-.284a4.277 4.277 0 0 0-2.333.089 14.34 14.34 0 0 0-2.396 1.258c-.664.371-1.157.56-1.327.377-.171-.182 0-.66.493-1.314a5.72 5.72 0 0 1 2.661-1.957 3.814 3.814 0 0 1 3.509.484c.307.225.538.536.664.894.082.226.038.39-.057.453ZM219.413 86.257s.203 0 .304.296a.757.757 0 0 1 0 .523.771.771 0 0 1-.55.465 2.87 2.87 0 0 1-1.853-.409 6.237 6.237 0 0 1-1.947-1.516l-.885-1.032 1.081.83a2.394 2.394 0 0 1 1.163 1.492 1.086 1.086 0 0 1-.366 1.032 1.396 1.396 0 0 1-1.119.17 5.824 5.824 0 0 1-3.667-2.517 5.628 5.628 0 0 1-.424-.756l-.537-1.088.815.9a6.878 6.878 0 0 1 1.398 2.366c.089.22.138.454.145.692a.722.722 0 0 1-.43.63 1.539 1.539 0 0 1-1.315-.253 9.614 9.614 0 0 1-2.99-3.026 9.417 9.417 0 0 1-1.126-2.618 7.172 7.172 0 0 1-.145-.755.724.724 0 0 1 0-.27 11.908 11.908 0 0 0 1.498 3.51 9.652 9.652 0 0 0 2.953 2.895 1.263 1.263 0 0 0 1.011.214c.297-.12.26-.528.095-.925a6.571 6.571 0 0 0-1.34-2.246l.291-.19a5.57 5.57 0 0 0 3.831 3.09 1.072 1.072 0 0 0 .853-.106.775.775 0 0 0 .26-.73 2.194 2.194 0 0 0-1.025-1.303l.196-.208a6.139 6.139 0 0 0 1.834 1.498 2.766 2.766 0 0 0 1.701.453.69.69 0 0 0 .44-.293.684.684 0 0 0 .097-.519c-.082-.233-.266-.277-.247-.296Z" fill="#263238"/><path d="M181.082 121.774c3.034.201 6.189.383 9.002-.756 3.794-1.535 6.323-5.285 7.41-9.218 1.088-3.933 1.043-7.476.892-11.548-3.87 9.679-8.049 17.224-17.304 21.522Z" fill="#000" opacity=".3"/><path d="M240.96 115.871c-.028.107-.066.21-.114.309-.089.195-.221.478-.398.843a11.411 11.411 0 0 1-1.897 2.882c-.512.528-1.132 1.032-1.764 1.592a6.725 6.725 0 0 1-2.295 1.542 2.06 2.06 0 0 1-1.555-.095 2.66 2.66 0 0 1-1.132-1.151 5.71 5.71 0 0 1-.297-3.254 30.958 30.958 0 0 1 1.264-6.097c.479-1.64 1.197-3.2 2.131-4.632a7.178 7.178 0 0 1 2.529-2.347c.276-.151.569-.269.872-.352.102-.038.208-.063.316-.076 0 .038-.43.145-1.119.548a7.39 7.39 0 0 0-2.377 2.366 17.743 17.743 0 0 0-2.023 4.593 31.49 31.49 0 0 0-1.264 6.035 5.42 5.42 0 0 0 .253 3.058c.212.428.552.78.973 1.007a1.71 1.71 0 0 0 1.309.088 6.675 6.675 0 0 0 2.2-1.453c.632-.554 1.264-1.045 1.777-1.548a12.419 12.419 0 0 0 1.934-2.769c.201-.378.427-.742.677-1.089Z" fill="#263238"/><path d="M239.505 110.491c.481.063.854.277.829.484-.026.208-.443.308-.93.246-.487-.063-.853-.277-.828-.485.025-.207.443-.289.929-.245ZM236.534 112.064c.474-.119.898-.057.955.145.057.201-.291.465-.759.591-.468.126-.904.063-.955-.145-.05-.207.279-.465.759-.591ZM239.354 112.807c.455-.183.872-.221.923-.088.05.132-.272.396-.727.572-.455.176-.866.22-.917.088-.051-.132.272-.371.721-.572ZM236.8 116.368a.683.683 0 0 1-.683-.138.668.668 0 0 1-.004-.975.673.673 0 0 1 .977.062.793.793 0 0 1-.29 1.051Z" fill="#263238"/><path d="M243.267 105.815c-1.606-.459-3.755-.893-4.476-1.038-.721-.145-1.264.516-1.795.837-1.448.881-2.39 2.379-3.162 3.895-1.593 3.253-2.01 6.922-2.124 10.515-.038 1.12.436 2.316 1.53 2.599a2.047 2.047 0 0 0 1.669-.182 14.265 14.265 0 0 0 6.152-6.834 27.845 27.845 0 0 0 2.175-9.792" fill="#000" opacity=".3"/><path d="M241.655 105.457c-.12-.132-.341-.038-.48.075a5.064 5.064 0 0 0-1.334 2.209c-.12.261-.194.539-.222.824a.873.873 0 0 0 .335.749.988.988 0 0 0 .968 0c.297-.151.556-.377.859-.522.108-.05.26-.082.329 0 .07.082 0 .22-.057.315a3.098 3.098 0 0 0-.43 1.371c-.031.23.004.463.102.674a.59.59 0 0 0 .562.333s1.714-4.801.601-5.537c-1.113-.737-1.233-.491-1.233-.491Z" fill="#263238"/><path d="M206.282 80.644a28.364 28.364 0 0 0 5.595 8.527c.809-1.73-.145-3.738-1.087-5.412a13.834 13.834 0 0 0 4.368 4.009c.269.194.6.284.93.252a.96.96 0 0 0 .537-1.259 3.02 3.02 0 0 0-.98-1.177 2.343 2.343 0 0 1-.872-1.258 12.5 12.5 0 0 0 3.275 2.485c.416.277.925.379 1.416.283a1.373 1.373 0 0 0 .683-1.761 3.493 3.493 0 0 0-1.397-1.536 20.641 20.641 0 0 0-11.76-3.775" fill="#000" opacity=".3"/><path d="M179.153 111.712c-.234 0-.632-1.756-1.011-4.682a41.339 41.339 0 0 1 .069-11.598c.183-1.105.437-2.198.759-3.272.289-1.013.663-2 1.119-2.951a9.872 9.872 0 0 1 3.534-4.179 6.249 6.249 0 0 1 3.559-1.013c.886.05 1.322.309 1.297.41-.026.1-.487.119-1.265.276a6.873 6.873 0 0 0-2.895 1.353 9.43 9.43 0 0 0-2.763 3.826 20.633 20.633 0 0 0-.936 2.756 28.118 28.118 0 0 0-.677 3.09c-.714 4.285-.581 8.306-.569 11.22.013 2.914.032 4.738-.221 4.764Z" fill="#fff" opacity=".4"/><path d="M7.036 50.169c.069-.483.228-.948.468-1.372a9.844 9.844 0 0 1 5.058-4.732c.44-.213.916-.343 1.403-.384.05.107-2.156.686-4.11 2.517-1.953 1.831-2.711 4.021-2.819 3.97ZM4.507 42.85c-.038 0 .07-.359.386-.825a5.076 5.076 0 0 1 3.762-2.101 1.76 1.76 0 0 1 .91.088c-.994.11-1.96.39-2.858.83-1.46.812-2.105 2.07-2.2 2.008Z" fill="#263238"/></svg>