<svg width="257" height="134" fill="none" xmlns="http://www.w3.org/2000/svg"><path d="M.879 87.406.8 83.286l22.558-.49-.078 3.731-9.12.352.273 24.648-4.317.078v-24.57l-9.238.371Zm50.605 24.043-4.609.664a231.583 231.583 0 0 0-2.441-7.91l-15.723.684a195.228 195.228 0 0 0-2.676 7.48l-4.433-.605a196.798 196.798 0 0 1 6.093-14.531 282.583 282.583 0 0 1 7.149-14.16l5.468.097a177.03 177.03 0 0 1 6.133 13.828 192.721 192.721 0 0 1 5.04 14.453ZM37.168 86.313a168.581 168.581 0 0 0-3.73 7.539 191.013 191.013 0 0 0-3.36 7.636l13.203-.566a134.65 134.65 0 0 0-2.851-7.363 168.073 168.073 0 0 0-3.262-7.246Zm39.648 20.078c-.13.911-.384 1.718-.761 2.421a7.028 7.028 0 0 1-1.446 1.856 8.94 8.94 0 0 1-1.914 1.328 13.865 13.865 0 0 1-4.59 1.328c-.794.104-1.556.156-2.285.156-1.002 0-1.992-.11-2.968-.332a17.396 17.396 0 0 1-2.871-.878 23.465 23.465 0 0 1-2.813-1.387 36.968 36.968 0 0 1-2.715-1.758l2.852-3.359c1.015.898 2.018 1.608 3.008 2.129 1.002.507 1.9.891 2.695 1.152.937.325 1.823.534 2.656.625.938.052 1.81-.02 2.617-.215.82-.208 1.53-.495 2.13-.859 1.25-.769 1.946-1.752 2.089-2.95a2.414 2.414 0 0 0-.254-1.328c-.404-.781-1.185-1.438-2.344-1.972a8.255 8.255 0 0 0-.859-.352 17.6 17.6 0 0 0-.879-.332 22.14 22.14 0 0 0-1.933-.508 28.97 28.97 0 0 0-1.895-.39 41.597 41.597 0 0 1-2.344-.528 18.33 18.33 0 0 1-2.422-.84 11.75 11.75 0 0 1-2.246-1.308 7.84 7.84 0 0 1-1.816-1.895c-.521-.729-.918-1.582-1.192-2.558-.26-.977-.345-2.097-.254-3.36.079-1.067.3-2.011.665-2.832.69-1.653 1.803-2.975 3.34-3.964a12.5 12.5 0 0 1 4.922-1.836c.898-.144 1.79-.209 2.675-.196 1.198.052 2.428.241 3.692.567 1.12.286 2.278.71 3.476 1.27a12.027 12.027 0 0 1 3.3 2.265l-2.187 3.457a9.117 9.117 0 0 0-2.656-2.09c-1.002-.534-1.947-.925-2.832-1.172-.99-.273-1.973-.43-2.95-.469-1.184 0-2.239.176-3.163.528-.925.351-1.7.813-2.325 1.386a5.948 5.948 0 0 0-1.464 1.895c-.326.703-.489 1.393-.489 2.07 0 .664.196 1.309.586 1.934.404.625.957 1.191 1.66 1.7 1.485 1.067 3.334 1.75 5.547 2.05.482.052.957.123 1.426.215a18.164 18.164 0 0 1 4.121 1.191c.873.365 1.667.8 2.383 1.309a8.438 8.438 0 0 1 1.817 1.777 6.714 6.714 0 0 1 1.074 2.285c.234.834.28 1.758.136 2.774Zm1.524-18.985-.078-4.12 22.558-.49-.078 3.731-9.12.352.272 24.648-4.316.078v-24.57l-9.238.371Zm36.23 10.664 7.071-15 4.433.137-9.746 19.082v9.356l-4.043.234.313-9.688-10.918-18.593 4.609-.528 8.281 15Zm26.895-10.664-.078-4.12 22.558-.49-.078 3.731-9.121.352.274 24.648-4.317.078v-24.57l-9.238.371Zm50.605 24.043-4.609.664a232.027 232.027 0 0 0-2.441-7.91l-15.723.684a193.876 193.876 0 0 0-2.676 7.48l-4.433-.605a196.619 196.619 0 0 1 6.093-14.531 283.018 283.018 0 0 1 7.149-14.16l5.468.097a176.92 176.92 0 0 1 6.133 13.828 192.542 192.542 0 0 1 5.039 14.453Zm-14.316-25.136a168.81 168.81 0 0 0-3.731 7.539 192.75 192.75 0 0 0-3.359 7.636l13.203-.566c-.885-2.5-1.836-4.955-2.851-7.363a168.326 168.326 0 0 0-3.262-7.246Zm18.652-3.145 4.356.156.254 26.992h-3.926l-.684-27.148Zm15.684 25.469 17.285-1.348.195 4.16-21.289 1.465-.117-29.707 4.043-.215-.117 25.645Zm42.695-2.246c-.13.911-.384 1.718-.762 2.421a7.013 7.013 0 0 1-1.445 1.856 8.945 8.945 0 0 1-1.914 1.328 13.857 13.857 0 0 1-4.59 1.328c-.794.104-1.556.156-2.285.156-1.003 0-1.992-.11-2.969-.332a17.427 17.427 0 0 1-2.871-.878 23.473 23.473 0 0 1-2.812-1.387 36.758 36.758 0 0 1-2.715-1.758l2.851-3.359c1.016.898 2.019 1.608 3.008 2.129 1.003.507 1.901.891 2.696 1.152.937.325 1.822.534 2.656.625.937.052 1.81-.02 2.617-.215.82-.208 1.53-.495 2.129-.859 1.25-.769 1.947-1.752 2.09-2.95a2.418 2.418 0 0 0-.254-1.328c-.404-.781-1.185-1.438-2.344-1.972a8.25 8.25 0 0 0-.859-.352c-.287-.117-.58-.228-.879-.332a22.148 22.148 0 0 0-1.934-.508 28.94 28.94 0 0 0-1.894-.39 41.37 41.37 0 0 1-2.344-.528 18.332 18.332 0 0 1-2.422-.84 11.756 11.756 0 0 1-2.246-1.308 7.825 7.825 0 0 1-1.816-1.895c-.521-.729-.918-1.582-1.192-2.558-.26-.977-.345-2.097-.254-3.36.078-1.067.3-2.011.664-2.832.69-1.653 1.804-2.975 3.34-3.964a12.501 12.501 0 0 1 4.922-1.836 15.52 15.52 0 0 1 2.676-.196c1.198.052 2.428.241 3.691.567 1.12.286 2.279.71 3.477 1.27a12.034 12.034 0 0 1 3.301 2.265l-2.188 3.457a9.121 9.121 0 0 0-2.656-2.09c-1.003-.534-1.947-.925-2.832-1.172-.99-.273-1.973-.43-2.949-.469-1.185 0-2.24.176-3.165.528-.924.351-1.699.813-2.324 1.386a5.956 5.956 0 0 0-1.465 1.895c-.325.703-.488 1.393-.488 2.07 0 .664.195 1.309.586 1.934.404.625.957 1.191 1.66 1.7 1.485 1.067 3.334 1.75 5.547 2.05.482.052.957.123 1.426.215a18.168 18.168 0 0 1 4.121 1.191c.872.365 1.667.8 2.383 1.309a8.443 8.443 0 0 1 1.816 1.777 6.702 6.702 0 0 1 1.074 2.285c.235.834.28 1.758.137 2.774Z" fill="#000"/><mask id="a" maskUnits="userSpaceOnUse" x="94.154" y="56.178" width="77" height="20" fill="#000"><path fill="#fff" d="M94.154 56.178h77v20h-77z"/><path d="M169.588 65.738c0 4.728-16.663 8.56-37.217 8.56s-37.217-3.832-37.217-8.56c0-4.727 16.663-8.56 37.217-8.56s37.217 3.833 37.217 8.56Z"/></mask><path d="M169.588 65.738c0 4.728-16.663 8.56-37.217 8.56s-37.217-3.832-37.217-8.56c0-4.727 16.663-8.56 37.217-8.56s37.217 3.833 37.217 8.56Z" fill="#fff"/><path d="M168.588 65.738c0 .276-.118.627-.504 1.06-.391.44-1.014.912-1.899 1.393-1.768.962-4.393 1.86-7.722 2.625-6.642 1.528-15.867 2.482-26.092 2.482v2c10.33 0 19.712-.962 26.54-2.533 3.406-.783 6.232-1.73 8.23-2.817.998-.543 1.837-1.145 2.438-1.82.605-.681 1.009-1.485 1.009-2.39h-2Zm-36.217 7.56c-10.225 0-19.45-.954-26.092-2.482-3.329-.766-5.954-1.663-7.722-2.625-.885-.48-1.508-.953-1.9-1.393-.385-.433-.502-.784-.502-1.06h-2c0 .905.403 1.709 1.008 2.39.6.674 1.44 1.277 2.439 1.82 1.998 1.087 4.823 2.034 8.229 2.817 6.828 1.57 16.211 2.533 26.54 2.533v-2Zm-36.217-7.56c0-.276.118-.627.504-1.06.391-.44 1.014-.912 1.899-1.393 1.768-.962 4.393-1.86 7.722-2.625 6.642-1.528 15.867-2.482 26.092-2.482v-2c-10.329 0-19.712.962-26.54 2.533-3.406.783-6.231 1.73-8.23 2.817-.998.543-1.837 1.146-2.438 1.82-.605.681-1.008 1.485-1.008 2.39h2Zm36.217-7.56c10.225 0 19.45.954 26.092 2.482 3.329.766 5.954 1.663 7.722 2.625.885.48 1.508.953 1.899 1.393.386.433.504.784.504 1.06h2c0-.905-.404-1.709-1.009-2.39-.601-.674-1.44-1.277-2.438-1.82-1.998-1.087-4.824-2.034-8.23-2.817-6.828-1.57-16.21-2.533-26.54-2.533v2Z" fill="#000" mask="url(#a)"/><path d="M131.974 70.88h.034l1.529-.103c7.908-.526 14.992-.998 20.191-1.762 2.762-.406 5.031-.9 6.621-1.546.795-.323 1.453-.697 1.92-1.143.475-.455.767-1.004.767-1.644 0-.634-.289-1.21-.752-1.715-.46-.503-1.114-.965-1.916-1.389-1.603-.848-3.89-1.596-6.674-2.219-5.576-1.248-13.255-2.015-21.72-2.015-8.448 0-15.921.377-21.292 1.232-2.68.426-4.872.977-6.406 1.678-1.491.68-2.57 1.604-2.57 2.873 0 1.238 1.038 2.292 2.526 3.159 1.53.89 3.72 1.693 6.407 2.369 5.382 1.353 12.866 2.225 21.335 2.225Z" fill="#fff" stroke="#000"/><path d="M163.382 62.506c0 3.235-13.494 4.505-32.502 4.505-19.009 0-32.88-1.27-32.88-4.505 0-3.234 13.871-7.208 32.88-7.208 19.008 0 32.502 3.974 32.502 7.208Z" fill="#fff"/><path d="M78.801 1.395c-.207.223-.465.57-.746.996A23.821 23.821 0 0 0 76.8 4.564a31.568 31.568 0 0 0-2.545 6.752c-1.309 5.292-1.323 11.877 3.332 17.376 3.66 4.325 7.223 8.166 10.258 11.13 2.977 2.906 5.487 5.01 7.1 5.876.497.504.982.987 1.453 1.447a24.977 24.977 0 0 0-.25 8.977c.515 3.377 1.69 5.924 3.403 7.796 1.711 1.872 3.926 3.033 6.463 3.695 5.045 1.316 11.449.677 17.952-.347 6.496-1.021 12.094-2.266 15.805-4.977 1.872-1.367 3.269-3.11 4.06-5.376.788-2.258.962-5.002.449-8.358-2.06-13.472-14.501-22.712-27.8-20.62-6.905 1.086-12.678 5.014-16.343 10.424-1.874-3.317-4.251-6.878-7.114-10.27-1.586-3.558-2.091-6.369-2.37-7.924l-.008-.044c-.083-.461-.154-.855-.235-1.107a1.404 1.404 0 0 0-.085-.212.744.744 0 0 0-.185-.237.583.583 0 0 0-.446-.132.642.642 0 0 0-.34.158c-.143.124-.254.32-.34.493a6.381 6.381 0 0 0-.296.736c-.078.23-.157.491-.234.781-1.92-4.866-1.834-9.087-1.79-11.254l.002-.057c.011-.539.02-1.003-.02-1.294a1.217 1.217 0 0 0-.063-.261.663.663 0 0 0-.24-.318.587.587 0 0 0-.513-.073.813.813 0 0 0-.286.168c-.118.103-.24.255-.358.42-.123.174-.26.391-.407.645a20.677 20.677 0 0 0-.995 1.99c-.581 1.316-1.2 3-1.691 4.913-2.776-5.73-2.512-11.022-2.348-13.667.091-.136.138-.28.162-.396.034-.164.04-.359-.01-.52a.6.6 0 0 0-.099-.193.523.523 0 0 0-.83.003.669.669 0 0 0-.096.173c-.048.124-.08.298-.1.515Zm7.435 6.866-.003.002a.031.031 0 0 1 .003-.002Z" fill="#FFBD00" fill-opacity=".72" stroke="#000"/><path d="M168.862 63.378a16.93 16.93 0 0 0-1.727-16.956c4.414-3.483 9.034-7.473 12.403-11.008 1.732-1.817 3.151-3.532 4.04-5.01.445-.738.77-1.438.928-2.078.158-.638.16-1.264-.109-1.804-.688-1.387-1.949-2.245-3.405-2.723-1.453-.477-3.136-.59-4.754-.463-1.62.127-3.206.495-4.476 1.005-.635.254-1.203.55-1.66.876-.451.322-.828.699-1.031 1.131-.23.49-.366.985-.212 1.413.176.487.631.663 1.023.722.398.06.889.027 1.406-.039a36.203 36.203 0 0 0 1.749-.287l.009-.002c1.081-.194 2.269-.408 3.443-.491 1.176-.084 2.3-.034 3.257.274.171.055.198.114.203.126.011.025.034.11-.023.303-.117.401-.485.978-1.078 1.694-1.168 1.409-3.007 3.122-4.659 4.66l-.031.03c-1.248 1.162-2.403 2.237-3.012 2.962-.965 1.148-3.52 3.448-6.46 6.024a16.481 16.481 0 0 0-3.922-2.56c-8.29-3.87-18.096-.185-21.905 8.213-.956 2.108-1.237 4.007-.957 5.735.279 1.727 1.112 3.236 2.304 4.577 2.367 2.66 6.213 4.722 10.225 6.594 4.004 1.869 7.627 3.296 10.74 3.173 1.578-.063 3.032-.523 4.334-1.518 1.296-.99 2.411-2.485 3.357-4.573Z" fill="#D9D9D9" stroke="#000"/><path d="M170.294 43.43c-.777.812-.503-.497-1.125-1.11-.621-.611-1.903-.296-1.125-1.108s1.629-.612 2.25 0c.622.612.778 1.406 0 2.218ZM174.938 39.073c-.778.812-.504-.496-1.126-1.109-.621-.612-1.902-.296-1.125-1.108.778-.812 1.629-.613 2.251 0 .621.612.777 1.405 0 2.217ZM180.045 34.01c-.778.813-.504-.496-1.125-1.108-.621-.613-1.903-.297-1.125-1.109s1.629-.612 2.25 0c.622.613.778 1.406 0 2.218ZM183.021 26.713c1.16-.217 1.257.852.913 1.659-.345.806-.971.95-2.248.773-.174 0-1.506.033-1.161-.773.344-.806.812-1.464 2.496-1.659ZM171.656 24.856c1.673-.681.262.661.585 1.477.323.815 2.257.795.585 1.476-1.673.682-3.291.573-3.614-.242-.323-.816.771-2.029 2.444-2.71ZM177.401 23.791c1.128-.14.466.773.57 1.645.105.873.937 1.375-.19 1.514-1.128.14-1.504-.406-1.609-1.278-.105-.872.102-1.741 1.229-1.88ZM160.287 62.574c-.739 1.369-3.646-2.026-8.144-4.526s-8.883-3.157-8.144-4.525c.739-1.37 4.985-.452 9.483 2.047 4.497 2.5 7.544 5.635 6.805 7.004Z" fill="#866262"/><path d="M119.977 30.386c.713 1.3-5.292.678-8.825 2.672-3.532 1.993-6.981 5.893-7.694 4.594-.713-1.3 4.197-5.226 5.895-5.948 4.827-2.657 9.911-2.617 10.624-1.318ZM108.812 63.331c1.174-.89-3.475-1.344-5.012-3.429-1.538-2.085-2.048-5.626-3.222-4.735s.377 4.679 1.236 5.5c2.136 2.796 5.824 3.555 6.998 2.664Z" fill="#FFECB6"/><path d="M153.382 42.53c.443.806-3.406.489-5.698 1.782-2.292 1.294-4.552 3.782-4.995 2.976-.442-.807 2.757-3.33 3.856-3.803 3.131-1.725 6.395-1.762 6.837-.956Z" fill="#F2F2F2"/><path d="M161.941 55.976c-.739 1.369-2.743-1.524-6.127-3.405-3.384-1.88-6.866-2.036-6.127-3.404.739-1.369 4.082-.954 7.465.926 3.384 1.88 5.528 4.514 4.789 5.883Z" fill="#866262"/><ellipse cx="122.197" cy="30.676" rx=".813" ry=".824" fill="#FFECB6"/><ellipse cx="154.464" cy="42.769" rx=".464" ry=".471" fill="#F2F2F2"/></svg>