<svg width="109" height="183" fill="none" xmlns="http://www.w3.org/2000/svg"><path d="M0 66.594v104.102a12.4 12.4 0 0 0 3.615 8.677 12.325 12.325 0 0 0 8.65 3.627h84.43a12.244 12.244 0 0 0 8.685-3.576 12.306 12.306 0 0 0 2.671-3.982 12.34 12.34 0 0 0 .949-4.706V67.546a27.376 27.376 0 0 0-2.042-10.456 27.297 27.297 0 0 0-5.875-8.875 27.212 27.212 0 0 0-8.814-5.945 27.146 27.146 0 0 0-10.41-2.109V25h-55.39v14.248h-.198A27.181 27.181 0 0 0 7.62 47.59 27.351 27.351 0 0 0 0 66.594Z" fill="#FFC100"/><path d="M27.04 27 27 33.89 82 36v-8.88L27.04 27Z" fill="#BEBEBE"/><path d="M32.026.117h44.988c3.179 0 6.228 1.231 8.475 3.423C87.737 5.732 89 8.705 89 11.805v7.792a7.36 7.36 0 0 1-.633 2.868 7.518 7.518 0 0 1-1.71 2.415 7.736 7.736 0 0 1-2.528 1.592 7.887 7.887 0 0 1-2.96.527H27.711a7.812 7.812 0 0 1-5.452-2.202A7.426 7.426 0 0 1 20 19.48v-7.792c0-3.1 1.263-6.073 3.51-8.265C25.759 1.231 28.808 0 31.987 0l.04.117Z" fill="#BEBEBE"/><path d="M28.984 32a50.88 50.88 0 0 1-.861-13.48c-.287-4.52.018-9.053.909-13.52.859 4.47 1.147 9 .861 13.52a54.658 54.658 0 0 1-.91 13.48ZM35.976 32a52.937 52.937 0 0 1-.867-13.5c-.26-4.514.046-9.037.915-13.5a52.937 52.937 0 0 1 .867 13.5 54.223 54.223 0 0 1-.915 13.5ZM43.484 32c-.43-4.47-.574-9-.43-13.52-.129-4.507.024-9.023.454-13.48.443 4.468.587 9 .43 13.52A103.2 103.2 0 0 1 43.485 32ZM51 32a91.627 91.627 0 0 1 0-27 91.627 91.627 0 0 1 0 27ZM57.991 32a49.759 49.759 0 0 1-.857-13.52A49.182 49.182 0 0 1 58.092 5a100.826 100.826 0 0 1 0 27h-.1ZM65.492 32a100.95 100.95 0 0 1-.43-13.48c-.144-4.52.009-9.053.454-13.52.43 4.47.574 9 .43 13.52A108.46 108.46 0 0 1 65.493 32ZM72.976 32a52.937 52.937 0 0 1-.867-13.5c-.26-4.514.046-9.037.915-13.5a52.937 52.937 0 0 1 .867 13.5 54.224 54.224 0 0 1-.915 13.5ZM79.968 32c-.859-4.47-1.147-9-.861-13.52A54.658 54.658 0 0 1 80.017 5a50.88 50.88 0 0 1 .86 13.48A52.202 52.202 0 0 1 79.968 32Z" fill="#E0E0E0"/><path d="m88.861 82.009-67.635-.142a5.864 5.864 0 0 0-5.877 5.852l-.085 40.771a5.865 5.865 0 0 0 5.852 5.877l67.635.141a5.864 5.864 0 0 0 5.876-5.852l.086-40.771a5.864 5.864 0 0 0-5.852-5.876Z" fill="#BEBEBE"/><path d="M89.326 131a3.936 3.936 0 0 1 0-.868v-11.595c0-7.889 0-19.208-.237-32.855l.554.552h-69.76l.714-.71V130.803l-.673-.671 49.913.434 14.38.197H89.563a3.951 3.951 0 0 1-1.228 0H19.171V85.761c-.674.63.871-.907.713-.75l69.522.316H90v.592c0 13.804-.277 25.163-.396 33.209v11.359a4.481 4.481 0 0 1-.278.513Z" fill="#534747"/><path d="M79 100.069a164.324 164.324 0 0 1-24 .801 171.717 171.717 0 0 1-24-.895 159.77 159.77 0 0 1 24-.848c8.009-.26 16.024.054 24 .942ZM78 108.063a156.506 156.506 0 0 1-23.5.806c-7.842.265-15.69-.051-23.5-.949a164.581 164.581 0 0 1 23.5-.806c7.842-.264 15.69.053 23.5.949ZM78 116.079c-7.813.83-15.66 1.099-23.5.807-7.842.263-15.69-.054-23.5-.949a156.506 156.506 0 0 1 23.5-.806c7.842-.265 15.69.052 23.5.948ZM79 40.063a193.175 193.175 0 0 1-26 .81c-8.675.259-17.355-.06-26-.952a202.621 202.621 0 0 1 26-.81 196.64 196.64 0 0 1 26 .952Z" fill="#E0E0E0"/><path d="M4.326 165a27.702 27.702 0 0 1-.281-4.866V78.961A47.242 47.242 0 0 1 7.34 59.459a21.707 21.707 0 0 1 8.92-10.009 17.226 17.226 0 0 1 3.454-1.345c.844 0 1.246-.237 1.286 0a25.425 25.425 0 0 0-4.46 2.018 21.569 21.569 0 0 0-8.196 9.573 47.269 47.269 0 0 0-2.893 19.107v24.13c0 17.089-.24 32.557-.442 43.752 0 5.419 0 9.889-.28 13.291A29.69 29.69 0 0 1 4.325 165ZM105 179a26.155 26.155 0 0 1-3.942-1.132 51.703 51.703 0 0 0-4.376-1.434c-1.734-.491-3.666-1.132-5.834-1.66a148.894 148.894 0 0 0-15.768-3.132 152.26 152.26 0 0 0-18.922-1.246c-6.49.012-12.97.453-19.395 1.321a140.48 140.48 0 0 0-15.571 3.094c-2.208.491-4.14 1.132-5.835 1.623-1.695.491-3.193.981-4.415 1.396-1.264.513-2.587.88-3.942 1.095a26.544 26.544 0 0 1 3.587-1.623 45.873 45.873 0 0 1 4.337-1.585c1.695-.566 3.626-1.283 5.834-1.849a127.681 127.681 0 0 1 15.768-3.396A142.646 142.646 0 0 1 56.236 169c6.602.036 13.191.553 19.71 1.547 5.331.807 10.599 1.954 15.77 3.434 2.207.604 3.941 1.321 5.834 1.887 1.892.566 3.153 1.132 4.296 1.623 1.101.401 2.158.907 3.154 1.509Z" fill="#fff"/></svg>