<svg width="134" height="185" fill="none" xmlns="http://www.w3.org/2000/svg"><path d="M0 184.949V64.466l14.567-49.848L12.547 0H119.55l-2.683 14.618L134 65.852v119.097H0Z" fill="#FFC100"/><path d="M14.72 14.618c12.395 14.91 33.232 22.216 51.671 27.37 18.439 5.155 38.015 10.886 50.76 25.468 8.931 10.207 13.422 23.68 16.689 36.987l.16-38.584-17.134-51.233-102.146-.008Z" fill="#fff" opacity=".4"/><path opacity=".3" d="m14.567 14.618 16.04 50.607V185L0 184.949V64.466l14.567-49.848Z" fill="#000"/><path d="M84.436 129.443c17.106 0 30.972-14.212 30.972-31.745 0-17.532-13.866-31.744-30.972-31.744-17.105 0-30.972 14.212-30.972 31.744 0 17.533 13.867 31.745 30.972 31.745Z" fill="#fff"/><path opacity=".3" d="M14.567 14.618h102.299L119.549 0H12.548l2.02 14.618Z" fill="#fff"/><path d="M71.283 96.247s-11.665 1.575-12.824 3.755c-1.16 2.18 2.872 10.937 4.906 13.372 2.035 2.435 8.312 2.296 11.338 2.136 3.026-.16 7.546.386 8.705 3.303a73.782 73.782 0 0 0 3.47 7.05 30.375 30.375 0 0 0 13.285-4.666c6.802-4.375 9.478-11.746 9.478-11.746s-5.271-10.878-8.443-13.62c0 0 1.969-2.048 2.042-7.254.072-5.205-.781-13.065-3.45-13.459-2.668-.393-7.589 10.9-9.135 11.87-1.545.97-9.478.219-11.44 1.327-1.96 1.108-7.888 8.45-7.932 7.932Z" fill="#FFC100"/><path d="M83.868 77.08c1.873-.358 3.324 9.084 3.324 9.084s-6.875.569-7.05.613c0 0 .007-8.975 3.726-9.697Z" fill="#FFC100"/><path d="M78.975 95.285c-3.171.73-1.385 3.55-1.385 3.55l3.77-1.574-2.385-1.976ZM54.372 149.192a4.08 4.08 0 0 1-2.228-.632c-.66-.427-1.185-1.052-1.574-1.877-.385-.829-.577-1.846-.577-3.05 0-1.237.2-2.266.598-3.086.398-.825.928-1.441 1.588-1.848a4.065 4.065 0 0 1 2.186-.619c.605 0 1.108.103 1.511.309.408.202.736.455.984.759.253.3.446.595.577.886h.091v-5.412h2.987v14.395h-2.952v-1.729h-.126c-.14.299-.34.597-.598.892a2.961 2.961 0 0 1-.99.724c-.404.192-.896.288-1.477.288Zm.95-2.382c.482 0 .89-.132 1.222-.394.338-.267.595-.64.773-1.118.183-.477.274-1.037.274-1.679 0-.642-.089-1.2-.267-1.673-.178-.473-.435-.839-.773-1.097-.337-.257-.747-.386-1.23-.386-.492 0-.907.133-1.244.4-.337.267-.593.638-.766 1.111-.173.473-.26 1.021-.26 1.645 0 .627.087 1.183.26 1.665.178.478.433.853.766 1.125.337.267.752.401 1.244.401Zm12.533 2.417c-1.092 0-2.036-.231-2.833-.695a4.765 4.765 0 0 1-1.834-1.954c-.431-.839-.647-1.811-.647-2.917 0-1.115.216-2.09.647-2.924a4.705 4.705 0 0 1 1.834-1.954c.797-.469 1.741-.703 2.833-.703s2.034.234 2.825.703a4.69 4.69 0 0 1 1.842 1.954c.431.834.647 1.809.647 2.924 0 1.106-.216 2.078-.647 2.917a4.75 4.75 0 0 1-1.842 1.954c-.791.464-1.733.695-2.825.695Zm.014-2.319c.497 0 .911-.141 1.244-.422.333-.286.583-.674.752-1.166.174-.492.26-1.052.26-1.68 0-.628-.087-1.188-.26-1.68-.169-.492-.42-.881-.752-1.167-.333-.286-.747-.429-1.244-.429-.501 0-.923.143-1.265.429-.338.286-.593.675-.766 1.167-.169.492-.253 1.052-.253 1.68 0 .628.084 1.188.253 1.68.173.492.428.88.766 1.166.342.281.764.422 1.265.422Zm12.11 6.382c-.97 0-1.801-.134-2.495-.401-.689-.262-1.237-.62-1.644-1.075a3.308 3.308 0 0 1-.795-1.532l2.77-.373c.084.216.217.417.4.605.183.187.424.337.724.45.305.117.675.175 1.11.175.652 0 1.188-.159 1.61-.478.427-.314.64-.841.64-1.581v-1.975h-.127a2.84 2.84 0 0 1-.59.85c-.262.267-.6.485-1.012.654-.413.169-.905.253-1.476.253a4.43 4.43 0 0 1-2.214-.562c-.661-.38-1.188-.959-1.582-1.736-.389-.783-.583-1.772-.583-2.966 0-1.223.199-2.245.597-3.065.399-.82.928-1.434 1.589-1.841a4.102 4.102 0 0 1 2.186-.612c.604 0 1.11.103 1.518.309.407.202.736.455.984.759.253.3.447.595.583.886h.113v-1.813h2.973v10.901c0 .918-.225 1.687-.675 2.305-.45.619-1.073 1.083-1.87 1.392-.791.314-1.703.471-2.734.471Zm.064-6.677c.482 0 .89-.12 1.223-.359.337-.243.595-.59.773-1.04.183-.454.274-.998.274-1.631 0-.632-.09-1.18-.267-1.644-.178-.469-.436-.832-.773-1.09-.338-.257-.748-.386-1.23-.386-.492 0-.907.133-1.245.4-.337.263-.592.628-.766 1.097-.173.468-.26 1.01-.26 1.623 0 .624.087 1.163.26 1.617.178.45.434.799.767 1.047.337.244.752.366 1.244.366ZM56.27 162.111v2.272H49.54v-2.272h6.73Zm-5.19 10.906v-11.694c0-.791.153-1.446.461-1.967.313-.52.739-.911 1.278-1.171.54-.261 1.153-.391 1.84-.391.463 0 .887.036 1.27.107.388.071.677.135.866.191l-.54 2.272a3.953 3.953 0 0 0-.44-.106 2.758 2.758 0 0 0-.525-.05c-.445 0-.755.104-.93.313-.175.203-.263.49-.263.859v11.637h-3.017Zm11.574.213c-1.102 0-2.056-.235-2.86-.703a4.818 4.818 0 0 1-1.854-1.974c-.435-.847-.653-1.83-.653-2.947 0-1.126.218-2.111.653-2.953a4.758 4.758 0 0 1 1.853-1.974c.805-.473 1.759-.71 2.861-.71 1.103 0 2.055.237 2.855.71a4.743 4.743 0 0 1 1.86 1.974c.435.842.653 1.827.653 2.953 0 1.117-.218 2.1-.653 2.947a4.803 4.803 0 0 1-1.86 1.974c-.8.468-1.752.703-2.855.703Zm.015-2.343c.501 0 .92-.142 1.256-.426.336-.289.59-.682.76-1.179.175-.497.263-1.063.263-1.697 0-.634-.088-1.2-.263-1.697-.17-.497-.424-.89-.76-1.178-.336-.289-.755-.433-1.256-.433-.507 0-.933.144-1.278.433-.341.288-.6.681-.774 1.178-.17.497-.256 1.063-.256 1.697 0 .634.085 1.2.256 1.697.175.497.433.89.774 1.179.345.284.771.426 1.278.426Zm12.247 2.343c-1.103 0-2.056-.235-2.861-.703a4.818 4.818 0 0 1-1.853-1.974c-.436-.847-.654-1.83-.654-2.947 0-1.126.218-2.111.654-2.953a4.758 4.758 0 0 1 1.853-1.974c.805-.473 1.758-.71 2.861-.71 1.103 0 2.054.237 2.854.71a4.743 4.743 0 0 1 1.86 1.974c.436.842.654 1.827.654 2.953 0 1.117-.218 2.1-.653 2.947a4.803 4.803 0 0 1-1.86 1.974c-.8.468-1.752.703-2.855.703Zm.014-2.343c.502 0 .921-.142 1.257-.426.336-.289.59-.682.76-1.179.175-.497.262-1.063.262-1.697 0-.634-.087-1.2-.262-1.697-.17-.497-.424-.89-.76-1.178-.336-.289-.755-.433-1.257-.433-.506 0-.932.144-1.278.433-.34.288-.598.681-.774 1.178-.17.497-.255 1.063-.255 1.697 0 .634.085 1.2.255 1.697.176.497.433.89.774 1.179.346.284.772.426 1.278.426Zm11.339 2.307a4.117 4.117 0 0 1-2.25-.639c-.668-.431-1.198-1.063-1.591-1.896-.388-.837-.582-1.865-.582-3.081 0-1.25.2-2.289.603-3.117.403-.833.937-1.455 1.605-1.867a4.108 4.108 0 0 1 2.208-.625c.61 0 1.12.104 1.526.312.412.204.744.46.994.767.256.303.45.601.583.895h.092v-5.467h3.017v14.541h-2.982v-1.747h-.127a3.892 3.892 0 0 1-.604.902c-.255.293-.59.537-1.001.731-.407.194-.904.291-1.491.291Zm.959-2.407c.487 0 .899-.132 1.235-.397.34-.27.601-.646.78-1.129.186-.483.278-1.049.278-1.697 0-.649-.09-1.212-.27-1.69-.18-.478-.44-.847-.781-1.108-.34-.26-.755-.39-1.243-.39-.496 0-.915.135-1.256.405-.341.269-.599.643-.774 1.121-.175.478-.263 1.032-.263 1.662 0 .634.088 1.195.263 1.683.18.482.438.861.774 1.136.34.269.76.404 1.257.404Z" fill="#fff"/><path d="M49.6 148.691h16.478a1.093 1.093 0 1 0 0-2.187H49.6a1.094 1.094 0 1 0 0 2.187ZM79.508 148.691h39.516a1.095 1.095 0 0 0 .774-1.867 1.095 1.095 0 0 0-.774-.32H79.508a1.094 1.094 0 1 0 0 2.187ZM106.491 153.277H63.686v4.134h42.805v-4.134ZM115.525 12.395h-4.185c-1.184 0-2.144.96-2.144 2.143v.11c0 1.183.96 2.143 2.144 2.143h4.185c1.184 0 2.143-.96 2.143-2.144v-.109a2.143 2.143 0 0 0-2.143-2.143Z" fill="#fff"/><path d="M14.72 14.618c32.977-.226 69.993-.226 102.941 0-32.977.226-69.993.219-102.94 0Z" fill="#000"/><path opacity=".3" d="m0 184.949 16.813-13.525L30.607 185 0 184.949Z" fill="#000"/><path opacity=".2" d="M16.813 171.424 14.567 14.618 0 64.466V184.95l16.813-13.525Z" fill="#000"/><path d="M48.82 95.336c1.677-14.4 11.33-27.552 25.387-31.934a33.836 33.836 0 0 1 12.074-1.458c1.4.087 1.4-2.1 0-2.188a36.455 36.455 0 0 0-21.873 5.906A39.437 39.437 0 0 0 50.023 82.89a43.47 43.47 0 0 0-3.354 12.46c-.167 1.393 2.02 1.386 2.188 0l-.037-.014Z" fill="#fff"/><path opacity=".3" d="M30.607 163.805s9.858 7.67 35.47 14.407A209.182 209.182 0 0 0 113.382 185H30.607v-21.195Z" fill="#fff"/><path d="M122.415 31.344H99.113l-2.268-6.89h23.302l2.268 6.89Z" fill="#fff"/></svg>