<svg width="113" height="76" viewBox="0 0 113 76" fill="none" xmlns="http://www.w3.org/2000/svg">
<mask id="path-1-outside-1_694_271" maskUnits="userSpaceOnUse" x="21.1545" y="56.1777" width="77" height="20" fill="black">
<rect fill="white" x="21.1545" y="56.1777" width="77" height="20"/>
<path d="M96.5876 65.7375C96.5876 70.465 79.9252 74.2973 59.3711 74.2973C38.8169 74.2973 22.1545 70.465 22.1545 65.7375C22.1545 61.0101 38.8169 57.1777 59.3711 57.1777C79.9252 57.1777 96.5876 61.0101 96.5876 65.7375Z"/>
</mask>
<path d="M96.5876 65.7375C96.5876 70.465 79.9252 74.2973 59.3711 74.2973C38.8169 74.2973 22.1545 70.465 22.1545 65.7375C22.1545 61.0101 38.8169 57.1777 59.3711 57.1777C79.9252 57.1777 96.5876 61.0101 96.5876 65.7375Z" fill="white"/>
<path d="M95.5876 65.7375C95.5876 66.014 95.4702 66.3643 95.0844 66.7979C94.6931 67.2377 94.07 67.7098 93.1852 68.1909C91.4169 69.1525 88.7919 70.05 85.463 70.8157C78.8212 72.3433 69.5958 73.2973 59.3711 73.2973V75.2973C69.7005 75.2973 79.0834 74.3352 85.9113 72.7648C89.3172 71.9814 92.1425 71.0345 94.1407 69.9479C95.1392 69.4049 95.9784 68.802 96.5786 68.1273C97.1843 67.4465 97.5876 66.6429 97.5876 65.7375H95.5876ZM59.3711 73.2973C49.1464 73.2973 39.921 72.3433 33.2792 70.8157C29.9502 70.05 27.3253 69.1525 25.5569 68.1909C24.6722 67.7098 24.049 67.2377 23.6578 66.7979C23.272 66.3643 23.1545 66.014 23.1545 65.7375H21.1545C21.1545 66.6429 21.5578 67.4465 22.1635 68.1273C22.7638 68.802 23.603 69.4049 24.6015 69.9479C26.5996 71.0345 29.4249 71.9814 32.8309 72.7648C39.6588 74.3352 49.0416 75.2973 59.3711 75.2973V73.2973ZM23.1545 65.7375C23.1545 65.4611 23.272 65.1108 23.6578 64.6771C24.049 64.2374 24.6722 63.7653 25.5569 63.2842C27.3253 62.3226 29.9502 61.4251 33.2792 60.6594C39.921 59.1318 49.1464 58.1777 59.3711 58.1777V56.1777C49.0416 56.1777 39.6588 57.1399 32.8309 58.7103C29.4249 59.4937 26.5996 60.4406 24.6015 61.5272C23.603 62.0701 22.7638 62.6731 22.1635 63.3477C21.5578 64.0286 21.1545 64.8321 21.1545 65.7375H23.1545ZM59.3711 58.1777C69.5958 58.1777 78.8212 59.1318 85.463 60.6594C88.7919 61.4251 91.4169 62.3226 93.1852 63.2842C94.07 63.7653 94.6931 64.2374 95.0844 64.6771C95.4702 65.1108 95.5876 65.4611 95.5876 65.7375H97.5876C97.5876 64.8321 97.1843 64.0286 96.5786 63.3477C95.9784 62.6731 95.1392 62.0701 94.1407 61.5272C92.1425 60.4406 89.3172 59.4937 85.9113 58.7103C79.0834 57.1399 69.7005 56.1777 59.3711 56.1777V58.1777Z" fill="black" mask="url(#path-1-outside-1_694_271)"/>
<path d="M58.9744 70.8798H58.9911L59.0077 70.8787C59.5205 70.8445 60.0302 70.8106 60.5365 70.7769C68.4453 70.2504 75.5292 69.7789 80.7282 69.0142C83.49 68.608 85.7594 68.1139 87.3492 67.4681C88.1435 67.1455 88.8021 66.7718 89.2688 66.3252C89.7443 65.8701 90.0363 65.3216 90.0363 64.6816C90.0363 64.0477 89.7469 63.4719 89.2843 62.9661C88.8242 62.4631 88.1695 62.0018 87.3683 61.578C85.7651 60.7299 83.478 59.9815 80.6941 59.3586C75.1181 58.111 67.4393 57.3438 58.9744 57.3438C50.5263 57.3438 43.0534 57.7203 37.6822 58.5752C35.0015 59.0018 32.8101 59.5526 31.2763 60.2531C29.7846 60.9343 28.7063 61.8579 28.7063 63.1265C28.7063 64.3644 29.7436 65.4184 31.2324 66.2852C32.7621 67.1757 34.9516 67.9783 37.6388 68.6543C43.0207 70.008 50.5054 70.8798 58.9744 70.8798Z" fill="white" stroke="black"/>
<path d="M90.3815 62.5061C90.3815 65.7407 76.8885 67.0113 57.8797 67.0113C38.871 67.0113 25 65.7407 25 62.5061C25 59.2715 38.871 55.2979 57.8797 55.2979C76.8885 55.2979 90.3815 59.2715 90.3815 62.5061Z" fill="white"/>
<path d="M5.80109 1.39466C5.5944 1.61848 5.33638 1.96545 5.05552 2.39108C4.6877 2.9485 4.25244 3.68478 3.79951 4.56408C2.89399 6.32203 1.91005 8.66686 1.25451 11.3161C-0.0550292 16.6084 -0.0685353 23.1935 4.58592 28.692C8.24689 33.0169 11.8089 36.8576 14.8445 39.8216C17.8206 42.7277 20.3312 44.8317 21.9437 45.6981C22.4412 46.2019 22.9262 46.6846 23.3968 47.1446C22.7871 50.0163 22.6761 53.0472 23.1461 56.1216C23.6625 59.4993 24.8378 62.0463 26.5497 63.9182C28.2612 65.7897 30.4764 66.9509 33.0128 67.6128C38.058 68.9293 44.4617 68.2895 50.9652 67.2665C57.461 66.2448 63.0592 64.9996 66.7698 62.2894C68.6421 60.9219 70.0393 59.179 70.83 56.913C71.6181 54.6545 71.7917 51.9109 71.2787 48.5552C69.219 35.083 56.7778 25.8435 43.4794 27.9352C36.5745 29.0212 30.8011 32.9494 27.1362 38.3592C25.2624 35.0417 22.8849 31.481 20.0217 28.0889C18.4363 24.5311 17.931 21.7203 17.6514 20.165L17.6435 20.1208C17.5607 19.6598 17.49 19.2663 17.4092 19.0143C17.387 18.945 17.3595 18.8711 17.3237 18.8015C17.2905 18.7368 17.2339 18.643 17.1393 18.5648C17.031 18.4752 16.875 18.4099 16.6927 18.4329C16.5325 18.4531 16.4178 18.5341 16.3523 18.5911C16.21 18.715 16.0985 18.9109 16.0132 19.0845C15.9174 19.2797 15.8171 19.5279 15.7174 19.8203C15.6391 20.0501 15.5598 20.3113 15.4825 20.6013C13.5626 15.7352 13.6487 11.5141 13.6937 9.3469L13.6948 9.28998C13.7061 8.751 13.7158 8.28694 13.6751 7.99583C13.6639 7.91551 13.6459 7.82332 13.6124 7.73481C13.5819 7.65397 13.5161 7.51561 13.3716 7.41668C13.1992 7.29872 13.0075 7.29724 12.8593 7.34387C12.733 7.38364 12.6361 7.45708 12.5734 7.51174C12.4549 7.61495 12.3328 7.76705 12.2153 7.93287C12.0923 8.10643 11.9548 8.32335 11.8075 8.57745C11.5124 9.08616 11.1687 9.75986 10.813 10.5664C10.232 11.8834 9.61382 13.5662 9.12195 15.4798C6.34551 9.75027 6.60971 4.45772 6.77401 1.81253C6.86501 1.67681 6.91231 1.5324 6.93625 1.41659C6.96997 1.25344 6.9755 1.05834 6.92551 0.896497C6.91256 0.854563 6.88527 0.779103 6.82703 0.704182C6.76994 0.630747 6.62175 0.48644 6.38266 0.500949C6.16458 0.514183 6.03969 0.652533 5.99726 0.70674C5.94674 0.771284 5.91771 0.836954 5.90126 0.879536C5.85307 1.00425 5.8217 1.17805 5.80109 1.39466ZM13.2364 8.26077C13.2364 8.26084 13.2353 8.26177 13.233 8.26336C13.2353 8.2615 13.2364 8.26071 13.2364 8.26077Z" fill="#FFBD00" fill-opacity="0.72" stroke="black"/>
<path d="M95.8623 63.3781C98.4673 57.6346 97.5949 51.1704 94.1346 46.422C98.5491 42.9392 103.169 38.9491 106.538 35.4139C108.27 33.5974 109.689 31.8821 110.578 30.4046C111.023 29.6663 111.348 28.9659 111.506 28.3263C111.664 27.6876 111.666 27.0623 111.397 26.5217C110.709 25.1353 109.448 24.2766 107.992 23.7987C106.539 23.3218 104.856 23.2098 103.238 23.3362C101.618 23.4628 100.032 23.8309 98.7617 24.3405C98.1268 24.5953 97.559 24.8902 97.1022 25.2166C96.6515 25.5387 96.2743 25.916 96.0709 26.3483C95.8408 26.8372 95.7047 27.3326 95.8594 27.7606C96.0354 28.2477 96.4901 28.4242 96.8822 28.4831C97.2804 28.5428 97.7711 28.5102 98.2884 28.4443C98.8113 28.3777 99.4092 28.2701 100.037 28.157L100.046 28.1553C101.127 27.9608 102.315 27.7475 103.489 27.6637C104.665 27.5799 105.789 27.6297 106.746 27.9379C106.917 27.9931 106.944 28.052 106.949 28.0635C106.96 28.0892 106.983 28.1738 106.926 28.3675C106.809 28.768 106.441 29.3449 105.848 30.0609C104.68 31.4699 102.841 33.1831 101.189 34.7212L101.158 34.7507C99.9097 35.913 98.7554 36.9878 98.1462 37.7127C97.1813 38.8608 94.6255 41.1614 91.6863 43.7375C90.5326 42.7232 89.22 41.8557 87.764 41.1762C79.4741 37.3079 69.6678 40.9915 65.8589 49.3896C64.9027 51.4978 64.6219 53.3974 64.9017 55.1253C65.1814 56.8521 66.0136 58.3612 67.206 59.702C69.5726 62.3629 73.4188 64.4243 77.4309 66.2964C81.4348 68.1647 85.0577 69.592 88.1711 69.4686C89.7494 69.406 91.2034 68.946 92.5053 67.9512C93.8007 66.9615 94.9156 65.4655 95.8623 63.3781Z" fill="#D9D9D9" stroke="black"/>
<path d="M97.2945 43.4296C96.5168 44.2415 96.7907 42.9332 96.1693 42.3208C95.5479 41.7085 94.2665 42.024 95.0442 41.2121C95.8219 40.4001 96.6731 40.5997 97.2945 41.2121C97.9159 41.8244 98.0722 42.6176 97.2945 43.4296Z" fill="#866262"/>
<path d="M101.938 39.0731C101.16 39.8851 101.434 38.5767 100.812 37.9644C100.191 37.352 98.9095 37.6676 99.6872 36.8556C100.465 36.0437 101.316 36.2433 101.938 36.8556C102.559 37.468 102.715 38.2612 101.938 39.0731Z" fill="#866262"/>
<path d="M107.045 34.0106C106.267 34.8226 106.541 33.5142 105.92 32.9019C105.299 32.2895 104.017 32.6051 104.795 31.7931C105.573 30.9811 106.424 31.1808 107.045 31.7931C107.667 32.4055 107.823 33.1987 107.045 34.0106Z" fill="#866262"/>
<path d="M110.021 26.7126C111.181 26.4958 111.278 27.565 110.934 28.3713C110.589 29.1776 109.963 29.3215 108.686 29.1449C108.512 29.1449 107.18 29.1776 107.525 28.3713C107.869 27.565 108.337 26.9079 110.021 26.7126Z" fill="#866262"/>
<path d="M98.656 24.8569C100.329 24.1753 98.9178 25.5179 99.2408 26.3333C99.5637 27.1488 101.498 27.1282 99.8255 27.8098C98.1528 28.4914 96.5349 28.3829 96.212 27.5675C95.889 26.752 96.9833 25.5384 98.656 24.8569Z" fill="#866262"/>
<path d="M104.401 23.7918C105.529 23.6524 104.867 24.5647 104.971 25.437C105.076 26.3093 105.908 26.8113 104.781 26.9507C103.653 27.0901 103.277 26.5448 103.172 25.6725C103.067 24.8002 103.274 23.9311 104.401 23.7918Z" fill="#866262"/>
<path d="M87.2871 62.5743C86.5479 63.943 83.6409 60.5482 79.1431 58.0487C74.6453 55.5493 70.2599 54.8917 70.9991 53.5231C71.7384 52.1544 75.9838 53.0711 80.4816 55.5706C84.9794 58.07 88.0264 61.2057 87.2871 62.5743Z" fill="#866262"/>
<path d="M46.9767 30.386C47.6895 31.6855 41.6849 31.0641 38.1524 33.0578C34.6198 35.0515 31.171 38.9511 30.4582 37.6516C29.7453 36.3521 34.6547 32.426 36.3532 31.7038C41.1802 29.0475 46.2638 29.0866 46.9767 30.386Z" fill="#FFECB6"/>
<path d="M35.8125 63.3316C36.9864 62.4408 32.3375 61.9875 30.7998 59.9026C29.2621 57.8177 28.7522 54.277 27.5782 55.1678C26.4043 56.0586 27.9549 59.8465 28.8141 60.6667C30.9498 63.4632 34.6385 64.2224 35.8125 63.3316Z" fill="#FFECB6"/>
<path d="M80.3822 42.5292C80.8246 43.3356 76.9762 43.019 74.6842 44.3125C72.3923 45.6061 70.1315 48.094 69.6892 47.2876C69.2468 46.4812 72.4458 43.9589 73.545 43.4852C76.676 41.7603 79.9399 41.7229 80.3822 42.5292Z" fill="#F2F2F2"/>
<path d="M88.9409 55.9762C88.2016 57.3448 86.1978 54.4518 82.8139 52.5714C79.4301 50.691 75.9477 50.5353 76.687 49.1666C77.4262 47.798 80.7686 48.2128 84.1525 50.0932C87.5363 51.9736 89.6801 54.6075 88.9409 55.9762Z" fill="#866262"/>
<ellipse cx="49.1967" cy="30.6757" rx="0.812536" ry="0.824164" fill="#FFECB6"/>
<ellipse cx="81.4643" cy="42.7688" rx="0.464306" ry="0.470951" fill="#F2F2F2"/>
</svg>
