<svg width="82" height="70" viewBox="0 0 82 70" fill="none" xmlns="http://www.w3.org/2000/svg">
<circle cx="42.5" cy="35.5" r="31.5" fill="#FFCF47"/>
<path d="M17.2168 38.1055V41H15.3242V32.5977H18.2891C20.4062 32.5977 21.4648 33.4902 21.4648 35.2754C21.4648 36.1191 21.1602 36.8027 20.5508 37.3262C19.9453 37.8457 19.1348 38.1055 18.1191 38.1055H17.2168ZM17.2168 34.0508V36.6699H17.9609C18.9688 36.6699 19.4727 36.2285 19.4727 35.3457C19.4727 34.4824 18.9688 34.0508 17.9609 34.0508H17.2168ZM29.3691 41H27.3066L26.709 39.1309H23.7207L23.1289 41H21.0781L24.1367 32.5977H26.3809L29.3691 41ZM26.2754 37.6777L25.373 34.8535C25.3066 34.6426 25.2598 34.3906 25.2324 34.0977H25.1855C25.166 34.3438 25.1172 34.5879 25.0391 34.8301L24.125 37.6777H26.2754ZM37.1973 40.4375C36.377 40.9102 35.3574 41.1465 34.1387 41.1465C32.7871 41.1465 31.7207 40.7734 30.9395 40.0273C30.1621 39.2773 29.7734 38.2461 29.7734 36.9336C29.7734 35.6133 30.1992 34.5371 31.0508 33.7051C31.9023 32.873 33.0352 32.457 34.4492 32.457C35.3398 32.457 36.125 32.5801 36.8047 32.8262V34.6016C36.1562 34.2266 35.3633 34.0391 34.4258 34.0391C33.6406 34.0391 33 34.2949 32.5039 34.8066C32.0117 35.3145 31.7656 35.9941 31.7656 36.8457C31.7656 37.709 31.9863 38.377 32.4277 38.8496C32.873 39.3223 33.4727 39.5586 34.2266 39.5586C34.6797 39.5586 35.0391 39.4941 35.3047 39.3652V37.7246H33.623V36.2129H37.1973V40.4375ZM43.8711 41H38.832V32.5977H43.6777V34.1387H40.7246V36.0078H43.4727V37.543H40.7246V39.4648H43.8711V41ZM54.4355 34.1387H52.0391V41H50.1406V34.1387H47.7559V32.5977H54.4355V34.1387ZM58.6719 41.1465C57.4688 41.1465 56.4883 40.7559 55.7305 39.9746C54.9727 39.1895 54.5938 38.168 54.5938 36.9102C54.5938 35.582 54.9785 34.5078 55.748 33.6875C56.5176 32.8672 57.5371 32.457 58.8066 32.457C60.0059 32.457 60.9746 32.8496 61.7129 33.6348C62.4551 34.4199 62.8262 35.4551 62.8262 36.7402C62.8262 38.0605 62.4414 39.125 61.6719 39.9336C60.9062 40.7422 59.9062 41.1465 58.6719 41.1465ZM58.7539 34.0859C58.0898 34.0859 57.5625 34.3359 57.1719 34.8359C56.7812 35.332 56.5859 35.9902 56.5859 36.8105C56.5859 37.6426 56.7812 38.3008 57.1719 38.7852C57.5625 39.2695 58.0742 39.5117 58.707 39.5117C59.3594 39.5117 59.877 39.2773 60.2598 38.8086C60.6426 38.3359 60.834 37.6816 60.834 36.8457C60.834 35.9746 60.6484 35.2969 60.2773 34.8125C59.9062 34.3281 59.3984 34.0859 58.7539 34.0859ZM66.1191 38.1055V41H64.2266V32.5977H67.1914C69.3086 32.5977 70.3672 33.4902 70.3672 35.2754C70.3672 36.1191 70.0625 36.8027 69.4531 37.3262C68.8477 37.8457 68.0371 38.1055 67.0215 38.1055H66.1191ZM66.1191 34.0508V36.6699H66.8633C67.8711 36.6699 68.375 36.2285 68.375 35.3457C68.375 34.4824 67.8711 34.0508 66.8633 34.0508H66.1191Z" fill="black"/>
</svg>
