<svg width="191" height="93" viewBox="0 0 191 93" fill="none" xmlns="http://www.w3.org/2000/svg">
<path d="M179.253 11.793H9.79236V87.1917H179.253V11.793Z" fill="#E0E0E0"/>
<path d="M184.654 11.811H5.91433C5.13849 11.8133 4.36982 11.6625 3.65237 11.3672C2.93491 11.0719 2.28276 10.6379 1.73333 10.0902C1.1839 9.54237 0.747989 8.89157 0.450551 8.17501C0.153112 7.45844 2.31712e-05 6.69023 2.66695e-05 5.91439C-0.00231119 5.13705 0.149077 4.36693 0.445471 3.64831C0.741865 2.9297 1.1774 2.27678 1.72706 1.72712C2.27672 1.17746 2.92965 0.741865 3.64826 0.445471C4.36687 0.149077 5.137 -0.00231119 5.91433 2.66695e-05H184.654C185.431 -0.00231119 186.202 0.149077 186.92 0.445471C187.639 0.741865 188.292 1.17746 188.841 1.72712C189.391 2.27678 189.827 2.9297 190.123 3.64831C190.419 4.36693 190.571 5.13705 190.568 5.91439C190.568 6.69023 190.415 7.45844 190.118 8.17501C189.82 8.89157 189.385 9.54237 188.835 10.0902C188.286 10.6379 187.634 11.0719 186.916 11.3672C186.199 11.6625 185.43 11.8133 184.654 11.811Z" fill="#E0E0E0"/>
<path d="M184.654 93H5.91433C4.34576 93 2.8414 92.3769 1.73225 91.2678C0.623101 90.1586 2.66695e-05 88.6543 2.66695e-05 87.0857C-0.00231119 86.3084 0.149077 85.5383 0.445471 84.8196C0.741865 84.101 1.1774 83.4481 1.72706 82.8984C2.27672 82.3488 2.92965 81.9132 3.64826 81.6168C4.36687 81.3204 5.137 81.1691 5.91433 81.1714H184.654C185.431 81.1691 186.202 81.3204 186.92 81.6168C187.639 81.9132 188.292 82.3488 188.841 82.8984C189.391 83.4481 189.827 84.101 190.123 84.8196C190.419 85.5383 190.571 86.3084 190.568 87.0857C190.568 88.6543 189.945 90.1586 188.836 91.2678C187.727 92.3769 186.223 93 184.654 93Z" fill="#E0E0E0"/>
<path d="M179.253 17.9202H9.79236V73.5395H179.253V17.9202Z" fill="#FFC100"/>
<path d="M181.201 81.1714C181.201 81.4193 142.014 81.6317 93.6906 81.6317C45.3667 81.6317 6.17993 81.4193 6.17993 81.1714C6.17993 80.9234 45.349 80.7109 93.6906 80.7109C142.032 80.7109 181.201 80.8703 181.201 81.1714Z" fill="#263238"/>
<path d="M184.813 11.8108C184.813 12.0764 145.627 12.2888 97.3029 12.2888C48.979 12.2888 9.72144 12.0587 9.72144 11.8108C9.72144 11.5628 48.8905 11.3503 97.2321 11.3503C145.574 11.3503 184.813 11.5451 184.813 11.8108Z" fill="#263238"/>
<g opacity="0.3">
<path d="M96.3112 66.1908C129.259 66.1908 155.968 57.3671 155.968 46.4824C155.968 35.5977 129.259 26.7739 96.3112 26.7739C63.3637 26.7739 36.6545 35.5977 36.6545 46.4824C36.6545 57.3671 63.3637 66.1908 96.3112 66.1908Z" fill="white"/>
</g>
<path d="M63.3751 48.9967C68.4572 53.6715 87.0856 61.7284 117.543 47.6155C117.802 47.4942 118.021 47.3016 118.175 47.0601C118.328 46.8186 118.41 46.5383 118.41 46.252C118.41 45.9658 118.328 45.6854 118.175 45.4439C118.021 45.2024 117.802 45.0097 117.543 44.8885C108.352 39.1867 79.3473 30.7225 63.446 44.2687C63.1061 44.5595 62.832 44.9192 62.6419 45.3241C62.4517 45.7289 62.3499 46.1695 62.3432 46.6167C62.3365 47.0639 62.4251 47.5074 62.603 47.9178C62.7809 48.3281 63.0441 48.6959 63.3751 48.9967Z" fill="white"/>
<path d="M114.957 45.2428L127.353 39.3461C127.542 39.2615 127.749 39.2249 127.955 39.2395C128.162 39.2541 128.361 39.3195 128.537 39.4298C128.712 39.5402 128.857 39.6921 128.959 39.8721C129.062 40.0522 129.118 40.2547 129.123 40.4617L129.3 52.0778C129.306 52.2896 129.257 52.4991 129.158 52.6865C129.059 52.874 128.914 53.033 128.737 53.1484C128.559 53.2638 128.355 53.3318 128.144 53.3459C127.932 53.36 127.721 53.3197 127.53 53.2289L115.01 47.5093C114.789 47.4174 114.598 47.2629 114.463 47.0648C114.327 46.8667 114.252 46.6334 114.246 46.3933C114.24 46.1532 114.305 45.9167 114.431 45.7125C114.557 45.5082 114.74 45.345 114.957 45.2428Z" fill="white"/>
</svg>
