<svg width="103" height="171" fill="none" xmlns="http://www.w3.org/2000/svg"><path d="M99.79 43.32H10.7v122.19h89.09V43.32Z" fill="#263238"/><path opacity=".8" d="M99.79 43.32H10.7v122.19h89.09V43.32Z" fill="#fff"/><path d="M101.88 39.57H8.89v5.23h92.99v-5.23Z" fill="#263238"/><path opacity=".8" d="M101.88 39.57H8.89v5.23h92.99v-5.23Z" fill="#fff"/><path opacity=".3" d="M99.79 44.8H10.7v3.24h89.09V44.8Z" fill="#000"/><path d="M8.61 170.62h92.99v-5.23H8.61v5.23Z" fill="#263238"/><path opacity=".8" d="M8.61 170.62h92.99v-5.23H8.61v5.23Z" fill="#fff"/><path opacity=".3" d="M10.7 165.39h89.09v-3.24H10.7v3.24Z" fill="#000"/><path d="M99.79 49.8H10.7v109.02h89.09V49.8Z" fill="#FFC100"/><path d="M55.11 122.15c13.769 0 24.93-11.296 24.93-25.23 0-13.934-11.162-25.23-24.93-25.23-13.768 0-24.93 11.296-24.93 25.23 0 13.934 11.162 25.23 24.93 25.23Z" fill="#fff"/><path d="M42.92 86.47 49 83.55s-8.75-5.17-9.36-4.13c-.61 1.04 3.28 7.05 3.28 7.05Z" fill="#FFC100"/><path d="M52.33 84.1s-12.21 4.13-12.09 8.2c.12 4.07.67 8.45 0 9.42-.67.97-3.16 1.82-2.37 3.59.79 1.77 3.92 5 7.15 6.5a26.776 26.776 0 0 1 3.18 0c1 .12 5.9-.36 5.9-.36l7.12 6s8.87-5.13 11-12c1.67-5.44 1.15-9.79-2.86-14.89-4.01-5.1-16.65-13.92-17.69-12.94-1.04.98.66 6.48.66 6.48Z" fill="#FFC100"/><path d="M44.79 99.17s0-2.34.88-2.52a12.39 12.39 0 0 1 2.55 0s.16 3.15-1.68 3.23c-2.12.05-1.75-.71-1.75-.71ZM28.404 135.124c-.74 0-1.376-.157-1.91-.47a3.18 3.18 0 0 1-1.223-1.318c-.282-.561-.423-1.207-.423-1.938 0-.74.143-1.389.428-1.947a3.18 3.18 0 0 1 1.228-1.313c.53-.317 1.16-.475 1.891-.475.63 0 1.182.115 1.656.344.474.228.848.55 1.124.964.276.414.428.9.457 1.458H29.74c-.053-.36-.194-.651-.423-.87-.226-.223-.522-.334-.889-.334-.31 0-.582.085-.814.254-.229.166-.408.409-.536.729-.129.32-.193.707-.193 1.162 0 .461.063.853.188 1.176.129.323.31.569.541.739.232.169.503.254.814.254.229 0 .434-.047.616-.141.185-.095.337-.231.457-.41.122-.182.202-.4.24-.654h1.89a2.966 2.966 0 0 1-.451 1.459 2.726 2.726 0 0 1-1.105.978c-.47.235-1.028.353-1.67.353Zm6.571-.005a3.01 3.01 0 0 1-1.232-.24 1.987 1.987 0 0 1-.857-.719c-.207-.32-.31-.719-.31-1.195 0-.402.074-.739.221-1.012.148-.272.348-.492.602-.658.254-.166.543-.292.866-.377a6.62 6.62 0 0 1 1.025-.178c.42-.044.76-.085 1.017-.123.257-.04.443-.1.56-.178a.395.395 0 0 0 .173-.349v-.028c0-.298-.094-.528-.282-.691-.185-.163-.448-.245-.79-.245-.36 0-.648.08-.861.24a1.103 1.103 0 0 0-.423.593l-1.854-.151c.094-.439.28-.818.555-1.138a2.66 2.66 0 0 1 1.068-.743c.44-.176.947-.264 1.524-.264.402 0 .786.047 1.153.141.37.094.697.24.983.438.288.197.516.451.682.762.166.307.25.676.25 1.105v4.874h-1.901v-1.002h-.057a2.03 2.03 0 0 1-.465.597 2.14 2.14 0 0 1-.701.4 2.9 2.9 0 0 1-.946.141Zm.574-1.383c.295 0 .555-.058.781-.174a1.38 1.38 0 0 0 .532-.48c.128-.2.192-.428.192-.682v-.767a1.047 1.047 0 0 1-.258.113 4.336 4.336 0 0 1-.362.09c-.135.025-.27.048-.405.07l-.367.052a2.47 2.47 0 0 0-.616.165.98.98 0 0 0-.41.306.743.743 0 0 0-.145.47c0 .273.098.481.296.626.2.141.455.211.762.211Zm8.894-5.979v1.506H40.09v-1.506h4.352Zm-3.364-1.731h2.004v6.737c0 .185.028.329.085.432a.466.466 0 0 0 .235.212.966.966 0 0 0 .357.061c.094 0 .189-.008.283-.023l.216-.043.315 1.492c-.1.031-.241.067-.423.108-.182.044-.403.07-.664.08-.483.019-.906-.046-1.27-.193a1.779 1.779 0 0 1-.842-.687c-.2-.31-.3-.702-.296-1.176v-7Zm11.62 1.731v1.506H48.24v-1.506h4.46Zm-3.438 7.226v-7.748c0-.524.102-.958.306-1.303a1.96 1.96 0 0 1 .846-.776 2.762 2.762 0 0 1 1.219-.259c.307 0 .588.024.842.071.257.047.448.089.574.127l-.358 1.505a2.524 2.524 0 0 0-.291-.071 1.817 1.817 0 0 0-.349-.033c-.294 0-.5.069-.616.207-.116.135-.174.325-.174.57v7.71h-2Zm7.669.141c-.73 0-1.363-.155-1.896-.466a3.183 3.183 0 0 1-1.228-1.307c-.288-.562-.432-1.213-.432-1.953 0-.746.144-1.398.432-1.957a3.146 3.146 0 0 1 1.228-1.307c.533-.314 1.165-.471 1.896-.471.73 0 1.361.157 1.891.471.533.31.944.746 1.233 1.307.288.559.432 1.211.432 1.957 0 .74-.144 1.391-.432 1.953-.289.558-.7.994-1.233 1.307-.53.311-1.16.466-1.891.466Zm.01-1.552c.332 0 .61-.094.832-.283.223-.191.39-.451.503-.781.116-.329.174-.704.174-1.124 0-.42-.058-.795-.174-1.124a1.75 1.75 0 0 0-.503-.781c-.223-.191-.5-.287-.833-.287-.335 0-.617.096-.846.287a1.765 1.765 0 0 0-.513.781c-.113.329-.17.704-.17 1.124 0 .42.057.795.17 1.124.116.33.287.59.513.781.228.189.51.283.846.283Zm8.114 1.552c-.73 0-1.363-.155-1.896-.466a3.183 3.183 0 0 1-1.227-1.307c-.289-.562-.433-1.213-.433-1.953 0-.746.144-1.398.433-1.957a3.147 3.147 0 0 1 1.227-1.307c.533-.314 1.165-.471 1.896-.471.73 0 1.361.157 1.891.471.533.31.944.746 1.233 1.307.288.559.433 1.211.433 1.957 0 .74-.145 1.391-.433 1.953-.289.558-.7.994-1.233 1.307-.53.311-1.16.466-1.89.466Zm.01-1.552c.332 0 .61-.094.832-.283.223-.191.39-.451.504-.781a3.37 3.37 0 0 0 .174-1.124c0-.42-.058-.795-.174-1.124a1.75 1.75 0 0 0-.504-.781c-.222-.191-.5-.287-.832-.287-.336 0-.618.096-.847.287a1.765 1.765 0 0 0-.513.781c-.113.329-.17.704-.17 1.124 0 .42.057.795.17 1.124.116.33.287.59.513.781.229.189.511.283.847.283Zm7.512 1.529a2.73 2.73 0 0 1-1.491-.424c-.442-.285-.793-.704-1.054-1.256-.257-.555-.386-1.236-.386-2.042 0-.827.134-1.516.4-2.065.267-.552.621-.964 1.064-1.237a2.724 2.724 0 0 1 1.463-.414c.404 0 .741.069 1.011.207.273.135.492.304.659.508.169.201.297.398.385.593h.062v-3.622h1.999v9.634h-1.976v-1.157h-.085c-.094.2-.227.4-.4.597-.169.195-.39.356-.663.485-.27.128-.599.193-.988.193Zm.635-1.595c.323 0 .596-.088.819-.264.226-.178.398-.428.517-.748.123-.32.184-.694.184-1.124 0-.43-.06-.803-.179-1.12-.12-.316-.292-.561-.517-.733a1.313 1.313 0 0 0-.824-.259c-.329 0-.606.089-.832.268a1.64 1.64 0 0 0-.513.743 3.196 3.196 0 0 0-.174 1.101c0 .42.058.792.174 1.115.12.32.29.571.513.753.225.178.503.268.832.268ZM24.71 139.46h28.45a1.501 1.501 0 0 0 0-3H24.71a1.5 1.5 0 0 0 0 3Z" fill="#fff"/><path d="M52.57 139.46h30.86a1.501 1.501 0 0 0 0-3H52.57a1.501 1.501 0 0 0 0 3ZM73.28 142.34H36.93a1.76 1.76 0 0 0-1.76 1.76v.24c0 .972.788 1.76 1.76 1.76h36.35a1.76 1.76 0 0 0 1.76-1.76v-.24a1.76 1.76 0 0 0-1.76-1.76Z" fill="#fff"/><path d="M10.37 89.85c10 4.55 21.12 1.53 31.15-3 10.03-4.53 18.9-11.31 28.73-16.28 9.83-4.97 19-8.74 29.54-5.43v-15.3H10.7l-.33 40.01ZM99.79 120.64c-10-4.55-21.12-1.53-31.14 3s-18.91 11.35-28.73 16.32c-9.82 4.97-19 8.74-29.54 5.43v15.3h89.1l.31-40.05Z" fill="#fff" opacity=".3"/><path d="M33.82 56.02H10.37v8.4h23.45v-8.4Z" fill="#fff"/><path d="M100.2 2.9H2.46v36.57h97.74V2.9Z" fill="#263238"/><path opacity=".8" d="M100.2 2.9H2.46v36.57h97.74V2.9Z" fill="#fff"/><path d="M102.66 35.01H0v4.57h102.66v-4.57Z" fill="#263238"/><path opacity=".7" d="M102.66 35.01H0v4.57h102.66v-4.57Z" fill="#fff"/><path d="M102.66 0H0v4.95h102.66V0Z" fill="#263238"/><path opacity=".7" d="M102.66 0H0v4.95h102.66V0Z" fill="#fff"/><path d="M100.2 5.88H2.46v27.79h97.74V5.88Z" fill="#FFC100"/><path opacity=".3" d="M100.2 10.7H2.46v17.28h97.74V10.7Z" fill="#fff"/><path opacity=".3" d="M100.2 4.95H2.46v2.77h97.74V4.95ZM100.2 32.64H2.46v2.56h97.74v-2.56Z" fill="#000"/><path d="M50.2 29.67c13.04 0 23.61-4.244 23.61-9.48 0-5.236-10.57-9.48-23.61-9.48s-23.61 4.244-23.61 9.48c0 5.236 10.57 9.48 23.61 9.48Z" fill="#fff"/><path d="M46.36 18.53s-4.18-5.29-10.39-3.78c0 0-.13 1.3 2.09 4.18 2.22 2.88 2.35 3.26 2.29 4.5-.06 1.24-.72 3.46.13 3.86.85.4 4.7-1.31 6.27-3.66l3.52 1.7s-2 1.76-1.43 2.41c.57.65 5-.13 6.72-1 1.958.083 3.9-.37 5.62-1.31 2.87-1.57 4.9-3.59 4.64-5-.26-1.41-3.53-4.18-6.92-4.57a8.859 8.859 0 0 0-8.3-2.81c-5.16 1-3.13 1.89-2.81 2.15.32.26 1.77 1.24 1.77 1.24s-2.64 1.57-3.2 2.09Z" fill="#FFC100"/><path d="M63.28 20.17a1.46 1.46 0 1 1-2.919 0 1.46 1.46 0 0 1 2.919 0Z" fill="#fff"/><path d="M65.98 17.58a.92.92 0 1 0 0-1.84.92.92 0 0 0 0 1.84Z" fill="#FFC100"/><path d="M100.2 15.93H86.25v2.02h13.95v-2.02ZM100.2 20.73H86.25v2.02h13.95v-2.02ZM16.6 15.93H2.65v2.02H16.6v-2.02ZM16.6 20.73H2.65v2.02H16.6v-2.02Z" fill="#fff"/></svg>