<svg width="194" height="148" fill="none" xmlns="http://www.w3.org/2000/svg"><path d="m186.201 81.964-10.5-42.391h-52.679a155.163 155.163 0 0 0-52.7 0H17.627L7.142 81.963c-3.988 15.776 4.525 32.4 25.547 44.548 35.355 20.4 92.631 20.407 127.986 0 21.008-12.162 29.521-28.772 25.526-44.547Z" fill="#FFC100"/><path opacity=".2" d="m186.201 81.964-10.5-42.391h-52.679a155.163 155.163 0 0 0-52.7 0H17.627L7.142 81.963c-3.988 15.776 4.525 32.4 25.547 44.548 35.355 20.4 92.631 20.407 127.986 0 21.008-12.162 29.521-28.772 25.526-44.547Z" fill="#fff"/><path d="M40.213 78.69c31.183 17.981 81.748 17.981 112.917 0 31.169-17.982 31.183-47.185 0-65.188s-81.734-18.003-112.917 0c-31.183 18.003-31.176 47.185 0 65.188Z" fill="#FFC100"/><path opacity=".5" d="M40.213 78.69c31.183 17.981 81.748 17.981 112.917 0 31.169-17.982 31.183-47.185 0-65.188s-81.734-18.003-112.917 0c-31.183 18.003-31.176 47.185 0 65.188Z" fill="#fff"/><path d="M48.076 72.333c26.87 14.496 70.357 14.496 97.198 0 26.842-14.496 26.835-37.986 0-52.474-26.834-14.489-70.356-14.489-97.198 0-26.842 14.488-26.842 37.985 0 52.474Z" fill="#FFC100"/><path opacity=".2" d="M160.286 60.164a81.616 81.616 0 0 0-3.232-1.853c-33.347-18.003-87.412-18.003-120.758 0a86.172 86.172 0 0 0-3.239 1.853c3.359 4.426 8.358 8.577 15.019 12.169 26.87 14.496 70.357 14.496 97.198 0 6.654-3.592 11.66-7.743 15.012-12.17Z" fill="#000"/><path d="M185.551 66.365a54.414 54.414 0 0 0-4.611-5.657l5.261 21.277c3.995 15.775-4.518 32.392-25.54 44.547-35.355 20.4-92.63 20.4-127.986 0-17.677-10.196-26.502-23.567-26.502-36.939.006-2.56.327-5.111.955-7.594l5.268-21.29A52.98 52.98 0 0 0 7.777 66.4C2.638 73.72 0 81.518 0 89.593c0 8.075 2.602 15.882 7.778 23.193 5.176 7.312 12.417 13.633 21.835 19.092C47.623 142.28 71.432 148 96.661 148s49.037-5.72 67.047-16.122c9.412-5.438 16.759-11.844 21.829-19.092 5.069-7.247 7.778-15.118 7.778-23.2 0-8.082-2.624-15.902-7.764-23.22Z" fill="#FFC100"/><path opacity=".6" d="M17.31 66.457 13.067 83.47a24.992 24.992 0 0 0-.77 6.088c0 8.4 4.313 16.567 12.367 23.737l6.364-33.177A55.495 55.495 0 0 1 17.31 66.457ZM37.109 84.02l-.425-.254-6.243 34.04a72.38 72.38 0 0 0 5.296 3.358 90.093 90.093 0 0 0 5.508 2.914l6.364-34.867a91.643 91.643 0 0 1-10.5-5.19Z" fill="#FFC100"/><path opacity=".2" d="M96.675 98.354a137.974 137.974 0 0 1-32.145-3.698L60.443 131.1a141.505 141.505 0 0 0 36.21 4.54c21.101 0 40.956-4.285 56.569-12.141l-4.448-35.66c-14.849 6.817-33.021 10.515-52.099 10.515Zm83.551-14.912-4.2-16.97a56.653 56.653 0 0 1-15.323 14.756l6.159 33.588c11.328-9.278 16.15-20.344 13.364-31.374Z" fill="#fff"/><path d="M93.89 114.879c-.998.835-1.564 2.079-2.44 3.048-1.323 1.45-3.281 2.199-4.582 3.67a6.441 6.441 0 0 0-.708 7.149 7.39 7.39 0 0 0 6.28 3.712c1.774.035 3.535-.318 5.317-.283 1.62.036 3.147.538 4.801.283a6.362 6.362 0 0 0 3.96-2.121 4.596 4.596 0 0 0 1.053-2.539c.177-1.563.184-3.861-.707-5.218-.891-1.358-2.213-1.902-3.337-2.829-1.124-.926-1.945-2.375-2.913-3.578-1.697-2.1-4.47-3.182-6.725-1.294ZM87.631 117.545c.294-.353.557-.732.785-1.131a3.112 3.112 0 0 0 0-3.38 9.566 9.566 0 0 0-2.072-2.517 7.664 7.664 0 0 0-2.008-1.414 1.85 1.85 0 0 0-1.563 0 2.59 2.59 0 0 0-1.103 1.951 11.161 11.161 0 0 0-.042 3.536 6.084 6.084 0 0 0 1.004 2.715 3.23 3.23 0 0 0 2.46 1.379 3.436 3.436 0 0 0 2.377-.983c.056-.049.11-.101.162-.156ZM87.978 105.433c-.036-1.888.516-3.72 2.284-4.575 2.064-1.004 3.931 1.181 4.589 2.913.657 1.732 1.032 4.108.367 5.982-.87 2.44-3.373 2.737-5.169 1.068-1.428-1.323-2.029-3.493-2.071-5.388ZM105.98 117.785a8.041 8.041 0 0 1-.848-1.088 3.084 3.084 0 0 1-.184-3.373 9.58 9.58 0 0 1 1.909-2.638 8.003 8.003 0 0 1 1.924-1.52 1.86 1.86 0 0 1 1.562-.099 2.598 2.598 0 0 1 1.216 1.881c.273 1.157.359 2.351.255 3.535a6.027 6.027 0 0 1-.841 2.765 3.212 3.212 0 0 1-2.376 1.527 3.48 3.48 0 0 1-2.433-.841l-.184-.149ZM105.429 105.298c-.099-1.881-.771-3.67-2.595-4.405-2.121-.863-3.84 1.414-4.377 3.224-.538 1.81-.75 4.165.042 5.989 1.033 2.369 3.536 2.496 5.233.707 1.329-1.414 1.796-3.613 1.697-5.515Z" fill="#fff"/><path d="M48.076 72.333c26.87 14.495 70.357 14.495 97.198 0 15.74-8.485 22.231-20.096 19.509-31.155a9.058 9.058 0 0 0-6.463 1.004 9.254 9.254 0 0 0-1.725 1.301 9.132 9.132 0 0 0-2.461-2.673 9.084 9.084 0 0 0-9.258-10.12 9.09 9.09 0 0 0-4.58 1.373 9.077 9.077 0 0 0-5.055-6.806 9.076 9.076 0 0 0-8.472.343 9.021 9.021 0 0 0-3.535 3.72 8.973 8.973 0 0 0-4.285-1.068 9.084 9.084 0 0 0-7.634-9.053 9.087 9.087 0 0 0-10.1 6.182 9.088 9.088 0 0 0-12.021-2.772 9.1 9.1 0 0 0-17.14 4.243c0 .328.02.657.056.983a8.916 8.916 0 0 0-4.95 1.91 9.093 9.093 0 0 0-15.718-.708 9.093 9.093 0 0 0-12.587 10.508l-.198.099a9.029 9.029 0 0 0-3.394 3.471 9.065 9.065 0 0 0-7.07 0c-1.57 10.423 5.048 21.213 19.883 29.218Z" fill="#C8856A"/><path opacity=".5" d="M157.005 52.831c2.121.488 3.048 3.345 2.051 5.282-.997 1.938-3.317 2.892-5.495 2.9-2.177.006-4.242-.786-6.307-1.563 0 2.297-2.298 4.051-4.575 4.32-2.277.269-4.518-.573-6.661-1.414 3.302 1.944 2.008 7.537-1.35 9.369-3.359 1.831-7.481 1.117-11.236.34.339.07-1.202 2.24-1.358 2.39a7.966 7.966 0 0 1-2.885 1.618 9.324 9.324 0 0 1-7.559-.46c-2.467-1.413-4.066-4.383-3.429-7.14-2.539.855-5.219 1.604-7.863 1.173-2.645-.431-5.226-2.34-5.593-4.992-.071-.516-.135-1.153-.608-1.365a1.414 1.414 0 0 0-.524-.07l-4.815-.036c.035 1.47-1.782 3.323-2.786 4.243a12.069 12.069 0 0 1-4.695 2.764 3.535 3.535 0 0 1-.813 3.324 6.365 6.365 0 0 1-3.04 1.775 10.705 10.705 0 0 1-13.627-8.86c-5.657.905-10.981-1.415-14.849-5.48a3.231 3.231 0 0 1-.969-2.044A8.959 8.959 0 0 1 37.957 58a5.148 5.148 0 0 1-1.909-3.16 7.835 7.835 0 0 1 1.11-4.505c.94-1.23 3.804-3.472 5.657-2.949-2.878-.799-5.133-3.132-6.59-5.748a8.9 8.9 0 0 0-1.025 1.456 9.066 9.066 0 0 0-7.071 0c-1.563 10.465 5.055 21.213 19.89 29.232 26.87 14.495 70.357 14.495 97.199 0 14.262-7.7 20.937-17.946 20.032-28.037-.156 4.3-3.861 8.393-8.245 8.542Z" fill="#AF6152"/><path d="M63.137 44.459c8.167 1.47 11.9-3.175 9.737-6.003.453 3.408-4.787 6.017-11.908 3.613-7.12-2.404-8.153-8.74-3.181-9.808-5.855-.509-6.492 8.903 3.181 11.689.276.085.559.155.828.226-1.075 1.718-3.472 3.218-7 3.536-7.482.707-12.021-2.998-10.784-6.216-2.984 2.454.311 8.57 10.36 8.054 4.949-.255 7.82-2.63 8.767-5.091ZM47.786 54.952c1.824 2.92-1.867 7.46-9.348 8.224-.94.1-1.888.1-2.828 0a37.438 37.438 0 0 0 1.93 1.874 14.381 14.381 0 0 0 1.69-.198c9.942-1.457 11.964-8.104 8.556-9.9Zm-17.161 1.415c.253-.304.542-.575.862-.806a4.95 4.95 0 0 0-1.025.502l.163.304Zm32.01 16.263c2.298 1.704 2.171 4.144.283 5.812l1.45.439c1.633-2.355 1.16-5.254-1.733-6.251Zm30.837-34.344c10.055-.198 12.897-6.534 9.751-8.768 1.414 3.125-2.793 7.163-10.31 6.972-7.516-.191-10.373-5.94-5.94-8.429-5.741 1.216-3.563 10.395 6.499 10.197v.028Zm54.291.19c3.225 3.925-1.513 8.253-8.591 5.707-7.078-2.545-9.56-7.842-7.071-10.232-3.748.94-3.387 7.877 5.918 11.71l.502.191c1.825 2.998-1.654 6.937-8.117 6.364-6.463-.573-10.048-3.91-9.9-6.71 6.923-3.076 6.421-10.565 1.188-10.508 4.879 1.414 3.373 7.68-3.91 9.539-7.283 1.86-12.311-1.132-11.603-4.497-2.574 2.877 1.612 8.421 11.462 6.364a14.95 14.95 0 0 0 1.888-.524c-.707 2.701 2.269 7 10.097 8.047 8.139 1.082 11.759-4.624 9.793-7.778 8.415 2.503 12.983-4.632 8.344-7.7v.028Zm8.917 23.9c-7.481-.756-11.165-5.295-9.341-8.216-3.408 1.818-1.414 8.486 8.563 9.935.276.043.544.07.813.092a35.143 35.143 0 0 0 1.69-1.74 13.236 13.236 0 0 1-1.725-.098v.028Zm-29.168 9.794c-3.536-.346-5.933-1.845-7.008-3.535.276-.07.552-.142.835-.227 9.666-2.778 9.029-12.197 3.182-11.688 4.949 1.068 3.938 7.404-3.182 9.808-7.121 2.404-12.36-.198-11.908-3.614-2.164 2.829 1.57 7.474 9.737 6.004.948 2.46 3.811 4.857 8.768 5.112 10.048.523 13.336-5.6 10.352-8.054 1.216 3.16-3.295 6.894-10.776 6.166v.028Zm-38.346-9.008c.617.215 1.248.39 1.888.523 9.85 2.05 14.029-3.493 11.462-6.364.707 3.373-4.32 6.364-11.604 4.504-7.283-1.86-8.79-8.103-3.91-9.538-5.24-.064-5.742 7.424 1.188 10.5.17 2.828-3.486 6.152-9.9 6.71-6.413.56-9.941-3.372-8.117-6.364l.502-.19c9.305-3.826 9.659-10.762 5.911-11.71 2.475 2.39 0 7.693-7.07 10.239-7.072 2.545-11.824-1.782-8.592-5.706-4.646 3.068-.078 10.196 8.33 7.679-1.966 3.16 1.661 8.874 9.8 7.778 7.835-1.082 10.819-5.381 10.112-8.09v.029Zm15.45 11.717c1.824 2.92-1.867 7.466-9.348 8.223-7.481.757-11.038-4.582-6.95-7.608-3.402 1.202-3.459 4.999-.708 7.41 4.662.331 9.338.404 14.008.22 5.02-2.582 5.628-6.867 2.998-8.274v.029Z" fill="#AF6152"/></svg>