<svg width="194" height="148" viewBox="0 0 194 148" fill="none" xmlns="http://www.w3.org/2000/svg">
<path d="M186.201 81.9637L175.701 39.5729H123.022C105.583 36.5678 87.7596 36.5678 70.3213 39.5729H17.6281L7.14175 81.9637C3.15369 97.7392 11.6672 114.363 32.6893 126.511C68.0445 146.911 125.32 146.918 160.675 126.511C181.683 114.349 190.196 97.7392 186.201 81.9637Z" fill="#FFC100"/>
<path opacity="0.2" d="M186.201 81.9637L175.701 39.5729H123.022C105.583 36.5678 87.7596 36.5678 70.3213 39.5729H17.6281L7.14175 81.9637C3.15369 97.7392 11.6672 114.363 32.6893 126.511C68.0445 146.911 125.32 146.918 160.675 126.511C181.683 114.349 190.196 97.7392 186.201 81.9637Z" fill="white"/>
<path d="M40.2129 78.6899C71.3961 96.6715 121.961 96.6715 153.13 78.6899C184.299 60.7083 184.313 31.5049 153.13 13.5021C121.947 -4.5007 71.3961 -4.5007 40.2129 13.5021C9.02967 31.5049 9.03674 60.687 40.2129 78.6899Z" fill="#FFC100"/>
<path opacity="0.5" d="M40.2129 78.6899C71.3961 96.6715 121.961 96.6715 153.13 78.6899C184.299 60.7083 184.313 31.5049 153.13 13.5021C121.947 -4.5007 71.3961 -4.5007 40.2129 13.5021C9.02967 31.5049 9.03674 60.687 40.2129 78.6899Z" fill="white"/>
<path d="M48.0759 72.333C74.9458 86.8286 118.433 86.8286 145.274 72.333C172.116 57.8374 172.109 34.3475 145.274 19.8589C118.44 5.37042 74.9175 5.37042 48.0759 19.8589C21.2343 34.3475 21.2343 57.8445 48.0759 72.333Z" fill="#FFC100"/>
<path opacity="0.2" d="M160.286 60.1638C159.249 59.5368 158.172 58.9193 157.054 58.3112C123.707 40.3084 69.6425 40.3084 36.2955 58.3112C35.1783 58.9193 34.0988 59.5368 33.057 60.1638C36.4157 64.5903 41.4149 68.7409 48.0758 72.333C74.9457 86.8286 118.433 86.8286 145.274 72.333C151.928 68.7409 156.934 64.5903 160.286 60.1638Z" fill="black"/>
<path d="M185.551 66.3651C184.142 64.3783 182.602 62.4885 180.94 60.7083L186.201 81.985C190.196 97.7604 181.683 114.377 160.661 126.532C125.306 146.932 68.0303 146.932 32.6752 126.532C14.9976 116.336 6.173 102.965 6.173 89.5934C6.17936 87.0324 6.49995 84.4819 7.12759 81.9991L12.3955 60.7083C10.7268 62.4968 9.18403 64.3987 7.77812 66.4004C2.63749 73.7189 0 81.5182 0 89.5934C0 97.6685 2.60214 105.475 7.77812 112.786C12.9541 120.098 20.1948 126.419 29.6134 131.878C47.6233 142.28 71.4315 148 96.6609 148C121.89 148 145.698 142.28 163.708 131.878C173.12 126.44 180.467 120.034 185.537 112.786C190.606 105.539 193.315 97.6685 193.315 89.5863C193.315 81.5041 190.691 73.6836 185.551 66.3651Z" fill="#FFC100"/>
<path opacity="0.6" d="M17.3099 66.4569L13.0672 83.4698C12.5612 85.4598 12.3023 87.5046 12.2965 89.5579C12.2965 97.9583 16.6098 106.125 24.6637 113.295L31.0276 80.1181C25.6899 76.4033 21.0467 71.7792 17.3099 66.4569ZM37.1087 84.0213L36.6845 83.7668L30.4408 117.807C32.1001 118.966 33.8655 120.086 35.7369 121.165C37.5118 122.184 39.3502 123.159 41.2453 124.079L47.6092 89.2115C44.0019 87.7071 40.4946 85.9735 37.1087 84.0213Z" fill="#FFC100"/>
<path opacity="0.2" d="M96.675 98.3543C85.8521 98.3866 75.063 97.1453 64.5302 94.6561L60.4431 131.1C72.2669 134.17 84.4383 135.696 96.6538 135.64C117.754 135.64 137.609 131.355 153.222 123.499L148.774 87.8397C133.925 94.6562 115.753 98.3543 96.675 98.3543ZM180.226 83.4415L176.026 66.4711C171.896 72.3135 166.697 77.3208 160.703 81.2283L166.862 114.816C178.19 105.538 183.012 94.4723 180.226 83.4415Z" fill="white"/>
<path d="M93.8891 114.879C92.8921 115.714 92.3264 116.958 91.4496 117.927C90.1273 119.377 88.1686 120.126 86.8675 121.597C86.0531 122.584 85.5509 123.79 85.425 125.064C85.299 126.337 85.5551 127.619 86.1604 128.746C86.7959 129.855 87.7087 130.781 88.8094 131.432C89.9101 132.082 91.161 132.436 92.4395 132.458C94.2143 132.493 95.975 132.14 97.7569 132.175C99.3762 132.211 100.904 132.713 102.558 132.458C104.092 132.256 105.5 131.502 106.518 130.337C107.12 129.618 107.487 128.732 107.571 127.798C107.748 126.235 107.755 123.937 106.864 122.58C105.973 121.222 104.651 120.678 103.527 119.751C102.403 118.825 101.582 117.376 100.614 116.173C98.9166 114.073 96.1447 112.991 93.8891 114.879Z" fill="white"/>
<path d="M87.6311 117.545C87.9253 117.192 88.188 116.813 88.416 116.414C88.7417 115.91 88.915 115.324 88.915 114.724C88.915 114.124 88.7417 113.537 88.416 113.034C87.8745 112.083 87.1738 111.231 86.3442 110.517C85.7551 109.941 85.077 109.463 84.336 109.103C84.0912 108.989 83.8245 108.93 83.5547 108.93C83.2848 108.93 83.0182 108.989 82.7733 109.103C82.4553 109.325 82.1911 109.615 82.0002 109.953C81.8093 110.291 81.6966 110.667 81.6703 111.054C81.4683 112.223 81.454 113.416 81.6278 114.59C81.7391 115.562 82.0835 116.494 82.6319 117.305C82.9108 117.706 83.2772 118.039 83.7035 118.278C84.1298 118.517 84.6048 118.655 85.0926 118.684C85.9819 118.676 86.8336 118.324 87.4685 117.701C87.5254 117.652 87.5797 117.6 87.6311 117.545Z" fill="white"/>
<path d="M87.9777 105.433C87.9423 103.545 88.4938 101.713 90.2616 100.858C92.3263 99.8536 94.1931 102.039 94.8507 103.771C95.5083 105.503 95.883 107.879 95.2184 109.753C94.3486 112.193 91.8455 112.49 90.0495 110.821C88.6211 109.498 88.0201 107.328 87.9777 105.433Z" fill="white"/>
<path d="M105.98 117.785C105.667 117.448 105.383 117.083 105.132 116.697C104.776 116.213 104.57 115.637 104.537 115.038C104.504 114.438 104.647 113.843 104.948 113.324C105.429 112.342 106.075 111.45 106.857 110.686C107.416 110.084 108.065 109.571 108.781 109.166C109.018 109.037 109.281 108.962 109.551 108.945C109.821 108.928 110.091 108.969 110.343 109.067C110.673 109.27 110.953 109.545 111.163 109.87C111.374 110.196 111.509 110.564 111.559 110.948C111.832 112.105 111.918 113.299 111.814 114.483C111.762 115.46 111.473 116.409 110.973 117.248C110.719 117.667 110.373 118.022 109.961 118.286C109.549 118.551 109.083 118.718 108.597 118.775C107.708 118.816 106.838 118.515 106.164 117.934L105.98 117.785Z" fill="white"/>
<path d="M105.429 105.298C105.33 103.417 104.658 101.628 102.834 100.893C100.713 100.03 98.9942 102.307 98.4568 104.117C97.9194 105.927 97.7073 108.282 98.4993 110.106C99.5316 112.475 102.035 112.602 103.732 110.813C105.061 109.399 105.528 107.2 105.429 105.298Z" fill="white"/>
<path d="M48.0759 72.3328C74.9458 86.8284 118.433 86.8284 145.274 72.3328C161.014 63.8476 167.505 52.237 164.783 41.1779C162.579 40.696 160.274 41.0541 158.32 42.182C157.696 42.547 157.117 42.9836 156.595 43.483C155.962 42.4362 155.125 41.5273 154.134 40.8102C154.171 40.4697 154.19 40.1274 154.191 39.7849C154.193 38.1627 153.761 36.5695 152.939 35.1708C152.117 33.7721 150.936 32.6189 149.518 31.8309C148.1 31.0429 146.497 30.6489 144.876 30.6897C143.254 30.7306 141.673 31.2049 140.296 32.0634C140.071 30.603 139.493 29.2196 138.612 28.0334C137.731 26.8473 136.574 25.8943 135.241 25.2573C133.907 24.6203 132.439 24.3186 130.962 24.3784C129.486 24.4382 128.047 24.8577 126.769 25.6004C125.256 26.4719 124.027 27.7639 123.234 29.3198C121.917 28.6125 120.444 28.2455 118.949 28.2521C118.969 26.0796 118.21 23.9719 116.809 22.311C115.409 20.6501 113.46 19.546 111.315 19.1989C109.17 18.8517 106.972 19.2844 105.119 20.4186C103.266 21.5528 101.881 23.3134 101.215 25.3812C99.9274 23.4915 97.9749 22.1565 95.7468 21.6427C93.5187 21.129 91.1788 21.4741 89.1939 22.6094C88.243 20.8164 86.7201 19.3927 84.8672 18.5646C83.0142 17.7366 80.9377 17.5517 78.9676 18.0393C76.9975 18.527 75.2469 19.6592 73.9942 21.256C72.7415 22.8528 72.0585 24.8225 72.0538 26.852C72.0546 27.1804 72.0735 27.5085 72.1103 27.8349C70.305 27.9543 68.5786 28.6202 67.1606 29.7441C66.4243 28.3308 65.3294 27.1358 63.9858 26.2789C62.6422 25.422 61.0969 24.9333 59.5049 24.8617C57.9129 24.7901 56.33 25.1381 54.9149 25.8709C53.4997 26.6037 52.302 27.6955 51.4418 29.037C49.8824 28.3262 48.1539 28.0705 46.4556 28.2994C44.7572 28.5283 43.1581 29.2325 41.8426 30.3307C40.527 31.429 39.5486 32.8766 39.0201 34.5068C38.4916 36.1369 38.4345 37.8833 38.8553 39.5445L38.6573 39.6435C37.2302 40.4692 36.0564 41.6699 35.2633 43.1154C34.1448 42.6416 32.9424 42.3975 31.7277 42.3975C30.513 42.3975 29.3107 42.6416 28.1922 43.1154C26.6225 53.538 33.2409 64.3284 48.0759 72.3328Z" fill="#C8856A"/>
<path opacity="0.5" d="M157.005 52.831C159.126 53.3189 160.053 56.1756 159.056 58.113C158.059 60.0505 155.739 61.0051 153.561 61.0122C151.384 61.0192 149.319 60.2273 147.254 59.4495C147.254 61.7475 144.956 63.5012 142.679 63.7699C140.402 64.0386 138.161 63.1971 136.018 62.3557C139.32 64.3002 138.026 69.8934 134.668 71.7248C131.309 73.5562 127.187 72.842 123.432 72.0642C123.771 72.1349 122.23 74.3057 122.074 74.4542C121.236 75.1898 120.254 75.7414 119.189 76.0734C117.967 76.5297 116.663 76.7245 115.361 76.6453C114.059 76.5662 112.788 76.2148 111.63 75.6138C109.163 74.1996 107.564 71.2298 108.201 68.4721C105.662 69.3277 102.982 70.0772 100.338 69.6459C97.6933 69.2145 95.1124 67.3054 94.7447 64.6537C94.674 64.1376 94.6104 63.5012 94.1366 63.289C93.9682 63.2328 93.7907 63.2088 93.6133 63.2183L88.798 63.183C88.8333 64.6537 87.0161 66.5064 86.012 67.4256C84.6781 68.693 83.0722 69.6387 81.3168 70.1903C81.4736 70.7678 81.4813 71.3757 81.339 71.957C81.1968 72.5382 80.9094 73.0739 80.5037 73.5137C79.6772 74.3795 78.6234 74.9946 77.4631 75.2886C75.9817 75.7232 74.4238 75.8323 72.8963 75.6083C71.3687 75.3844 69.9077 74.8327 68.6133 73.9911C67.319 73.1494 66.2221 72.0379 65.3977 70.7325C64.5733 69.4272 64.041 67.959 63.8373 66.4286C58.1805 67.3337 52.856 65.0144 48.9881 60.9485C48.4296 60.4063 48.0856 59.6806 48.0194 58.905C46.4458 59.7838 44.6437 60.1675 42.8486 60.006C41.0535 59.8446 39.3489 59.1454 37.9573 57.9999C36.952 57.2187 36.2718 56.0926 36.0482 54.8392C35.955 53.2601 36.3421 51.6898 37.1583 50.3349C38.0988 49.1046 40.9625 46.863 42.8151 47.3863C39.9372 46.5873 37.6816 44.2539 36.2249 41.6376C35.8353 42.0876 35.4918 42.5756 35.1996 43.0942C34.0811 42.6205 32.8788 42.3763 31.6641 42.3763C30.4494 42.3763 29.2471 42.6205 28.1286 43.0942C26.5659 53.5593 33.1844 64.3073 48.0194 72.3258C74.8893 86.8214 118.376 86.8214 145.218 72.3258C159.48 64.6255 166.155 54.3796 165.25 44.2892C165.094 48.5884 161.389 52.6825 157.005 52.831Z" fill="#AF6152"/>
<path d="M63.1372 44.459C71.3042 45.9298 75.0378 41.2841 72.874 38.4557C73.3266 41.8639 68.0869 44.4731 60.9664 42.069C53.8459 39.6648 52.8135 33.3292 57.7845 32.2615C51.9297 31.7524 51.2933 41.1639 60.9664 43.9499C61.2422 44.0347 61.525 44.1054 61.7937 44.1761C60.7189 45.8944 58.3219 47.3935 54.7934 47.7117C47.3123 48.4188 42.7727 44.7135 44.0101 41.4962C41.0261 43.9499 44.3212 50.0663 54.3692 49.5501C59.3189 49.2955 62.1897 46.9197 63.1372 44.459ZM47.786 54.9524C49.6104 57.8727 45.9193 62.4123 38.4381 63.176C37.498 63.2755 36.5499 63.2755 35.6097 63.176C36.2178 63.8124 36.8613 64.4346 37.5401 65.0498C38.1069 65.0172 38.6712 64.9511 39.2301 64.8518C49.172 63.3952 51.1943 56.7484 47.786 54.9524ZM30.6247 56.3666C30.8776 56.0631 31.1674 55.7923 31.4873 55.5605C31.1273 55.6877 30.7833 55.8562 30.462 56.0625L30.6247 56.3666ZM62.6352 72.6299C64.9333 74.334 64.806 76.7735 62.918 78.4423L64.3676 78.8807C66.001 76.5261 65.5272 73.6269 62.6352 72.6299ZM93.4719 38.286C103.527 38.088 106.369 31.7524 103.223 29.5179C104.637 32.6433 100.43 36.6809 92.9133 36.4899C85.3968 36.299 82.5401 30.5503 86.9736 28.0613C81.232 29.2775 83.4098 38.4557 93.4719 38.2577V38.286ZM147.763 38.4769C150.988 42.4013 146.25 46.7288 139.172 44.1832C132.094 41.6376 129.612 36.3414 132.101 33.9514C128.353 34.8919 128.714 41.8285 138.019 45.661L138.521 45.852C140.346 48.8501 136.867 52.7886 130.404 52.2159C123.941 51.6431 120.356 48.3056 120.504 45.5055C127.427 42.4296 126.925 34.9414 121.692 34.9979C126.571 36.4122 125.065 42.6771 117.782 44.5368C110.499 46.3964 105.471 43.4054 106.179 40.0396C103.605 42.9175 107.791 48.4612 117.641 46.4035C118.281 46.2707 118.911 46.0959 119.529 45.8803C118.822 48.5814 121.798 52.8806 129.626 53.9271C137.765 55.0089 141.385 49.3026 139.419 46.1489C147.834 48.6521 152.402 41.5174 147.763 38.4486V38.4769ZM156.68 62.3769C149.199 61.6203 145.515 57.0808 147.339 54.1604C143.931 55.9777 145.925 62.6456 155.902 64.0952C156.178 64.1376 156.446 64.1659 156.715 64.1871C157.309 63.6144 157.875 63.0346 158.405 62.4477C157.828 62.4523 157.252 62.4192 156.68 62.3487V62.3769ZM127.512 72.1703C123.976 71.8238 121.579 70.3248 120.504 68.6348C120.78 68.5641 121.056 68.4934 121.339 68.4085C131.005 65.6296 130.368 56.211 124.521 56.7201C129.47 57.7879 128.459 64.1235 121.339 66.5276C114.218 68.9318 108.979 66.3297 109.431 62.9143C107.267 65.7428 111.001 70.3884 119.168 68.9176C120.116 71.3784 122.979 73.7754 127.936 74.03C137.984 74.5532 141.272 68.4297 138.288 65.9761C139.504 69.1368 134.993 72.8703 127.512 72.142V72.1703ZM89.1656 63.1618C89.7828 63.3774 90.4135 63.5523 91.0536 63.6851C100.904 65.7357 105.083 60.192 102.516 57.3212C103.223 60.694 98.1953 63.6851 90.9122 61.8254C83.629 59.9657 82.1229 53.722 87.0019 52.2866C81.7623 52.223 81.2603 59.7112 88.1899 62.7871C88.3596 65.6155 84.7038 68.9389 78.2904 69.4975C71.877 70.0561 68.3486 66.1246 70.1729 63.1335L70.6749 62.9426C79.9804 59.1172 80.3339 52.1805 76.5863 51.233C79.0612 53.623 76.5863 58.9263 69.5153 61.4719C62.4443 64.0174 57.6925 59.69 60.924 55.7655C56.2783 58.8344 60.8462 65.962 69.2537 63.4447C67.2879 66.6054 70.9153 72.3188 79.0541 71.2228C86.8888 70.1409 89.8727 65.8418 89.1656 63.1335V63.1618ZM104.616 74.8785C106.44 77.7988 102.749 82.3455 95.2679 83.1021C87.7868 83.8587 84.2301 78.5201 88.3171 75.4937C84.916 76.6958 84.8594 80.4929 87.61 82.9041C92.2716 83.2353 96.948 83.3085 101.618 83.1233C106.638 80.5424 107.246 76.2574 104.616 74.8502V74.8785Z" fill="#AF6152"/>
</svg>
