<svg width="85" height="150" viewBox="0 0 85 150" fill="none" xmlns="http://www.w3.org/2000/svg">
<path d="M84.72 124.6H84.79V24.48H0.0100098V124.6H0.0700226C-0.289977 131.12 3.80001 137.7 12.42 142.68C28.98 152.24 55.82 152.24 72.37 142.68C80.99 137.7 85.08 131.12 84.72 124.6Z" fill="#EBEBEB"/>
<path d="M12.42 41.78C28.98 51.34 55.82 51.34 72.37 41.78C88.92 32.22 88.93 16.73 72.37 7.17C55.8101 -2.39 28.98 -2.39 12.42 7.17C-4.13997 16.73 -4.12996 32.23 12.42 41.78Z" fill="#FAFAFA"/>
<path d="M42.3599 0.459999C53.5999 0.459999 64.1599 2.99 72.0999 7.57C80.0399 12.15 84.3599 18.07 84.3599 24.48C84.3599 30.89 80.0299 36.85 72.1699 41.39C64.3099 45.93 53.67 48.49 42.43 48.49C31.19 48.49 20.62 45.97 12.68 41.39C4.73996 36.81 0.499948 30.84 0.499948 24.48C0.499948 18.12 4.81996 12.11 12.68 7.57C20.54 3.03 31.18 0.459999 42.43 0.459999M42.43 0C31.58 0 20.73 2.39 12.43 7.17C-4.12004 16.73 -4.12004 32.23 12.43 41.78C20.71 46.56 31.56 48.95 42.43 48.95C53.3 48.95 64.13 46.56 72.43 41.78C88.99 32.23 88.99 16.73 72.43 7.17C64.15 2.39 53.31 0 42.43 0Z" fill="#E0E0E0"/>
<path d="M14.2501 40.37C29.8001 49.15 55.0001 49.15 70.5401 40.37C86.0801 31.59 86.0901 17.37 70.5401 8.59C54.9901 -0.189995 29.8001 -0.189995 14.2501 8.59C-1.29994 17.37 -1.28994 31.59 14.2501 40.37Z" fill="#E0E0E0"/>
<path d="M70.54 12.7C55 3.91999 29.8 3.91999 14.25 12.7C7.41002 16.56 3.59002 21.49 2.77002 26.53C3.59002 31.53 7.41002 36.53 14.25 40.37C29.8 49.15 55 49.15 70.54 40.37C77.39 36.51 81.21 31.58 82.03 26.53C81.21 21.49 77.36 16.56 70.54 12.7Z" fill="#F5F5F5"/>
<path d="M30.7899 25.0701L24.96 21.7101C20.22 18.9801 18.96 15.2701 22.13 13.4401C25.3 11.6101 31.7099 12.3401 36.4499 15.0801L42.2799 18.4401C47.0099 21.1801 48.28 24.8801 45.1 26.7101C41.92 28.5401 35.5199 27.7901 30.7899 25.0701Z" fill="#E0E0E0"/>
<path d="M24.69 18.5199C25.6597 19.0127 26.7322 19.2695 27.82 19.2695C28.9077 19.2695 29.9802 19.0127 30.95 18.5199C32.68 17.5199 32.68 15.8999 30.95 14.8999C29.9802 14.4072 28.9077 14.1504 27.82 14.1504C26.7322 14.1504 25.6597 14.4072 24.69 14.8999C22.96 15.8999 22.96 17.5199 24.69 18.5199Z" fill="#F5F5F5"/>
<path d="M36.25 24.7599C37.2198 25.2527 38.2922 25.5095 39.38 25.5095C40.4678 25.5095 41.5402 25.2527 42.51 24.7599C44.24 23.7599 44.24 22.1499 42.51 21.1499C41.5402 20.6572 40.4678 20.4004 39.38 20.4004C38.2922 20.4004 37.2198 20.6572 36.25 21.1499C34.52 22.1499 34.52 23.7699 36.25 24.7599Z" fill="#F5F5F5"/>
<path d="M0.0100423 117.45C-0.0499577 123.76 4.09005 130.07 12.42 134.88C28.98 144.44 55.8201 144.44 72.3701 134.88C80.6501 130.1 84.79 123.88 84.79 117.58V31.0699C84.79 37.3399 80.6501 43.5999 72.3701 48.3799C55.8201 57.9399 28.98 57.9399 12.42 48.3799C4.09005 43.5699 -0.0499577 37.25 0.0100423 30.95V117.45Z" fill="#FFC100"/>
<path d="M0.0100423 102.55C-0.0499577 108.86 4.09005 115.17 12.42 119.99C28.98 129.54 55.8201 129.54 72.3701 119.99C80.6501 115.21 84.79 108.99 84.79 102.68V46.01C84.79 52.27 80.6501 58.54 72.3701 63.32C55.8201 72.88 28.98 72.88 12.42 63.32C4.09005 58.51 -0.0499577 52.19 0.0100423 45.88V102.55Z" fill="#455A64"/>
<path d="M20.04 99.32V72.07C14.11 70.85 10.84 69.2 4.90002 64.47C4.90002 73.55 4.90002 82.6333 4.90002 91.72C10.84 96.45 14.11 98.07 20.04 99.32Z" fill="white"/>
<path d="M6.80005 78.26V78.89C9.35654 80.8543 12.1865 82.4343 15.2 83.58V82.95C12.1865 81.8044 9.35654 80.2243 6.80005 78.26ZM18.19 95.9V95.59C13.68 94.31 11.3 93.12 6.80005 89.87V90.19C11.3 93.44 13.68 94.63 18.19 95.9ZM6.80005 88.59V89.23C9.35654 91.1943 12.1865 92.7744 15.2 93.92V93.28C12.1865 92.1344 9.35654 90.5543 6.80005 88.59ZM16.8 90.32C16.7321 90.395 16.6809 90.4836 16.65 90.58C16.6167 90.7005 16.5999 90.825 16.6001 90.95C16.5986 91.0784 16.6154 91.2063 16.65 91.33C16.6677 91.3953 16.6912 91.4588 16.72 91.52L15.9301 91.15V89.97C15.9315 89.944 15.9245 89.9183 15.9101 89.8966C15.8957 89.875 15.8746 89.8586 15.8501 89.85H15.79C15.79 89.85 15.72 89.85 15.72 89.91V91.25C15.7167 91.2763 15.7229 91.3029 15.7376 91.3249C15.7523 91.347 15.7745 91.363 15.8 91.37C16.26 91.6 16.49 91.7 16.94 91.9H17C17.0044 91.8802 17.0044 91.8598 17 91.84V91.76C17.009 91.7205 17.009 91.6795 17 91.64C16.9729 91.5919 16.9495 91.5417 16.9301 91.49C16.898 91.429 16.8713 91.3655 16.8501 91.3C16.8387 91.2137 16.8387 91.1263 16.8501 91.04C16.8341 90.9507 16.8341 90.8593 16.8501 90.77C16.8723 90.6964 16.9098 90.6282 16.9601 90.57C17.0084 90.5208 17.0717 90.4891 17.14 90.48C17.2183 90.4561 17.3018 90.4561 17.3801 90.48C17.4748 90.5049 17.5633 90.5492 17.64 90.61C17.7138 90.6737 17.7778 90.7478 17.83 90.83C17.88 90.9117 17.9203 90.999 17.95 91.09C17.9651 91.1894 17.9651 91.2906 17.95 91.39C17.9554 91.4632 17.9554 91.5368 17.95 91.61C17.9319 91.6734 17.9049 91.734 17.87 91.79C17.8398 91.8422 17.7945 91.884 17.7401 91.91C17.6777 91.9261 17.6124 91.9261 17.55 91.91C17.5275 91.9016 17.5026 91.9016 17.48 91.91C17.4745 91.9296 17.4745 91.9504 17.48 91.97V92.07C17.4747 92.0809 17.472 92.0929 17.472 92.105C17.472 92.1171 17.4747 92.1291 17.48 92.14C17.5588 92.1599 17.6413 92.1599 17.72 92.14C17.8023 92.1206 17.876 92.0749 17.9301 92.01C17.998 91.9405 18.0463 91.8542 18.0701 91.76C18.1145 91.6384 18.1348 91.5093 18.1301 91.38C18.1288 91.2452 18.1121 91.111 18.08 90.98C18.0423 90.8553 17.992 90.7347 17.9301 90.62C17.8571 90.5118 17.7696 90.4143 17.67 90.33C17.5635 90.2462 17.441 90.185 17.31 90.15C17.2019 90.1216 17.0882 90.1216 16.98 90.15C16.9023 90.1881 16.8365 90.2469 16.79 90.32H16.8ZM15.94 92.32C15.8615 92.3867 15.7969 92.4682 15.75 92.56C15.7021 92.6878 15.6784 92.8235 15.6801 92.96C15.6814 93.1159 15.705 93.2708 15.75 93.42C15.7992 93.5501 15.8629 93.6742 15.94 93.79C16.0136 93.8947 16.1011 93.9889 16.2 94.07C16.2871 94.1391 16.3852 94.1932 16.4901 94.23C16.5853 94.2537 16.6848 94.2537 16.78 94.23C16.8736 94.226 16.964 94.1947 17.04 94.14C17.1238 94.0744 17.1892 93.9883 17.23 93.89C17.278 93.7622 17.3017 93.6265 17.3 93.49C17.3104 93.3969 17.3104 93.303 17.3 93.21L18.0701 94.1H18.12V94.07C18.1269 94.0404 18.1269 94.0096 18.12 93.98L18.0701 93.92L17.0701 92.76L16.97 92.65L16.84 92.53L16.6801 92.41C16.6184 92.37 16.5509 92.3396 16.48 92.32C16.3877 92.2841 16.2891 92.2671 16.19 92.27C16.1001 92.2709 16.0113 92.2914 15.9301 92.33L15.94 92.32ZM16.7401 92.68C16.8138 92.7437 16.8778 92.8178 16.9301 92.9C16.9819 92.9842 17.0223 93.0751 17.05 93.17C17.0597 93.2664 17.0597 93.3636 17.05 93.46C17.0614 93.5463 17.0614 93.6337 17.05 93.72C17.0244 93.7913 16.9834 93.8562 16.9301 93.91C16.8778 93.9593 16.8113 93.9908 16.7401 94C16.6577 94.0185 16.5724 94.0185 16.4901 94C16.3997 93.9671 16.3153 93.9198 16.2401 93.86C16.169 93.7901 16.1053 93.713 16.05 93.63C15.9974 93.5474 15.9601 93.4559 15.94 93.36C15.926 93.2638 15.926 93.1661 15.94 93.07C15.9249 92.984 15.9249 92.896 15.94 92.81C15.9583 92.7376 15.9964 92.6718 16.05 92.62C16.1065 92.5793 16.1715 92.5519 16.2401 92.54C16.3223 92.5208 16.4078 92.5208 16.4901 92.54C16.5786 92.5747 16.66 92.6256 16.73 92.69L16.7401 92.68ZM15.25 89.68V89.36C12.2372 88.2216 9.40715 86.6482 6.85005 84.69V85.07C9.40593 87.0168 12.2324 88.58 15.2401 89.71L15.25 89.68ZM18.25 96.59V96.28C13.74 95 11.36 93.81 6.86005 90.56V90.88C11.3 94.15 13.68 95.35 18.19 96.62L18.25 96.59ZM6.86005 83.4V84.07C9.41654 86.0343 12.2465 87.6143 15.26 88.76V88.13C12.2287 86.9784 9.37931 85.3954 6.80005 83.43L6.86005 83.4ZM6.86005 82.62V82.94C9.41919 84.8977 12.2486 86.4741 15.26 87.62V87.3C12.2308 86.1722 9.38378 84.6055 6.81004 82.65L6.86005 82.62ZM6.86005 87.43V87.75C9.41654 89.7143 12.2465 91.2943 15.26 92.44V92.12C12.2259 90.9918 9.37512 89.4215 6.80005 87.46L6.86005 87.43ZM6.86005 85.53C6.86005 85.96 6.86005 86.18 6.86005 86.62C9.41919 88.5777 12.2486 90.1541 15.26 91.3C15.26 90.87 15.26 90.65 15.26 90.21C12.2319 89.08 9.38511 87.5134 6.81004 85.56L6.86005 85.53ZM6.86005 71.12V71.44C9.41654 73.4043 12.2465 74.9843 15.26 76.13V75.81C12.2237 74.6798 9.36994 73.1097 6.79004 71.15L6.86005 71.12ZM15.78 76.89V78.48C15.7767 78.5063 15.7829 78.5329 15.7976 78.5549C15.8123 78.577 15.8345 78.593 15.86 78.6C15.91 78.6 15.94 78.6 15.94 78.54V77.13C16.79 77.87 17.2201 78.23 18.0701 78.89H18.12V78.8C18.1247 78.7889 18.1271 78.777 18.1271 78.765C18.1271 78.753 18.1247 78.7411 18.12 78.73V78.67C17.28 78.02 16.8601 77.67 16.0201 76.94H15.9601H15.89C15.73 76.84 15.7101 76.86 15.7101 76.92L15.78 76.89ZM18.22 80.57V80.26C13.75 78.98 11.38 77.8 6.90004 74.58V74.9C11.36 78.15 13.67 79.33 18.15 80.6L18.22 80.57ZM15.22 76.91V76.59C12.2065 75.4444 9.37655 73.8643 6.82005 71.9V72.22C9.36545 74.1923 12.1852 75.7824 15.19 76.94L15.22 76.91ZM6.80005 73.07V73.71C9.36142 75.6669 12.1902 77.2463 15.2 78.4V77.76C12.1865 76.6143 9.35654 75.0343 6.80005 73.07ZM17.94 75.46V76.83L17.12 75.62C17.0174 75.4565 16.9003 75.3025 16.7701 75.16C16.6604 75.0509 16.5269 74.9688 16.3801 74.92C16.2965 74.8899 16.2088 74.873 16.12 74.87C16.0377 74.8671 15.9568 74.8917 15.89 74.94C15.8139 74.9893 15.7573 75.0635 15.73 75.15C15.6856 75.2716 15.6653 75.4006 15.67 75.53C15.6673 75.6731 15.691 75.8155 15.7401 75.95C15.7858 76.0735 15.8462 76.191 15.92 76.3C15.9862 76.3924 16.0634 76.4764 16.15 76.55C16.2279 76.6059 16.3117 76.6528 16.4 76.69C16.45 76.69 16.47 76.69 16.47 76.63V76.55C16.4744 76.5302 16.4744 76.5098 16.47 76.49C16.4658 76.4758 16.458 76.4629 16.4476 76.4525C16.4371 76.442 16.4242 76.4343 16.41 76.43C16.261 76.3528 16.1337 76.2393 16.04 76.1C15.9477 75.9533 15.8991 75.7833 15.9 75.61C15.8911 75.5355 15.8991 75.46 15.9233 75.389C15.9476 75.3181 15.9874 75.2535 16.04 75.2C16.0944 75.1674 16.1566 75.1502 16.22 75.1502C16.2835 75.1502 16.3457 75.1674 16.4 75.2C16.4535 75.2152 16.5041 75.2388 16.55 75.27C16.6012 75.2965 16.6483 75.3302 16.69 75.37C16.7415 75.4225 16.7884 75.4794 16.83 75.54L17 75.78C17.36 76.33 17.54 76.6 17.9 77.13C17.9222 77.1667 17.9491 77.2003 17.98 77.23C17.9944 77.2524 18.0154 77.2699 18.04 77.28H18.1001C18.1501 77.28 18.17 77.28 18.17 77.21V75.53C18.17 75.46 18.1701 75.43 18.1001 75.41H18.04C18.04 75.41 17.94 75.41 17.94 75.48V75.46ZM15.94 87.46C15.8466 87.5067 15.7724 87.5845 15.73 87.68C15.6705 87.8187 15.6431 87.9692 15.65 88.12C15.6498 88.2899 15.6768 88.4587 15.73 88.62C15.7779 88.7577 15.8489 88.8862 15.94 89C16.0285 89.1057 16.1331 89.1969 16.25 89.27C16.3658 89.347 16.49 89.4108 16.62 89.46L17.2101 89.65C17.3262 89.6885 17.4477 89.7088 17.5701 89.71C17.6777 89.714 17.7846 89.6899 17.8801 89.64C17.9744 89.5851 18.0481 89.5008 18.09 89.4C18.1479 89.2572 18.1752 89.1039 18.17 88.95C18.1712 88.7866 18.1441 88.6242 18.09 88.47C18.0443 88.3344 17.973 88.2088 17.8801 88.1C17.7906 88.0008 17.686 87.9164 17.5701 87.85C17.4572 87.7793 17.3363 87.7223 17.2101 87.68L16.62 87.48C16.4996 87.4432 16.3756 87.4197 16.25 87.41C16.1483 87.4128 16.0488 87.4403 15.9601 87.49L15.94 87.46ZM17.19 87.93C17.4072 87.9943 17.6014 88.1192 17.75 88.29C17.8924 88.4568 17.9673 88.6708 17.9601 88.89C17.9737 88.9831 17.9612 89.0781 17.9242 89.1646C17.8871 89.2511 17.8268 89.3256 17.75 89.38C17.5704 89.4523 17.3697 89.4523 17.19 89.38L16.91 89.29L16.64 89.19C16.4177 89.1204 16.2199 88.9885 16.0701 88.81C15.9325 88.6327 15.8585 88.4144 15.86 88.19C15.86 87.95 15.9301 87.79 16.0701 87.72C16.2538 87.6509 16.4563 87.6509 16.64 87.72L16.91 87.81L17.19 87.93ZM15.19 74.93V74.3C12.1765 73.1543 9.34653 71.5743 6.79004 69.61V70.24C9.34775 72.2157 12.1812 73.8059 15.2 74.96L15.19 74.93ZM6.79004 68.75C11.28 71.99 13.65 73.18 18.14 74.45V73.82C13.65 72.54 11.28 71.35 6.79004 68.12V68.75ZM15.7101 85.07V86.66C15.7086 86.686 15.7156 86.7117 15.73 86.7334C15.7444 86.755 15.7655 86.7714 15.79 86.78C15.84 86.78 15.87 86.78 15.87 86.71V85.31C16.72 86.05 17.15 86.4 18 87.07H18.05C18.05 87.07 18.05 87.07 18.05 87.02V86.93C18.0547 86.9189 18.0571 86.907 18.0571 86.895C18.0571 86.883 18.0547 86.8711 18.05 86.86V86.8C17.21 86.14 16.79 85.8 15.95 85.07H15.89H15.8201C15.7301 85.01 15.7101 85.07 15.7101 85.07ZM15.2 84.77V84.45C12.1918 83.3039 9.36572 81.7274 6.81004 79.77V80.07C9.36034 82.0485 12.1871 83.6421 15.2 84.8V84.77ZM15.2 81.69C15.2 81.15 15.2 80.88 15.2 80.33C12.1886 79.1841 9.35919 77.6077 6.80005 75.65C6.80005 76.18 6.80005 76.45 6.80005 76.99C9.35035 78.963 12.173 80.5562 15.1801 81.72L15.2 81.69ZM6.82005 80.81C6.82005 81.32 6.82005 81.57 6.82005 82.07C9.37874 84.0336 12.208 85.6166 15.22 86.77C15.22 86.26 15.22 86.01 15.22 85.5C12.2012 84.3654 9.36456 82.7955 6.80005 80.84L6.82005 80.81ZM15.73 81.35V81.48C15.7257 81.4998 15.7257 81.5202 15.73 81.54L16.31 82.63C16.3265 82.6335 16.3436 82.6335 16.36 82.63C16.3692 82.6353 16.3795 82.638 16.39 82.638C16.4006 82.638 16.4109 82.6353 16.42 82.63C16.42 82.63 16.47 82.57 16.42 82.51L15.94 81.6C16.77 81.91 17.1901 82.05 18.0201 82.29C18.0701 82.29 18.09 82.29 18.09 82.22V82.14C18.09 82.08 18.09 82.04 18.0201 82.03C17.1101 81.76 16.65 81.61 15.73 81.26C15.73 81.3 15.7101 81.32 15.7101 81.38L15.73 81.35ZM17.97 83.62C17.97 84.18 17.97 84.45 17.97 85C17.64 84.52 17.48 84.28 17.15 83.78C17.0502 83.6177 16.9328 83.4668 16.8 83.33C16.6904 83.2209 16.5569 83.1388 16.41 83.09C16.3279 83.0551 16.2393 83.0381 16.15 83.04C16.0677 83.0371 15.9868 83.0617 15.92 83.11C15.8469 83.1624 15.7912 83.2356 15.76 83.32C15.7169 83.4384 15.6965 83.564 15.7 83.69C15.7013 83.8361 15.7249 83.9811 15.7701 84.12C15.8136 84.2413 15.8742 84.3558 15.95 84.46C16.0136 84.5545 16.0911 84.6388 16.1801 84.71C16.2556 84.7719 16.3398 84.8225 16.4301 84.86C16.4801 84.86 16.5 84.86 16.5 84.8V84.72C16.5033 84.6968 16.5033 84.6732 16.5 84.65C16.4854 84.6252 16.4648 84.6046 16.44 84.59C16.2889 84.5204 16.1607 84.4095 16.0701 84.27C15.9763 84.1202 15.9277 83.9466 15.9301 83.77C15.9212 83.697 15.9292 83.6231 15.9535 83.5537C15.9778 83.4844 16.0177 83.4215 16.0701 83.37C16.1244 83.3374 16.1866 83.3202 16.25 83.3202C16.3135 83.3202 16.3757 83.3374 16.4301 83.37L16.58 83.43L16.72 83.54C16.7739 83.5903 16.8209 83.6475 16.86 83.71C16.9228 83.7855 16.9796 83.8657 17.03 83.95C17.39 84.5 17.5701 84.77 17.9301 85.3C17.9489 85.3389 17.9763 85.373 18.01 85.4C18.01 85.4 18.0101 85.4 18.0701 85.4H18.1301C18.1801 85.4 18.2 85.4 18.2 85.33V83.64C18.2 83.58 18.2001 83.54 18.1301 83.53H18.0701C18.0701 83.53 17.95 83.59 17.95 83.65L17.97 83.62Z" fill="#455A64"/>
<path d="M20.0499 106.5C19.9639 106.514 19.876 106.514 19.7899 106.5C13.4599 104.68 10.0499 102.5 4.32994 97.9199C4.22581 97.8481 4.13762 97.7556 4.07087 97.6481C4.00413 97.5407 3.96025 97.4206 3.942 97.2954C3.92375 97.1702 3.93151 97.0426 3.9648 96.9206C3.99808 96.7986 4.05617 96.6847 4.13545 96.5861C4.21472 96.4875 4.31347 96.4064 4.42553 96.3477C4.53759 96.289 4.66055 96.254 4.78672 96.245C4.9129 96.236 5.03958 96.2531 5.15886 96.2952C5.27813 96.3374 5.38743 96.4037 5.47993 96.4899C11.6199 101.39 14.7999 103.16 20.2999 104.74C20.5095 104.804 20.6894 104.94 20.8074 105.125C20.9253 105.309 20.9735 105.53 20.9434 105.747C20.9133 105.964 20.8068 106.163 20.643 106.308C20.4792 106.453 20.2689 106.536 20.0499 106.54V106.5Z" fill="#FFC100"/>
<g opacity="0.5">
<path d="M20.0499 106.5C19.9639 106.514 19.876 106.514 19.7899 106.5C13.4599 104.68 10.0499 102.5 4.32994 97.9199C4.22581 97.8481 4.13762 97.7556 4.07087 97.6481C4.00413 97.5407 3.96025 97.4206 3.942 97.2954C3.92375 97.1702 3.93151 97.0426 3.9648 96.9206C3.99808 96.7986 4.05617 96.6847 4.13545 96.5861C4.21472 96.4875 4.31347 96.4064 4.42553 96.3477C4.53759 96.289 4.66055 96.254 4.78672 96.245C4.9129 96.236 5.03958 96.2531 5.15886 96.2952C5.27813 96.3374 5.38743 96.4037 5.47993 96.4899C11.6199 101.39 14.7999 103.16 20.2999 104.74C20.5095 104.804 20.6894 104.94 20.8074 105.125C20.9253 105.309 20.9735 105.53 20.9434 105.747C20.9133 105.964 20.8068 106.163 20.643 106.308C20.4792 106.453 20.2689 106.536 20.0499 106.54V106.5Z" fill="white"/>
</g>
<path d="M20.05 112.64H19.86C13.7756 111.269 8.28855 107.99 4.19995 103.28C4.07033 103.091 4.01606 102.86 4.04779 102.633C4.07952 102.406 4.19495 102.199 4.37146 102.052C4.54796 101.906 4.77282 101.83 5.00194 101.841C5.23105 101.852 5.44789 101.948 5.60995 102.11C9.42698 106.505 14.55 109.564 20.2299 110.84C20.4516 110.887 20.6481 111.014 20.7818 111.197C20.9156 111.379 20.9773 111.605 20.955 111.831C20.9327 112.056 20.828 112.265 20.661 112.418C20.494 112.571 20.2765 112.657 20.05 112.66V112.64Z" fill="#FFC100"/>
<g opacity="0.5">
<path d="M20.05 112.64H19.86C13.7756 111.269 8.28855 107.99 4.19995 103.28C4.07033 103.091 4.01606 102.86 4.04779 102.633C4.07952 102.406 4.19495 102.199 4.37146 102.052C4.54796 101.906 4.77282 101.83 5.00194 101.841C5.23105 101.852 5.44789 101.948 5.60995 102.11C9.42698 106.505 14.55 109.564 20.2299 110.84C20.4516 110.887 20.6481 111.014 20.7818 111.197C20.9156 111.379 20.9773 111.605 20.955 111.831C20.9327 112.056 20.828 112.265 20.661 112.418C20.494 112.571 20.2765 112.657 20.05 112.66V112.64Z" fill="white"/>
</g>
<path d="M49.1799 103.25C47.7799 99.91 43.5999 95.25 41.0299 95.25C38.4599 95.25 34.2699 99.95 32.8799 103.25C31.4899 106.55 31.8799 110.49 35.1299 110.99C38.3799 111.49 39.3099 108.34 41.0299 108.34C42.7499 108.34 43.6499 111.48 46.9199 110.99C50.1899 110.5 50.5699 106.59 49.1799 103.25Z" fill="#FAFAFA"/>
<path d="M39.67 87.16C39.92 89.64 38.8 91.83 37.16 92.06C35.52 92.29 33.98 90.45 33.73 87.97C33.48 85.49 34.6 83.3 36.24 83.07C37.88 82.84 39.42 84.68 39.67 87.16Z" fill="#FAFAFA"/>
<path d="M32.6301 94.58C32.9801 96.82 32.0701 98.9 30.6301 99.21C29.1901 99.52 27.6301 97.97 27.3001 95.72C26.9701 93.47 27.8501 91.41 29.3001 91.09C30.7501 90.77 32.2701 92.34 32.6301 94.58Z" fill="#FAFAFA"/>
<path d="M42.36 87.16C42.11 89.64 43.24 91.83 44.88 92.06C46.52 92.29 48.05 90.45 48.31 87.97C48.57 85.49 47.44 83.3 45.8 83.07C44.16 82.84 42.64 84.68 42.36 87.16Z" fill="#FAFAFA"/>
<path d="M49.4301 94.58C49.0701 96.82 49.9801 98.9 51.4301 99.21C52.8801 99.52 54.4301 97.97 54.7601 95.72C55.0901 93.47 54.2001 91.41 52.7601 91.09C51.3201 90.77 49.7801 92.34 49.4301 94.58Z" fill="#FAFAFA"/>
<path d="M63.45 81.95C63.16 83.35 63.0201 84.0399 62.7401 85.4399C62.7129 85.5399 62.676 85.6371 62.6301 85.7299C62.6138 85.7683 62.5893 85.8026 62.5581 85.8303C62.527 85.858 62.4901 85.8784 62.45 85.89L61.78 86.0499C61.7461 86.0612 61.7095 86.0615 61.6753 86.0507C61.6412 86.0399 61.6114 86.0187 61.59 85.9899C61.5353 85.9168 61.5009 85.8306 61.4901 85.7399C61.0701 83.0599 60.8701 81.7399 60.4901 79.0099C60.4861 78.9801 60.4861 78.9498 60.4901 78.92C60.4886 78.8409 60.5132 78.7636 60.56 78.7C60.5759 78.671 60.5973 78.6456 60.6231 78.625C60.6488 78.6044 60.6784 78.5891 60.7101 78.5799L61.3201 78.4599C61.3683 78.4415 61.4218 78.4415 61.47 78.4599C61.5263 78.5165 61.5616 78.5906 61.5701 78.67C61.8401 80.48 61.98 81.3799 62.26 83.1799C62.5 81.9399 62.62 81.3199 62.87 80.0799C62.885 80.0029 62.912 79.9286 62.95 79.8599C62.9694 79.8161 62.9982 79.7772 63.0346 79.7461C63.0709 79.7149 63.1138 79.6923 63.16 79.6799L63.83 79.4799C63.868 79.463 63.9107 79.4597 63.9508 79.4707C63.9909 79.4816 64.0259 79.5061 64.05 79.5399C64.0843 79.5915 64.1081 79.6492 64.12 79.7099L64.7401 82.45L65.44 77.53C65.4488 77.4327 65.4833 77.3395 65.54 77.2599C65.581 77.2056 65.6364 77.164 65.7 77.14L66.31 76.8999C66.334 76.8848 66.3617 76.8768 66.39 76.8768C66.4184 76.8768 66.4461 76.8848 66.47 76.8999C66.4953 76.9222 66.5148 76.9501 66.527 76.9814C66.5391 77.0127 66.5436 77.0465 66.54 77.0799C66.544 77.1098 66.544 77.1401 66.54 77.17C66.11 80.17 65.9 81.59 65.47 84.53C65.456 84.6341 65.4256 84.7353 65.3801 84.8299C65.3602 84.8717 65.3324 84.909 65.298 84.9399C65.2637 84.9708 65.2236 84.9946 65.1801 85.0099L64.51 85.2399C64.4825 85.2602 64.4492 85.2712 64.415 85.2712C64.3808 85.2712 64.3476 85.2602 64.3201 85.2399C64.2733 85.1698 64.2395 85.0919 64.22 85.0099C63.87 83.7899 63.73 83.18 63.45 81.95Z" fill="white"/>
<path d="M71.36 80.8101C71.3835 80.7937 71.4114 80.7849 71.44 80.7849C71.4686 80.7849 71.4965 80.7937 71.52 80.8101C71.5451 80.8302 71.5647 80.8563 71.5769 80.886C71.5892 80.9157 71.5937 80.9481 71.59 80.9801V81.7701C71.5904 81.8551 71.5661 81.9385 71.52 82.0101C71.4889 82.0866 71.4324 82.1502 71.36 82.19C70.1666 82.8924 68.9309 83.5203 67.66 84.0701C67.6371 84.0879 67.609 84.0976 67.58 84.0976C67.551 84.0976 67.5229 84.0879 67.5 84.0701C67.477 84.0462 67.4589 84.018 67.4469 83.9871C67.4349 83.9562 67.4292 83.9232 67.43 83.8901V76.7801C67.4346 76.6957 67.4586 76.6136 67.5 76.5401C67.5347 76.4733 67.5911 76.4204 67.66 76.3901C68.8986 75.8523 70.1041 75.2412 71.27 74.5601C71.34 74.5601 71.39 74.5601 71.43 74.5601C71.4551 74.5802 71.4747 74.6063 71.4869 74.636C71.4992 74.6657 71.5037 74.6981 71.5 74.7301V75.5201C71.5004 75.6051 71.4761 75.6885 71.43 75.7601C71.4022 75.8386 71.3447 75.9032 71.27 75.94C70.19 76.56 69.65 76.84 68.56 77.36V79.0701C69.56 78.5901 70.08 78.3201 71.09 77.7601C71.1135 77.7437 71.1414 77.7349 71.17 77.7349C71.1986 77.7349 71.2265 77.7437 71.25 77.7601C71.274 77.7832 71.2927 77.8113 71.3048 77.8423C71.3169 77.8734 71.3221 77.9068 71.32 77.94V78.72C71.3154 78.8044 71.2915 78.8865 71.25 78.9601C71.2159 79.0347 71.1602 79.0974 71.09 79.1401C70.09 79.7101 69.57 79.9701 68.56 80.4501V82.2801C69.67 81.7301 70.23 81.4401 71.36 80.8101Z" fill="white"/>
<path d="M76.51 71.07C76.57 71.02 76.62 71.01 76.67 71.07C76.72 71.13 76.73 71.15 76.73 71.23V72.01C76.7282 72.0999 76.7077 72.1884 76.67 72.27C76.63 72.3493 76.5758 72.4205 76.51 72.48C75.91 72.93 75.61 73.14 75.01 73.56V79.56C75.0056 79.6507 74.9817 79.7394 74.9399 79.82C74.9062 79.9002 74.8508 79.9694 74.78 80.02L74.1 80.48C74.0765 80.4964 74.0486 80.5051 74.02 80.5051C73.9914 80.5051 73.9634 80.4964 73.9399 80.48C73.9399 80.48 73.88 80.4 73.88 80.32V74.32C73.27 74.72 72.97 74.91 72.37 75.32C72.3 75.32 72.25 75.32 72.21 75.32C72.1841 75.3006 72.1639 75.2745 72.1516 75.2446C72.1393 75.2147 72.1353 75.182 72.14 75.15V74.37C72.1409 74.282 72.165 74.1957 72.21 74.12C72.2378 74.0415 72.2952 73.9769 72.37 73.94C73.8054 73.0658 75.1877 72.1075 76.51 71.07Z" fill="white"/>
<path d="M63.04 91.23C63.3823 91.1225 63.7436 91.0884 64.1 91.13C64.3871 91.1594 64.6554 91.2865 64.86 91.49C65.0806 91.7096 65.2423 91.9813 65.33 92.28C65.4417 92.664 65.5056 93.0603 65.52 93.46C65.52 93.99 65.52 94.54 65.52 95.09C65.4995 95.5384 65.4358 95.9838 65.33 96.42C65.2267 96.8136 65.0685 97.1906 64.86 97.54C64.6662 97.8682 64.4156 98.1594 64.12 98.4C63.8237 98.6369 63.484 98.8135 63.12 98.92C62.29 99.16 61.88 99.26 61.05 99.43C61.0219 99.4354 60.9928 99.4326 60.9662 99.4219C60.9396 99.4113 60.9167 99.3933 60.9 99.37C60.8749 99.3435 60.8558 99.3119 60.8437 99.2775C60.8316 99.243 60.827 99.2064 60.83 99.17V92.07C60.8285 91.991 60.8531 91.9137 60.9 91.85C60.9143 91.82 60.9352 91.7936 60.9612 91.7728C60.9872 91.752 61.0175 91.7374 61.05 91.73C61.82 91.56 62.22 91.46 63.04 91.23ZM64.4 93.85C64.3912 93.6394 64.3542 93.4308 64.29 93.23C64.2458 93.0643 64.1597 92.9128 64.04 92.79C63.9235 92.673 63.773 92.596 63.61 92.57C63.4057 92.5341 63.1957 92.5513 63 92.62C62.56 92.74 62.34 92.8 61.9 92.9V97.9L63.04 97.6C63.2565 97.5452 63.4581 97.4427 63.63 97.3C63.7923 97.1677 63.9309 97.0087 64.04 96.83C64.1555 96.6414 64.2399 96.4354 64.29 96.22C64.3517 95.9913 64.3886 95.7566 64.4 95.52C64.42 94.94 64.42 94.39 64.36 93.85H64.4Z" fill="white"/>
<path d="M66.41 92.9501C66.43 92.5352 66.4903 92.1233 66.59 91.7201C66.6959 91.3226 66.8504 90.9397 67.05 90.5801C67.25 90.212 67.5027 89.8751 67.8 89.5801C68.113 89.2755 68.4747 89.0254 68.87 88.8401C69.2015 88.664 69.5658 88.5585 69.94 88.5301C70.2132 88.522 70.4811 88.6065 70.7 88.7701C70.914 88.9533 71.0731 89.1921 71.16 89.4601C71.2675 89.8037 71.328 90.1602 71.34 90.5201C71.34 90.6501 71.34 90.8101 71.34 90.9701C71.34 91.1301 71.34 91.3101 71.34 91.4901C71.34 91.6701 71.34 91.8501 71.34 92.0201C71.34 92.1901 71.34 92.3501 71.34 92.4901C71.3243 92.9152 71.2639 93.3375 71.16 93.7501C71.0637 94.1697 70.9089 94.5736 70.7 94.9501C70.4974 95.319 70.2413 95.656 69.94 95.9501C69.6363 96.2733 69.273 96.5348 68.87 96.7201C68.5442 96.9048 68.1745 96.998 67.8 96.9901C67.522 96.984 67.2555 96.8775 67.05 96.6901C66.8349 96.4797 66.6767 96.2182 66.59 95.9301C66.484 95.5759 66.4235 95.2096 66.41 94.8401C66.41 94.7101 66.41 94.5501 66.41 94.3901V93.3401C66.36 93.2501 66.41 93.0701 66.41 92.9501ZM70.21 91.2401C70.2256 91.0547 70.1985 90.8682 70.1309 90.6949C70.0633 90.5215 69.957 90.366 69.82 90.2401C69.6783 90.1492 69.5134 90.1009 69.345 90.1009C69.1766 90.1009 69.0118 90.1492 68.87 90.2401C68.479 90.4329 68.1525 90.7351 67.93 91.1101C67.6833 91.5361 67.5491 92.0179 67.54 92.5101C67.54 92.8001 67.54 93.1101 67.54 93.4501C67.54 93.7901 67.54 94.1001 67.54 94.3701C67.5241 94.563 67.5508 94.757 67.6182 94.9385C67.6856 95.1199 67.792 95.2844 67.93 95.4201C68.0698 95.5113 68.2331 95.5599 68.4 95.5599C68.567 95.5599 68.7303 95.5113 68.87 95.4201C69.2725 95.2213 69.6041 94.9036 69.82 94.5101C70.0684 94.0775 70.2026 93.5888 70.21 93.0901C70.21 92.8001 70.21 92.4901 70.21 92.1501C70.21 91.8101 70.22 91.5101 70.21 91.2401Z" fill="white"/>
<path d="M72.24 90.0099C72.2646 89.1198 72.4938 88.2472 72.91 87.4599C73.1273 87.0593 73.3926 86.6865 73.7 86.3499C74.025 85.9985 74.3871 85.6833 74.78 85.4099C75.1397 85.1379 75.5465 84.9345 75.98 84.8099C76.223 84.7261 76.487 84.7261 76.73 84.8099C76.82 84.85 76.9009 84.9079 76.9679 84.98C77.035 85.0522 77.0867 85.1372 77.12 85.2299C77.1926 85.3946 77.2366 85.5704 77.25 85.7499C77.2582 85.8439 77.2372 85.9382 77.19 86.0199C77.1528 86.0981 77.0981 86.1665 77.03 86.2199L76.35 86.7299C76.3324 86.749 76.3105 86.7635 76.2861 86.7722C76.2617 86.7809 76.2356 86.7835 76.21 86.7799C76.1918 86.776 76.175 86.7675 76.161 86.7552C76.147 86.743 76.1363 86.7274 76.13 86.7099L76.04 86.5799C75.9803 86.5098 75.8997 86.4608 75.81 86.4399C75.6784 86.4096 75.5416 86.4096 75.41 86.4399C75.1815 86.5054 74.9676 86.614 74.78 86.7599C74.362 87.0481 74.0192 87.4321 73.78 87.8799C73.5277 88.3228 73.3869 88.8205 73.37 89.3299C73.37 89.6199 73.37 89.9199 73.37 90.2399C73.37 90.5599 73.37 90.8599 73.37 91.1299C73.37 91.7199 73.52 92.0799 73.78 92.1899C74.04 92.2999 74.36 92.1899 74.78 91.9299C74.9898 91.7911 75.1813 91.6265 75.35 91.4399C75.5219 91.2573 75.6728 91.0561 75.8 90.8399C75.9265 90.606 76.0239 90.3575 76.09 90.0999C76.16 89.8153 76.1936 89.523 76.19 89.2299V89.1399C75.79 89.4399 75.58 89.5899 75.19 89.8699C75.168 89.8854 75.1419 89.8937 75.115 89.8937C75.0881 89.8937 75.0619 89.8854 75.04 89.8699C75.0141 89.8505 74.994 89.8244 74.9817 89.7945C74.9693 89.7646 74.9653 89.7319 74.97 89.6999V88.9199C74.9709 88.8319 74.995 88.7456 75.04 88.6699C75.0706 88.5907 75.1225 88.5215 75.19 88.4699C75.96 87.9299 76.35 87.6399 77.11 87.0599C77.1339 87.0448 77.1617 87.0368 77.19 87.0368C77.2183 87.0368 77.246 87.0448 77.27 87.0599C77.295 87.0778 77.3148 87.1021 77.3271 87.1302C77.3394 87.1584 77.3439 87.1894 77.34 87.2199V88.4299C77.3405 88.8814 77.2868 89.3313 77.18 89.7699C77.0713 90.2256 76.9138 90.6681 76.71 91.0899C76.4905 91.5225 76.2221 91.9285 75.91 92.2999C75.5878 92.6828 75.2143 93.0193 74.8 93.2999C74.472 93.5454 74.0979 93.7222 73.7 93.8199C73.4309 93.8784 73.1496 93.8357 72.91 93.6999C72.689 93.5337 72.5248 93.3032 72.44 93.0399C72.3219 92.6817 72.2611 92.3071 72.26 91.9299C72.26 91.7899 72.26 91.6399 72.26 91.4699C72.26 91.2999 72.26 91.1399 72.26 90.9599C72.26 90.7799 72.26 90.6099 72.26 90.4399C72.26 90.2699 72.24 90.1499 72.24 90.0099Z" fill="white"/>
<path d="M64.53 103.98C64.5544 103.966 64.5819 103.958 64.61 103.958C64.6381 103.958 64.6657 103.966 64.69 103.98C64.7354 104.033 64.7603 104.1 64.76 104.17V104.95C64.7566 105.031 64.7325 105.11 64.69 105.18C64.656 105.247 64.5994 105.3 64.53 105.33C63.47 105.68 62.94 105.83 61.9 106.08V108.22C62.9 107.98 63.37 107.84 64.37 107.52C64.3925 107.506 64.4185 107.498 64.445 107.498C64.4716 107.498 64.4976 107.506 64.52 107.52C64.5443 107.545 64.5631 107.575 64.5751 107.608C64.5872 107.64 64.5923 107.675 64.59 107.71V108.49C64.5915 108.572 64.567 108.653 64.52 108.72C64.5059 108.754 64.4841 108.784 64.4564 108.809C64.4286 108.833 64.3957 108.85 64.36 108.86C63.5534 109.138 62.7322 109.372 61.9 109.56V112.08C61.8966 112.161 61.8725 112.24 61.83 112.31C61.8157 112.34 61.7948 112.366 61.7688 112.387C61.7428 112.408 61.7125 112.423 61.68 112.43L61.01 112.58C60.9819 112.585 60.9529 112.582 60.9263 112.572C60.8997 112.561 60.8767 112.543 60.86 112.52C60.8355 112.493 60.8166 112.461 60.8046 112.427C60.7926 112.393 60.7876 112.356 60.79 112.32V105.27C60.7886 105.191 60.8132 105.114 60.86 105.05C60.8743 105.02 60.8953 104.993 60.9213 104.973C60.9472 104.952 60.9776 104.937 61.01 104.93C62.205 104.7 63.3815 104.382 64.53 103.98Z" fill="white"/>
<path d="M65.46 106.53C65.471 106.115 65.528 105.702 65.63 105.3C65.7355 104.909 65.89 104.532 66.09 104.18C66.2935 103.832 66.5461 103.516 66.84 103.24C67.1568 102.951 67.5181 102.714 67.91 102.54C68.2395 102.374 68.6013 102.282 68.97 102.27C69.246 102.265 69.5149 102.357 69.73 102.53C69.9455 102.716 70.1048 102.958 70.19 103.23C70.3054 103.575 70.3694 103.936 70.38 104.3C70.38 104.44 70.38 104.59 70.38 104.76V105.76C70.38 105.93 70.38 106.09 70.38 106.23C70.3594 106.655 70.2991 107.076 70.2 107.49C70.0931 107.903 69.9388 108.302 69.74 108.68C69.5359 109.048 69.28 109.385 68.98 109.68C68.67 109.985 68.3076 110.233 67.91 110.41C67.5806 110.582 67.2116 110.665 66.84 110.65C66.5597 110.629 66.295 110.512 66.09 110.32C65.8748 110.102 65.7168 109.834 65.63 109.54C65.5233 109.186 65.4661 108.819 65.46 108.45C65.46 108.31 65.46 108.16 65.46 107.99V106.99C65.44 106.83 65.45 106.67 65.46 106.53ZM69.24 104.94C69.252 104.755 69.2232 104.569 69.1559 104.397C69.0885 104.224 68.9841 104.068 68.85 103.94C68.7094 103.851 68.5464 103.804 68.38 103.804C68.2136 103.804 68.0507 103.851 67.91 103.94C67.5166 104.115 67.1879 104.409 66.97 104.78C66.7208 105.201 66.5863 105.681 66.58 106.17C66.58 106.45 66.58 106.76 66.58 107.11C66.58 107.46 66.58 107.76 66.58 108.03C66.5653 108.224 66.5925 108.419 66.6598 108.602C66.7271 108.785 66.8329 108.952 66.97 109.09C67.1093 109.182 67.2728 109.232 67.44 109.232C67.6072 109.232 67.7707 109.182 67.91 109.09C68.3074 108.907 68.6365 108.602 68.85 108.22C69.0984 107.787 69.2326 107.299 69.24 106.8C69.24 106.52 69.24 106.21 69.24 105.86C69.24 105.51 69.25 105.22 69.24 104.94Z" fill="white"/>
<path d="M71.28 103.8C71.3006 103.375 71.3609 102.953 71.4599 102.54C71.5668 102.117 71.7211 101.708 71.9199 101.32C72.1258 100.926 72.3812 100.559 72.68 100.23C72.9913 99.8743 73.3516 99.5646 73.75 99.31C74.0672 99.08 74.4278 98.9167 74.81 98.83C74.9376 98.7974 75.0705 98.7903 75.2009 98.8091C75.3313 98.828 75.4568 98.8725 75.5699 98.94C75.7867 99.0867 75.9485 99.3013 76.03 99.55C76.1362 99.8733 76.1967 100.21 76.2099 100.55C76.2099 100.69 76.2099 100.84 76.2099 101C76.2099 101.16 76.2099 101.34 76.2099 101.52C76.2099 101.7 76.2099 101.88 76.2099 102.05C76.2099 102.22 76.2099 102.38 76.2099 102.52C76.1886 102.955 76.1284 103.386 76.03 103.81C75.9297 104.253 75.7787 104.682 75.5799 105.09C75.3681 105.505 75.1134 105.898 74.8199 106.26C74.5094 106.625 74.1493 106.945 73.75 107.21C73.4311 107.438 73.0656 107.591 72.68 107.66C72.5477 107.683 72.4122 107.678 72.2816 107.647C72.1511 107.616 72.0281 107.559 71.9199 107.48C71.7039 107.303 71.5441 107.067 71.4599 106.8C71.3538 106.456 71.2933 106.1 71.28 105.74C71.28 105.6 71.28 105.45 71.28 105.28V104.28C71.27 104.07 71.28 103.94 71.28 103.8ZM75.0799 101.45C75.0799 100.943 74.9499 100.61 74.6899 100.45C74.4599 100.32 74.14 100.39 73.75 100.65C73.3551 100.896 73.0312 101.241 72.81 101.65C72.5666 102.103 72.433 102.606 72.4199 103.12C72.4199 103.4 72.4199 103.72 72.4199 104.06C72.4199 104.4 72.4199 104.71 72.4199 104.98C72.4199 105.49 72.57 105.82 72.81 105.98C73.05 106.14 73.36 106.06 73.75 105.81C74.1499 105.544 74.4738 105.179 74.6899 104.75C74.9322 104.29 75.0656 103.78 75.0799 103.26C75.0799 102.97 75.0799 102.66 75.0799 102.32C75.0799 101.98 75.0899 101.72 75.0799 101.45Z" fill="white"/>
<path d="M79.58 95.07C79.8944 94.7799 80.252 94.5404 80.64 94.36C80.8685 94.2425 81.1334 94.2174 81.3799 94.29C81.4899 94.3405 81.5879 94.4139 81.6672 94.5053C81.7465 94.5967 81.8054 94.704 81.84 94.82C81.9618 95.1638 82.026 95.5253 82.03 95.89C82.03 96.41 82.03 96.96 82.03 97.52C82.0116 98.0016 81.948 98.4804 81.84 98.95C81.7309 99.4256 81.5803 99.8907 81.39 100.34C81.1879 100.791 80.94 101.22 80.65 101.62C80.3619 102.031 80.0263 102.407 79.65 102.74C78.82 103.45 78.4 103.8 77.56 104.46C77.5 104.46 77.4499 104.52 77.4099 104.46C77.3699 104.4 77.34 104.38 77.34 104.3V97.17C77.3542 96.9919 77.4323 96.825 77.56 96.7C78.36 96.07 78.76 95.72 79.58 95.07ZM80.93 96.91C80.9224 96.7197 80.8888 96.5312 80.83 96.35C80.8108 96.2818 80.7762 96.219 80.7289 96.1664C80.6815 96.1138 80.6226 96.0728 80.5568 96.0467C80.491 96.0206 80.4201 96.01 80.3495 96.0158C80.2789 96.0215 80.2106 96.0435 80.15 96.08C79.9261 96.179 79.7199 96.3141 79.5399 96.48C79.0999 96.86 78.87 97.05 78.43 97.41V102.41L79.58 101.41C79.7993 101.222 79.9941 101.007 80.1599 100.77C80.3261 100.55 80.467 100.312 80.58 100.06C80.6871 99.8186 80.7708 99.5674 80.83 99.31C80.8823 99.0596 80.9157 98.8055 80.93 98.55C80.95 97.93 80.95 97.38 80.93 96.86V96.91Z" fill="white"/>
<path opacity="0.1" d="M59.76 147.69C44.17 151.69 25.22 150.08 12.44 142.69C3.81 137.69 -0.279993 131.15 0.0700073 124.6H0V24.47C0 30.74 4.16 37.02 12.44 41.8C13.7546 42.5556 15.1175 43.2237 16.52 43.8V134.87C16.52 141.97 40.15 150.39 59.76 147.69Z" fill="black"/>
</svg>
