<svg width="134" height="185" viewBox="0 0 134 185" fill="none" xmlns="http://www.w3.org/2000/svg">
<path d="M0 184.949V64.4664L14.5673 14.6183L12.5477 0H119.549L116.866 14.6183L134 65.8517V184.949H0Z" fill="#FFC100"/>
<g opacity="0.4">
<path d="M14.7203 14.6183C27.1149 29.5282 47.9524 36.8337 66.3911 41.9884C84.8299 47.1431 104.406 52.8738 117.151 67.4556C126.082 77.6629 130.573 91.1366 133.84 104.443L134 65.8589L116.866 14.6256L14.7203 14.6183Z" fill="white"/>
</g>
<path opacity="0.3" d="M14.5673 14.6183L30.6073 65.2246V185L0 184.949V64.4664L14.5673 14.6183Z" fill="black"/>
<path d="M84.4362 129.443C101.542 129.443 115.408 115.231 115.408 97.6984C115.408 80.1663 101.542 65.9537 84.4362 65.9537C67.3309 65.9537 53.4644 80.1663 53.4644 97.6984C53.4644 115.231 67.3309 129.443 84.4362 129.443Z" fill="white"/>
<path opacity="0.3" d="M14.5673 14.6183H116.866L119.549 0H12.5477L14.5673 14.6183Z" fill="white"/>
<path d="M71.2834 96.2474C71.2834 96.2474 59.6179 97.8223 58.4587 100.002C57.2994 102.182 61.3313 110.939 63.3655 113.374C65.3996 115.809 71.6771 115.67 74.7029 115.51C77.7286 115.35 82.249 115.896 83.4082 118.813C84.4389 121.223 85.5974 123.576 86.8787 125.863C91.6111 125.37 96.1613 123.771 100.163 121.197C106.965 116.822 109.641 109.451 109.641 109.451C109.641 109.451 104.37 98.5733 101.198 95.8319C101.198 95.8319 103.167 93.7831 103.24 88.5774C103.312 83.3717 102.459 75.512 99.7909 75.1183C97.1225 74.7246 92.2011 86.0183 90.6554 86.988C89.1097 87.9577 81.1772 87.2067 79.2159 88.3149C77.2547 89.4231 71.3272 96.7651 71.2834 96.2474Z" fill="#FFC100"/>
<path d="M83.8676 77.0797C85.7413 76.7225 87.1922 86.1642 87.1922 86.1642C87.1922 86.1642 80.3169 86.7329 80.1419 86.7766C80.1419 86.7766 80.1492 77.8015 83.8676 77.0797Z" fill="#FFC100"/>
<path d="M78.9753 95.285C75.8038 96.0141 77.5901 98.8357 77.5901 98.8357L81.3595 97.2609L78.9753 95.285Z" fill="white"/>
<path d="M54.3722 149.192C53.5522 149.192 52.8095 148.981 52.1442 148.56C51.4835 148.133 50.9587 147.508 50.5697 146.683C50.1855 145.854 49.9934 144.837 49.9934 143.633C49.9934 142.396 50.1925 141.367 50.5908 140.547C50.9891 139.722 51.5186 139.106 52.1793 138.699C52.8447 138.286 53.5733 138.08 54.3652 138.08C54.9697 138.08 55.4734 138.183 55.8764 138.389C56.284 138.591 56.612 138.844 56.8604 139.148C57.1134 139.448 57.3055 139.743 57.4367 140.034H57.5281V134.622H60.5153V149.017H57.5632V147.288H57.4367C57.2962 147.587 57.097 147.885 56.8393 148.18C56.5863 148.471 56.2559 148.712 55.8483 148.904C55.4453 149.096 54.9533 149.192 54.3722 149.192ZM55.3211 146.81C55.8037 146.81 56.2114 146.678 56.5441 146.416C56.8815 146.149 57.1392 145.776 57.3172 145.298C57.5 144.821 57.5914 144.261 57.5914 143.619C57.5914 142.977 57.5023 142.419 57.3243 141.946C57.1462 141.473 56.8885 141.107 56.5511 140.849C56.2137 140.592 55.8037 140.463 55.3211 140.463C54.8291 140.463 54.4144 140.596 54.077 140.863C53.7397 141.13 53.4843 141.501 53.3109 141.974C53.1375 142.447 53.0509 142.995 53.0509 143.619C53.0509 144.246 53.1375 144.802 53.3109 145.284C53.489 145.762 53.7443 146.137 54.077 146.409C54.4144 146.676 54.8291 146.81 55.3211 146.81ZM67.8549 149.227C66.7631 149.227 65.819 148.996 65.0224 148.532C64.2305 148.063 63.619 147.412 63.1879 146.578C62.7568 145.739 62.5413 144.767 62.5413 143.661C62.5413 142.546 62.7568 141.571 63.1879 140.737C63.619 139.898 64.2305 139.247 65.0224 138.783C65.819 138.314 66.7631 138.08 67.8549 138.08C68.9467 138.08 69.8886 138.314 70.6804 138.783C71.477 139.247 72.0909 139.898 72.5219 140.737C72.953 141.571 73.1686 142.546 73.1686 143.661C73.1686 144.767 72.953 145.739 72.5219 146.578C72.0909 147.412 71.477 148.063 70.6804 148.532C69.8886 148.996 68.9467 149.227 67.8549 149.227ZM67.869 146.908C68.3657 146.908 68.7804 146.767 69.1131 146.486C69.4457 146.2 69.6964 145.812 69.8651 145.32C70.0385 144.828 70.1252 144.268 70.1252 143.64C70.1252 143.012 70.0385 142.452 69.8651 141.96C69.6964 141.468 69.4457 141.079 69.1131 140.793C68.7804 140.507 68.3657 140.364 67.869 140.364C67.3676 140.364 66.9459 140.507 66.6038 140.793C66.2665 141.079 66.0111 141.468 65.8377 141.96C65.669 142.452 65.5847 143.012 65.5847 143.64C65.5847 144.268 65.669 144.828 65.8377 145.32C66.0111 145.812 66.2665 146.2 66.6038 146.486C66.9459 146.767 67.3676 146.908 67.869 146.908ZM79.9793 153.29C79.0094 153.29 78.1777 153.156 77.4842 152.889C76.7954 152.627 76.2471 152.269 75.8395 151.814C75.4318 151.359 75.1671 150.849 75.0452 150.282L77.8145 149.909C77.8989 150.125 78.0324 150.326 78.2151 150.514C78.3979 150.701 78.6392 150.851 78.9391 150.964C79.2437 151.081 79.6138 151.139 80.0496 151.139C80.7009 151.139 81.2375 150.98 81.6592 150.661C82.0856 150.347 82.2988 149.82 82.2988 149.08V147.105H82.1723C82.0411 147.405 81.8443 147.688 81.5819 147.955C81.3195 148.222 80.9821 148.44 80.5697 148.609C80.1574 148.778 79.6654 148.862 79.0937 148.862C78.2831 148.862 77.5451 148.675 76.8797 148.3C76.219 147.92 75.6919 147.341 75.2983 146.564C74.9093 145.781 74.7149 144.792 74.7149 143.598C74.7149 142.375 74.914 141.353 75.3123 140.533C75.7106 139.713 76.2401 139.099 76.9008 138.692C77.5662 138.284 78.2948 138.08 79.0867 138.08C79.6912 138.08 80.1972 138.183 80.6049 138.389C81.0125 138.591 81.3406 138.844 81.5889 139.148C81.8419 139.448 82.0364 139.743 82.1723 140.034H82.2847V138.221H85.2578V149.122C85.2578 150.04 85.0329 150.809 84.5831 151.427C84.1333 152.046 83.5101 152.51 82.7135 152.819C81.9216 153.133 81.0102 153.29 79.9793 153.29ZM80.0426 146.613C80.5252 146.613 80.9329 146.493 81.2656 146.254C81.603 146.011 81.8607 145.664 82.0387 145.214C82.2215 144.76 82.3128 144.216 82.3128 143.583C82.3128 142.951 82.2238 142.403 82.0458 141.939C81.8677 141.47 81.61 141.107 81.2726 140.849C80.9352 140.592 80.5252 140.463 80.0426 140.463C79.5506 140.463 79.1359 140.596 78.7985 140.863C78.4612 141.126 78.2058 141.491 78.0324 141.96C77.859 142.428 77.7723 142.97 77.7723 143.583C77.7723 144.207 77.859 144.746 78.0324 145.2C78.2105 145.65 78.4658 145.999 78.7985 146.247C79.1359 146.491 79.5506 146.613 80.0426 146.613ZM56.2708 162.111V164.383H49.54V162.111H56.2708ZM51.0807 173.017V161.323C51.0807 160.532 51.2345 159.877 51.5422 159.356C51.8546 158.836 52.2806 158.445 52.8202 158.185C53.3598 157.924 53.9727 157.794 54.6591 157.794C55.1229 157.794 55.5466 157.83 55.93 157.901C56.3181 157.972 56.6068 158.036 56.7962 158.092L56.2566 160.364C56.1382 160.327 55.9915 160.291 55.8164 160.258C55.646 160.225 55.4708 160.208 55.291 160.208C54.846 160.208 54.536 160.312 54.3609 160.521C54.1857 160.724 54.0982 161.011 54.0982 161.38V173.017H51.0807ZM62.6554 173.23C61.5526 173.23 60.5988 172.995 59.7941 172.527C58.9942 172.053 58.3765 171.395 57.941 170.553C57.5056 169.706 57.2878 168.723 57.2878 167.606C57.2878 166.48 57.5056 165.495 57.941 164.653C58.3765 163.806 58.9942 163.148 59.7941 162.679C60.5988 162.206 61.5526 161.969 62.6554 161.969C63.7583 161.969 64.7097 162.206 65.5096 162.679C66.3143 163.148 66.9344 163.806 67.3698 164.653C67.8053 165.495 68.023 166.48 68.023 167.606C68.023 168.723 67.8053 169.706 67.3698 170.553C66.9344 171.395 66.3143 172.053 65.5096 172.527C64.7097 172.995 63.7583 173.23 62.6554 173.23ZM62.6696 170.887C63.1714 170.887 63.5903 170.745 63.9263 170.461C64.2624 170.172 64.5156 169.779 64.686 169.282C64.8612 168.785 64.9487 168.219 64.9487 167.585C64.9487 166.951 64.8612 166.385 64.686 165.888C64.5156 165.391 64.2624 164.998 63.9263 164.71C63.5903 164.421 63.1714 164.277 62.6696 164.277C62.1632 164.277 61.7372 164.421 61.3916 164.71C61.0508 164.998 60.7929 165.391 60.6177 165.888C60.4473 166.385 60.3621 166.951 60.3621 167.585C60.3621 168.219 60.4473 168.785 60.6177 169.282C60.7929 169.779 61.0508 170.172 61.3916 170.461C61.7372 170.745 62.1632 170.887 62.6696 170.887ZM74.9171 173.23C73.8143 173.23 72.8605 172.995 72.0558 172.527C71.2559 172.053 70.6382 171.395 70.2027 170.553C69.7673 169.706 69.5495 168.723 69.5495 167.606C69.5495 166.48 69.7673 165.495 70.2027 164.653C70.6382 163.806 71.2559 163.148 72.0558 162.679C72.8605 162.206 73.8143 161.969 74.9171 161.969C76.02 161.969 76.9714 162.206 77.7713 162.679C78.576 163.148 79.1961 163.806 79.6315 164.653C80.067 165.495 80.2847 166.48 80.2847 167.606C80.2847 168.723 80.067 169.706 79.6315 170.553C79.1961 171.395 78.576 172.053 77.7713 172.527C76.9714 172.995 76.02 173.23 74.9171 173.23ZM74.9313 170.887C75.4331 170.887 75.852 170.745 76.188 170.461C76.5241 170.172 76.7773 169.779 76.9477 169.282C77.1229 168.785 77.2104 168.219 77.2104 167.585C77.2104 166.951 77.1229 166.385 76.9477 165.888C76.7773 165.391 76.5241 164.998 76.188 164.71C75.852 164.421 75.4331 164.277 74.9313 164.277C74.4249 164.277 73.9989 164.421 73.6533 164.71C73.3125 164.998 73.0546 165.391 72.8794 165.888C72.709 166.385 72.6238 166.951 72.6238 167.585C72.6238 168.219 72.709 168.785 72.8794 169.282C73.0546 169.779 73.3125 170.172 73.6533 170.461C73.9989 170.745 74.4249 170.887 74.9313 170.887ZM86.27 173.194C85.4417 173.194 84.6915 172.981 84.0193 172.555C83.3519 172.124 82.8218 171.492 82.4289 170.659C82.0408 169.822 81.8467 168.794 81.8467 167.578C81.8467 166.328 82.0479 165.289 82.4502 164.461C82.8526 163.628 83.3874 163.006 84.0548 162.594C84.727 162.177 85.463 161.969 86.2629 161.969C86.8735 161.969 87.3824 162.073 87.7894 162.281C88.2012 162.485 88.5326 162.741 88.7834 163.048C89.039 163.351 89.2331 163.649 89.3656 163.943H89.4579V158.476H92.4754V173.017H89.4934V171.27H89.3656C89.2236 171.573 89.0225 171.874 88.7621 172.172C88.5065 172.465 88.1728 172.709 87.761 172.903C87.354 173.097 86.857 173.194 86.27 173.194ZM87.2285 170.787C87.7161 170.787 88.1279 170.655 88.4639 170.39C88.8047 170.12 89.0651 169.744 89.2449 169.261C89.4295 168.778 89.5218 168.212 89.5218 167.564C89.5218 166.915 89.4319 166.352 89.252 165.874C89.0722 165.396 88.8118 165.027 88.471 164.766C88.1302 164.506 87.7161 164.376 87.2285 164.376C86.7315 164.376 86.3126 164.511 85.9718 164.781C85.631 165.05 85.3731 165.424 85.1979 165.902C85.0228 166.38 84.9352 166.934 84.9352 167.564C84.9352 168.198 85.0228 168.759 85.1979 169.247C85.3778 169.729 85.6358 170.108 85.9718 170.383C86.3126 170.652 86.7315 170.787 87.2285 170.787Z" fill="white"/>
<path d="M49.6002 148.691H66.0777C66.3678 148.691 66.646 148.576 66.851 148.371C67.0561 148.166 67.1714 147.888 67.1714 147.598C67.1714 147.307 67.0561 147.029 66.851 146.824C66.646 146.619 66.3678 146.504 66.0777 146.504H49.6002C49.3102 146.504 49.032 146.619 48.8269 146.824C48.6218 147.029 48.5066 147.307 48.5066 147.598C48.5066 147.888 48.6218 148.166 48.8269 148.371C49.032 148.576 49.3102 148.691 49.6002 148.691Z" fill="white"/>
<path d="M79.5076 148.691H119.024C119.314 148.691 119.593 148.576 119.798 148.371C120.003 148.166 120.118 147.888 120.118 147.598C120.118 147.307 120.003 147.029 119.798 146.824C119.593 146.619 119.314 146.504 119.024 146.504H79.5076C79.2175 146.504 78.9394 146.619 78.7343 146.824C78.5292 147.029 78.4139 147.307 78.4139 147.598C78.4139 147.888 78.5292 148.166 78.7343 148.371C78.9394 148.576 79.2175 148.691 79.5076 148.691Z" fill="white"/>
<path d="M106.491 153.277H63.6862V157.411H106.491V153.277Z" fill="white"/>
<path d="M115.525 12.3945H111.34C110.156 12.3945 109.196 13.3542 109.196 14.5381V14.6474C109.196 15.8313 110.156 16.791 111.34 16.791H115.525C116.709 16.791 117.668 15.8313 117.668 14.6474V14.5381C117.668 13.3542 116.709 12.3945 115.525 12.3945Z" fill="white"/>
<path d="M14.7203 14.6182C47.6972 14.3922 84.7132 14.3922 117.661 14.6182C84.6841 14.8443 47.668 14.837 14.7203 14.6182Z" fill="black"/>
<path opacity="0.3" d="M0 184.949L16.8129 171.424L30.6073 185L0 184.949Z" fill="black"/>
<path opacity="0.2" d="M16.8129 171.424L14.5673 14.6183L0 64.4664V184.949L16.8129 171.424Z" fill="black"/>
<path d="M48.8201 95.3361C50.497 80.9365 60.1502 67.7836 74.2071 63.4018C78.1106 62.1905 82.2012 61.6965 86.2809 61.9436C87.6807 62.0311 87.6807 59.8438 86.2809 59.7563C78.5478 59.3518 70.8867 61.4203 64.4081 65.662C58.0456 69.8903 53.0482 75.8756 50.0231 82.8904C48.2915 86.8539 47.1611 91.0535 46.6693 95.3506C46.5016 96.7432 48.6888 96.7359 48.8565 95.3506L48.8201 95.3361Z" fill="white"/>
<path opacity="0.3" d="M30.6073 163.805C30.6073 163.805 40.4646 171.475 66.0777 178.212C81.5344 182.274 97.4058 184.552 113.381 185H30.6073V163.805Z" fill="white"/>
<path d="M122.415 31.3438H99.1128L96.8453 24.4539H120.147L122.415 31.3438Z" fill="white"/>
</svg>
