<svg width="16" height="16" viewBox="0 0 16 16" fill="none" xmlns="http://www.w3.org/2000/svg">
<path d="M14.67 9.41622L15.9831 2.91622C16.0779 2.44691 15.7609 2 15.3331 2H4.42245L4.16783 0.599688C4.10439 0.250656 3.83139 0 3.5147 0H0.666667C0.298472 0 0 0.335781 0 0.75V1.25C0 1.66422 0.298472 2 0.666667 2H2.60786L4.5592 12.7323C4.09236 13.0344 3.77778 13.6007 3.77778 14.25C3.77778 15.2165 4.47422 16 5.33333 16C6.19245 16 6.88889 15.2165 6.88889 14.25C6.88889 13.7602 6.70981 13.3177 6.42156 13H12.2451C11.9569 13.3177 11.7778 13.7602 11.7778 14.25C11.7778 15.2165 12.4742 16 13.3333 16C14.1924 16 14.8889 15.2165 14.8889 14.25C14.8889 13.5571 14.5309 12.9584 14.0117 12.6748L14.1649 11.9162C14.2598 11.4469 13.9427 11 13.5149 11H6.05881L5.877 10H14.0199C14.3312 10 14.601 9.75769 14.67 9.41622Z" fill="black"/>
</svg>
