<svg width="10" height="17" viewBox="0 0 10 17" fill="none" xmlns="http://www.w3.org/2000/svg">
<path d="M7.26418 7.74961L3.51338 6.70039C3.07926 6.58086 2.77711 6.19238 2.77711 5.76074C2.77711 5.21953 3.23554 4.78125 3.80164 4.78125H6.10421C6.52792 4.78125 6.94467 4.9041 7.29197 5.12988C7.50382 5.26602 7.7886 5.23281 7.9692 5.06348L9.17779 3.93457C9.42437 3.70547 9.38964 3.32363 9.11528 3.12109C8.2644 2.48359 7.20167 2.12832 6.11116 2.125V0.53125C6.11116 0.239062 5.8611 0 5.55548 0H4.44413C4.13851 0 3.88846 0.239062 3.88846 0.53125V2.125H3.80164C1.58935 2.125 -0.188806 3.94121 0.0160996 6.09609C0.161964 7.62676 1.38445 8.87188 2.92645 9.30352L6.48624 10.2996C6.92036 10.4225 7.22251 10.8076 7.22251 11.2393C7.22251 11.7805 6.76408 12.2188 6.19798 12.2188H3.89541C3.4717 12.2188 3.05495 12.0959 2.70765 11.8701C2.4958 11.734 2.21102 11.7672 2.03042 11.9365L0.821828 13.0654C0.575247 13.2945 0.609977 13.6764 0.884342 13.8789C1.73522 14.5164 2.79795 14.8717 3.88846 14.875V16.4688C3.88846 16.7609 4.13851 17 4.44413 17H5.55548C5.8611 17 6.11116 16.7609 6.11116 16.4688V14.8684C7.72956 14.8385 9.24725 13.9188 9.78209 12.4545C10.5288 10.4092 9.27503 8.31074 7.26418 7.74961Z" fill="#FF0000"/>
</svg>
