<svg width="30" height="21" viewBox="0 0 30 21" fill="none" xmlns="http://www.w3.org/2000/svg">
<path d="M29.6332 10.0379C26.8381 4.5366 21.3047 0.814453 14.9688 0.814453C8.63283 0.814453 3.09785 4.5392 0.304334 10.0384C0.18643 10.2737 0.125 10.5336 0.125 10.7973C0.125 11.0609 0.18643 11.3208 0.304334 11.5561C3.0994 17.0574 8.63283 20.7796 14.9688 20.7796C21.3047 20.7796 26.8397 17.0548 29.6332 11.5556C29.7511 11.3203 29.8125 11.0604 29.8125 10.7968C29.8125 10.5331 29.7511 10.2732 29.6332 10.0379ZM14.9688 18.2839C13.5008 18.2839 12.0659 17.8448 10.8454 17.0222C9.62485 16.1995 8.67356 15.0302 8.11182 13.6621C7.55007 12.2941 7.4031 10.7887 7.68947 9.33639C7.97585 7.88407 8.68271 6.55003 9.72068 5.50296C10.7587 4.4559 12.0811 3.74284 13.5208 3.45395C14.9605 3.16507 16.4528 3.31333 17.809 3.88C19.1652 4.44667 20.3243 5.40628 21.1398 6.6375C21.9554 7.86872 22.3906 9.31624 22.3906 10.797C22.3911 11.7803 22.1995 12.7541 21.8266 13.6627C21.4538 14.5713 20.9072 15.3968 20.2179 16.0921C19.5286 16.7875 18.7102 17.3389 17.8095 17.715C16.9089 18.0911 15.9435 18.2844 14.9688 18.2839ZM14.9688 5.80573C14.5271 5.81196 14.0883 5.87824 13.6643 6.00278C14.0138 6.48199 14.1816 7.07169 14.1371 7.66496C14.0926 8.25822 13.8388 8.81576 13.4218 9.23646C13.0047 9.65716 12.452 9.91316 11.8639 9.95804C11.2758 10.0029 10.6912 9.83371 10.2162 9.48108C9.94566 10.4864 9.99449 11.552 10.3558 12.5278C10.7171 13.5037 11.3726 14.3407 12.2302 14.921C13.0877 15.5014 14.1041 15.7958 15.1362 15.7629C16.1684 15.73 17.1643 15.3715 17.9838 14.7377C18.8034 14.1039 19.4052 13.2268 19.7048 12.2299C20.0043 11.233 19.9863 10.1664 19.6535 9.18034C19.3206 8.19425 18.6896 7.33828 17.8492 6.73292C17.0088 6.12756 16.0014 5.80328 14.9688 5.80573Z" fill="black"/>
</svg>
