<svg width="20" height="16" viewBox="0 0 20 16" fill="none" xmlns="http://www.w3.org/2000/svg">
<path d="M9.74865 6.98486L3.10803 0.344238C2.64904 -0.114746 1.90686 -0.114746 1.45275 0.344238L0.349239 1.44775C-0.109745 1.90674 -0.109745 2.64893 0.349239 3.10303L5.05139 7.81494L0.344358 12.522C-0.114626 12.981 -0.114626 13.7231 0.344358 14.1772L1.44787 15.2856C1.90686 15.7446 2.64905 15.7446 3.10315 15.2856L9.74377 8.64502C10.2076 8.18604 10.2076 7.44385 9.74865 6.98486ZM19.1237 8.64502L12.483 15.2856C12.024 15.7446 11.2819 15.7446 10.8278 15.2856L9.72424 14.1821C9.26526 13.7231 9.26526 12.981 9.72424 12.5269L14.4264 7.81494L9.71936 3.10791C9.26037 2.64893 9.26037 1.90674 9.71936 1.45264L10.8229 0.344238C11.2819 -0.114746 12.024 -0.114746 12.4781 0.344238L19.1188 6.98486C19.5826 7.44385 19.5826 8.18604 19.1237 8.64502Z" fill="black"/>
</svg>
