<svg xmlns="http://www.w3.org/2000/svg" width="223" height="264" fill="none"><path fill="#FFB8B8" d="M107.018 128.76a7.52 7.52 0 0 0-.235-3.243 7.503 7.503 0 0 0-7.416-5.347L51.323 71.593 41.83 84.861l50.211 43.578a7.543 7.543 0 0 0 14.976.321Z"/><path fill="#6C63FF" d="m84.26 100.71-12.264 12.249a3.151 3.151 0 0 1-4.423.018L34.064 80.033a12.294 12.294 0 0 1-.058-17.471 12.29 12.29 0 0 1 17.471.12l32.81 33.61a3.153 3.153 0 0 1-.028 4.418Z"/><path fill="#FFB8B8" d="M41.253 40.584c9.472 0 17.15-7.678 17.15-17.15 0-9.472-7.678-17.15-17.15-17.15-9.472 0-17.15 7.678-17.15 17.15 0 9.472 7.678 17.15 17.15 17.15ZM3.618 255.532h8.56l4.073-33.02-12.635.001.002 33.019ZM31.618 255.532h8.56l4.073-33.02-12.635.001.002 33.019Z"/><path fill="#2F2E41" d="M1.434 252.737h16.86a10.743 10.743 0 0 1 10.744 10.744v.349l-27.603.001v-11.094ZM29.434 252.737h16.86a10.743 10.743 0 0 1 10.744 10.744v.349l-27.603.001v-11.094ZM4.798 249c-.793-.004-1.555-.751-2.126-2.084-.57-1.334-.905-3.151-.933-5.069L.043 126.675l21-2.675 6.5 28-2.5 29.5L19.37 240c-.025 1.838-.332 3.587-.861 4.908-.53 1.32-1.243 2.116-2.002 2.233l-11.501 1.843c-.07.011-.14.016-.209.016ZM32.798 249c-.793-.004-1.556-.751-2.126-2.084-.57-1.334-.905-3.151-.933-5.069l-1.696-115.172 21-2.675 6.5 28-2.5 29.5L47.37 240c-.025 1.838-.332 3.587-.861 4.908-.53 1.32-1.243 2.116-2.002 2.233l-11.501 1.843c-.07.011-.14.016-.209.016Z"/><path fill="#6C63FF" d="M56.662 149.333c-5.474 0-24.591-6.156-31.228-8.351-.993.795-6.447 4.873-12.814 4.128-3.929-.461-7.387-2.685-10.28-6.61-6.387-8.668 1.502-45.843 9.245-75.502a23.928 23.928 0 0 1 28.3-17.373 24.14 24.14 0 0 1 18.217 17.72c1.457 5.935.203 12.915-.712 18.012-.43 2.397-.77 4.29-.654 5.22.449 3.595 2.945 59.976 1.34 62.384-.17.256-.665.372-1.414.372Z"/><path fill="#FFB8B8" d="M36.639 149.433a7.501 7.501 0 0 0 .657-11.484l.34-68.322-16.092 2.68 4.726 66.315a7.542 7.542 0 0 0 10.369 10.811Z"/><path fill="#6C63FF" d="M40.36 113.504H23.029a3.153 3.153 0 0 1-3.142-3.114l-.426-46.988a12.291 12.291 0 1 1 24.582.03l-.54 46.966a3.152 3.152 0 0 1-3.142 3.106Z"/><path fill="#2F2E41" d="M36.886 40.513c-7.853.014-15.26-6.192-16.622-13.926a20.02 20.02 0 0 1 .642-9.087A24.408 24.408 0 0 1 54.38 2.17c2.1.951 4.17 2.317 5.131 4.412.962 2.096.36 5.024-1.744 5.967-1.375.616-3.1.314-4.32 1.198-1.753 1.27-1.302 3.974-.52 5.992.783 2.018 1.668 4.46.357 6.182-1.223 1.604-3.666 1.554-5.59.95-1.924-.603-3.823-1.615-5.83-1.409-2.925.3-5.028 3.21-5.417 6.126-.39 2.916.527 5.83 1.431 8.629l-.992.296Z"/><path fill="#CCC" d="M101.404 128.362c11.141-2.518 23.763 6.196 24.154 17.895.11 3.291-.854 6.747-3.386 8.985-2.091 1.849-5.201 2.781-7.904 1.877-5.2-1.738-5.478-8.984-2.688-12.855 3.777-5.24 11.26-6.135 17.198-5.512 7.259.762 14.159 3.945 19.949 8.308 11.59 8.734 18.97 22.12 24.944 35.053a176.78 176.78 0 0 1 14.165 47.029 1.052 1.052 0 0 0 1.298.713c.263-.083.484-.265.616-.507a1.07 1.07 0 0 0 .097-.792 179.041 179.041 0 0 0-13.431-45.431c-6.255-14.016-14.14-28.555-26.684-37.909-6.254-4.662-13.638-7.907-21.453-8.601-6.579-.584-14.37.808-18.461 6.529-3.227 4.515-2.9 12.017 2.095 15.161 2.745 1.728 6.234 1.526 9.085.182a11.63 11.63 0 0 0 6.135-7.605c1.773-6.498-.92-13.525-5.536-18.17a23.266 23.266 0 0 0-16.376-6.886 20.579 20.579 0 0 0-4.402.525c-1.316.297-.728 2.308.585 2.011Z"/><path fill="#6C63FF" d="m136.668 252.51 6.663-11.969 8.644 4.812-6.662 11.969a4.95 4.95 0 0 1-9.081-1.051 4.949 4.949 0 0 1 .436-3.761ZM132.241 232.459a6.089 6.089 0 1 0 0-12.178 6.089 6.089 0 0 0 0 12.178ZM170.213 254.374l6.063-12.284 8.872 4.379-6.063 12.284a4.947 4.947 0 0 1-8.872-4.379Z"/><path fill="#3F3D56" d="M133.398 238.636a12.952 12.952 0 0 1 12.937-12.937h40.955a5.472 5.472 0 0 1 5.469 5.468v4.66a15.768 15.768 0 0 1-15.747 15.747h-30.677a12.95 12.95 0 0 1-12.937-12.938Z"/><path fill="#3F3D56" d="m147.554 256.963-4.041-13.089 9.453-2.918 4.041 13.089a4.944 4.944 0 0 1-3.268 6.185 4.944 4.944 0 0 1-6.185-3.267ZM181.607 258.483l-6.298-12.165 8.786-4.548 6.298 12.165a4.96 4.96 0 0 1 .325 3.775 4.953 4.953 0 0 1-2.441 2.897 4.948 4.948 0 0 1-6.67-2.124Z"/><path fill="#6C63FF" d="M211.803 204.355a6.09 6.09 0 0 1 8.551-.925 6.088 6.088 0 0 1 .942 8.55l-10.007 12.461-9.494-7.625 10.008-12.461Z"/><path fill="#3F3D56" d="m187.696 228.902 8.017-9.983a11.741 11.741 0 0 1 16.485-1.799l2.505 2.011a14 14 0 0 1 2.146 19.655l-6.606 8.225a4.397 4.397 0 0 1-6.171.673l-15.702-12.61a4.394 4.394 0 0 1-.674-6.172Z"/><path fill="#3F3D56" d="M212.994 202.872a4.19 4.19 0 0 1 5.885-.642 4.185 4.185 0 0 1 .642 5.884l-11.199 13.944-6.527-5.242 11.199-13.944ZM196.951 226.18 214.158 240a6.085 6.085 0 0 1-3.156 10.788 6.087 6.087 0 0 1-4.469-1.295l-17.207-13.82 7.625-9.493Z"/></svg>