<svg xmlns="http://www.w3.org/2000/svg" width="248" height="264" fill="none"><path fill="#FFB8B8" d="M131.975 128.76a7.505 7.505 0 0 0-1.82-6.081 7.498 7.498 0 0 0-5.831-2.509L76.28 71.593l-9.491 13.268 50.21 43.578a7.547 7.547 0 0 0 7.346 6.812 7.545 7.545 0 0 0 7.63-6.491Z"/><path fill="#6C63FF" d="m109.216 100.71-12.262 12.249a3.151 3.151 0 0 1-4.424.018L59.022 80.033a12.294 12.294 0 0 1-.059-17.471 12.29 12.29 0 0 1 17.472.12l32.809 33.61a3.151 3.151 0 0 1-.028 4.418Z"/><path fill="#FFB8B8" d="M66.21 40.584c9.472 0 17.15-7.678 17.15-17.15 0-9.472-7.678-17.15-17.15-17.15-9.472 0-17.15 7.678-17.15 17.15 0 9.472 7.678 17.15 17.15 17.15ZM8.259 228.954l4.343 7.378 30.523-13.239-6.41-10.889-28.456 16.75Z"/><path fill="#2F2E41" d="m9.56 225.655 8.552 14.529a10.75 10.75 0 0 1 1.142 8.144 10.739 10.739 0 0 1-4.951 6.566l-.3.177L0 231.283l9.56-5.628Z"/><path fill="#FFB8B8" d="M58.575 255.532h8.56l4.073-33.02-12.634.001v33.019Z"/><path fill="#2F2E41" d="M56.391 252.737h16.86a10.743 10.743 0 0 1 10.744 10.744v.349l-27.603.001v-11.094ZM24.158 235.527a3.134 3.134 0 0 1-2.53-1.28l-8.257-11.213a3.142 3.142 0 0 1 .785-4.476l36.74-24.539-22.169-58.289 47.406 3.913 1.597 50.089a25.172 25.172 0 0 1-12.601 22.641l-39.401 22.732a3.136 3.136 0 0 1-1.57.422Z"/><path fill="#2F2E41" d="M58.833 248.829a3.145 3.145 0 0 1-3.134-3.031l-1.738-48.796 21.513-1.134-1.713 49.148a3.133 3.133 0 0 1-2.932 3.025l-11.782.781a3.06 3.06 0 0 1-.214.007Z"/><path fill="#6C63FF" d="M81.62 149.333c-5.474 0-24.592-6.156-31.229-8.351-.992.795-6.447 4.873-12.814 4.128-3.928-.461-7.387-2.685-10.28-6.61-6.386-8.668 1.503-45.843 9.245-75.502a23.929 23.929 0 0 1 28.3-17.373 24.14 24.14 0 0 1 18.217 17.72c1.458 5.935.204 12.915-.712 18.012-.43 2.397-.77 4.29-.654 5.22.45 3.595 2.946 59.976 1.34 62.384-.17.256-.665.372-1.414.372Z"/><path fill="#FFB8B8" d="M61.596 149.433a7.5 7.5 0 0 0 .658-11.484l.339-68.322-16.092 2.68 4.727 66.315a7.542 7.542 0 0 0 10.368 10.811Z"/><path fill="#6C63FF" d="M65.318 113.504H47.985a3.153 3.153 0 0 1-3.142-3.114l-.426-46.988a12.291 12.291 0 1 1 24.583.03l-.54 46.966a3.153 3.153 0 0 1-3.142 3.106Z"/><path fill="#2F2E41" d="M61.843 40.513c-7.852.014-15.26-6.192-16.621-13.926a20.02 20.02 0 0 1 .642-9.087A24.406 24.406 0 0 1 79.336 2.17c2.1.951 4.17 2.317 5.132 4.412.961 2.096.36 5.024-1.745 5.967-1.375.616-3.1.314-4.32 1.198-1.752 1.27-1.301 3.974-.519 5.992.783 2.018 1.668 4.46.356 6.182-1.222 1.604-3.665 1.554-5.59.95-1.924-.603-3.823-1.615-5.829-1.409-2.926.3-5.029 3.21-5.418 6.126-.39 2.916.527 5.83 1.432 8.629l-.992.296Z"/><path fill="#CCC" d="M126.362 128.362c11.141-2.518 23.762 6.196 24.154 17.895.11 3.291-.855 6.747-3.387 8.985-2.09 1.849-5.201 2.781-7.903 1.877-5.201-1.738-5.478-8.984-2.689-12.855 3.778-5.24 11.261-6.135 17.198-5.512 7.26.762 14.159 3.945 19.949 8.308 11.59 8.734 18.971 22.12 24.944 35.053a176.688 176.688 0 0 1 14.165 47.029 1.052 1.052 0 0 0 1.299.713 1.075 1.075 0 0 0 .713-1.299 179.082 179.082 0 0 0-13.431-45.431c-6.255-14.016-14.141-28.555-26.685-37.909-6.253-4.662-13.638-7.907-21.453-8.601-6.579-.584-14.369.808-18.46 6.529-3.228 4.515-2.9 12.017 2.094 15.161 2.746 1.728 6.234 1.526 9.085.182a11.636 11.636 0 0 0 6.135-7.605c1.774-6.498-.919-13.525-5.536-18.17a23.266 23.266 0 0 0-16.376-6.886 20.579 20.579 0 0 0-4.402.525c-1.315.297-.727 2.308.586 2.011Z"/><path fill="#6C63FF" d="m180.09 257.029-6.924-11.821 8.537-5 6.924 11.82a4.947 4.947 0 0 1-8.537 5.001ZM157.199 232.459a6.089 6.089 0 1 0-.001-12.177 6.089 6.089 0 0 0 .001 12.177ZM206.877 257.029l-6.923-11.821 8.536-5 6.924 11.82a4.95 4.95 0 0 1-1.771 6.764 4.944 4.944 0 0 1-6.766-1.763Z"/><path fill="#3F3D56" d="M158.355 238.636a12.952 12.952 0 0 1 12.938-12.937h40.955a5.471 5.471 0 0 1 5.468 5.468v4.66a15.767 15.767 0 0 1-15.747 15.747h-30.676a12.95 12.95 0 0 1-12.938-12.938Z"/><path fill="#3F3D56" d="M167.8 258.553v-13.699h9.893v13.699a4.946 4.946 0 1 1-9.893 0ZM196.508 258.553v-13.699h9.893v13.699a4.95 4.95 0 0 1-6.841 4.576 4.95 4.95 0 0 1-3.052-4.576Z"/><path fill="#6C63FF" d="M236.76 204.355a6.09 6.09 0 0 1 8.552-.925 6.09 6.09 0 0 1 .942 8.55l-10.008 12.461-9.494-7.625 10.008-12.461Z"/><path fill="#3F3D56" d="m212.653 228.902 8.018-9.983a11.737 11.737 0 0 1 16.484-1.799l2.505 2.011a13.996 13.996 0 0 1 2.146 19.655l-6.605 8.225a4.395 4.395 0 0 1-6.172.673l-15.702-12.61a4.394 4.394 0 0 1-.674-6.172Z"/><path fill="#3F3D56" d="M237.951 202.872a4.202 4.202 0 0 1 2.81-1.54 4.193 4.193 0 0 1 3.075.898 4.185 4.185 0 0 1 .642 5.884l-11.199 13.944-6.527-5.242 11.199-13.944ZM221.908 226.18 239.115 240a6.084 6.084 0 0 1 .923 8.549 6.089 6.089 0 0 1-8.547.944l-17.208-13.82 7.625-9.493Z"/></svg>