<svg xmlns="http://www.w3.org/2000/svg" width="332" height="390" fill="none"><path fill="#FF725E" d="m321.229 341.757-33.118-85.974-7.143 20.395-59.987-130.5-30.91-64.286-56.497-24.671-64.24 22.744S53.11 122.934 51.16 133.331c-1.95 10.397 5.193 44.808 5.193 44.808l18.174 43.468 11.549 62.572s-4.406 34.175-3.783 51.692c.623 17.517 8.846 53.76 8.846 53.76h240.475l-10.385-47.874Z"/><path fill="#fff" d="M242.128 366.099c.352-34.258-6.967-59.798-16.553-85.339a9.964 9.964 0 0 0-6.568-5.733c-5.416-1.504-10.138 3.618-13.816 7.848-3.677 4.229-9.974 8.317-14.403 4.875-4.922-3.83-1.316-11.619 2.526-16.541 7.425-9.493 14.897-19.197 19.279-30.428 4.382-11.232 8.834-24.378 3.266-35.069-11.878 15.555-28.995 29.101-57.896 38.241-24.542 7.93-52.632 5.944-73.508 0 15.272 8.705 29.441 21.558 42.293 33.541 4.982 4.699 10.163 11.36 7.507 17.622-1.985 4.7-7.577 6.732-12.652 7.272-5.076.541-10.409.188-15.062 2.35-8.165 3.713-11.419 13.781-11.36 22.756.106 20.677 7.342 47.405 22.509 62.266h123.616c1.468-7.66.728-18.856.822-23.661Z" opacity=".5"/><path fill="#263238" d="M214.578 216.732s-.152.117-.481.294l-1.422.728c-.623.306-1.386.693-2.244 1.175-.857.482-1.868.987-2.925 1.633-2.15 1.245-4.629 2.855-7.296 4.781a82.944 82.944 0 0 0-15.414 14.674 86.272 86.272 0 0 0-5.134 7.049c-.704 1.022-1.257 2.009-1.774 2.843a55.462 55.462 0 0 0-1.28 2.185l-.799 1.386c-.188.318-.294.482-.317.47.051-.179.122-.353.211-.517l.693-1.456a45.68 45.68 0 0 1 1.175-2.244c.482-.858 1.022-1.856 1.704-2.902a76.5 76.5 0 0 1 5.063-7.166 84.514 84.514 0 0 1 7.249-7.931 85.848 85.848 0 0 1 8.224-6.849 74.83 74.83 0 0 1 7.413-4.699c1.069-.634 2.091-1.116 2.972-1.563a28.88 28.88 0 0 1 2.35-1.08l1.48-.623c.177-.083.362-.146.552-.188Z"/><path fill="#FF725E" d="M236.548 130.453a69.67 69.67 0 0 0-34.552-39.463s-4.347-6.543-18.21-19.455c-13.863-12.911-39.263-21.84-57.872-23.625-.74-.07-1.492-.118-2.267-.141-18.668-.482-46.876 13.158-46.876 13.158-17.94 4.97-41.342 38.863-45.818 52.232-4.476 13.37-1.656 38.405-1.656 38.405s-9.728 22.181-3.63 43.81c10.773 38.099 76.563 68.656 140.908 44.091 64.345-24.566 79.559-80.476 69.973-109.012Z"/><path fill="#fff" d="M166.082 241.321c25.117-9.399 50.916-31.121 61.831-51.152 3.877-14.673 8.223-31.215 8.223-31.215l-18.151-56.897a72.003 72.003 0 0 0-8.13-6.485c-6.273.975-12.135 5.357-15.801 10.75-4.852 7.143-6.837 15.766-9.34 24.025-2.502 8.259-5.874 16.73-12.582 22.169-7.19 5.874-19.15 4.488-28.384 3.712.893 8.436 3.842 19.561 4.699 27.997l-17.14 5.204a83.402 83.402 0 0 1-12.806-25.846c-3.607 4.312-7.249 8.658-11.748 11.971-4.5 3.313-10.115 5.522-15.696 4.958-7.812-.787-14.004-6.649-20.876-10.479a43.186 43.186 0 0 0-33.213-3.525 42.773 42.773 0 0 0-13.452 6.873 90.172 90.172 0 0 0 2.127 21.993c4.241 20.618 26.586 38.875 52.515 46.758 23.907 7.272 56.873 10.749 87.924-.811Z" opacity=".5"/><path fill="#263238" d="M147.743 179.549a35.17 35.17 0 0 0-12.924 2.631 19.501 19.501 0 0 0-9.668 8.718 9.397 9.397 0 0 0-1.058 6.238c.94 4.077 5.287 6.227 9.141 7.836 3.853 1.61 8.341 3.348 12.547 2.291 3.16-.787 5.745-3.031 7.977-5.404 3.007-3.196 5.745-7.049 5.944-11.419.2-4.371-1.844-10.973-11.959-10.891Z"/><path fill="#263238" d="M146.333 204.208c.284.607.519 1.236.705 1.88a32.684 32.684 0 0 1 1.374 5.334 14.814 14.814 0 0 1-.775 8.118 9.507 9.507 0 0 1-2.937 3.912 11.584 11.584 0 0 1-4.794 2.126 23.494 23.494 0 0 1-9.997-.293 25.177 25.177 0 0 1-7.519-3.208 22.78 22.78 0 0 1-4.277-3.524 13.93 13.93 0 0 1-.987-1.116 1.766 1.766 0 0 1-.305-.423 33.37 33.37 0 0 0 5.804 4.699 25.675 25.675 0 0 0 7.413 3.02 23.51 23.51 0 0 0 9.739.246c1.649-.318 3.206-1 4.558-1.997a9.135 9.135 0 0 0 2.785-3.665 14.719 14.719 0 0 0 .857-7.836 40.293 40.293 0 0 0-1.174-5.322 12.685 12.685 0 0 1-.47-1.951Z"/><path fill="#263238" d="M147.531 208.708c0-.118.67.258 1.692.975a49.962 49.962 0 0 0 4.429 2.867 16.916 16.916 0 0 0 7.401 2.079 13.43 13.43 0 0 0 8.917-2.42 16.927 16.927 0 0 0 5.51-7.554 29.777 29.777 0 0 0 1.715-7.59c.235-2.22.306-4.029.376-5.275.003-.653.054-1.304.153-1.95.085.647.112 1.299.082 1.95 0 1.257 0 3.078-.176 5.322a29.172 29.172 0 0 1-1.621 7.754 17.165 17.165 0 0 1-5.675 7.836 13.92 13.92 0 0 1-9.363 2.503 16.874 16.874 0 0 1-7.578-2.268 39.303 39.303 0 0 1-4.37-3.054c-.468-.428-.967-.82-1.492-1.175ZM99.257 149.943a10.578 10.578 0 0 0-7.812-3.771 7.273 7.273 0 0 0-5.028 1.985 9.99 9.99 0 0 0-4.7 9.105 10.093 10.093 0 0 0 7.566 8.8 10.247 10.247 0 0 0 10.738-4.5 10.373 10.373 0 0 0-.764-11.619ZM169.911 132.544a9.497 9.497 0 0 0-7.507-3.36c-1.885.05-3.723.593-5.333 1.574a9.949 9.949 0 0 0-4.7 9.105 10.074 10.074 0 0 0 7.566 8.788 10.23 10.23 0 0 0 10.726-4.488 10.372 10.372 0 0 0-.752-11.619Z"/><path fill="#fff" d="m91.14 103.725-2.35-1.174c-7.907-2.244-16.025 5.592-20.795 11.748a11.113 11.113 0 0 0-2.749 6.356c0 3.172 2.35 5.874 5.076 7.542 5.474 3.207 12.417 2.855 18.444.858 2.503-.834 5.064-2.056 6.462-4.3a10.775 10.775 0 0 0 1.304-5.78 25.016 25.016 0 0 0-5.393-15.25ZM144.853 89.498l2.349-1.174c7.907-2.244 16.025 5.592 20.795 11.818a10.907 10.907 0 0 1 2.749 6.344c0 3.184-2.35 5.945-5.076 7.543-5.463 3.219-12.417 2.866-18.433.857-2.514-.834-5.075-2.056-6.473-4.288a10.681 10.681 0 0 1-1.292-5.792 24.924 24.924 0 0 1 5.381-15.308Z" opacity=".5"/><path fill="#263238" d="M110.783 202.987a9.608 9.608 0 0 1-1.269-1.375 37.635 37.635 0 0 1-3.078-4.077 17.258 17.258 0 0 1-2.832-7.049 12.424 12.424 0 0 1 .247-4.534 26.98 26.98 0 0 1 1.61-4.559 81.33 81.33 0 0 1 8.517-14.556l2.937-4.147a11.21 11.21 0 0 1 1.175-1.492 10.146 10.146 0 0 1-.94 1.621c-.634 1.022-1.598 2.467-2.784 4.265a91.815 91.815 0 0 0-8.224 14.544 26.335 26.335 0 0 0-1.586 4.453 12.103 12.103 0 0 0-.282 4.323 17.62 17.62 0 0 0 2.643 6.896 50.67 50.67 0 0 0 2.89 4.171c.364.479.69.986.976 1.516ZM178.594 177.528a14.111 14.111 0 0 1-.071-1.95 23.972 23.972 0 0 0-.564-5.252 10.147 10.147 0 0 0-1.421-3.289 8.515 8.515 0 0 0-3.043-2.691 21.321 21.321 0 0 0-4.288-1.691l-4.794-1.492c-6.567-2.045-12.5-3.912-16.788-5.299l-5.075-1.68a11.882 11.882 0 0 1-1.833-.693c.646.108 1.282.265 1.903.47l5.134 1.48c4.312 1.281 10.28 3.102 16.847 5.134l4.794 1.492a22.714 22.714 0 0 1 4.382 1.774 8.956 8.956 0 0 1 3.183 2.902 10.343 10.343 0 0 1 1.422 3.466 21.73 21.73 0 0 1 .376 5.357c0 .634-.059 1.175-.094 1.457-.035.282-.07.517-.07.505Z"/><path fill="#FF725E" d="M25.361 44.103c-7.413-1.927-16.448-2.22-21.57 3.442-5.122 5.663-4.135 14.157-2.35 21.43a141.592 141.592 0 0 0 27.421 54.805l38.546-58.06c-13.182-8.74-26.704-17.634-42.047-21.617Z"/><path fill="#fff" d="M23.164 52.938c-4.5-1.598-10.338-2.174-13.287 1.586-2.667 3.407-1.351 8.365.34 12.359 5.992 14.098 14.204 29.594 25.952 39.38 5.698-11.748 12.336-22.322 20.63-30.85-9.586-8.647-21.464-18.164-33.635-22.475Z" opacity=".5"/><path fill="#263238" d="M44.146 92.06a7.142 7.142 0 0 1-1.116-1.105l-2.878-3.113c-2.526-2.726-5.874-6.297-9.563-10.256-3.689-3.96-7.049-7.672-9.399-10.386-1.175-1.363-2.114-2.467-2.737-3.254a7.332 7.332 0 0 1-.928-1.257c.407.322.777.689 1.104 1.092l2.879 3.125 9.563 10.257c3.747 4.006 7.049 7.671 9.398 10.385a116.953 116.953 0 0 1 2.738 3.254c.352.388.667.81.94 1.257Z"/><path fill="#FF725E" d="M177.489 15.567c-3.078-6.838-7.683-14.18-15.085-15.402-7.401-1.222-14.438 4.558-19.055 10.62-9.575 12.63-14.697 27.984-19.655 43.034l62.783 21.229c-1.716-21.652-.541-40.708-8.988-59.481Z"/><path fill="#fff" d="M150.527 16.4c2.549-4.04 6.779-8.106 11.419-6.978 4.206 1.022 6.239 5.733 7.378 9.904 4.006 14.756 7.131 31.415 3.971 46.37-9.951-5.874-21.57-10.08-34.07-13.487 2.115-12.723 4.417-24.882 11.302-35.808Z" opacity=".5"/><path fill="#263238" d="M158.386 58.518a6.879 6.879 0 0 1-.058-1.503c0-.964 0-2.35.129-4.077.153-3.442.493-8.224.94-13.44.446-5.216.822-9.845 1.116-13.405.129-1.621.235-2.984.317-4.065a7.89 7.89 0 0 1 .188-1.492c.055.5.055 1.004 0 1.504 0 .963 0 2.35-.129 4.077-.153 3.454-.494 8.223-.94 13.44-.447 5.216-.822 9.845-1.116 13.404-.129 1.622-.235 2.985-.317 4.065.011.5-.032 1.001-.13 1.492ZM214.578 207.592c-.212.46-.472.897-.775 1.304a26.638 26.638 0 0 1-2.82 3.336c-1.304 1.363-2.984 2.961-5.016 4.7a122.912 122.912 0 0 1-3.302 2.772l-3.688 3.102a113.68 113.68 0 0 1-19.867 13.005 119.726 119.726 0 0 1-27.279 10.045 132.575 132.575 0 0 1-28.877 3.454 136.479 136.479 0 0 1-23.685-1.868 115.074 115.074 0 0 1-15.578-3.76c-1.786-.599-3.184-1.069-4.1-1.445l-1.057-.423-.353-.152c.128.018.254.05.376.094l1.07.364c.939.341 2.349.775 4.134 1.339a123.56 123.56 0 0 0 15.579 3.525c7.803 1.248 15.699 1.83 23.602 1.738a134.413 134.413 0 0 0 28.748-3.524 121.13 121.13 0 0 0 27.162-9.939 116.962 116.962 0 0 0 19.854-12.841l7.049-5.804c2.044-1.738 3.748-3.301 5.076-4.628a31.98 31.98 0 0 0 2.89-3.243c.587-.705.834-1.175.857-1.151Z"/><path fill="#fff" d="M147.731 182.545a18.872 18.872 0 0 0-16.448 8.223 2.345 2.345 0 0 0-.517 2.092 1.684 1.684 0 0 0 1.704.904 4.856 4.856 0 0 0 1.926-.681l12.383-6.45a4.39 4.39 0 0 0 2.044-1.68c.411-.799.094-2.021-.787-2.185" opacity=".5"/><path fill="#263238" d="M177.83 68.352a9.578 9.578 0 0 1-1.61-.835 111.408 111.408 0 0 0-4.3-2.35 140.558 140.558 0 0 0-30.005-12.041 317.632 317.632 0 0 0-4.699-1.257 9.137 9.137 0 0 1-1.739-.505c.602.041 1.199.132 1.786.27 1.175.211 2.796.564 4.817 1.069a119.35 119.35 0 0 1 30.052 12.124c1.809 1.034 3.242 1.915 4.217 2.561.52.279 1.016.601 1.481.964ZM162.827 218.905a7.591 7.591 0 0 1-1.774 1.575 37.83 37.83 0 0 1-4.805 3.089 39.216 39.216 0 0 1-5.204 2.35 8.248 8.248 0 0 1-2.291.623c-.059-.176 3.325-1.387 7.202-3.525s6.755-4.288 6.872-4.112ZM61.393 71.7a10.066 10.066 0 0 1-1.304 1.445 140.42 140.42 0 0 0-3.63 3.888 124.455 124.455 0 0 0-19.585 28.842 179.634 179.634 0 0 0-2.279 4.794 11.51 11.51 0 0 1-.858 1.75c.165-.628.381-1.241.647-1.833.446-1.174 1.175-2.854 2.103-4.899A109.263 109.263 0 0 1 56.14 76.74c1.551-1.633 2.843-2.914 3.772-3.76.46-.463.955-.89 1.48-1.28ZM306.215 365.711s-.235 0-.682-.152l-1.973-.529c-1.716-.482-4.23-1.175-7.39-2.35a152.954 152.954 0 0 1-25.329-11.372l.305-.411a114.102 114.102 0 0 1 16.6 20.559l.564.917-.951-.494a92.565 92.565 0 0 1-16.448-10.679 94.68 94.68 0 0 1-13.252-13.123l.505-.317 9.164 21.746.364.869-.763-.54a81.987 81.987 0 0 1-21.077-21.875 64.514 64.514 0 0 1-5.533-10.162l.105.164c.071.141.153.306.271.517l1.033 1.985a90.724 90.724 0 0 0 4.383 7.32 82.943 82.943 0 0 0 21.088 21.675l-.4.317c-2.808-6.614-5.874-13.921-9.21-21.722l-.799-1.88 1.304 1.574a93.437 93.437 0 0 0 29.535 23.661l-.388.423a115.522 115.522 0 0 0-16.447-20.512l-1.387-1.363 1.692.963a161.265 161.265 0 0 0 25.165 11.549c3.148 1.116 5.639 1.903 7.343 2.444l1.938.599.67.199Z"/><path fill="#FF725E" d="M216.188 195.973c-.952 8.224-3.525 19.561-3.924 27.749l4.593-6.99c1.375 21.358 4.7 47.757 7.743 68.939"/><path fill="#263238" d="M224.647 285.694a.766.766 0 0 1-.071-.27c0-.211-.094-.47-.141-.787-.129-.74-.294-1.762-.493-3.043a706.217 706.217 0 0 1-1.633-11.219c-1.304-9.481-2.996-22.604-4.382-37.148a551.564 551.564 0 0 1-1.316-16.448l.54.141c-1.621 2.432-3.16 4.77-4.617 6.978l-.552.823.059-.987c.251-3.817.71-7.617 1.374-11.384.588-3.348 1.105-6.285 1.527-8.729.423-2.444.752-4.323.952-5.627.094-.611.176-1.105.235-1.492a3.25 3.25 0 0 1 .106-.506c.028.171.028.346 0 .517 0 .341-.071.846-.153 1.504-.141 1.316-.411 3.231-.799 5.663-.388 2.432-.857 5.38-1.398 8.74a107.338 107.338 0 0 0-1.28 11.337l-.494-.164 4.57-6.99.482-.729.059.87c.34 5.145.799 10.679 1.339 16.447 1.386 14.533 3.007 27.656 4.206 37.148.599 4.7 1.081 8.541 1.433 11.243.153 1.293.282 2.35.376 3.067l.082.799a1.19 1.19 0 0 1-.011.246Z"/><path fill="#000" d="M240.859 338.456c-3.36-8.588-4.699-16.777-8.083-25.377 1.116 16.389 8.576 31.603 16.342 46.077a70.26 70.26 0 0 0 8.823 13.651c3.595 4.065 8.224 7.39 13.604 8.424a3.904 3.904 0 0 0 2.879-.27c1.703-1.116 1.022-3.748 0-5.522s-2.89-9.105-2.89-9.105c8.693 6.086 21.147 13.358 31.661 14.462a3790.259 3790.259 0 0 1-8.364-13.44 24.98 24.98 0 0 0 20.042 1.363c-13.334-5.157-29.194-11.043-42.517-16.201a100.953 100.953 0 0 1 15.12 19.138c-10.197-4.699-22.979-13.287-29.629-23.743 3.912 8.741 8.059 18.198 8.893 21.769-12.182-9.398-21.029-18.221-26.433-32.589" opacity=".3"/><path fill="#FF725E" d="M205.673 138.5a90.594 90.594 0 0 0 2.162 19.632c6.884 30.921 18.856 124.531 19.831 125.706 1.175 1.41 76.164 3.912 76.164 3.912l-12.265-15.731 10.761 3.525s-1.974-3.043-10.761-10.867c-11.749-10.456-28.372-138.23-28.372-138.23 2.138-17.446 4.276-34.94 4.111-52.503-.164-17.564-2.713-35.245-9.633-51.54a47.513 47.513 0 0 0-8.894-14.474c-3.959-4.147-8.775-3.97-14.344-5.745-9.986-3.172-16.365 1.387-21.499 7.167-3.525 3.935-3.783 8.553-5.875 13.358a14.453 14.453 0 0 0-4.852 6.849c-3.031 8.047-5.427 16.447-5.768 24.988-.341 8.541 1.668 17.435 7.049 24.237l-5.111-2.82 9.317 10.221-2.35 4.477a14.291 14.291 0 0 0-1.656 8.587l3.853-4.088c-2.35 4.899-2.631 9.598-3.419 17a104.994 104.994 0 0 0-.599 9.974l-.164 11.596 2.244-1.88.07 6.649Z"/><path fill="#fff" d="M234.632 148.592c7.825-.176 16.213 3.266 20.818 9.399 2.515 3.36 3.36 7.589 4.148 11.677 3.759 19.691 7.522 39.377 11.29 59.059 3.759 19.69 7.518 39.404 10.009 59.282 1.245 9.903 2.068 20.406-2.35 29.441-1.68 3.454-4.358 6.767-8.141 7.836-4.194 1.175-8.8-.74-11.842-3.783-3.043-3.043-4.829-7.049-6.474-10.961a440.016 440.016 0 0 1-19.972-61.162c-8.423-33-7.765-50.024-11.066-83.859.093.012-.353-16.623 13.58-16.929Z" opacity=".5"/><path fill="#263238" d="M227.936 10.15c-2.22-2.02-5.945-1.82-8.435-.117a12.417 12.417 0 0 0-4.605 7.425 14.097 14.097 0 0 0-.118 7.049 8.742 8.742 0 0 0 4.312 5.569 6.624 6.624 0 0 0 6.955-.482c1.738-1.386 2.455-3.63 2.925-5.768.916-4.183 2.209-10.915-1.034-13.734M208.411 30.886c-.376 0-5.064.823-6.756 6.92-1.691 6.097-2.42 13.722 2.409 14.31 4.828.587 9.175.34 9.774-5.98.599-6.321-1.562-15.379-5.427-15.25ZM242.821 12.348c-.282 0-4.781-.905-6.837 3.113s-4.993 10.996-2.714 15.425c2.279 4.43 7.624 9.563 11.83 3.407 4.206-6.156 4.841-12.606 3.995-15.79-.846-3.183-6.274-6.155-6.274-6.155ZM254.757 40.156c-.611.094-11.842 5.874-13.827 11.372-1.986 5.498-.541 6.438 3.924 9.258a9.304 9.304 0 0 0 12.793-2.82c3.02-4.218 4.711-19.103-2.89-17.81Z"/><path fill="#fff" d="M236.16 74.39c-.834-1.527-2.526-2.15-4.077-2.655l-9.868-3.219c-1.974-.646-4.335-1.175-5.875.317l-2.349.646a55.002 55.002 0 0 0 1.468 10.868 16.861 16.861 0 0 0 5.44 8.952 8.32 8.32 0 0 0 9.398.88c3.043-1.89 4.465-5.873 5.663-9.492.576-2.044 1.222-4.429.2-6.297Z" opacity=".5"/><path fill="#263238" d="M224.071 50.553c-1.927 2.408-5.122 3.419-8.106 4.406-2.984.986-6.145 2.22-7.766 4.84a9.298 9.298 0 0 0-.458 7.789 8.026 8.026 0 0 0 3.348 4.558c3.113 1.786 7.131.306 10.679.999 5.146 1.01 8.424 6.38 13.546 7.554 4.394 1.01 9.093-1.574 11.419-5.346a8.235 8.235 0 0 0 1.234-6.496c-.834-2.808-3.525-4.606-6.18-6.039-2.655-1.433-5.451-2.913-6.814-5.51a24.848 24.848 0 0 1-1.398-4.605 5.967 5.967 0 0 0-2.737-3.854c-2.185-1.069-4.852.177-6.579 1.857"/><path fill="#000" d="M238.439 133.178a141.247 141.247 0 0 0-6.45-7.049l-10.268 5.663a19.376 19.376 0 0 0 6.004 6.955 10.802 10.802 0 0 0 8.952 1.574c1.786-.552 3.524-1.985 3.466-3.794a5.568 5.568 0 0 0-1.704-3.349Z" opacity=".3"/><path fill="#263238" d="M231.167 125.848a7.617 7.617 0 0 0-6.638.446 5.665 5.665 0 0 0-2.714 5.733 7.438 7.438 0 0 0 3.337 4.441 13.697 13.697 0 0 0 10.42 1.985c1.857-.399 3.83-1.456 4.148-3.266a6.874 6.874 0 0 0-1.445-4.229 16.93 16.93 0 0 0-7.108-5.11ZM236.97 117.083s-.152-.082-.387-.282c-.235-.199-.611-.493-1.046-.904a38.264 38.264 0 0 1-3.524-3.701 42.874 42.874 0 0 1-7.942-14.72l.599-.083c0 1.633-.082 3.231-.129 4.77 0 .775 0 1.527-.071 2.267v1.105c.017.401-.051.801-.199 1.175a1.4 1.4 0 0 1-.388.54.92.92 0 0 1-.717.165 1.541 1.541 0 0 1-.543-.286 1.538 1.538 0 0 1-.385-.478 36.055 36.055 0 0 1-1.01-1.704 22.617 22.617 0 0 1-1.41-3.242 20.72 20.72 0 0 1-1.034-5.005 12.822 12.822 0 0 1 0-1.386 1.442 1.442 0 0 1 0-.482 28.51 28.51 0 0 0 1.445 6.72 23.156 23.156 0 0 0 1.445 3.16c.306.541.646 1.081 1.011 1.645.364.564.845.74 1.069.141a7.441 7.441 0 0 0 .176-2.056v-2.267c0-1.551.07-3.149.117-4.782v-1.88l.553 1.798a44.91 44.91 0 0 0 7.695 14.638 54.335 54.335 0 0 0 3.313 3.807c.487.407.943.851 1.362 1.327ZM237.957 44.679a11.905 11.905 0 0 1-1.421-1.75l-3.607-4.876.435-.13c0 1.716-.083 3.63-.13 5.675v.717l-.481-.53a13.395 13.395 0 0 1-2.82-4.898h.564c-.376.858-.775 1.75-1.175 2.667l-1.081 2.408-.199.447-.306-.376a5.88 5.88 0 0 1-.904-5.875l.434.33a34.86 34.86 0 0 1-6.273 3.9l-.541.27.247-.54a13.874 13.874 0 0 1 2.773-4.018c.306-.318.636-.613.987-.881.235-.188.364-.27.387-.259.024.012-.458.458-1.175 1.304a14.771 14.771 0 0 0-2.549 4.018l-.294-.27a38.562 38.562 0 0 0 6.109-3.971l.846-.67-.399.999a5.322 5.322 0 0 0 .834 5.252l-.505.07 1.069-2.408 1.175-2.667.329-.729.235.752a13.194 13.194 0 0 0 2.666 4.7l-.493.176c.082-2.056.153-3.96.223-5.675v-.716l.4.575 3.442 5.005c.446.629.846 1.288 1.198 1.974Z"/><path fill="#E0E0E0" d="M227.654 3.43a2.045 2.045 0 0 0-2.42 0 2.82 2.82 0 0 0-1.339 1.857 1.086 1.086 0 0 0 .305 1.069 1.968 1.968 0 0 0 1.492.423 2.748 2.748 0 0 0 2.115-1.08 1.738 1.738 0 0 0-.153-2.268ZM246.381 9.493a4.585 4.585 0 0 0-1.88-2.232.819.819 0 0 0-.67-.153c-.187.07-.61.211-.716.376a1.973 1.973 0 0 0-.27 1.633 2.75 2.75 0 0 0 2.819 1.692 1.06 1.06 0 0 0 .729-.353 1.004 1.004 0 0 0-.012-.963Z"/><path fill="#000" d="M217.692 225.567a115.972 115.972 0 0 0 6.966 56.603c-1.351-19.491-4.699-37.794-6.344-57.825M235.42 116.073a66.556 66.556 0 0 1-11.008-17.998 27.35 27.35 0 0 1-.388 7.436c-.071.505 0 1.539-.529 1.633-.528.094-1.175-.787-1.398-1.175a21.364 21.364 0 0 1-3.395-9.292l-.247 1.08a13.84 13.84 0 0 0 3.395 11.055 2.93 2.93 0 0 0 2.233 1.175 2.154 2.154 0 0 0 1.75-1.609 6.054 6.054 0 0 0 0-2.479 16.091 16.091 0 0 0 9.587 10.174Z" opacity=".3"/><path fill="#263238" d="M253.524 217.872a2.79 2.79 0 0 1-.517-.4c-.317-.27-.811-.67-1.386-1.233a50.012 50.012 0 0 1-4.7-5.052 54.397 54.397 0 0 1-10.432-20.477l.599-.106c.082.998.164 2.068.258 3.137.313 4.618.383 9.249.212 13.874v.834l-.47-.681a45.502 45.502 0 0 1-6.802-14.157 39.04 39.04 0 0 1-.964-4.382c-.082-.517-.117-.916-.152-1.174a2.026 2.026 0 0 1 0-.412c.157.512.279 1.034.364 1.563a48.992 48.992 0 0 0 1.104 4.323 47.667 47.667 0 0 0 6.838 13.922l-.517.153c.129-4.242.07-8.917-.259-13.805a177.646 177.646 0 0 1-.246-3.125l.587-.105a56.022 56.022 0 0 0 10.174 20.371 57.536 57.536 0 0 0 4.535 5.146c.552.587 1.022 1.01 1.316 1.316.167.142.32.299.458.47ZM303.007 312.233c.139.499.226 1.011.259 1.528.129.998.235 2.432.317 4.206a75.196 75.196 0 0 1-3.983 27.432c-.575 1.68-1.104 3.031-1.504 3.935-.174.49-.402.959-.681 1.398a8.073 8.073 0 0 1 .458-1.48c.329-.94.787-2.349 1.316-3.994a88.464 88.464 0 0 0 3.078-13.475c.652-4.572.951-9.187.893-13.805 0-1.762-.082-3.207-.141-4.194a8.37 8.37 0 0 1-.012-1.551Z"/></svg>